<svg width="291" height="70" viewBox="0 0 291 70" fill="none" xmlns="http://www.w3.org/2000/svg">
<path d="M54.8881 25.2368V14.6118H22.148L14.7266 22.1222V32.7355L22.148 40.2459H35.028L27.6066 32.7355V25.2368H54.8881Z" fill="#002145"/>
<path d="M14.7266 44.6302V55.2552H47.4667L54.8881 47.7448V37.1198L47.4667 29.6094H34.5867L42.0081 37.1198V44.6302H14.7266Z" fill="#002145"/>
<path d="M23.5875 0.754883C17.5964 0.754883 11.8507 3.16337 7.61433 7.45051C3.378 11.7376 0.998047 17.5522 0.998047 23.6151V69.1124H45.9446C48.9121 69.114 51.8507 68.5238 54.5928 67.3756C57.3348 66.2275 59.8264 64.5439 61.9252 62.4209C64.0241 60.298 65.689 57.7774 66.825 55.0031C67.9609 52.2288 68.5456 49.2552 68.5456 46.2521V0.754883H23.5875ZM59.7073 46.2521C59.7042 49.945 58.2532 53.4858 55.6729 56.0971C53.0926 58.7083 49.5937 60.1767 45.9446 60.1799H9.8596V23.6151C9.86265 19.9283 11.3088 16.3929 13.8817 13.7826C16.4545 11.1724 19.9444 9.69987 23.5875 9.68744H59.7073V46.2521Z" fill="#1B5FBA"/>
<path d="M79.8115 24.4495V20.4063H87.6162V23.0978C87.6162 23.6855 87.7788 23.8501 88.3595 23.8501H93.7136C94.2943 23.8501 94.4685 23.6855 94.4685 23.0978V20.5356C94.4685 20.0772 94.2594 19.948 93.5974 19.7834L85.8741 17.6796C81.8091 16.5042 79.8928 15.8343 79.8928 11.6383V6.51387C79.8928 2.64702 81.7162 0.801758 85.5373 0.801758H96.1293C99.9504 0.801758 101.774 2.64702 101.774 6.51387V10.2514H93.9691V7.90076C93.9691 7.31309 93.8065 7.14856 93.2258 7.14856H88.4408C87.8601 7.14856 87.6975 7.31309 87.6975 7.90076V10.1691C87.6975 10.6275 87.8252 10.7568 88.5685 10.9684L96.2919 12.9782C100.357 14.0713 102.273 14.8235 102.273 19.0195V24.4495C102.273 28.3046 100.438 30.1616 96.6287 30.1616H85.456C81.6582 30.1616 79.8115 28.2576 79.8115 24.4495Z" fill="#002145"/>
<path d="M288.216 32.5356V33.5699H82.1237V32.5356H79.8125V40.5867H82.1237V39.5524H288.216V40.5867H290.539V32.5356H288.216Z" fill="#1B5FBA"/>
<path d="M106.129 24.4497V6.467C106.129 2.60014 107.952 0.754883 111.773 0.754883H123.387C127.197 0.754883 129.032 2.60014 129.032 6.467V24.4497C129.032 28.3048 127.197 30.1618 123.387 30.1618H111.773C107.952 30.1618 106.129 28.2577 106.129 24.4497ZM120.53 23.6034C121.111 23.6034 121.285 23.4389 121.285 22.8512V8.06547C121.285 7.47781 121.111 7.30151 120.53 7.30151H114.723C114.143 7.30151 113.98 7.47781 113.98 8.06547V22.8512C113.98 23.4389 114.143 23.6034 114.723 23.6034H120.53Z" fill="#002145"/>
<path d="M133.654 24.4497V0.754883H141.459V22.5926C141.444 22.6955 141.452 22.8006 141.484 22.8995C141.516 22.9985 141.57 23.0886 141.642 23.1627C141.714 23.2369 141.802 23.293 141.899 23.3266C141.997 23.3603 142.1 23.3705 142.202 23.3566H147.603C147.705 23.3705 147.808 23.3603 147.906 23.3266C148.003 23.293 148.091 23.2369 148.163 23.1627C148.235 23.0886 148.289 22.9985 148.321 22.8995C148.353 22.8006 148.361 22.6955 148.346 22.5926V0.754883H156.151V24.4497C156.151 28.1402 154.165 30.1618 150.506 30.1618H139.299C135.652 30.1618 133.654 28.1402 133.654 24.4497Z" fill="#002145"/>
<path d="M166.568 7.47781H159.31V0.754883H181.643V7.47781H174.373V30.1618H166.568V7.47781Z" fill="#002145"/>
<path d="M184.919 0.754883H192.724V11.803H201.074V0.754883H208.879V30.1383H201.074V18.4554H192.724V30.1383H184.919V0.754883Z" fill="#002145"/>
<path d="M213.942 0.754883H234.36V7.30151H221.747V11.8853H231.747V18.3497H221.747V23.5564H234.36V30.1147H213.942V0.754883Z" fill="#002145"/>
<path d="M262.351 30.1617H254.453L249.517 20.3242H246.323V30.1617H238.519V0.77832H255.533C259.354 0.77832 261.178 2.62362 261.178 6.49047V14.1536C261.178 17.3858 259.9 19.1958 257.24 19.7483L262.351 30.1617ZM252.63 14.1536C253.21 14.1536 253.373 13.9891 253.373 13.4014V7.93611C253.373 7.34844 253.21 7.18391 252.63 7.18391H246.323V14.1536H252.63Z" fill="#002145"/>
<path d="M265.708 0.754883H273.466L282.978 16.3751V0.754883H290.539V30.1383H283.57L273.292 13.3075V30.1618H265.731L265.708 0.754883Z" fill="#002145"/>
<path d="M79.8115 64.0468V60.462H86.78V62.8127C86.78 63.3298 86.931 63.4826 87.442 63.4826H92.1108C92.6219 63.4826 92.7728 63.3298 92.7728 62.8127V60.5795C92.7728 60.1682 92.587 60.0506 91.9947 59.8979L85.1424 58.0055C81.5304 56.9948 79.8347 56.3601 79.8347 52.6343V48.0857C79.8347 44.6537 81.4607 43.02 84.852 43.02H94.2478C97.6275 43.02 99.2535 44.6537 99.2535 48.0857V51.4002H92.285V49.2846C92.285 48.7557 92.1341 48.6029 91.623 48.6029H87.4652C86.9426 48.6029 86.8032 48.7557 86.8032 49.2846V51.2944C86.8032 51.7058 86.9077 51.8115 87.5697 51.9996L94.422 53.8684C98.034 54.8322 99.7297 55.5021 99.7297 59.2279V64.0468C99.7297 67.467 98.1037 69.1125 94.724 69.1125H84.8056C81.4375 69.1125 79.8115 67.467 79.8115 64.0468Z" fill="#002145"/>
<path d="M103.505 43.02H110.473V69.1125H103.505V43.02Z" fill="#002145"/>
<path d="M119.787 48.979H113.341V43.02H133.154V48.979H126.709V69.1125H119.74L119.787 48.979Z" fill="#002145"/>
<path d="M136.07 43.02H154.188V48.8262H142.992V52.9399H151.865V58.6873H142.992V63.3886H154.188V69.2065H136.07V43.02Z" fill="#002145"/>
<path d="M163.734 43.02H170.703L173.502 60.6501L177.625 43.02H184.152L188.275 60.6501L191.074 43.02H197.74L191.771 69.1125H184.628L180.865 52.9399L177.102 69.1242H169.692L163.734 43.02Z" fill="#002145"/>
<path d="M199.32 64.0468V48.0857C199.32 44.6537 200.935 43.02 204.326 43.02H214.674C218.065 43.02 219.691 44.6537 219.691 48.0857V64.0468C219.691 67.467 218.065 69.1125 214.674 69.1125H204.326C200.935 69.1125 199.32 67.467 199.32 64.0468ZM212.096 63.2946C212.618 63.2946 212.758 63.1418 212.758 62.6246V49.5079C212.758 48.979 212.618 48.8262 212.096 48.8262H206.904C206.393 48.8262 206.242 48.979 206.242 49.5079V62.6246C206.242 63.1418 206.393 63.2946 206.904 63.2946H212.096Z" fill="#002145"/>
<path d="M244.999 69.1125H238.03L233.652 60.3915H230.783V69.1125H223.814V43.02H238.913C242.304 43.02 243.918 44.6537 243.918 48.0857V54.8674C243.918 57.747 242.757 59.3454 240.434 59.8273L244.999 69.1125ZM236.381 54.8674C236.892 54.8674 237.043 54.7264 237.043 54.1975V49.4138C237.043 48.8849 236.892 48.7439 236.381 48.7439H230.783V54.9262L236.381 54.8674Z" fill="#002145"/>
<path d="M262.839 69.1125L258.46 58.8988L254.744 64.1173V69.1125H247.961V43.02H254.744V54.9027L262.211 43.02H269.807L262.722 52.9399L270.155 69.0772L262.839 69.1125Z" fill="#002145"/>
<path d="M271.049 64.0468V60.462H278.017V62.8127C278.017 63.3298 278.168 63.4826 278.679 63.4826H283.429C283.952 63.4826 284.091 63.3298 284.091 62.8127V60.5795C284.091 60.1682 283.906 60.0506 283.325 59.8979L276.473 58.0055C272.861 56.9948 271.165 56.3601 271.165 52.6343V48.0857C271.165 44.6537 272.791 43.02 276.171 43.02H285.566C288.958 43.02 290.584 44.6537 290.584 48.0857V51.4002H283.615V49.2846C283.615 48.7557 283.476 48.6029 282.953 48.6029H278.714C278.203 48.6029 278.052 48.7557 278.052 49.2846V51.2944C278.052 51.7058 278.168 51.8115 278.83 51.9996L285.683 53.8684C289.295 54.8322 290.99 55.5021 290.99 59.2279V64.0468C290.99 67.467 289.364 69.1125 285.973 69.1125H276.066C272.663 69.1125 271.049 67.467 271.049 64.0468Z" fill="#002145"/>
</svg>
