<svg width="140" height="140" viewBox="0 0 140 140" fill="none" xmlns="http://www.w3.org/2000/svg">
<path d="M70 140C51.3026 140 33.7236 132.719 20.5025 119.498C7.28134 106.276 0 88.6974 0 70C0 51.3026 7.28134 33.7236 20.5025 20.5025C33.7236 7.28134 51.3026 0 70 0C88.6974 0 106.276 7.28134 119.498 20.5025C132.719 33.7236 140 51.3026 140 70C140 88.6974 132.719 106.276 119.498 119.498C106.276 132.719 88.6974 140 70 140ZM70 5.46875C52.7628 5.46875 36.5573 12.1808 24.369 24.369C12.1808 36.5573 5.46875 52.7628 5.46875 70C5.46875 87.2372 12.1808 103.443 24.369 115.631C36.5573 127.819 52.7628 134.531 70 134.531C87.2372 134.531 103.443 127.819 115.631 115.631C127.819 103.443 134.531 87.2372 134.531 70C134.531 52.7628 127.819 36.5573 115.631 24.369C103.443 12.1808 87.2372 5.46875 70 5.46875Z" fill="#1B5FBA"/>
<path d="M81.0208 125.177C79.753 125.177 78.6165 124.291 78.3463 123.002C78.0376 121.524 78.985 120.075 80.4633 119.766C91.7201 117.413 101.965 111.193 109.312 102.253C116.759 93.1931 120.859 81.7332 120.859 69.9829C120.859 41.9395 98.0444 19.1235 70 19.1235C41.9556 19.1235 19.1406 41.9395 19.1406 69.9829C19.1406 81.7172 23.2315 93.1664 30.6613 102.221C37.9907 111.153 48.2147 117.378 59.4513 119.747C60.9285 120.059 61.8738 121.51 61.563 122.987C61.2511 124.465 59.8016 125.41 58.3234 125.099C45.8745 122.473 34.5482 115.581 26.4326 105.69C18.2039 95.6604 13.6719 82.9797 13.6719 69.9829C13.6719 38.9232 38.9403 13.6548 70 13.6548C101.06 13.6548 126.328 38.9232 126.328 69.9829C126.328 82.9958 121.785 95.6892 113.537 105.725C105.403 115.625 94.054 122.512 81.5826 125.119C81.3947 125.159 81.2056 125.177 81.0208 125.177Z" fill="#1B5FBA"/>
<path d="M70.005 126.345C68.4947 126.345 67.2695 125.121 67.2695 123.611C67.2695 122.101 68.4925 120.876 70.0028 120.876H70.005C71.5153 120.876 72.7393 122.101 72.7393 123.611C72.7393 125.121 71.5153 126.345 70.005 126.345Z" fill="#1B5FBA"/>
<path d="M102.813 70C99.5709 70 96.3099 70.11 93.0703 70C87.9359 69.8248 89.474 64.8057 87.9348 61.0716C83.3825 50.0241 67.4761 47.9786 58.5371 54.6704C60.2899 56.4231 67.9515 62.223 63.004 64.4767C60.621 65.563 56.403 64.669 53.9036 64.6604C49.6269 64.6455 45.3138 64.7982 41.0403 64.6167C37.5956 64.4703 37.1983 62.4847 37.1983 59.4993C37.1983 55.0613 37.1972 50.6233 37.1972 46.1853C37.1961 43.8301 36.0704 37.1864 39.9369 37.1949C41.8734 37.2003 43.6753 39.8075 44.9015 41.0337C45.2828 41.4161 46.3008 42.8239 46.8006 42.9328C47.4404 43.0728 49.9986 40.5958 50.8103 40.0735C58.4207 35.1837 67.537 33.5858 76.428 34.938C85.1705 36.2667 93.5371 40.5809 99.0048 47.6379C101.084 50.3231 110.643 70 102.813 70ZM94.4525 64.5312H99.9554C98.6747 50.5133 86.7172 41.2324 73.2301 40.066C66.4006 39.4743 59.5646 40.9504 53.7701 44.6717C51.8603 45.899 49.1024 49.5327 46.7985 49.5338C45.1098 49.5338 43.7565 47.624 42.666 46.5324V52.8428C42.666 53.5542 42.0785 58.6598 42.667 59.1532C43.4457 59.8059 47.6765 59.1703 48.6186 59.1735C50.8552 59.181 53.0918 59.1885 55.3295 59.196C54.4633 58.3297 53.2873 57.4731 52.5984 56.4648C50.601 53.5446 53.4892 51.5419 55.7493 49.9343C60.8934 46.275 67.1354 44.9206 73.37 45.5583C83.8824 46.6349 93.175 53.5894 94.4525 64.5312Z" fill="#1B5FBA"/>
<path d="M70 105.547C57.8331 105.547 45.5081 100.155 39.0353 89.5133C36.4601 85.2793 33.3786 77.8783 34.4531 72.7343C35.2072 69.1262 39.0546 69.9999 41.9128 69.9999C44.0298 69.9999 48.8097 69.1358 50.3317 71.1193C51.3326 72.4234 50.9352 75.0467 51.3272 76.6564C51.8346 78.7445 52.7692 80.7312 54.084 82.4338C60.2844 90.465 73.6263 91.1956 81.463 85.3295C79.7679 83.6344 77.4597 81.9553 76.1139 79.9804C73.7331 76.4876 77.2301 75.3095 79.9751 75.3191C86.2877 75.3405 92.6526 75.1151 98.9588 75.3821C101.238 75.4793 102.533 76.1533 102.801 78.6313C103.09 81.307 102.802 84.1759 102.802 86.8644C102.803 90.3037 102.803 93.743 102.804 97.1823C102.804 99.498 102.916 104.04 99.0293 102.598C97.645 102.085 96.3579 100.224 95.3645 99.232C93.1653 97.0317 93.6257 96.7519 90.9885 98.6916C84.9408 103.137 77.5014 105.547 70 105.547ZM40.0447 75.4686C41.3254 89.4866 53.2829 98.7674 66.77 99.9338C73.6006 100.526 80.4355 99.0494 86.23 95.3281C88.1398 94.1008 90.8977 90.466 93.2016 90.466C94.8903 90.466 96.2436 92.3758 97.3341 93.4674C97.3341 91.3632 97.3341 89.2601 97.3341 87.157C97.3341 86.4457 97.9216 81.3401 97.3331 80.8466C96.5544 80.194 92.3236 80.8295 91.3815 80.8263C89.1449 80.8188 86.9083 80.8113 84.6706 80.8039C85.8006 81.9329 87.7799 83.3033 88.0982 84.9449C88.6514 87.7904 84.0767 90.3261 81.9885 91.4936C75.6194 95.0525 67.8478 95.4424 60.9413 93.2944C55.3561 91.5576 50.4321 87.9143 47.7138 82.6635C46.9896 81.2653 46.3039 76.1074 45.4195 75.4686C44.5404 74.8342 41.1801 75.4686 40.0447 75.4686Z" fill="#1B5FBA"/>
</svg>
