<svg width="48" height="48" viewBox="0 0 48 48" fill="none" xmlns="http://www.w3.org/2000/svg">
<path d="M42.8204 17.28C42.8204 17.28 42.8204 17.28 42.8204 17.18C41.4112 13.3325 38.8542 10.0106 35.4954 7.66373C32.1365 5.31689 28.1379 4.05835 24.0404 4.05835C19.9429 4.05835 15.9443 5.31689 12.5854 7.66373C9.22656 10.0106 6.66959 13.3325 5.26039 17.18C5.26039 17.18 5.26039 17.18 5.26039 17.28C3.68664 21.6218 3.68664 26.3782 5.26039 30.72C5.26039 30.72 5.26039 30.72 5.26039 30.82C6.66959 34.6676 9.22656 37.9894 12.5854 40.3363C15.9443 42.6831 19.9429 43.9417 24.0404 43.9417C28.1379 43.9417 32.1365 42.6831 35.4954 40.3363C38.8542 37.9894 41.4112 34.6676 42.8204 30.82C42.8204 30.82 42.8204 30.82 42.8204 30.72C44.3941 26.3782 44.3941 21.6218 42.8204 17.28ZM8.52039 28C7.82685 25.3784 7.82685 22.6216 8.52039 20H12.2404C11.9205 22.6571 11.9205 25.3429 12.2404 28H8.52039ZM10.1604 32H12.9604C13.4298 33.7837 14.1008 35.5081 14.9604 37.14C12.999 35.8039 11.3594 34.0481 10.1604 32ZM12.9604 16H10.1604C11.3421 13.9582 12.9608 12.2029 14.9004 10.86C14.0615 12.4945 13.4107 14.2188 12.9604 16ZM22.0004 39.4C19.5439 37.5974 17.8187 34.9705 17.1404 32H22.0004V39.4ZM22.0004 28H16.2804C15.9072 25.3464 15.9072 22.6536 16.2804 20H22.0004V28ZM22.0004 16H17.1404C17.8187 13.0295 19.5439 10.4026 22.0004 8.60001V16ZM37.8404 16H35.0404C34.571 14.2163 33.9 12.4919 33.0404 10.86C35.0018 12.1961 36.6414 13.9519 37.8404 16ZM26.0004 8.60001C28.4569 10.4026 30.1821 13.0295 30.8604 16H26.0004V8.60001ZM26.0004 39.4V32H30.8604C30.1821 34.9705 28.4569 37.5974 26.0004 39.4ZM31.7204 28H26.0004V20H31.7204C32.0936 22.6536 32.0936 25.3464 31.7204 28ZM33.1004 37.14C33.96 35.5081 34.631 33.7837 35.1004 32H37.9004C36.7014 34.0481 35.0618 35.8039 33.1004 37.14ZM39.4804 28H35.7604C35.923 26.6729 36.0032 25.337 36.0004 24C36.0026 22.663 35.9224 21.3271 35.7604 20H39.4804C40.1739 22.6216 40.1739 25.3784 39.4804 28Z" fill="#1B5FBA"/>
</svg>
