<svg width="48" height="48" viewBox="0 0 48 48" fill="none" xmlns="http://www.w3.org/2000/svg">
<path d="M24 42.0001C21.4739 39.8454 19.1324 37.4831 17 34.9381C13.8 31.1161 10 25.4241 10 20.0001C9.99717 14.3352 13.4085 9.22688 18.6421 7.0589C23.8758 4.89091 29.9001 6.09058 33.904 10.0981C36.5369 12.7193 38.0118 16.2849 38.0001 20.0001C38.0001 25.4241 34.2 31.1161 31 34.9381C28.8676 37.4831 26.5261 39.8454 24 42.0001ZM24 10.0001C18.4799 10.0067 14.0066 14.48 14 20.0001C14 22.3321 15.054 26.3701 20.07 32.3721C21.3063 33.8482 22.618 35.2594 24 36.6001C25.3821 35.261 26.6945 33.8518 27.932 32.3781C32.946 26.3681 34 22.3301 34 20.0001C33.9934 14.48 29.5201 10.0067 24 10.0001ZM24 26.0001C20.6863 26.0001 18 23.3138 18 20.0001C18 16.6864 20.6863 14.0001 24 14.0001C27.3137 14.0001 30 16.6864 30 20.0001C30 21.5914 29.3679 23.1175 28.2426 24.2427C27.1174 25.368 25.5913 26.0001 24 26.0001Z" fill="#002145"/>
</svg>
