<svg width="48" height="48" viewBox="0 0 48 48" fill="none" xmlns="http://www.w3.org/2000/svg">
<path d="M37.995 40C20.9317 40.0242 7.98176 26.919 8.00002 10.005C8.00002 8.90045 8.89545 8 10 8H15.2787C16.2699 8 17.1119 8.72826 17.2574 9.70866C17.6062 12.0584 18.2903 14.3459 19.289 16.5014L19.4945 16.945C19.7803 17.5618 19.5866 18.2947 19.0334 18.6897C17.3986 19.8572 16.7738 22.2071 18.0474 24.0407C19.6456 26.3417 21.6601 28.3558 23.9605 29.9532C25.794 31.2264 28.1436 30.6018 29.311 28.9673C29.7063 28.4138 30.4396 28.22 31.0568 28.5059L31.4984 28.7104C33.654 29.709 35.9417 30.3932 38.2917 30.7419C39.2721 30.8874 40 31.7294 40 32.7205V38C40 39.1045 39.1024 40 37.9978 40L37.995 40Z" fill="#002145"/>
</svg>
