<svg width="291" height="70" viewBox="0 0 291 70" fill="none" xmlns="http://www.w3.org/2000/svg">
<path d="M54.8881 25.2371V14.6121H22.148L14.7266 22.1224V32.7357L22.148 40.2461H35.028L27.6066 32.7357V25.2371H54.8881Z" fill="#002145"/>
<path d="M14.7266 44.63V55.2551H47.4667L54.8881 47.7447V37.1197L47.4667 29.6093H34.5867L42.0081 37.1197V44.63H14.7266Z" fill="#002145"/>
<path d="M23.5875 0.754639C17.5964 0.754639 11.8507 3.16313 7.61433 7.45026C3.378 11.7374 0.998047 17.552 0.998047 23.6149V69.1122H45.9446C48.9121 69.1137 51.8507 68.5235 54.5928 67.3754C57.3348 66.2272 59.8264 64.5436 61.9252 62.4207C64.0241 60.2978 65.689 57.7771 66.825 55.0028C67.9609 52.2285 68.5456 49.2549 68.5456 46.2519V0.754639H23.5875ZM59.7073 46.2519C59.7042 49.9448 58.2532 53.4855 55.6729 56.0968C53.0926 58.7081 49.5937 60.1765 45.9446 60.1796H9.8596V23.6149C9.86265 19.9281 11.3088 16.3927 13.8817 13.7824C16.4545 11.1721 19.9444 9.69963 23.5875 9.6872H59.7073V46.2519Z" fill="#1B5FBA"/>
<path d="M79.8115 24.4494V20.4062H87.6162V23.0977C87.6162 23.6854 87.7788 23.85 88.3595 23.85H93.7136C94.2943 23.85 94.4685 23.6854 94.4685 23.0977V20.5355C94.4685 20.0771 94.2594 19.9478 93.5974 19.7833L85.8741 17.6794C81.8091 16.5041 79.8928 15.8341 79.8928 11.6382V6.51375C79.8928 2.6469 81.7162 0.801636 85.5373 0.801636H96.1293C99.9503 0.801636 101.774 2.6469 101.774 6.51375V10.2513H93.9691V7.90064C93.9691 7.31297 93.8065 7.14844 93.2258 7.14844H88.4408C87.8601 7.14844 87.6975 7.31297 87.6975 7.90064V10.169C87.6975 10.6274 87.8252 10.7567 88.5685 10.9683L96.2919 12.9781C100.357 14.0712 102.273 14.8234 102.273 19.0193V24.4494C102.273 28.3045 100.438 30.1615 96.6287 30.1615H85.456C81.6582 30.1615 79.8115 28.2575 79.8115 24.4494Z" fill="#002145"/>
<path d="M288.216 32.5359V33.5702H82.1237V32.5359H79.8125V40.5869H82.1237V39.5526H288.216V40.5869H290.539V32.5359H288.216Z" fill="#1B5FBA"/>
<path d="M106.129 24.4494V6.46675C106.129 2.5999 107.952 0.754639 111.773 0.754639H123.387C127.197 0.754639 129.032 2.5999 129.032 6.46675V24.4494C129.032 28.3045 127.197 30.1615 123.387 30.1615H111.773C107.952 30.1615 106.129 28.2575 106.129 24.4494ZM120.53 23.6032C121.111 23.6032 121.285 23.4386 121.285 22.8509V8.06523C121.285 7.47756 121.111 7.30127 120.53 7.30127H114.723C114.143 7.30127 113.98 7.47756 113.98 8.06523V22.8509C113.98 23.4386 114.143 23.6032 114.723 23.6032H120.53Z" fill="#002145"/>
<path d="M133.654 24.4494V0.754639H141.459V22.5924C141.444 22.6952 141.452 22.8003 141.484 22.8993C141.516 22.9982 141.57 23.0884 141.642 23.1625C141.714 23.2366 141.802 23.2927 141.899 23.3264C141.997 23.36 142.1 23.3703 142.202 23.3563H147.603C147.705 23.3703 147.808 23.36 147.906 23.3264C148.003 23.2927 148.091 23.2366 148.163 23.1625C148.235 23.0884 148.289 22.9982 148.321 22.8993C148.353 22.8003 148.361 22.6952 148.346 22.5924V0.754639H156.151V24.4494C156.151 28.14 154.165 30.1615 150.506 30.1615H139.299C135.652 30.1615 133.654 28.14 133.654 24.4494Z" fill="#002145"/>
<path d="M166.568 7.47756H159.31V0.754639H181.643V7.47756H174.373V30.1615H166.568V7.47756Z" fill="#002145"/>
<path d="M184.919 0.754639H192.724V11.8028H201.074V0.754639H208.879V30.138H201.074V18.4552H192.724V30.138H184.919V0.754639Z" fill="#002145"/>
<path d="M213.942 0.754639H234.36V7.30127H221.747V11.8851H231.747V18.3494H221.747V23.5561H234.36V30.1145H213.942V0.754639Z" fill="#002145"/>
<path d="M262.351 30.1616H254.453L249.517 20.324H246.323V30.1616H238.519V0.778198H255.533C259.354 0.778198 261.178 2.62349 261.178 6.49035V14.1535C261.178 17.3857 259.9 19.1957 257.24 19.7481L262.351 30.1616ZM252.63 14.1535C253.21 14.1535 253.373 13.989 253.373 13.4013V7.93599C253.373 7.34832 253.21 7.18379 252.63 7.18379H246.323V14.1535H252.63Z" fill="#002145"/>
<path d="M265.708 0.754639H273.466L282.978 16.3749V0.754639H290.539V30.138H283.57L273.292 13.3072V30.1615H265.731L265.708 0.754639Z" fill="#002145"/>
<path d="M79.8115 64.0465V60.4617H86.78V62.8124C86.78 63.3296 86.931 63.4824 87.442 63.4824H92.1108C92.6219 63.4824 92.7728 63.3296 92.7728 62.8124V60.5793C92.7728 60.1679 92.587 60.0504 91.9947 59.8976L85.1424 58.0053C81.5304 56.9945 79.8347 56.3598 79.8347 52.634V48.0855C79.8347 44.6535 81.4607 43.0198 84.852 43.0198H94.2478C97.6275 43.0198 99.2535 44.6535 99.2535 48.0855V51.3999H92.2851V49.2843C92.2851 48.7554 92.1341 48.6026 91.623 48.6026H87.4652C86.9426 48.6026 86.8032 48.7554 86.8032 49.2843V51.2941C86.8032 51.7055 86.9077 51.8113 87.5697 51.9994L94.422 53.8681C98.034 54.8319 99.7297 55.5018 99.7297 59.2277V64.0465C99.7297 67.4668 98.1037 69.1122 94.724 69.1122H84.8056C81.4375 69.1122 79.8115 67.4668 79.8115 64.0465Z" fill="#002145"/>
<path d="M103.505 43.0198H110.473V69.1122H103.505V43.0198Z" fill="#002145"/>
<path d="M119.787 48.9787H113.341V43.0198H133.154V48.9787H126.709V69.1122H119.74L119.787 48.9787Z" fill="#002145"/>
<path d="M136.07 43.0198H154.188V48.8259H142.992V52.9396H151.865V58.687H142.992V63.3884H154.188V69.2063H136.07V43.0198Z" fill="#002145"/>
<path d="M163.734 43.0198H170.703L173.502 60.6498L177.625 43.0198H184.152L188.275 60.6498L191.074 43.0198H197.74L191.771 69.1122H184.628L180.865 52.9396L177.102 69.124H169.692L163.734 43.0198Z" fill="#002145"/>
<path d="M199.32 64.0465V48.0855C199.32 44.6535 200.935 43.0198 204.326 43.0198H214.674C218.065 43.0198 219.691 44.6535 219.691 48.0855V64.0465C219.691 67.4668 218.065 69.1122 214.674 69.1122H204.326C200.935 69.1122 199.32 67.4668 199.32 64.0465ZM212.096 63.2943C212.618 63.2943 212.758 63.1415 212.758 62.6244V49.5076C212.758 48.9787 212.618 48.8259 212.096 48.8259H206.904C206.393 48.8259 206.242 48.9787 206.242 49.5076V62.6244C206.242 63.1415 206.393 63.2943 206.904 63.2943H212.096Z" fill="#002145"/>
<path d="M244.999 69.1122H238.03L233.652 60.3912H230.783V69.1122H223.814V43.0198H238.913C242.304 43.0198 243.918 44.6535 243.918 48.0855V54.8672C243.918 57.7467 242.757 59.3452 240.434 59.8271L244.999 69.1122ZM236.381 54.8672C236.892 54.8672 237.043 54.7261 237.043 54.1972V49.4136C237.043 48.8847 236.892 48.7437 236.381 48.7437H230.783V54.9259L236.381 54.8672Z" fill="#002145"/>
<path d="M262.839 69.1122L258.46 58.8986L254.744 64.1171V69.1122H247.961V43.0198H254.744V54.9024L262.211 43.0198H269.807L262.722 52.9396L270.155 69.077L262.839 69.1122Z" fill="#002145"/>
<path d="M271.049 64.0465V60.4617H278.017V62.8124C278.017 63.3296 278.168 63.4824 278.679 63.4824H283.429C283.952 63.4824 284.091 63.3296 284.091 62.8124V60.5793C284.091 60.1679 283.906 60.0504 283.325 59.8976L276.473 58.0053C272.861 56.9945 271.165 56.3598 271.165 52.634V48.0855C271.165 44.6535 272.791 43.0198 276.171 43.0198H285.566C288.958 43.0198 290.584 44.6535 290.584 48.0855V51.3999H283.615V49.2843C283.615 48.7554 283.476 48.6026 282.953 48.6026H278.714C278.203 48.6026 278.052 48.7554 278.052 49.2843V51.2941C278.052 51.7055 278.168 51.8113 278.83 51.9994L285.683 53.8681C289.295 54.8319 290.99 55.5018 290.99 59.2277V64.0465C290.99 67.4668 289.364 69.1122 285.973 69.1122H276.066C272.663 69.1122 271.049 67.4668 271.049 64.0465Z" fill="#002145"/>
</svg>
