<svg width="333" height="63" viewBox="0 0 333 63" fill="none" xmlns="http://www.w3.org/2000/svg">
<path d="M0 26C0 11.6406 11.6406 0 26 0H273V37C273 51.3594 261.359 63 247 63H0V26Z" fill="#1B5FBA"/>
<path d="M50.96 38V24.24H54.44V35.04H59.9V38H50.96ZM71.3394 33.7H65.2394C65.2394 34.34 65.286 34.7867 65.3794 35.04C65.486 35.2933 65.706 35.46 66.0394 35.54C66.386 35.62 66.9994 35.66 67.8794 35.66C68.826 35.66 69.846 35.6067 70.9394 35.5V37.8C70.5127 37.9067 69.9394 37.9933 69.2194 38.06C68.5127 38.1267 67.8127 38.16 67.1194 38.16C65.5594 38.16 64.4194 37.9933 63.6994 37.66C62.9927 37.3133 62.5394 36.7933 62.3394 36.1C62.1394 35.4067 62.0394 34.3467 62.0394 32.92C62.0394 31.52 62.1394 30.4667 62.3394 29.76C62.5394 29.0533 62.9727 28.5267 63.6394 28.18C64.3194 27.82 65.3794 27.64 66.8194 27.64C68.2594 27.64 69.2927 27.8133 69.9194 28.16C70.5594 28.4933 70.9527 29 71.0994 29.68C71.2594 30.3467 71.3394 31.4267 71.3394 32.92V33.7ZM66.7994 29.98C66.3194 29.98 65.9727 30.0267 65.7594 30.12C65.546 30.2133 65.406 30.4 65.3394 30.68C65.2727 30.9467 65.2394 31.4 65.2394 32.04H68.3194C68.3194 31.4 68.2794 30.94 68.1994 30.66C68.1194 30.38 67.9794 30.2 67.7794 30.12C67.5794 30.0267 67.2527 29.98 66.7994 29.98ZM76.7531 38.16C75.7531 38.16 75.0131 37.92 74.5331 37.44C74.0531 36.96 73.8131 36.1733 73.8131 35.08C73.8131 34.28 73.9065 33.66 74.0931 33.22C74.2798 32.78 74.5998 32.46 75.0531 32.26C75.5198 32.06 76.1865 31.96 77.0531 31.96C77.7065 31.96 78.6465 31.9867 79.8731 32.04V31.68C79.8731 31.1733 79.8131 30.82 79.6931 30.62C79.5865 30.4067 79.3731 30.2733 79.0531 30.22C78.7465 30.1667 78.1931 30.14 77.3931 30.14C76.3931 30.14 75.3998 30.1933 74.4131 30.3V27.98C75.6665 27.7533 76.9998 27.64 78.4131 27.64C79.8131 27.64 80.8398 27.7867 81.4931 28.08C82.1598 28.3733 82.5931 28.8067 82.7931 29.38C82.9931 29.9533 83.0931 30.78 83.0931 31.86V38H80.0131L79.9331 36.82H79.7731C79.4265 37.3667 79.0065 37.7267 78.5131 37.9C78.0198 38.0733 77.4331 38.16 76.7531 38.16ZM78.2731 35.82C78.6465 35.82 78.9398 35.78 79.1531 35.7C79.3665 35.62 79.5331 35.48 79.6531 35.28C79.7998 35.0267 79.8731 34.6133 79.8731 34.04V33.64H78.0531C77.6931 33.64 77.4331 33.6667 77.2731 33.72C77.1131 33.7733 76.9998 33.88 76.9331 34.04C76.8798 34.1867 76.8531 34.4333 76.8531 34.78C76.8531 35.0733 76.8865 35.2933 76.9531 35.44C77.0198 35.5867 77.1465 35.6867 77.3331 35.74C77.5331 35.7933 77.8465 35.82 78.2731 35.82ZM88.2469 38L85.2069 27.8H88.4869L90.3669 35.04H90.5669L92.4069 27.8H95.6269L92.5869 38H88.2469ZM106.689 33.7H100.589C100.589 34.34 100.635 34.7867 100.729 35.04C100.835 35.2933 101.055 35.46 101.389 35.54C101.735 35.62 102.349 35.66 103.229 35.66C104.175 35.66 105.195 35.6067 106.289 35.5V37.8C105.862 37.9067 105.289 37.9933 104.569 38.06C103.862 38.1267 103.162 38.16 102.469 38.16C100.909 38.16 99.7686 37.9933 99.0486 37.66C98.3419 37.3133 97.8886 36.7933 97.6886 36.1C97.4886 35.4067 97.3886 34.3467 97.3886 32.92C97.3886 31.52 97.4886 30.4667 97.6886 29.76C97.8886 29.0533 98.3219 28.5267 98.9886 28.18C99.6686 27.82 100.729 27.64 102.169 27.64C103.609 27.64 104.642 27.8133 105.269 28.16C105.909 28.4933 106.302 29 106.449 29.68C106.609 30.3467 106.689 31.4267 106.689 32.92V33.7ZM102.149 29.98C101.669 29.98 101.322 30.0267 101.109 30.12C100.895 30.2133 100.755 30.4 100.689 30.68C100.622 30.9467 100.589 31.4 100.589 32.04H103.669C103.669 31.4 103.629 30.94 103.549 30.66C103.469 30.38 103.329 30.2 103.129 30.12C102.929 30.0267 102.602 29.98 102.149 29.98ZM124.381 38L123.561 35.4H118.661L117.881 38H114.401L118.801 24.24H123.521L127.921 38H124.381ZM121.141 27.32H121.041L119.461 32.58H122.741L121.141 27.32ZM147.908 38V29.24H147.768L144.828 38H142.468L139.528 29.24H139.388V38H136.148V24.24H140.928L143.648 32.18H143.788L146.488 24.24H151.248V38H147.908ZM163.657 33.7H157.557C157.557 34.34 157.604 34.7867 157.697 35.04C157.804 35.2933 158.024 35.46 158.357 35.54C158.704 35.62 159.317 35.66 160.197 35.66C161.144 35.66 162.164 35.6067 163.257 35.5V37.8C162.831 37.9067 162.257 37.9933 161.537 38.06C160.831 38.1267 160.131 38.16 159.437 38.16C157.877 38.16 156.737 37.9933 156.017 37.66C155.311 37.3133 154.857 36.7933 154.657 36.1C154.457 35.4067 154.357 34.3467 154.357 32.92C154.357 31.52 154.457 30.4667 154.657 29.76C154.857 29.0533 155.291 28.5267 155.957 28.18C156.637 27.82 157.697 27.64 159.137 27.64C160.577 27.64 161.611 27.8133 162.237 28.16C162.877 28.4933 163.271 29 163.417 29.68C163.577 30.3467 163.657 31.4267 163.657 32.92V33.7ZM159.117 29.98C158.637 29.98 158.291 30.0267 158.077 30.12C157.864 30.2133 157.724 30.4 157.657 30.68C157.591 30.9467 157.557 31.4 157.557 32.04H160.637C160.637 31.4 160.597 30.94 160.517 30.66C160.437 30.38 160.297 30.2 160.097 30.12C159.897 30.0267 159.571 29.98 159.117 29.98ZM170.551 38.16C169.911 38.16 169.204 38.1333 168.431 38.08C167.671 38.0267 167.004 37.96 166.431 37.88V35.56C167.578 35.6667 168.631 35.72 169.591 35.72C170.231 35.72 170.684 35.7 170.951 35.66C171.218 35.62 171.384 35.5533 171.451 35.46C171.531 35.3533 171.571 35.18 171.571 34.94C171.571 34.74 171.544 34.6 171.491 34.52C171.451 34.4267 171.364 34.36 171.231 34.32C171.098 34.28 170.864 34.24 170.531 34.2L168.151 33.9C167.351 33.7933 166.811 33.4933 166.531 33C166.264 32.4933 166.131 31.74 166.131 30.74C166.131 29.8467 166.304 29.18 166.651 28.74C166.998 28.2867 167.464 27.9933 168.051 27.86C168.651 27.7133 169.424 27.64 170.371 27.64C171.024 27.64 171.691 27.6667 172.371 27.72C173.051 27.7733 173.598 27.8467 174.011 27.94V30.24C172.918 30.1333 171.938 30.08 171.071 30.08C170.484 30.08 170.064 30.0933 169.811 30.12C169.558 30.1467 169.378 30.2133 169.271 30.32C169.178 30.4133 169.131 30.5733 169.131 30.8C169.131 31 169.144 31.14 169.171 31.22C169.211 31.3 169.291 31.36 169.411 31.4C169.544 31.44 169.758 31.48 170.051 31.52L172.411 31.8C172.931 31.8667 173.338 31.9867 173.631 32.16C173.924 32.32 174.151 32.6133 174.311 33.04C174.484 33.4533 174.571 34.06 174.571 34.86C174.571 35.8067 174.404 36.52 174.071 37C173.751 37.48 173.311 37.7933 172.751 37.94C172.191 38.0867 171.458 38.16 170.551 38.16ZM181.312 38.16C180.672 38.16 179.965 38.1333 179.192 38.08C178.432 38.0267 177.765 37.96 177.192 37.88V35.56C178.339 35.6667 179.392 35.72 180.352 35.72C180.992 35.72 181.445 35.7 181.712 35.66C181.979 35.62 182.145 35.5533 182.212 35.46C182.292 35.3533 182.332 35.18 182.332 34.94C182.332 34.74 182.305 34.6 182.252 34.52C182.212 34.4267 182.125 34.36 181.992 34.32C181.859 34.28 181.625 34.24 181.292 34.2L178.912 33.9C178.112 33.7933 177.572 33.4933 177.292 33C177.025 32.4933 176.892 31.74 176.892 30.74C176.892 29.8467 177.065 29.18 177.412 28.74C177.759 28.2867 178.225 27.9933 178.812 27.86C179.412 27.7133 180.185 27.64 181.132 27.64C181.785 27.64 182.452 27.6667 183.132 27.72C183.812 27.7733 184.359 27.8467 184.772 27.94V30.24C183.679 30.1333 182.699 30.08 181.832 30.08C181.245 30.08 180.825 30.0933 180.572 30.12C180.319 30.1467 180.139 30.2133 180.032 30.32C179.939 30.4133 179.892 30.5733 179.892 30.8C179.892 31 179.905 31.14 179.932 31.22C179.972 31.3 180.052 31.36 180.172 31.4C180.305 31.44 180.519 31.48 180.812 31.52L183.172 31.8C183.692 31.8667 184.099 31.9867 184.392 32.16C184.685 32.32 184.912 32.6133 185.072 33.04C185.245 33.4533 185.332 34.06 185.332 34.86C185.332 35.8067 185.165 36.52 184.832 37C184.512 37.48 184.072 37.7933 183.512 37.94C182.952 38.0867 182.219 38.16 181.312 38.16ZM190.593 38.16C189.593 38.16 188.853 37.92 188.373 37.44C187.893 36.96 187.653 36.1733 187.653 35.08C187.653 34.28 187.746 33.66 187.933 33.22C188.12 32.78 188.44 32.46 188.893 32.26C189.36 32.06 190.026 31.96 190.893 31.96C191.546 31.96 192.486 31.9867 193.713 32.04V31.68C193.713 31.1733 193.653 30.82 193.533 30.62C193.426 30.4067 193.213 30.2733 192.893 30.22C192.586 30.1667 192.033 30.14 191.233 30.14C190.233 30.14 189.24 30.1933 188.253 30.3V27.98C189.506 27.7533 190.84 27.64 192.253 27.64C193.653 27.64 194.68 27.7867 195.333 28.08C196 28.3733 196.433 28.8067 196.633 29.38C196.833 29.9533 196.933 30.78 196.933 31.86V38H193.853L193.773 36.82H193.613C193.266 37.3667 192.846 37.7267 192.353 37.9C191.86 38.0733 191.273 38.16 190.593 38.16ZM192.113 35.82C192.486 35.82 192.78 35.78 192.993 35.7C193.206 35.62 193.373 35.48 193.493 35.28C193.64 35.0267 193.713 34.6133 193.713 34.04V33.64H191.893C191.533 33.64 191.273 33.6667 191.113 33.72C190.953 33.7733 190.84 33.88 190.773 34.04C190.72 34.1867 190.693 34.4333 190.693 34.78C190.693 35.0733 190.726 35.2933 190.793 35.44C190.86 35.5867 190.986 35.6867 191.173 35.74C191.373 35.7933 191.686 35.82 192.113 35.82ZM204.282 42.12C203.655 42.12 203.002 42.0933 202.322 42.04C201.642 41.9867 201.095 41.9267 200.682 41.86V39.58C201.775 39.6067 202.702 39.62 203.462 39.62C204.369 39.62 204.995 39.5733 205.342 39.48C205.702 39.3867 205.929 39.2 206.022 38.92C206.129 38.64 206.182 38.1467 206.182 37.44V36.7H206.042C205.762 37.18 205.389 37.5067 204.922 37.68C204.455 37.8533 203.889 37.94 203.222 37.94C202.382 37.94 201.722 37.7867 201.242 37.48C200.762 37.1733 200.409 36.6533 200.182 35.92C199.969 35.1867 199.862 34.1467 199.862 32.8C199.862 31.4533 199.975 30.4067 200.202 29.66C200.429 28.9133 200.782 28.3933 201.262 28.1C201.742 27.7933 202.395 27.64 203.222 27.64C203.862 27.64 204.429 27.74 204.922 27.94C205.429 28.14 205.822 28.5 206.102 29.02H206.262L206.342 27.8H209.402V36.84C209.402 38.2133 209.295 39.2533 209.082 39.96C208.882 40.6667 208.415 41.2 207.682 41.56C206.962 41.9333 205.829 42.12 204.282 42.12ZM204.642 35.24C205.029 35.24 205.322 35.2 205.522 35.12C205.722 35.0267 205.869 34.8667 205.962 34.64C206.055 34.4533 206.115 34.2267 206.142 33.96C206.169 33.68 206.182 33.2933 206.182 32.8C206.182 32.32 206.169 31.9467 206.142 31.68C206.115 31.4 206.055 31.1733 205.962 31C205.869 30.76 205.722 30.5933 205.522 30.5C205.322 30.4067 205.029 30.36 204.642 30.36C204.135 30.36 203.782 30.4067 203.582 30.5C203.382 30.5933 203.249 30.8 203.182 31.12C203.115 31.44 203.082 32 203.082 32.8C203.082 33.6 203.115 34.16 203.182 34.48C203.249 34.8 203.382 35.0067 203.582 35.1C203.782 35.1933 204.135 35.24 204.642 35.24ZM221.603 33.7H215.503C215.503 34.34 215.549 34.7867 215.643 35.04C215.749 35.2933 215.969 35.46 216.303 35.54C216.649 35.62 217.263 35.66 218.143 35.66C219.089 35.66 220.109 35.6067 221.203 35.5V37.8C220.776 37.9067 220.203 37.9933 219.483 38.06C218.776 38.1267 218.076 38.16 217.383 38.16C215.823 38.16 214.683 37.9933 213.963 37.66C213.256 37.3133 212.803 36.7933 212.603 36.1C212.403 35.4067 212.303 34.3467 212.303 32.92C212.303 31.52 212.403 30.4667 212.603 29.76C212.803 29.0533 213.236 28.5267 213.903 28.18C214.583 27.82 215.643 27.64 217.083 27.64C218.523 27.64 219.556 27.8133 220.183 28.16C220.823 28.4933 221.216 29 221.363 29.68C221.523 30.3467 221.603 31.4267 221.603 32.92V33.7ZM217.063 29.98C216.583 29.98 216.236 30.0267 216.023 30.12C215.809 30.2133 215.669 30.4 215.603 30.68C215.536 30.9467 215.503 31.4 215.503 32.04H218.583C218.583 31.4 218.543 30.94 218.463 30.66C218.383 30.38 218.243 30.2 218.043 30.12C217.843 30.0267 217.516 29.98 217.063 29.98Z" fill="white"/>
<path d="M254.5 1.5H331.5V37C331.5 50.531 320.531 61.5 307 61.5H254.5V1.5Z" stroke="#1B5FBA" stroke-width="3"/>
<path fill-rule="evenodd" clip-rule="evenodd" d="M316.944 31.6902L305.847 45.3804L285 45.3804L296.097 31.6902L285 18.0001L305.847 18.0001L316.944 31.6902Z" fill="#1B5FBA"/>
</svg>
