<svg width="81" height="81" viewBox="0 0 81 81" fill="none" xmlns="http://www.w3.org/2000/svg">
<g clip-path="url(#clip0_315_5089)">
<path d="M7.52022 20.8035C7.56802 20.8612 7.62293 21.0307 7.62008 21.0932L5.96308 30.7455C5.72695 32.1216 7.05161 33.0394 8.25155 32.4089L16.9172 27.8564C16.9873 27.8287 17.1663 27.8289 17.2254 27.8511L25.9003 32.4085C27.0987 33.0383 28.4213 32.1001 28.189 30.7452L26.5336 21.1054C26.529 21.0304 26.584 20.8611 26.6233 20.812L33.641 13.976C34.611 13.0315 34.1283 11.4826 32.7672 11.2851L23.0798 9.87924C23.007 9.86041 22.8627 9.75564 22.828 9.70294L18.4915 0.921111C17.8923 -0.292129 16.271 -0.311437 15.6622 0.920953L11.3299 9.69249C11.2896 9.75596 11.1451 9.86073 11.0843 9.87734L1.38502 11.2854C0.0454839 11.4798 -0.474408 13.0168 0.511092 13.9762L7.52022 20.8035ZM11.4252 12.2268C12.2368 12.1088 13.0895 11.4897 13.4525 10.7546L17.0767 3.4177L20.6997 10.7544C21.0627 11.4897 21.9155 12.1088 22.727 12.2266L30.828 13.4026L24.9672 19.1118C24.3796 19.6842 24.0539 20.6864 24.1925 21.4949L25.5765 29.557L18.3295 25.7496C17.6038 25.3684 16.5504 25.3684 15.8246 25.7496L8.57583 29.5573L9.95984 21.4949C10.0986 20.6864 9.77261 19.6841 9.18514 19.112L3.32452 13.4028L11.4252 12.2268Z" fill="white"/>
<path d="M79.0213 37.9384H64.7537C63.6627 37.9384 62.7754 38.8257 62.7754 39.9166C62.8456 40.1781 62.7754 40.5429 62.7754 40.8153C55.2767 40.1988 49.9518 34.8171 49.5609 27.3295C49.3343 22.9884 51.6592 12.1406 44.613 12.1406C40.0921 12.1406 37.9932 15.8688 37.0286 18.9964C36.2265 21.5974 35.8196 24.9339 35.8196 28.913C35.8196 30.4438 38.1936 30.4438 38.1936 28.913C38.1936 25.1712 38.5648 22.0702 39.2971 19.6959C40.3724 16.2094 42.1112 14.5144 44.613 14.5144C47.5062 14.5144 47.2443 18.3344 47.2406 20.337C47.2334 24.1702 46.7932 28.0949 47.8534 31.8396C49.7434 38.5154 56.0147 42.7244 62.7714 43.1979V71.701C61.4007 73.0767 55.246 78.6234 45.1614 78.6234H28.5758C30.3252 76.3263 30.1462 73.0136 28.1683 70.9133C31.8173 69.337 32.9367 64.5253 30.3233 61.5117C35.9154 59.6545 35.5416 51.3517 29.7996 50.0141C31.5043 47.9027 31.5518 44.8202 29.9107 42.6585H35.8085C35.8386 44.5423 36.0853 48.2998 37.4067 52.2228C39.9025 59.6325 45.0246 63.9974 52.2194 64.846C53.7394 65.0248 54.0182 62.6677 52.4976 62.4885C43.8285 61.466 39.468 54.0838 38.4346 46.009C37.9426 42.1648 38.1939 38.1715 38.1939 34.3066C38.1939 32.7757 35.8199 32.7757 35.8199 34.3066V40.2844L9.56261 40.2852C4.68037 40.2852 1.81756 46.0982 4.86031 49.9584C-0.412047 50.9349 -1.74351 58.1287 2.8317 60.9361C-0.929882 64.2672 1.0158 70.6707 5.98302 71.3455C2.97857 75.2093 5.84185 80.9886 10.7073 80.9886L45.1615 80.9973C53.8899 80.9973 59.8493 77.2826 62.7757 74.8982V77.2243C62.7757 78.3152 63.6631 79.2026 64.754 79.2026H69.7331C71.2639 79.2026 71.2639 76.8287 69.7331 76.8287H65.1496V40.3123H78.626V76.8287H74.9714C73.4405 76.8287 73.4405 79.2026 74.9714 79.2026H79.0216C80.1125 79.2026 80.9999 78.3152 80.9999 77.2243V39.9166C80.9996 38.8257 80.1122 37.9384 79.0213 37.9384ZM9.56245 42.6595H25.142C27.1324 42.6595 28.7518 44.2774 28.7518 46.266C28.7518 48.1458 27.3045 49.6935 25.4645 49.8569H9.23975C7.39932 49.6933 5.95137 48.1457 5.95137 46.266C5.95137 44.2772 7.57119 42.6595 9.56245 42.6595ZM5.95232 59.4426C3.96233 59.4426 2.34315 57.8248 2.34315 55.8364C2.34315 53.8483 3.96217 52.2309 5.95232 52.2309H28.4416C30.4316 52.2309 32.0508 53.8483 32.0508 55.8364C32.0508 57.8248 30.4317 59.4426 28.4416 59.4426H5.95232ZM3.18336 65.4229C3.18336 63.4403 4.77801 61.8267 6.74158 61.8167H25.8196C27.8022 61.8267 29.412 63.4403 29.412 65.4229C29.412 67.4108 27.7924 69.0281 25.8014 69.0281H6.79254C4.80239 69.0281 3.18336 67.4108 3.18336 65.4229ZM7.09846 75.0082C7.09846 73.0198 8.71733 71.402 10.707 71.402H23.814C25.8038 71.402 27.4228 73.0198 27.4228 75.0082C27.4228 76.9969 25.804 78.6148 23.814 78.6148H10.707C8.71733 78.6148 7.09846 76.9969 7.09846 75.0082Z" fill="white"/>
<path d="M76.0031 47.3953C76.0031 45.1262 74.1571 43.2803 71.8881 43.2803C69.6193 43.2803 67.7734 45.1262 67.7734 47.3953C67.7734 49.6641 69.6193 51.5099 71.8881 51.5099C74.1571 51.5099 76.0031 49.6641 76.0031 47.3953ZM71.8881 49.136C70.9284 49.136 70.1474 48.3551 70.1474 47.3953C70.1474 46.4352 70.9284 45.6542 71.8881 45.6542C72.8481 45.6542 73.6292 46.4352 73.6292 47.3953C73.6292 48.3551 72.8481 49.136 71.8881 49.136Z" fill="white"/>
</g>
<defs>
<clipPath id="clip0_315_5089">
<rect width="81" height="81" fill="white"/>
</clipPath>
</defs>
</svg>
