<svg width="334" height="63" viewBox="0 0 334 63" fill="none" xmlns="http://www.w3.org/2000/svg">
<path d="M0.5 26C0.5 11.6406 12.1406 0 26.5 0H273.5V37C273.5 51.3594 261.859 63 247.5 63H0.5V26Z" fill="#1B5FBA"/>
<path d="M93.62 37.82C93.1667 37.9133 92.5933 37.9933 91.9 38.06C91.22 38.1267 90.58 38.16 89.98 38.16C88.2467 38.16 86.9667 37.9467 86.14 37.52C85.3133 37.0933 84.7667 36.4 84.5 35.44C84.2333 34.48 84.1 33.04 84.1 31.12C84.1 29.2267 84.2333 27.8 84.5 26.84C84.78 25.88 85.3333 25.18 86.16 24.74C86.9867 24.3 88.26 24.08 89.98 24.08C90.58 24.08 91.2133 24.12 91.88 24.2C92.5467 24.2667 93.1 24.3533 93.54 24.46V27.1C92.18 26.9667 91.28 26.9 90.84 26.9C89.7467 26.9 88.9933 26.9867 88.58 27.16C88.1667 27.32 87.9 27.6667 87.78 28.2C87.6733 28.72 87.62 29.6933 87.62 31.12C87.62 32.5467 87.6733 33.5267 87.78 34.06C87.9 34.58 88.1667 34.9267 88.58 35.1C88.9933 35.26 89.7467 35.34 90.84 35.34C91.8267 35.34 92.7533 35.2733 93.62 35.14V37.82ZM100.984 38.16C99.4644 38.16 98.371 38.0133 97.7044 37.72C97.0377 37.4133 96.611 36.92 96.4244 36.24C96.251 35.5467 96.1644 34.4333 96.1644 32.9C96.1644 31.3533 96.251 30.24 96.4244 29.56C96.611 28.88 97.0377 28.3933 97.7044 28.1C98.371 27.7933 99.4644 27.64 100.984 27.64C102.504 27.64 103.598 27.7933 104.264 28.1C104.931 28.3933 105.351 28.88 105.524 29.56C105.711 30.24 105.804 31.3533 105.804 32.9C105.804 34.4333 105.711 35.5467 105.524 36.24C105.351 36.92 104.931 37.4133 104.264 37.72C103.598 38.0133 102.504 38.16 100.984 38.16ZM100.984 35.66C101.544 35.66 101.924 35.6067 102.124 35.5C102.338 35.38 102.464 35.1533 102.504 34.82C102.558 34.4867 102.584 33.8467 102.584 32.9C102.584 31.94 102.558 31.2933 102.504 30.96C102.464 30.6267 102.338 30.4067 102.124 30.3C101.924 30.1933 101.544 30.14 100.984 30.14C100.424 30.14 100.038 30.1933 99.8244 30.3C99.6244 30.4067 99.4977 30.6267 99.4444 30.96C99.4044 31.2933 99.3844 31.94 99.3844 32.9C99.3844 33.8467 99.4044 34.4867 99.4444 34.82C99.4977 35.1533 99.6244 35.38 99.8244 35.5C100.038 35.6067 100.424 35.66 100.984 35.66ZM114.831 32.62C114.831 31.8733 114.797 31.3533 114.731 31.06C114.677 30.7667 114.564 30.58 114.391 30.5C114.217 30.42 113.897 30.38 113.431 30.38C112.977 30.38 112.644 30.4467 112.431 30.58C112.231 30.7 112.097 30.9133 112.031 31.22C111.964 31.5267 111.931 32.0133 111.931 32.68V38H108.711V27.8H111.771L111.851 29.02H112.031C112.551 28.1 113.531 27.64 114.971 27.64C115.837 27.64 116.491 27.7933 116.931 28.1C117.384 28.3933 117.684 28.82 117.831 29.38C117.977 29.9267 118.051 30.6733 118.051 31.62V38H114.831V32.62ZM122.308 38V30.3H120.468V27.8H122.308V24.84H125.568V27.8H127.768V30.3H125.568V38H122.308ZM132.498 38.16C131.498 38.16 130.758 37.92 130.278 37.44C129.798 36.96 129.558 36.1733 129.558 35.08C129.558 34.28 129.651 33.66 129.838 33.22C130.024 32.78 130.344 32.46 130.798 32.26C131.264 32.06 131.931 31.96 132.798 31.96C133.451 31.96 134.391 31.9867 135.618 32.04V31.68C135.618 31.1733 135.558 30.82 135.438 30.62C135.331 30.4067 135.118 30.2733 134.798 30.22C134.491 30.1667 133.938 30.14 133.138 30.14C132.138 30.14 131.144 30.1933 130.158 30.3V27.98C131.411 27.7533 132.744 27.64 134.158 27.64C135.558 27.64 136.584 27.7867 137.238 28.08C137.904 28.3733 138.338 28.8067 138.538 29.38C138.738 29.9533 138.838 30.78 138.838 31.86V38H135.758L135.678 36.82H135.518C135.171 37.3667 134.751 37.7267 134.258 37.9C133.764 38.0733 133.178 38.16 132.498 38.16ZM134.018 35.82C134.391 35.82 134.684 35.78 134.898 35.7C135.111 35.62 135.278 35.48 135.398 35.28C135.544 35.0267 135.618 34.6133 135.618 34.04V33.64H133.798C133.438 33.64 133.178 33.6667 133.018 33.72C132.858 33.7733 132.744 33.88 132.678 34.04C132.624 34.1867 132.598 34.4333 132.598 34.78C132.598 35.0733 132.631 35.2933 132.698 35.44C132.764 35.5867 132.891 35.6867 133.078 35.74C133.278 35.7933 133.591 35.82 134.018 35.82ZM149.307 37.82C148.307 38.0467 147.273 38.16 146.207 38.16C144.86 38.16 143.867 37.9667 143.227 37.58C142.6 37.18 142.2 36.6267 142.027 35.92C141.853 35.2133 141.767 34.2067 141.767 32.9C141.767 31.6333 141.853 30.6467 142.027 29.94C142.213 29.22 142.62 28.66 143.247 28.26C143.887 27.8467 144.867 27.64 146.187 27.64C147.333 27.64 148.347 27.7533 149.227 27.98V30.3C148.507 30.1933 147.78 30.14 147.047 30.14C146.42 30.14 145.967 30.2133 145.687 30.36C145.42 30.4933 145.24 30.74 145.147 31.1C145.067 31.46 145.027 32.06 145.027 32.9C145.027 33.74 145.067 34.3467 145.147 34.72C145.24 35.08 145.42 35.3267 145.687 35.46C145.967 35.5933 146.427 35.66 147.067 35.66C147.773 35.66 148.52 35.6067 149.307 35.5V37.82ZM153.145 38V30.3H151.305V27.8H153.145V24.84H156.405V27.8H158.605V30.3H156.405V38H153.145ZM178.05 24.24V31.78C178.05 33.62 177.936 34.9667 177.71 35.82C177.496 36.66 177.01 37.26 176.25 37.62C175.49 37.98 174.25 38.16 172.53 38.16C170.81 38.16 169.57 37.98 168.81 37.62C168.05 37.26 167.556 36.66 167.33 35.82C167.116 34.9667 167.01 33.62 167.01 31.78V24.24H170.49V32.52C170.49 33.4667 170.523 34.12 170.59 34.48C170.656 34.84 170.823 35.08 171.09 35.2C171.356 35.32 171.836 35.38 172.53 35.38C173.223 35.38 173.703 35.32 173.97 35.2C174.236 35.08 174.403 34.84 174.47 34.48C174.536 34.12 174.57 33.4667 174.57 32.52V24.24H178.05ZM185.38 38.16C184.74 38.16 184.033 38.1333 183.26 38.08C182.5 38.0267 181.833 37.96 181.26 37.88V35.56C182.407 35.6667 183.46 35.72 184.42 35.72C185.06 35.72 185.513 35.7 185.78 35.66C186.047 35.62 186.213 35.5533 186.28 35.46C186.36 35.3533 186.4 35.18 186.4 34.94C186.4 34.74 186.373 34.6 186.32 34.52C186.28 34.4267 186.193 34.36 186.06 34.32C185.927 34.28 185.693 34.24 185.36 34.2L182.98 33.9C182.18 33.7933 181.64 33.4933 181.36 33C181.093 32.4933 180.96 31.74 180.96 30.74C180.96 29.8467 181.133 29.18 181.48 28.74C181.827 28.2867 182.293 27.9933 182.88 27.86C183.48 27.7133 184.253 27.64 185.2 27.64C185.853 27.64 186.52 27.6667 187.2 27.72C187.88 27.7733 188.427 27.8467 188.84 27.94V30.24C187.747 30.1333 186.767 30.08 185.9 30.08C185.313 30.08 184.893 30.0933 184.64 30.12C184.387 30.1467 184.207 30.2133 184.1 30.32C184.007 30.4133 183.96 30.5733 183.96 30.8C183.96 31 183.973 31.14 184 31.22C184.04 31.3 184.12 31.36 184.24 31.4C184.373 31.44 184.587 31.48 184.88 31.52L187.24 31.8C187.76 31.8667 188.167 31.9867 188.46 32.16C188.753 32.32 188.98 32.6133 189.14 33.04C189.313 33.4533 189.4 34.06 189.4 34.86C189.4 35.8067 189.233 36.52 188.9 37C188.58 37.48 188.14 37.7933 187.58 37.94C187.02 38.0867 186.287 38.16 185.38 38.16Z" fill="white"/>
<path d="M255 1.5H332V37C332 50.531 321.031 61.5 307.5 61.5H255V1.5Z" stroke="#1B5FBA" stroke-width="3"/>
<path fill-rule="evenodd" clip-rule="evenodd" d="M317.444 31.6902L306.347 45.3804L285.5 45.3804L296.597 31.6902L285.5 18.0001L306.347 18.0001L317.444 31.6902Z" fill="#1B5FBA"/>
</svg>
