<svg width="30" height="30" viewBox="0 0 30 30" fill="none" xmlns="http://www.w3.org/2000/svg"><path d="M0.5 0.5H20C25.2467 0.5 29.5 4.75329 29.5 10V29.5H10C4.75329 29.5 0.5 25.2467 0.5 20V0.5Z" fill="white" stroke="#1B5FBA"/><path d="M19.9987 6.66666H17.4987C16.3936 6.66666 15.3338 7.10564 14.5524 7.88704C13.771 8.66845 13.332 9.72825 13.332 10.8333V13.3333H10.832V16.6667H13.332V23.3333H16.6654V16.6667H19.1654L19.9987 13.3333H16.6654V10.8333C16.6654 10.6123 16.7532 10.4003 16.9094 10.2441C17.0657 10.0878 17.2777 9.99999 17.4987 9.99999H19.9987V6.66666Z" fill="#1B5FBA"/>
</svg>
