<svg width="28" height="28" viewBox="0 0 28 28" fill="none" xmlns="http://www.w3.org/2000/svg"><path d="M13.9987 24.5C12.5251 23.2431 11.1592 21.8651 9.91537 20.3805C8.0487 18.151 5.83203 14.8307 5.83203 11.6667C5.83038 8.36213 7.82032 5.38229 10.8733 4.11763C13.9262 2.85297 17.4404 3.55278 19.776 5.8905C21.3119 7.41954 22.1723 9.49945 22.1654 11.6667C22.1654 14.8307 19.9487 18.151 18.082 20.3805C16.8382 21.8651 15.4723 23.2431 13.9987 24.5ZM13.9987 5.83333C10.7786 5.83719 8.16922 8.4466 8.16537 11.6667C8.16537 13.027 8.7802 15.3825 11.7062 18.8837C12.4274 19.7447 13.1925 20.5679 13.9987 21.35C14.8049 20.5689 15.5705 19.7468 16.2924 18.8872C19.2172 15.3813 19.832 13.0258 19.832 11.6667C19.8282 8.4466 17.2188 5.83719 13.9987 5.83333ZM13.9987 15.1667C12.0657 15.1667 10.4987 13.5997 10.4987 11.6667C10.4987 9.73367 12.0657 8.16666 13.9987 8.16666C15.9317 8.16666 17.4987 9.73367 17.4987 11.6667C17.4987 12.5949 17.13 13.4852 16.4736 14.1415C15.8172 14.7979 14.927 15.1667 13.9987 15.1667Z" fill="white" fill-opacity="0.8"/>
</svg>
