<svg width="28" height="28" viewBox="0 0 28 28" fill="none" xmlns="http://www.w3.org/2000/svg">
<path d="M18.165 19.3333C8.21149 19.3475 0.657332 11.7028 0.66798 1.83628C0.66798 1.19195 1.19031 0.666687 1.83465 0.666687H4.9139C5.49206 0.666687 5.98322 1.0915 6.06812 1.6634C6.2716 3.03408 6.67067 4.36848 7.2532 5.62584L7.37309 5.88461C7.53979 6.24441 7.4268 6.67192 7.10409 6.90237C6.15048 7.58338 5.78604 8.95417 6.52895 10.0238C7.46121 11.366 8.63636 12.5409 9.97828 13.4727C11.0478 14.2154 12.4184 13.851 13.0994 12.8976C13.33 12.5747 13.7577 12.4617 14.1178 12.6285L14.3753 12.7478C15.6328 13.3303 16.9673 13.7294 18.3381 13.9328C18.91 14.0177 19.3346 14.5088 19.3346 15.087V18.1667C19.3346 18.811 18.811 19.3333 18.1667 19.3333L18.165 19.3333Z" fill="white" fill-opacity="0.8"/>
</svg>
