<svg width="105" height="30" viewBox="0 0 105 30" fill="none" xmlns="http://www.w3.org/2000/svg">
<g clip-path="url(#clip0_215_1056)">
<path d="M70.2169 17.8612V16.5596C70.2187 16.5041 70.1979 16.4501 70.1593 16.4096C70.1206 16.3691 70.0672 16.3452 70.0106 16.3433H69.6317C69.3518 16.3433 69.1236 16.1045 69.1236 15.8094V12.0833C69.1236 9.44987 67.9103 7.55247 65.2109 7.55247C63.8278 7.55247 62.3467 8.23993 61.9491 9.28717V7.5621C61.9491 7.38381 61.7695 7.2509 61.6197 7.33294C61.3303 7.49472 58.4428 7.48281 58.2548 7.5621C58.235 7.57082 58.2182 7.58507 58.2066 7.60308C58.195 7.62109 58.189 7.64207 58.1894 7.66338V9.17901C58.1894 9.26105 58.2683 9.29038 58.3406 9.28671C58.3406 9.28671 59.2823 9.3055 59.2823 9.95493V15.8117C59.2823 16.1063 59.0546 16.3456 58.7741 16.3456H57.0765C56.7965 16.3456 56.5684 16.1068 56.5684 15.8117V7.5621C56.5684 7.38381 56.3948 7.24128 56.2389 7.31369C55.8973 7.46814 53.0621 7.48372 52.874 7.5621C52.8542 7.57082 52.8375 7.58507 52.8258 7.60308C52.8142 7.62109 52.8083 7.64207 52.8087 7.66338V9.17901C52.8087 9.26105 52.8684 9.28671 52.9599 9.28671C52.9599 9.28671 53.902 9.28671 53.902 9.93843V15.8117C53.902 16.1063 53.6743 16.3456 53.3939 16.3456H53.015C52.9584 16.3475 52.905 16.3713 52.8663 16.4119C52.8277 16.4524 52.8069 16.5064 52.8087 16.5619V17.8635C52.8069 17.919 52.8277 17.973 52.8663 18.0135C52.905 18.0541 52.9584 18.0779 53.015 18.0798H62.8352C62.8918 18.0779 62.9452 18.0541 62.9839 18.0135C63.0225 17.973 63.0433 17.919 63.0415 17.8635V16.5619C63.0433 16.5064 63.0225 16.4524 62.9839 16.4119C62.9452 16.3713 62.8918 16.3475 62.8352 16.3456H62.4563C62.1764 16.3456 61.9482 16.1068 61.9482 15.8117C61.9482 15.8117 61.9734 13.6526 61.9734 12.7529C61.9734 11.4238 62.2533 9.289 64.2277 9.289C66.202 9.289 66.482 11.4256 66.482 12.7529C66.482 13.208 66.4568 15.8117 66.4568 15.8117C66.4568 16.1063 66.2291 16.3456 65.9486 16.3456H65.5697C65.5132 16.3475 65.4597 16.3713 65.4211 16.4119C65.3824 16.4524 65.3617 16.5064 65.3635 16.5619V17.8635C65.3617 17.919 65.3824 17.973 65.4211 18.0135C65.4597 18.0541 65.5132 18.0779 65.5697 18.0798H70.0102C70.0384 18.0789 70.0662 18.0726 70.0919 18.0611C70.1176 18.0496 70.1408 18.0332 70.16 18.0129C70.1792 17.9925 70.1941 17.9687 70.2039 17.9426C70.2137 17.9166 70.2181 17.8889 70.2169 17.8612Z" fill="white" fill-opacity="0.1"/>
<path d="M47.0646 7.55226C45.2448 7.55226 43.9848 9.28696 43.9848 9.28696V1.92056C43.9848 1.73723 43.8234 1.74502 43.6554 1.77573C42.8253 1.92743 40.4786 1.96501 40.2905 2.04292C40.2707 2.05165 40.2539 2.0659 40.2423 2.08391C40.2307 2.10192 40.2247 2.12289 40.2252 2.14421V3.66076C40.2252 3.74279 40.2952 3.76846 40.3764 3.76846C40.3764 3.76846 41.318 3.76846 41.318 4.41834V15.8115C41.318 16.1061 41.0903 16.3454 40.8099 16.3454H40.431C40.3744 16.3473 40.321 16.3711 40.2823 16.4117C40.2437 16.4522 40.223 16.5062 40.2247 16.5617V17.8633C40.223 17.9188 40.2437 17.9728 40.2823 18.0133C40.321 18.0539 40.3744 18.0777 40.431 18.0796H43.6689C43.7554 18.0768 43.8372 18.0403 43.8963 17.9783C43.9555 17.9162 43.9871 17.8337 43.9844 17.7487V17.185C44.8066 17.9348 45.8598 18.0714 47.0077 18.0714C49.6367 18.0714 51.8863 16.0942 51.8863 12.7985C51.8863 9.50283 49.9988 7.55226 47.0646 7.55226ZM46.1136 16.3431C44.9853 16.3431 43.9867 15.6964 43.9867 14.81V12.5015C43.9867 10.6284 44.9909 9.2865 46.214 9.2865C47.8472 9.2865 48.5051 10.9364 48.5051 13.0552C48.5051 14.6767 47.7361 16.3431 46.1136 16.3431Z" fill="white" fill-opacity="0.1"/>
<path d="M16.5558 0H11.5161C11.4533 0.00215219 11.3939 0.0286894 11.3509 0.0737935C11.308 0.118898 11.285 0.178888 11.287 0.240612L11.2809 1.49088C11.2789 1.5526 11.3019 1.61259 11.3449 1.6577C11.3878 1.7028 11.4472 1.72934 11.5101 1.73149H11.8101C12.1218 1.73149 12.3747 1.99685 12.3747 2.32454L12.3808 7.55293H4.40837L4.4023 2.32409C4.4023 1.99685 4.65521 1.73103 4.96693 1.73103H5.26324C5.32608 1.72888 5.38548 1.70234 5.42843 1.65724C5.47138 1.61214 5.49437 1.55215 5.49235 1.49042L5.49842 0.240154C5.50031 0.178508 5.47727 0.118635 5.43433 0.073631C5.39139 0.0286267 5.33206 0.00215311 5.2693 0L0.232462 0C0.169952 0.00262388 0.111021 0.0293667 0.0684707 0.0744189C0.0259204 0.119471 0.00318796 0.179194 0.00521177 0.240612L-0.000854469 1.49042C-0.00286917 1.55215 0.020118 1.61214 0.0630673 1.65724C0.106017 1.70234 0.165423 1.72888 0.228263 1.73103H0.532508C0.844219 1.73103 1.09713 1.99639 1.09713 2.32409L1.1032 15.7525C1.1032 16.0798 0.850285 16.3456 0.538574 16.3456H0.232462C0.169623 16.3477 0.110216 16.3743 0.067267 16.4194C0.0243177 16.4645 0.00133053 16.5245 0.00334523 16.5862V17.8374C0.00145643 17.899 0.0244999 17.9589 0.0674359 18.0039C0.110372 18.0489 0.169706 18.0754 0.232462 18.0775H5.26744C5.33028 18.0754 5.38968 18.0489 5.43263 18.0038C5.47558 17.9586 5.49857 17.8987 5.49655 17.8369V16.5839C5.49857 16.5222 5.47558 16.4622 5.43263 16.4171C5.38968 16.372 5.33028 16.3455 5.26744 16.3433H4.97113C4.65941 16.3433 4.4065 16.0779 4.4065 15.7503V9.28809H12.3813V15.7503C12.3813 16.0775 12.1283 16.3433 11.8166 16.3433H11.5166C11.4538 16.3455 11.3943 16.372 11.3514 16.4171C11.3084 16.4622 11.2855 16.5222 11.2875 16.5839V17.8374C11.2855 17.8991 11.3084 17.9591 11.3514 18.0042C11.3943 18.0493 11.4538 18.0759 11.5166 18.078H16.5562C16.6191 18.0759 16.6785 18.0493 16.7214 18.0042C16.7644 17.9591 16.7874 17.8991 16.7854 17.8374V16.5839C16.7874 16.5222 16.7644 16.4622 16.7214 16.4171C16.6785 16.372 16.6191 16.3455 16.5562 16.3433H16.2534C15.9417 16.3433 15.6888 16.0779 15.6888 15.7503L15.6827 2.32179C15.6827 1.99456 15.9356 1.72874 16.2473 1.72874H16.5502C16.613 1.72659 16.6724 1.70005 16.7154 1.65495C16.7583 1.60984 16.7813 1.54985 16.7793 1.48813L16.7854 0.237862C16.7866 0.176531 16.7632 0.117179 16.7203 0.0726599C16.6773 0.0281404 16.6182 0.00203631 16.5558 0V0Z" fill="white" fill-opacity="0.1"/>
<path d="M29.2431 16.3434H28.6505C28.3901 16.3434 28.3169 16.1601 28.3169 15.969L28.3239 7.78679C28.3239 7.59109 28.3127 7.56039 28.1031 7.56039C27.5343 7.56039 26.4629 7.48706 25.9884 7.33123C25.9511 7.31719 25.9108 7.3124 25.8712 7.31729C25.8316 7.32218 25.7938 7.3366 25.7612 7.35926C25.7287 7.38193 25.7023 7.41215 25.6844 7.44723C25.6666 7.48231 25.6578 7.52118 25.6589 7.56039V9.28684C25.3789 8.69379 24.3304 7.55214 22.8988 7.55214C20.1181 7.55214 17.6963 10.0527 17.6963 13.3965C17.6963 16.7403 19.8031 18.0777 22.6202 18.0777C24.4205 18.0777 25.6594 17.1831 25.6594 17.1831C25.6594 17.1831 25.7644 18.0777 26.6799 18.0777H29.2464C29.2689 18.0772 29.2911 18.0724 29.3117 18.0635C29.3323 18.0546 29.3509 18.0418 29.3664 18.0258C29.382 18.0099 29.3942 17.9911 29.4023 17.9705C29.4105 17.9499 29.4144 17.9279 29.4139 17.9058V16.5153C29.4144 16.4929 29.4104 16.4707 29.402 16.4499C29.3937 16.4291 29.3812 16.4101 29.3653 16.3941C29.3494 16.3781 29.3304 16.3654 29.3094 16.3567C29.2884 16.348 29.2659 16.3435 29.2431 16.3434ZM23.2702 16.3434C21.8577 16.3434 21.0803 14.7627 21.0803 13.056C21.0803 11.1975 22.0747 9.2873 23.3724 9.2873C24.7537 9.2873 25.6645 10.1773 25.6645 12.8163C25.6641 14.139 25.3257 16.3434 23.2684 16.3434H23.2702Z" fill="white" fill-opacity="0.1"/>
<path d="M89.3572 7.30908C86.2462 7.30908 83.7109 9.69962 83.7109 12.6786C83.7109 15.6576 86.0278 18.0775 89.3572 18.0775C91.1482 18.0775 92.717 17.2626 93.6629 16.1526C93.697 16.1114 93.715 16.0595 93.7133 16.0064C93.7117 15.9533 93.6906 15.9025 93.654 15.8634C93.654 15.8634 92.1477 14.9633 92.136 14.9551C92.0975 14.9317 92.0516 14.923 92.007 14.9304C91.9623 14.9378 91.922 14.9609 91.8934 14.9954C91.6503 15.3162 90.8966 16.3524 89.3376 16.3424C87.0716 16.3424 87.0908 13.7066 87.0908 13.7066H94.7067C94.7731 13.7077 94.8373 13.6833 94.8855 13.6385C94.9338 13.5937 94.9622 13.5321 94.9648 13.4669C94.9648 9.24085 91.7399 7.30908 89.3572 7.30908ZM87.0908 11.9224C87.0908 11.9224 87.0875 9.28898 89.3376 9.28898C91.5877 9.28898 91.6069 11.9224 91.6069 11.9224H87.0908Z" fill="white" fill-opacity="0.1"/>
<path d="M55.3547 5.6699C56.5064 5.24367 57.1415 4.0484 56.7737 3.00071C56.406 1.95301 55.1741 1.44887 54.0206 1.8751C52.8671 2.30133 52.2339 3.4966 52.6016 4.54429C52.9693 5.59199 54.2031 6.09521 55.3547 5.6699Z" fill="white" fill-opacity="0.1"/>
<path d="M38.5279 7.60496C38.505 7.599 38.4812 7.59304 38.4583 7.58754C37.4994 7.42301 35.8587 7.98673 34.5736 9.28695V7.56234C34.5736 7.38405 34.3977 7.25802 34.2442 7.33318C33.9432 7.48305 31.0673 7.48351 30.8793 7.56234C30.8595 7.57106 30.8427 7.58531 30.8311 7.60332C30.8195 7.62134 30.8135 7.64231 30.814 7.66362L30.8205 9.18063C30.8205 9.26266 30.8821 9.28833 30.9717 9.28833C30.9717 9.28833 31.9049 9.28833 31.9049 9.93821V15.8119C31.9049 16.1066 31.6772 16.3458 31.3968 16.3458H31.0179C30.9614 16.3477 30.9079 16.3716 30.8692 16.4121C30.8306 16.4527 30.8099 16.5066 30.8116 16.5621V17.8637C30.8099 17.9193 30.8306 17.9732 30.8692 18.0138C30.9079 18.0543 30.9614 18.0782 31.0179 18.0801H35.4584C35.5149 18.0782 35.5683 18.0543 35.607 18.0138C35.6457 17.9732 35.6664 17.9193 35.6646 17.8637V16.5621C35.6664 16.5066 35.6457 16.4527 35.607 16.4121C35.5683 16.3716 35.5149 16.3477 35.4584 16.3458H35.0795C34.7995 16.3458 34.5713 16.107 34.5713 15.8119V11.9108C34.5713 9.98587 35.9525 9.28695 36.2838 9.28695C36.2838 10.4249 37.1084 11.166 38.1256 11.166C38.5784 11.1673 39.0156 11.0042 39.3532 10.708C39.6909 10.4118 39.9051 10.0034 39.9547 9.56147C40.0044 9.1195 39.8859 8.67512 39.622 8.31378C39.3582 7.95244 38.9677 7.69966 38.5255 7.60404L38.5279 7.60496Z" fill="white" fill-opacity="0.1"/>
<path d="M80.4744 8.07618C80.7138 7.90431 81.2173 7.71503 81.5201 8.16142C81.823 8.60781 82.2551 8.84522 82.788 8.84522C83.1868 8.84522 83.5694 8.68959 83.8514 8.41258C84.1335 8.13556 84.2919 7.75985 84.2919 7.36809C84.2919 6.79658 83.8757 5.7915 82.3125 5.7915C80.4613 5.7915 78.8127 8.09405 78.6886 8.04043C77.9212 7.71218 77.0921 7.54619 76.2551 7.55324C73.1361 7.55324 70.6088 9.88696 70.6088 12.8013C70.6088 14.6415 71.6172 16.2469 73.145 17.1837C72.592 17.4037 72.1884 17.9922 72.1884 18.6278C72.1884 19.2635 72.8006 19.8424 74.2677 20.1604C78.7203 21.1252 80.1939 22.9909 80.1939 24.8709C80.1939 27.3687 78.6755 28.2665 76.4165 28.2665C74.1576 28.2665 72.6391 27.1272 72.6391 24.8709C72.6391 22.2769 74.2877 21.9469 73.976 21.6311C73.6643 21.3154 69.123 21.49 69.123 24.8709C69.123 28.0131 72.3526 30.0008 76.4142 30.0008C80.2033 30.0008 83.7105 28.498 83.7105 24.8709C83.7105 20.3291 75.8748 19.263 74.9322 19.0014C74.194 18.7965 74.4189 17.7997 75.0292 17.9559C75.4175 18.0632 75.8342 18.0783 76.2546 18.0783C79.3736 18.0783 81.9009 15.7157 81.9009 12.8009C81.9009 11.3998 81.2966 10.1069 80.3405 9.15962C79.8934 8.6981 80.2355 8.24942 80.4744 8.07618ZM76.2551 16.3432C74.9163 16.3432 73.9961 15.1314 73.9961 12.8632C73.9961 10.595 74.9163 9.2884 76.2551 9.2884C77.5939 9.2884 78.5141 10.5969 78.5141 12.8632C78.5141 15.1296 77.5939 16.3432 76.2551 16.3432Z" fill="white" fill-opacity="0.1"/>
<path d="M103.558 7.60481C103.535 7.59885 103.511 7.59289 103.489 7.58739C102.53 7.42286 100.889 7.98658 99.6039 9.2868V7.5599C99.6039 7.38161 99.428 7.25558 99.2745 7.33074C98.9735 7.48061 96.0976 7.48107 95.9096 7.5599C95.8898 7.56862 95.873 7.58287 95.8614 7.60088C95.8498 7.61889 95.8438 7.63987 95.8442 7.66118L95.8508 9.17864C95.8508 9.26068 95.9124 9.28635 96.002 9.28635C96.002 9.28635 96.9352 9.28635 96.9352 9.93623V15.8117C96.9352 16.1064 96.7075 16.3457 96.4271 16.3457H96.0482C95.9916 16.3476 95.9382 16.3714 95.8995 16.412C95.8609 16.4525 95.8401 16.5065 95.8419 16.562V17.8636C95.8401 17.9191 95.8609 17.9731 95.8995 18.0136C95.9382 18.0542 95.9916 18.078 96.0482 18.0799H100.489C100.545 18.078 100.599 18.0542 100.637 18.0136C100.676 17.9731 100.697 17.9191 100.695 17.8636V16.562C100.697 16.5065 100.676 16.4525 100.637 16.412C100.599 16.3714 100.545 16.3476 100.489 16.3457H100.11C99.8298 16.3457 99.6016 16.1069 99.6016 15.8117V11.9106C99.6016 9.98573 100.983 9.2868 101.314 9.2868C101.314 10.4248 102.139 11.1659 103.156 11.1659C103.609 11.1672 104.046 11.004 104.384 10.7078C104.721 10.4116 104.935 10.0033 104.985 9.56132C105.035 9.11935 104.916 8.67497 104.652 8.31363C104.388 7.95229 103.998 7.69951 103.556 7.60389L103.558 7.60481Z" fill="white" fill-opacity="0.1"/>
<path d="M34.3135 22.9034C34.3135 22.0784 33.7152 21.5083 32.837 21.5083H30.7979V25.5231H31.7876V24.271H32.3914C32.7269 24.7105 33.0344 25.1115 33.3713 25.5235H34.5379C34.208 25.095 33.8333 24.6115 33.481 24.178C33.9892 23.9635 34.3135 23.4854 34.3135 22.9034ZM32.7269 23.5184H31.7857V22.2604H32.725C33.2453 22.2604 33.3233 22.6944 33.3233 22.902C33.3237 23.3205 32.9994 23.5184 32.725 23.5184H32.7269Z" fill="white" fill-opacity="0.1"/>
<path d="M40.1241 21.5078H38.8064L37.2123 23.1834V21.5078H36.1797V25.5231H37.2123V24.6046L37.7625 24.0193L38.8899 25.5231H40.1241L38.4373 23.3021L40.1241 21.5078Z" fill="white" fill-opacity="0.1"/>
<path d="M41.9883 25.5231H45.2356V24.6976H43.0214V23.9506H44.9785V23.1192H43.0214V22.3337H45.2356V21.5078H41.9883V25.5231Z" fill="white" fill-opacity="0.1"/>
<path d="M47.1006 22.3337H48.4781V25.5231H49.5164V22.3337H50.8887V21.5078H47.1006V22.3337Z" fill="white" fill-opacity="0.1"/>
<path d="M53.7856 21.5078H52.7529V25.5231H53.7856V21.5078Z" fill="white" fill-opacity="0.1"/>
<path d="M58.5799 23.8475L56.6074 21.5078H55.6494V25.5231H56.6447V23.2306L58.5799 25.5231H59.5752V21.5078H58.5799V23.8475Z" fill="white" fill-opacity="0.1"/>
<path d="M21.1023 21.5078L19.8793 23.0693L18.6567 21.5078H17.624V25.5231H18.6623V23.083L19.8793 24.6225L21.0967 23.083V25.5231H22.135V21.5078H21.1023Z" fill="white" fill-opacity="0.1"/>
<path d="M26.7564 21.5078H26.1731L23.999 25.5231H25.1147L25.4661 24.8328H27.467L27.831 25.5231H28.9304L26.7564 21.5078ZM25.8782 24.0006L26.4615 22.8236L27.0513 24.0006H25.8782Z" fill="white" fill-opacity="0.1"/>
<path d="M65.6164 23.2137H63.5357V24.0959H64.524C64.3653 24.3938 63.964 24.6202 63.5613 24.6202C63.2635 24.6171 62.9787 24.4998 62.7676 24.2934C62.5565 24.087 62.4358 23.8078 62.4312 23.5153C62.4312 22.9195 62.9487 22.4153 63.5613 22.4153C63.86 22.4153 64.1652 22.5666 64.4013 22.8278L65.2622 22.3273C65.0617 22.0723 64.8044 21.8659 64.5099 21.724C64.2154 21.5821 63.8917 21.5085 63.5637 21.5088C62.3938 21.5088 61.4424 22.4094 61.4424 23.5162C61.4424 24.623 62.3938 25.5236 63.5637 25.5236C64.6533 25.5236 65.5385 24.7903 65.6229 23.8205V23.8054C65.6276 23.7339 65.6322 23.6679 65.6322 23.6019C65.6322 23.5139 65.6262 23.3865 65.622 23.2989L65.6164 23.2137Z" fill="white" fill-opacity="0.1"/>
</g>
<defs>
<clipPath id="clip0_215_1056">
<rect width="105" height="30" fill="white"/>
</clipPath>
</defs>
</svg>
