<svg width="170" height="171" viewBox="0 0 170 171" fill="none" xmlns="http://www.w3.org/2000/svg">
<g filter="url(#filter0_b_215_1545)">
<path d="M163.625 81.8194C166.458 83.4552 166.458 87.5448 163.625 89.1806L48.875 155.431C46.0417 157.067 42.5 155.023 42.5 151.751L42.5 19.2491C42.5 15.9774 46.0417 13.9326 48.875 15.5684L163.625 81.8194Z" fill="url(#paint0_linear_215_1545)"/>
<path d="M162.125 84.4174C162.958 84.8986 162.958 86.1014 162.125 86.5825L47.375 152.833C46.5417 153.315 45.5 152.713 45.5 151.751L45.5 19.2491C45.5 18.2868 46.5417 17.6854 47.375 18.1665L162.125 84.4174Z" stroke="#1B5FBA" stroke-width="6"/>
</g>
<path d="M63.46 77.74H70C71.2267 77.74 72.1533 77.92 72.78 78.28C73.4067 78.64 73.82 79.1467 74.02 79.8C74.2333 80.4533 74.34 81.3267 74.34 82.42C74.34 83.4467 74.24 84.2867 74.04 84.94C73.8533 85.5933 73.44 86.1133 72.8 86.5C72.1733 86.8867 71.24 87.08 70 87.08H66.94V91.5H63.46V77.74ZM68.56 84.3C69.2667 84.3 69.7733 84.26 70.08 84.18C70.3867 84.0867 70.5867 83.92 70.68 83.68C70.7733 83.4267 70.82 83.0067 70.82 82.42C70.82 81.8333 70.7733 81.42 70.68 81.18C70.5867 80.9267 70.3867 80.76 70.08 80.68C69.7867 80.5867 69.28 80.54 68.56 80.54H66.94V84.3H68.56ZM77.0278 91.5V76.64H80.2878V91.5H77.0278ZM86.0109 91.66C85.0109 91.66 84.2709 91.42 83.7909 90.94C83.3109 90.46 83.0709 89.6733 83.0709 88.58C83.0709 87.78 83.1643 87.16 83.3509 86.72C83.5376 86.28 83.8576 85.96 84.3109 85.76C84.7776 85.56 85.4443 85.46 86.3109 85.46C86.9643 85.46 87.9043 85.4867 89.1309 85.54V85.18C89.1309 84.6733 89.0709 84.32 88.9509 84.12C88.8443 83.9067 88.6309 83.7733 88.3109 83.72C88.0043 83.6667 87.4509 83.64 86.6509 83.64C85.6509 83.64 84.6576 83.6933 83.6709 83.8V81.48C84.9243 81.2533 86.2576 81.14 87.6709 81.14C89.0709 81.14 90.0976 81.2867 90.7509 81.58C91.4176 81.8733 91.8509 82.3067 92.0509 82.88C92.2509 83.4533 92.3509 84.28 92.3509 85.36V91.5H89.2709L89.1909 90.32H89.0309C88.6843 90.8667 88.2643 91.2267 87.7709 91.4C87.2776 91.5733 86.6909 91.66 86.0109 91.66ZM87.5309 89.32C87.9043 89.32 88.1976 89.28 88.4109 89.2C88.6243 89.12 88.7909 88.98 88.9109 88.78C89.0576 88.5267 89.1309 88.1133 89.1309 87.54V87.14H87.3109C86.9509 87.14 86.6909 87.1667 86.5309 87.22C86.3709 87.2733 86.2576 87.38 86.1909 87.54C86.1376 87.6867 86.1109 87.9333 86.1109 88.28C86.1109 88.5733 86.1443 88.7933 86.2109 88.94C86.2776 89.0867 86.4043 89.1867 86.5909 89.24C86.7909 89.2933 87.1043 89.32 87.5309 89.32ZM99.92 95.62C99.2933 95.62 98.6467 95.5933 97.98 95.54C97.3267 95.5 96.7867 95.44 96.36 95.36V93.08L97.3 93.1L99.14 93.12C100.007 93.12 100.613 93.0667 100.96 92.96C101.307 92.8667 101.52 92.6867 101.6 92.42C101.693 92.1533 101.74 91.6667 101.74 90.96V90.12H101.58C101.313 90.5867 100.94 90.9267 100.46 91.14C99.98 91.34 99.3933 91.44 98.7 91.44C97.8333 91.44 97.1733 91.2933 96.72 91C96.28 90.7067 95.9867 90.2867 95.84 89.74C95.6933 89.18 95.62 88.4267 95.62 87.48V81.3H98.84V86.5C98.84 87.2467 98.8667 87.7667 98.92 88.06C98.9867 88.34 99.1067 88.52 99.28 88.6C99.4533 88.68 99.7733 88.72 100.24 88.72C100.693 88.72 101.02 88.66 101.22 88.54C101.433 88.4067 101.573 88.1933 101.64 87.9C101.707 87.5933 101.74 87.1067 101.74 86.44V81.3H104.96V90.36C104.96 91.7333 104.86 92.7667 104.66 93.46C104.46 94.1667 104 94.7 103.28 95.06C102.573 95.4333 101.453 95.62 99.92 95.62Z" fill="white"/>
<defs>
<filter id="filter0_b_215_1545" x="37.5" y="9.99268" width="133.25" height="151.015" filterUnits="userSpaceOnUse" color-interpolation-filters="sRGB">
<feFlood flood-opacity="0" result="BackgroundImageFix"/>
<feGaussianBlur in="BackgroundImage" stdDeviation="2.5"/>
<feComposite in2="SourceAlpha" operator="in" result="effect1_backgroundBlur_215_1545"/>
<feBlend mode="normal" in="SourceGraphic" in2="effect1_backgroundBlur_215_1545" result="shape"/>
</filter>
<linearGradient id="paint0_linear_215_1545" x1="170" y1="85.5" x2="2.68021e-05" y2="85.5" gradientUnits="userSpaceOnUse">
<stop stop-color="#1B5FBA" stop-opacity="0"/>
<stop offset="0.755072" stop-color="#1B5FBA"/>
</linearGradient>
</defs>
</svg>
