<svg width="433" height="433" viewBox="0 0 433 433" fill="none" xmlns="http://www.w3.org/2000/svg">
<path d="M433 216.5C433 336.07 336.07 433 216.5 433C96.9303 433 0 336.07 0 216.5C0 96.9303 96.9303 0 216.5 0C336.07 0 433 96.9303 433 216.5Z" fill="#1B5FBA" fill-opacity="0.1"/>
<path d="M393.373 91.647C419.554 128.737 433.413 173.118 432.991 218.516C432.568 263.913 417.885 308.029 391.017 344.625L216.5 216.5L393.373 91.647Z" fill="#1B5FBA" fill-opacity="0.1"/>
<path d="M303.736 225L310 211.416H301.864V208.488H313.672V211.152L307.504 225H303.736ZM317.353 222.024C319.321 222.216 320.937 222.312 322.201 222.312C323.177 222.312 323.905 222.248 324.385 222.12C324.865 221.992 325.193 221.768 325.369 221.448C325.561 221.112 325.657 220.616 325.657 219.96C325.657 219.256 325.553 218.744 325.345 218.424C325.153 218.088 324.817 217.872 324.337 217.776C323.857 217.68 323.097 217.632 322.057 217.632C321.449 217.632 320.721 217.664 319.873 217.728C319.025 217.776 318.249 217.84 317.545 217.92V208.488H327.889V211.416H320.593V214.944C321.601 214.832 322.673 214.776 323.809 214.776C325.217 214.776 326.305 214.96 327.073 215.328C327.841 215.696 328.369 216.232 328.657 216.936C328.961 217.624 329.113 218.536 329.113 219.672C329.113 221.032 328.929 222.104 328.561 222.888C328.209 223.672 327.561 224.256 326.617 224.64C325.673 225.008 324.321 225.192 322.561 225.192C321.761 225.192 320.865 225.144 319.873 225.048C318.897 224.968 318.057 224.856 317.353 224.712V222.024ZM354.341 218.52C354.341 217.512 354.301 216.808 354.221 216.408C354.141 215.992 353.973 215.728 353.717 215.616C353.477 215.488 353.053 215.424 352.445 215.424C351.837 215.424 351.389 215.528 351.101 215.736C350.813 215.928 350.621 216.248 350.525 216.696C350.429 217.128 350.381 217.784 350.381 218.664V225H347.189V218.52C347.189 217.512 347.149 216.808 347.069 216.408C346.989 215.992 346.821 215.728 346.565 215.616C346.325 215.488 345.901 215.424 345.293 215.424C344.685 215.424 344.237 215.528 343.949 215.736C343.661 215.928 343.469 216.248 343.373 216.696C343.277 217.144 343.229 217.8 343.229 218.664V225H340.037V212.76H343.037L343.133 214.272H343.301C343.605 213.696 344.045 213.272 344.621 213C345.213 212.712 345.949 212.568 346.829 212.568C347.789 212.568 348.517 212.704 349.013 212.976C349.525 213.248 349.893 213.68 350.117 214.272H350.309C350.917 213.136 352.117 212.568 353.909 212.568C354.901 212.568 355.661 212.744 356.189 213.096C356.717 213.448 357.069 213.968 357.245 214.656C357.437 215.328 357.533 216.232 357.533 217.368V225H354.341V218.52ZM361.855 210.072V207.168H365.143V210.072H361.855ZM361.879 225V212.76H365.095V225H361.879ZM369.449 225V207.168H372.665V225H369.449ZM387.41 219.84H379.778C379.778 220.704 379.842 221.312 379.97 221.664C380.098 222.016 380.386 222.256 380.834 222.384C381.282 222.496 382.074 222.552 383.21 222.552C384.154 222.552 385.394 222.488 386.93 222.36V224.808C386.418 224.92 385.746 225.008 384.914 225.072C384.082 225.152 383.266 225.192 382.466 225.192C380.69 225.192 379.386 224.992 378.554 224.592C377.722 224.192 377.186 223.568 376.946 222.72C376.706 221.872 376.586 220.6 376.586 218.904C376.586 217.256 376.706 216.008 376.946 215.16C377.202 214.296 377.722 213.648 378.506 213.216C379.306 212.784 380.538 212.568 382.202 212.568C383.834 212.568 385.018 212.784 385.754 213.216C386.49 213.632 386.946 214.256 387.122 215.088C387.314 215.904 387.41 217.176 387.41 218.904V219.84ZM382.154 215.112C381.434 215.112 380.914 215.184 380.594 215.328C380.274 215.456 380.058 215.704 379.946 216.072C379.85 216.44 379.794 217.04 379.778 217.872H384.386C384.386 217.04 384.322 216.432 384.194 216.048C384.066 215.664 383.85 215.416 383.546 215.304C383.242 215.176 382.778 215.112 382.154 215.112ZM395.802 225.192C395.082 225.192 394.274 225.16 393.378 225.096C392.498 225.032 391.73 224.952 391.074 224.856V222.36C391.65 222.424 392.322 222.48 393.09 222.528C393.874 222.56 394.554 222.576 395.13 222.576C395.85 222.576 396.37 222.544 396.69 222.48C397.026 222.4 397.242 222.288 397.338 222.144C397.434 221.984 397.482 221.736 397.482 221.4C397.482 221.08 397.45 220.856 397.386 220.728C397.338 220.6 397.226 220.512 397.05 220.464C396.89 220.4 396.602 220.344 396.186 220.296L393.354 219.936C392.618 219.856 392.058 219.664 391.674 219.36C391.29 219.056 391.026 218.664 390.882 218.184C390.754 217.688 390.69 217.048 390.69 216.264C390.69 215.208 390.89 214.416 391.29 213.888C391.706 213.344 392.258 212.992 392.946 212.832C393.65 212.656 394.554 212.568 395.658 212.568C396.362 212.568 397.106 212.608 397.89 212.688C398.69 212.752 399.338 212.84 399.834 212.952V215.4C398.458 215.256 397.218 215.184 396.114 215.184C395.442 215.184 394.946 215.208 394.626 215.256C394.306 215.288 394.074 215.384 393.93 215.544C393.786 215.704 393.714 215.952 393.714 216.288C393.714 216.592 393.738 216.808 393.786 216.936C393.834 217.064 393.93 217.16 394.074 217.224C394.234 217.272 394.498 217.32 394.866 217.368L397.938 217.728C398.562 217.808 399.05 217.952 399.402 218.16C399.77 218.352 400.042 218.696 400.218 219.192C400.41 219.672 400.506 220.384 400.506 221.328C400.506 222.432 400.322 223.264 399.954 223.824C399.586 224.368 399.074 224.736 398.418 224.928C397.762 225.104 396.89 225.192 395.802 225.192Z" fill="#1B5FBA"/>
<path d="M217 205C214.474 202.845 212.132 200.483 210 197.938C206.8 194.116 203 188.424 203 183C202.997 177.335 206.408 172.227 211.642 170.059C216.876 167.891 222.9 169.09 226.904 173.098C229.537 175.719 231.012 179.285 231 183C231 188.424 227.2 194.116 224 197.938C221.868 200.483 219.526 202.845 217 205ZM217 173C211.48 173.007 207.007 177.48 207 183C207 185.332 208.054 189.37 213.07 195.372C214.306 196.848 215.618 198.259 217 199.6C218.382 198.261 219.694 196.852 220.932 195.378C225.946 189.368 227 185.33 227 183C226.993 177.48 222.52 173.007 217 173ZM217 189C213.686 189 211 186.314 211 183C211 179.686 213.686 177 217 177C220.314 177 223 179.686 223 183C223 184.591 222.368 186.117 221.243 187.243C220.117 188.368 218.591 189 217 189Z" fill="#1B5FBA"/>
</svg>
