<?xml version="1.0" standalone="no"?>
<!DOCTYPE svg PUBLIC "-//W3C//DTD SVG 1.1//EN" "http://www.w3.org/Graphics/SVG/1.1/DTD/svg11.dtd" >
<svg xmlns="http://www.w3.org/2000/svg" xmlns:xlink="http://www.w3.org/1999/xlink" version="1.1">
<metadata>
Created by FontForge 20170731 at Sat Dec  3 12:15:15 2016
 By Aleksey,,,
Copyright 2016 The Saira Project Authors (omnibus.type@gmail.com), with reserved font name "Saira".
</metadata>
<defs>
<font id="Saira-Regular" horiz-adv-x="0" >
  <font-face 
    font-family="Saira"
    font-weight="400"
    font-stretch="normal"
    units-per-em="1000"
    panose-1="0 0 5 0 0 0 0 0 0 0"
    ascent="800"
    descent="-200"
    x-height="510"
    cap-height="688"
    bbox="-632 -371 1245 1100"
    underline-thickness="50"
    underline-position="-200"
    unicode-range="U+000D-FB02"
  />
<missing-glyph horiz-adv-x="500" 
d="M0 0v700h500v-700h-500zM450 650h-400v-600h400v600zM229 278q0 29 13.5 48t40.5 41q28 23 42 43.5t14 54.5q0 31 -19 59t-70 28q-58 0 -78 -33.5t-20 -66.5v-28h-49q-4 12 -4 31q0 23 10.5 56t44 62t96.5 29t94.5 -28t40 -58t8.5 -49q0 -45 -18.5 -74t-48.5 -55
q-22 -18 -33 -33t-11 -37v-53h-53v63zM225 99v70h60v-70h-60z" />
    <glyph glyph-name="fi" unicode="fi" horiz-adv-x="626" 
d="M130 436h-104v74h104v76q0 72 20 105t62 42t131 9v-67q-58 0 -85 -5.5t-37 -20.5t-10 -48v-91h132v-74h-132v-436h-81v436zM456 650v93h86v-93h-86zM459 0v510h81v-510h-81z" />
    <glyph glyph-name="fl" unicode="fl" horiz-adv-x="626" 
d="M130 436h-104v74h104v76q0 72 20 105t62 42t131 9v-67q-58 0 -85 -5.5t-37 -20.5t-10 -48v-91h132v-74h-132v-436h-81v436zM459 0v743h81v-743h-81z" />
    <glyph glyph-name="f_f" unicode="ff" horiz-adv-x="744" 
d="M130 436h-104v74h104v76q0 72 20 105t62 42t131 9v-67q-58 0 -85 -5.5t-37 -20.5t-10 -48v-91h132v-74h-132v-436h-81v436zM502 436h-104v74h104v76q0 72 20 105t62 42t131 9v-67q-58 0 -85 -5.5t-37 -20.5t-10 -48v-91h132v-74h-132v-436h-81v436z" />
    <glyph glyph-name=".notdef" horiz-adv-x="500" 
d="M0 0v700h500v-700h-500zM450 650h-400v-600h400v600zM229 278q0 29 13.5 48t40.5 41q28 23 42 43.5t14 54.5q0 31 -19 59t-70 28q-58 0 -78 -33.5t-20 -66.5v-28h-49q-4 12 -4 31q0 23 10.5 56t44 62t96.5 29t94.5 -28t40 -58t8.5 -49q0 -45 -18.5 -74t-48.5 -55
q-22 -18 -33 -33t-11 -37v-53h-53v63zM225 99v70h60v-70h-60z" />
    <glyph glyph-name=".null" 
 />
    <glyph glyph-name="nonmarkingreturn" unicode="&#xd;" horiz-adv-x="235" 
 />
    <glyph glyph-name="NULL" 
 />
    <glyph glyph-name="NULL" 
 />
    <glyph glyph-name="space" unicode=" " horiz-adv-x="235" 
 />
    <glyph glyph-name="exclam" unicode="!" horiz-adv-x="248" 
d="M92 290q-12 238 -12 302v96h94v-96q0 -73 -10 -259q-1 -39 -3 -73.5t-2 -58.5h-63zM80 0v102h94v-102h-94z" />
    <glyph glyph-name="quotedbl" unicode="&#x22;" horiz-adv-x="348" 
d="M76 442l-11 172v74h79v-74l-12 -172h-56zM215 442l-11 172v74h78v-74l-11 -172h-56z" />
    <glyph glyph-name="numbersign" unicode="#" horiz-adv-x="794" 
d="M356 0l44 190h-173l-44 -190h-62l44 190h-98v64h112l41 173h-116v65h130l46 196h62l-46 -196h173l46 196h62l-47 -196h102v-65h-116l-41 -173h120v-64h-134l-44 -190h-61zM455 427h-173l-41 -173h173z" />
    <glyph glyph-name="dollar" unicode="$" horiz-adv-x="538" 
d="M452.5 134q-15.5 -33 -50.5 -47.5t-99 -18.5v-76h-63v76q-87 3 -154 13v74q70 -9 154 -10v164l-56 7q-67 8 -91 41.5t-24 104.5q0 84 41.5 117t129.5 38v79h63v-78q69 -1 137 -14v-73q-66 8 -137 11v-159l60 -6q41 -5 63 -18.5t32 -44t10 -88.5q0 -59 -15.5 -92zM240 390
v152q-48 -2 -69 -17.5t-21 -58.5q0 -32 5 -45.5t17 -19t41 -8.5zM357 155q18 8 24 24t6 45q0 34 -5 48.5t-17 19t-41 7.5l-21 3v-157q36 2 54 10z" />
    <glyph glyph-name="percent" unicode="%" horiz-adv-x="827" 
d="M102 326.5q-29 15.5 -37.5 53t-8.5 123.5q0 85 8.5 123t37.5 54t96 16t95.5 -16t36.5 -53.5t8 -123.5q0 -87 -8 -124t-36.5 -52.5t-95.5 -15.5t-96 15.5zM156 0l450 688h64l-449 -688h-65zM256 370.5q15 6.5 20 33t5 99.5q0 75 -4 100.5t-19.5 32.5t-59.5 7
q-43 0 -58.5 -7t-20.5 -33.5t-5 -99.5t5 -99.5t20.5 -33t58.5 -6.5t58 6.5zM534 7.5q-29 15.5 -37.5 53t-8.5 123.5q0 85 8.5 123t37.5 54t96 16t96 -16t37 -53.5t8 -123.5t-8 -123.5t-37 -53t-96 -15.5t-96 15.5zM688.5 51.5q15.5 6.5 20 33t4.5 99.5q0 75 -4 100.5
t-19.5 32.5t-59.5 7q-43 0 -58.5 -7t-20 -33.5t-4.5 -99.5t4.5 -99.5t20 -33t58.5 -6.5t58.5 6.5z" />
    <glyph glyph-name="ampersand" unicode="&#x26;" horiz-adv-x="736" 
d="M698 386v-76h-115v-299q-34 -7 -97.5 -13t-122.5 -6q-123 0 -187.5 23t-86 64t-21.5 105q0 55 14 87.5t40.5 50t70.5 27.5v4q-62 15 -90.5 52t-28.5 110q0 57 23 96t86.5 62t178.5 23q48 0 109 -5.5t108 -13.5v-71q-46 6 -100.5 10t-91.5 4q-101 0 -149.5 -11
t-64.5 -35.5t-16 -72.5q0 -36 9 -60t39.5 -39.5t92.5 -15.5h96v-76h-96q-65 0 -96.5 -13t-41 -38t-9.5 -71q0 -52 21.5 -77.5t66 -34.5t124.5 -9q76 0 139 7v312h196z" />
    <glyph glyph-name="quotesingle" unicode="'" horiz-adv-x="209" 
d="M76 442l-11 172v74h79v-74l-12 -172h-56z" />
    <glyph glyph-name="parenleft" unicode="(" horiz-adv-x="308" 
d="M135.5 -26.5q-28.5 48.5 -42 121.5t-13.5 202t13.5 202.5t42.5 122.5t91 121h61q-53 -69 -77 -112.5t-38 -120t-14 -213.5q0 -138 14 -215t37.5 -120t77.5 -112h-61q-63 75 -91.5 123.5z" />
    <glyph glyph-name="parenright" unicode=")" horiz-adv-x="308" 
d="M97.5 -38q23.5 43 37.5 120t14 215q0 137 -14 213.5t-38 120t-77 112.5h61q62 -72 91 -121t42.5 -122.5t13.5 -202.5t-13.5 -202t-42 -121.5t-91.5 -123.5h-61q54 69 77.5 112z" />
    <glyph glyph-name="asterisk" unicode="*" horiz-adv-x="442" 
d="M242 465l7 -146h-55l7 146l-126 -81l-27 52l132 67l-132 67l27 52l126 -81l-7 147h55l-8 -146l126 80l27 -52l-132 -67l132 -67l-27 -52z" />
    <glyph glyph-name="plus" unicode="+" horiz-adv-x="540" 
d="M236 51v166h-166v71h166v165h66v-165h168v-71h-168v-166h-66z" />
    <glyph glyph-name="comma" unicode="," horiz-adv-x="223" 
d="M80 -76q12 5 16.5 18.5t4.5 40.5v17h-37v102h95v-83q0 -60 -8.5 -89.5t-32.5 -41t-75 -11.5v42q25 0 37 5z" />
    <glyph glyph-name="hyphen" unicode="-" horiz-adv-x="362" 
d="M59 246v79h244v-79h-244z" />
    <glyph glyph-name="period" unicode="." horiz-adv-x="223" 
d="M64 0v102h95v-102h-95z" />
    <glyph glyph-name="slash" unicode="/" horiz-adv-x="359" 
d="M-4 -55l291 798h75l-292 -798h-74z" />
    <glyph glyph-name="zero" unicode="0" horiz-adv-x="672" 
d="M156.5 18.5q-52.5 26.5 -66 93.5t-13.5 232t13.5 232t66 93.5t179.5 26.5t179.5 -26.5t66 -94t13.5 -231.5q0 -165 -13.5 -232t-66 -93.5t-179.5 -26.5t-179.5 26.5zM459.5 85.5q31.5 13.5 40.5 63.5t9 195t-9 195t-40.5 63.5t-123.5 13.5t-124 -13.5t-41 -63.5t-9 -195
t9 -195t41 -63.5t124 -13.5t123.5 13.5z" />
    <glyph glyph-name="one" unicode="1" horiz-adv-x="377" 
d="M180 0v582l-142 -68v83l167 91h61v-688h-86z" />
    <glyph glyph-name="two" unicode="2" horiz-adv-x="610" 
d="M153 81h386v-81h-469v82q0 86 6.5 125.5t30.5 65t80 49.5q108 45 182 75q37 15 54.5 28.5t24 32.5t6.5 52q0 47 -14.5 69t-49 29.5t-106.5 7.5q-79 0 -200 -13v75q42 8 106 13t120 5q75 0 123 -11.5t77 -50t29 -115.5q0 -59 -12 -95t-38.5 -57.5t-73.5 -41.5l-207 -85
q-35 -13 -45 -35q-6 -14 -8 -32t-2 -48v-44z" />
    <glyph glyph-name="three" unicode="3" horiz-adv-x="602" 
d="M160 -3q-58 5 -100 13v74q118 -12 198 -12q68 0 105 7.5t57 32.5t20 76q0 67 -29.5 93.5t-102.5 26.5h-129v80h129q59 0 92 24t33 89q0 52 -18 76t-55.5 31.5t-111.5 7.5q-40 0 -91.5 -4t-92.5 -9v75q40 8 97 13t104 5q97 0 152.5 -19.5t79 -59t23.5 -102.5
q0 -72 -29.5 -110.5t-88.5 -51.5v-4q62 -11 93.5 -48t31.5 -117q0 -64 -21 -105t-78.5 -64t-163.5 -23q-46 0 -104 5z" />
    <glyph glyph-name="four" unicode="4" horiz-adv-x="643" 
d="M410 0v159h-364v71l269 458h95l-268 -449h268l18 237h68v-237h101v-80h-101v-159h-86z" />
    <glyph glyph-name="five" unicode="5" horiz-adv-x="620" 
d="M281 72q76 0 114.5 11.5t53 39.5t14.5 81q0 58 -15.5 84t-55 34.5t-124.5 8.5q-72 0 -178 -13v370h409v-81h-330v-205q72 9 153 9q95 0 144 -21.5t66.5 -63t17.5 -112.5q0 -85 -21.5 -132t-77.5 -68.5t-163 -21.5q-48 0 -106.5 5t-99.5 13v74q122 -12 199 -12z" />
    <glyph glyph-name="six" unicode="6" horiz-adv-x="657" 
d="M225 -1q-46 7 -77 28t-47 64q-14 34 -19 92t-5 154q0 89 5.5 147t19.5 96q25 67 82 91.5t170 24.5q38 0 95 -5t110 -13v-75q-119 13 -187 13q-97 0 -139.5 -18.5t-56 -69t-13.5 -165.5h6q20 22 63.5 36t130.5 14q91 0 139.5 -14.5t71.5 -55.5t23 -124q0 -92 -19.5 -139.5
t-72 -67.5t-158.5 -20q-76 0 -122 7zM449.5 80q34.5 8 48.5 34.5t14 85.5q0 63 -13 90t-47 35t-113 8q-78 0 -114.5 -10t-47.5 -32t-11 -65q0 -71 15 -103t49.5 -41.5t108.5 -9.5q76 0 110.5 8z" />
    <glyph glyph-name="seven" unicode="7" horiz-adv-x="564" 
d="M139 0l281 607h-379v81h474v-73l-280 -615h-96z" />
    <glyph glyph-name="eight" unicode="8" horiz-adv-x="683" 
d="M174 13.5q-58 21.5 -79 62.5t-21 108q0 57 14 90t40.5 49t70.5 26v4q-62 12 -90.5 50t-28.5 112q0 64 23 103t80 58.5t158 19.5q102 0 158.5 -19.5t79.5 -58.5t23 -103q0 -74 -28.5 -112t-90.5 -50v-4q45 -10 71.5 -26t40 -49t13.5 -90q0 -67 -21 -108t-79 -62.5
t-167 -21.5t-167 21.5zM450.5 396.5q36.5 9.5 51 33.5t14.5 71q0 49 -13.5 72.5t-50 33t-111.5 9.5q-74 0 -110 -9t-49.5 -33t-13.5 -73q0 -48 14 -71.5t50.5 -33t108.5 -9.5q73 0 109.5 9.5zM452.5 80.5q37.5 8.5 53.5 32.5t16 75q0 54 -15 79t-52 33.5t-114 8.5
t-113.5 -8.5t-51 -33.5t-14.5 -79q0 -51 15.5 -75t52.5 -32.5t111 -8.5t111.5 8.5z" />
    <glyph glyph-name="nine" unicode="9" horiz-adv-x="657" 
d="M206.5 -3q-57.5 5 -107.5 13v75q115 -13 186 -13q97 0 139.5 18.5t56 69t13.5 165.5h-6q-19 -22 -62 -36t-131 -14q-91 0 -139.5 14.5t-71.5 55.5t-23 124q0 93 19 140t71.5 67t158.5 20q80 0 127 -7.5t77 -30.5t45 -69q13 -37 17.5 -92.5t4.5 -145.5q0 -95 -6.5 -155
t-23.5 -100q-25 -60 -82 -82t-166 -22q-39 0 -96.5 5zM432.5 365q36.5 10 47.5 32t11 65q0 71 -15 103t-49.5 41.5t-108.5 9.5q-76 0 -110.5 -8t-48.5 -34.5t-14 -85.5q0 -63 13 -90t47 -35t113 -8q78 0 114.5 10z" />
    <glyph glyph-name="colon" unicode=":" horiz-adv-x="223" 
d="M64 408v102h95v-102h-95zM64 0v102h95v-102h-95z" />
    <glyph glyph-name="semicolon" unicode=";" horiz-adv-x="223" 
d="M64 408v102h95v-102h-95zM80 -76q12 5 16.5 18.5t4.5 40.5v17h-37v102h95v-83q0 -60 -8.5 -89.5t-32.5 -41t-75 -11.5v42q25 0 37 5z" />
    <glyph glyph-name="less" unicode="&#x3c;" horiz-adv-x="541" 
d="M471 44l-400 167v83l400 168v-75l-334 -134l334 -135v-74z" />
    <glyph glyph-name="equal" unicode="=" horiz-adv-x="540" 
d="M70 318v71h400v-71h-400zM70 117v71h400v-71h-400z" />
    <glyph glyph-name="greater" unicode="&#x3e;" horiz-adv-x="541" 
d="M70 44v74l334 135l-334 134v75l400 -168v-83z" />
    <glyph glyph-name="question" unicode="?" horiz-adv-x="504" 
d="M154 279q0 37 7.5 57.5t22.5 31.5t44 21l36 13q38 13 54.5 24t22.5 30.5t6 60.5q0 46 -13.5 66.5t-42.5 26.5t-89 6q-71 0 -164 -12v76q44 7 97.5 11.5t94.5 4.5q74 0 118 -17t64.5 -55.5t20.5 -104.5q0 -70 -17.5 -108t-66.5 -54l-35 -13q-45 -15 -59.5 -22.5t-19 -19.5
t-4.5 -42v-60h-77v79zM145 0v102h95v-102h-95z" />
    <glyph glyph-name="at" unicode="@" horiz-adv-x="931" 
d="M196.5 -80q-75.5 28 -94 102.5t-18.5 271.5t18.5 272t94 102.5t268.5 27.5t268.5 -27t94.5 -102t19 -273q0 -105 -12 -151t-37 -57t-80 -11h-135l-4 61h-5q-19 -41 -57 -54.5t-91 -13.5q-77 0 -111.5 28.5t-34.5 100.5q0 51 11.5 78.5t39.5 39.5t81 12q58 0 164 -4v26
q0 50 -9 70t-34.5 26t-88.5 6q-29 0 -73 -2.5t-62 -5.5v63q81 12 161 12q78 0 116 -16t51 -51t13 -102v-230h79q30 0 43.5 9t20 45.5t6.5 120.5q0 143 -7.5 207t-37 96.5t-97.5 42.5q-58 10 -193 10q-118 0 -177 -8q-76 -9 -108 -40.5t-40.5 -95.5t-8.5 -212q0 -157 10 -222
t49 -94t133 -36q43 -4 143 -4q53 0 111 1.5t74 2.5v-47q-63 -3 -185 -3q-193 0 -268.5 28zM527.5 141q26.5 10 37.5 34t11 70v28h-145q-34 0 -50 -5t-22 -19.5t-6 -46.5q0 -31 7.5 -45.5t27.5 -20t63 -5.5q50 0 76.5 10z" />
    <glyph glyph-name="A" unicode="A" horiz-adv-x="684" 
d="M567 0l-71 183h-310l-71 -183h-87l260 688h108l260 -688h-89zM343 595h-5l-126 -331h257z" />
    <glyph glyph-name="B" unicode="B" horiz-adv-x="682" 
d="M100 688h320q98 0 140.5 -44t42.5 -129q0 -69 -28 -109.5t-90 -52.5v-4q71 -13 98 -55t27 -113q0 -84 -41.5 -132.5t-151.5 -48.5h-317v688zM486.5 415q30.5 27 30.5 83q0 42 -11 65t-37.5 34t-76.5 11h-206v-220h206q64 0 94.5 27zM473.5 91q27.5 11 39 35.5t11.5 67.5
q0 62 -29 88t-99 26h-210v-228h210q50 0 77.5 11z" />
    <glyph glyph-name="C" unicode="C" horiz-adv-x="575" 
d="M440.5 -4.5q-46.5 -3.5 -86.5 -3.5q-124 0 -181 27t-76.5 98.5t-19.5 226.5q0 154 19.5 226t76.5 99t181 27q41 0 86 -4t74 -11v-75q-75 10 -138 10q-105 0 -146.5 -16t-54.5 -69t-13 -187t13 -187t54.5 -69t146.5 -16q77 0 142 10v-77q-31 -6 -77.5 -9.5z" />
    <glyph glyph-name="D" unicode="D" horiz-adv-x="689" 
d="M100 688h219q143 0 202 -25.5t75 -91.5t16 -227t-16 -227t-75 -91.5t-202 -25.5h-219v688zM305 80q117 0 157.5 12.5t52.5 62t12 189.5q0 139 -12.5 189t-53 62.5t-156.5 12.5h-119v-528h119z" />
    <glyph glyph-name="E" unicode="E" horiz-adv-x="604" 
d="M100 0v688h448v-80h-362v-221h314v-80h-314v-227h362v-80h-448z" />
    <glyph glyph-name="F" unicode="F" horiz-adv-x="566" 
d="M100 0v688h428v-80h-342v-236h304v-81h-304v-291h-86z" />
    <glyph glyph-name="G" unicode="G" horiz-adv-x="677" 
d="M350 294v79h238v-361q-49 -9 -110.5 -14.5t-108.5 -5.5q-126 0 -186.5 27.5t-83 100t-22.5 224.5q0 151 23 224t83.5 100.5t185.5 27.5q49 0 109.5 -6t106.5 -14v-76q-114 16 -174 16q-119 0 -165.5 -13t-65 -68t-18.5 -191q0 -126 14 -181t56 -74t138 -19q30 0 70 2.5
t65 5.5v216h-155z" />
    <glyph glyph-name="H" unicode="H" horiz-adv-x="732" 
d="M547 0v305h-361v-305h-86v688h86v-300h361v300h85v-688h-85z" />
    <glyph glyph-name="I" unicode="I" horiz-adv-x="286" 
d="M100 0v688h86v-688h-86z" />
    <glyph glyph-name="J" unicode="J" horiz-adv-x="355" 
d="M136.5 87.5q26.5 9.5 33.5 41.5t7 125v434h86v-404q0 -148 -12 -201t-54.5 -67.5t-162.5 -15.5v76q76 2 102.5 11.5z" />
    <glyph glyph-name="K" unicode="K" horiz-adv-x="671" 
d="M544 0l-234 310h-124v-310h-86v688h86v-298h124l235 298h96l-262 -333l265 -355h-100z" />
    <glyph glyph-name="L" unicode="L" horiz-adv-x="538" 
d="M100 0v688h86v-605h321v-83h-407z" />
    <glyph glyph-name="M" unicode="M" horiz-adv-x="907" 
d="M723 0v541h-4l-236 -541h-63l-235 541h-4v-541h-81v688h116l235 -535h5l235 535h116v-688h-84z" />
    <glyph glyph-name="N" unicode="N" horiz-adv-x="732" 
d="M550 0l-363 526h-4v-526h-83v688h88l358 -514h4v514h82v-688h-82z" />
    <glyph glyph-name="O" unicode="O" horiz-adv-x="718" 
d="M165 19q-57 27 -72.5 94.5t-15.5 230.5t15.5 230.5t72.5 94.5t194 27q136 0 193.5 -27t73 -94.5t15.5 -230.5t-15.5 -230.5t-73 -94.5t-193.5 -27q-137 0 -194 27zM497 85q36 13 47 65t11 194t-11 194t-47 65t-138 13t-138.5 -13t-47.5 -65t-11 -194t11 -194t47.5 -65
t138.5 -13t138 13z" />
    <glyph glyph-name="P" unicode="P" horiz-adv-x="652" 
d="M100 688h302q83 0 126 -27t57 -73t14 -119q0 -70 -14 -116.5t-57.5 -74.5t-127.5 -28h-214v-250h-86v688zM371 330q65 0 95 13.5t39 41.5t9 84t-8.5 84t-38 41.5t-94.5 13.5h-187v-278h185z" />
    <glyph glyph-name="Q" unicode="Q" horiz-adv-x="718" 
d="M659 -113v-2h-98l-82 114q-46 -7 -120 -7q-137 0 -194 27t-72.5 94.5t-15.5 230.5t15.5 230.5t72.5 94.5t194 27q136 0 193.5 -27t73 -94.5t15.5 -230.5q0 -107 -5 -166t-22.5 -97.5t-54.5 -58.5zM426 72l-105 146h92l96 -130q20 13 30 41t13 76.5t3 138.5q0 142 -11 194
t-47 65t-138 13t-138.5 -13t-47.5 -65t-11 -194t11 -194t47.5 -65t138.5 -13h67z" />
    <glyph glyph-name="R" unicode="R" horiz-adv-x="682" 
d="M526 0l-107 270h-17h-216v-270h-86v688h316q82 0 124 -26t55 -70t13 -113q0 -71 -21 -123.5t-86 -71.5l117 -284h-92zM474.5 363.5q30.5 13.5 39 39.5t8.5 76q0 51 -8 77t-36.5 39t-90.5 13h-201v-258h194q64 0 94.5 13.5z" />
    <glyph glyph-name="S" unicode="S" horiz-adv-x="629" 
d="M206.5 -4q-67.5 4 -119.5 10v79q130 -13 217 -13q54 0 85.5 4.5t53.5 16.5q20 12 26 35.5t6 62.5q0 47 -5 66.5t-23.5 28.5t-63.5 13l-170 19q-62 7 -93.5 29.5t-42 59t-10.5 95.5q0 82 28.5 124t80 56t138.5 14q58 0 118 -5t95 -12v-76q-38 6 -94 9.5t-104 3.5
q-56 0 -90 -5t-53 -17q-21 -12 -27 -32t-6 -57q0 -41 6 -59.5t23 -27t56 -12.5l168 -19q60 -6 93 -21t48 -54q14 -36 14 -115q0 -91 -28 -135.5t-75 -57t-129 -12.5q-55 0 -122.5 4z" />
    <glyph glyph-name="T" unicode="T" horiz-adv-x="582" 
d="M248 0v605h-218v83h521v-83h-217v-605h-86z" />
    <glyph glyph-name="U" unicode="U" horiz-adv-x="709" 
d="M617 688v-387q0 -134 -17 -196.5t-71 -87.5t-174 -25t-174 25.5t-71.5 87.5t-17.5 196v387h85v-420q0 -90 10 -128t46 -53t122 -15t121.5 15t45 52.5t9.5 128.5v420h86z" />
    <glyph glyph-name="V" unicode="V" horiz-adv-x="664" 
d="M278 0l-249 688h90l211 -582h5l212 582h87l-248 -688h-108z" />
    <glyph glyph-name="W" unicode="W" horiz-adv-x="988" 
d="M663 0l-167 547h-4l-166 -547h-102l-188 688h88l154 -570h5l168 570h90l170 -570h6l149 570h86l-187 -688h-102z" />
    <glyph glyph-name="X" unicode="X" horiz-adv-x="675" 
d="M545 0l-205 271h-8l-205 -271h-98l257 345l-253 343h102l200 -265h8l201 265h99l-253 -340l256 -348h-101z" />
    <glyph glyph-name="Y" unicode="Y" horiz-adv-x="610" 
d="M261 0v260l-249 428h92l199 -335h7l198 335h90l-251 -428v-260h-86z" />
    <glyph glyph-name="Z" unicode="Z" horiz-adv-x="607" 
d="M54 0v76l388 532h-377v80h486v-74l-390 -534h395v-80h-502z" />
    <glyph glyph-name="bracketleft" unicode="[" horiz-adv-x="336" 
d="M100 -150v893h195v-64l-119 -4v-757l119 -4v-64h-195z" />
    <glyph glyph-name="backslash" unicode="\" horiz-adv-x="359" 
d="M288 -55l-292 798h75l291 -798h-74z" />
    <glyph glyph-name="bracketright" unicode="]" horiz-adv-x="336" 
d="M42 -150v64l119 4v757l-119 4v64h194v-893h-194z" />
    <glyph glyph-name="asciicircum" unicode="^" horiz-adv-x="457" 
d="M340 443l-111 245l-112 -245h-67l140 306h77l139 -306h-66z" />
    <glyph glyph-name="underscore" unicode="_" horiz-adv-x="359" 
d="M0 -172v71h359v-71h-359z" />
    <glyph glyph-name="grave" unicode="`" horiz-adv-x="229" 
d="M149 602l-129 136v5h88l101 -136v-5h-60z" />
    <glyph glyph-name="a" unicode="a" horiz-adv-x="570" 
d="M95 24.5q-40 32.5 -40 115.5q0 59 14 92t47.5 48t94.5 15q29 0 191 -5v30q0 60 -11.5 85t-42 32t-103.5 7q-32 0 -80.5 -3.5t-75.5 -7.5v71q79 14 185 14q90 0 134.5 -18.5t59.5 -60t15 -120.5v-319h-73l-4 71h-6q-21 -48 -67.5 -63.5t-109.5 -15.5q-88 0 -128 32.5z
M335.5 74q31.5 9 45.5 35q21 36 21 100v23h-170q-42 0 -61.5 -6t-27.5 -23.5t-8 -54.5q0 -36 9 -53t33.5 -23.5t76.5 -6.5q50 0 81.5 9z" />
    <glyph glyph-name="b" unicode="b" horiz-adv-x="591" 
d="M232 8.5q-43 16.5 -63 62.5h-6l-4 -71h-72v743h81v-297h5q20 40 60.5 56t105.5 16q75 0 114.5 -23t56 -78.5t16.5 -161.5t-16.5 -161.5t-56.5 -78.5t-116 -23q-62 0 -105 16.5zM397.5 82q27.5 12 37 49t9.5 124q0 86 -9.5 122.5t-37 49t-92.5 12.5q-49 0 -78 -12t-41 -37
q-11 -22 -14.5 -53t-3.5 -82q0 -53 3 -83t14 -52q13 -26 42 -38t78 -12q65 0 92.5 12z" />
    <glyph glyph-name="c" unicode="c" horiz-adv-x="460" 
d="M345.5 -4q-38.5 -4 -73.5 -4q-94 0 -138 27t-56.5 80t-12.5 156q0 101 15 156t59 81t130 26q34 0 72.5 -4t65.5 -9v-72q-60 11 -118 11q-64 0 -93.5 -15t-39.5 -53t-10 -121q0 -84 10.5 -122.5t40 -52.5t95.5 -14q49 0 119 10v-71q-27 -5 -65.5 -9z" />
    <glyph glyph-name="d" unicode="d" horiz-adv-x="591" 
d="M138 15q-40 23 -56.5 78.5t-16.5 160.5q0 106 16 162t55.5 79t114.5 23q66 0 106.5 -16t59.5 -56h6v297h81v-743h-73l-3 71h-6q-21 -46 -64 -62.5t-104 -16.5q-76 0 -116 23zM367 83.5q30 13.5 41 42.5q10 23 12.5 52.5t2.5 81.5q0 43 -3 71t-11 48q-12 31 -42.5 45.5
t-83.5 14.5q-63 0 -90.5 -12.5t-37 -49.5t-9.5 -122q0 -87 9.5 -124t37 -49t92.5 -12q52 0 82 13.5z" />
    <glyph glyph-name="e" unicode="e" horiz-adv-x="560" 
d="M495 226h-349q0 -73 10 -104t43.5 -43.5t112.5 -12.5q77 0 163 11v-71q-32 -6 -83 -10t-97 -4q-103 0 -151.5 24t-63.5 77t-15 161q0 106 13.5 159t61 79t150.5 26q96 0 139 -25.5t54.5 -77t11.5 -160.5v-29zM194.5 432.5q-28.5 -11.5 -38 -43t-10.5 -101.5h271v8
q0 66 -11.5 97t-37.5 41t-80 10q-65 0 -93.5 -11.5z" />
    <glyph glyph-name="f" unicode="f" horiz-adv-x="372" 
d="M130 436h-104v74h104v76q0 72 20 105t62 42t131 9v-67q-58 0 -85 -5.5t-37 -20.5t-10 -48v-91h132v-74h-132v-436h-81v436z" />
    <glyph glyph-name="g" unicode="g" horiz-adv-x="591" 
d="M93 -197v71q96 -6 163 -6q77 0 111.5 14t45 49.5t10.5 113.5v22h-5q-19 -39 -59.5 -55.5t-104.5 -16.5q-77 0 -117 22.5t-56 77.5t-16 160q0 106 16.5 161.5t56.5 78.5t116 23q61 0 104.5 -17t63.5 -63h6l3 72h73v-445q0 -108 -15.5 -163t-64.5 -81.5t-151 -26.5
q-106 0 -180 9zM364.5 85.5q29.5 12.5 41.5 38.5q10 22 13.5 52t3.5 80q0 51 -2.5 79.5t-12.5 48.5q-13 30 -43 43t-80 13q-64 0 -92 -12.5t-37.5 -49t-9.5 -122.5q0 -85 9.5 -121.5t37.5 -49t92 -12.5q50 0 79.5 12.5z" />
    <glyph glyph-name="h" unicode="h" horiz-adv-x="599" 
d="M432 287q0 71 -9 101.5t-34 40.5t-84 10q-63 0 -92.5 -20t-37 -55t-7.5 -101v-263h-81v743h81v-300h5q16 36 54.5 55t110.5 19q74 0 111.5 -20.5t50.5 -62t13 -115.5v-319h-81v287z" />
    <glyph glyph-name="i" unicode="i" horiz-adv-x="254" 
d="M84 650v93h86v-93h-86zM87 0v510h81v-510h-81z" />
    <glyph glyph-name="j" unicode="j" horiz-adv-x="254" 
d="M84 650v93h86v-93h-86zM-9 -132q44 0 64 5t26 16t6 34v587h81v-567q0 -66 -16 -96t-51.5 -38.5t-109.5 -8.5v68z" />
    <glyph glyph-name="k" unicode="k" horiz-adv-x="537" 
d="M412 0l-180 220h-64v-220h-81v743h81v-448h64l181 215h91l-207 -247l210 -263h-95z" />
    <glyph glyph-name="l" unicode="l" horiz-adv-x="254" 
d="M87 0v743h81v-743h-81z" />
    <glyph glyph-name="m" unicode="m" horiz-adv-x="883" 
d="M715 287q0 72 -7.5 102t-29.5 40t-74 10q-56 0 -82 -19t-33 -54t-7 -103v-263h-81v287q0 72 -7.5 102t-29.5 40t-74 10q-56 0 -82 -19.5t-33 -55t-7 -101.5v-263h-81v510h72l4 -72h6q15 39 51.5 59.5t103.5 20.5q66 0 100 -19t47 -61h7q32 80 159 80q67 0 101 -21
t46 -62.5t12 -115.5v-319h-81v287z" />
    <glyph glyph-name="n" unicode="n" horiz-adv-x="599" 
d="M432 287q0 71 -9 101.5t-34 40.5t-84 10q-63 0 -92.5 -20t-37 -55t-7.5 -101v-263h-81v510h72l4 -72h6q17 39 56 59.5t113 20.5t111.5 -21t50.5 -62.5t13 -115.5v-319h-81v287z" />
    <glyph glyph-name="o" unicode="o" horiz-adv-x="577" 
d="M136 13.5q-46 21.5 -58.5 73t-12.5 168.5t12.5 168.5t58.5 73t153 21.5q106 0 152 -21.5t58.5 -73t12.5 -168.5t-12.5 -168.5t-58.5 -73t-152 -21.5q-107 0 -153 21.5zM390 79q28 13 34.5 47.5t6.5 128.5t-6.5 128.5t-34.5 47.5t-101 13t-101.5 -13t-35 -47.5
t-6.5 -128.5t6.5 -128.5t35 -47.5t101.5 -13t101 13z" />
    <glyph glyph-name="p" unicode="p" horiz-adv-x="591" 
d="M87 510h72l4 -72h6q20 46 63.5 63t104.5 17q76 0 116 -23t56.5 -78.5t16.5 -160.5q0 -106 -16.5 -162t-56 -79t-114.5 -23q-65 0 -105.5 16t-60.5 56h-5v-264h-81v710zM397.5 83q27.5 12 37 49t9.5 123t-9.5 123t-37 49.5t-92.5 12.5q-51 0 -81 -14t-42 -43
q-9 -22 -11.5 -51t-2.5 -77q0 -49 2 -77t10 -47q13 -32 43 -46t82 -14q65 0 92.5 12z" />
    <glyph glyph-name="q" unicode="q" horiz-adv-x="591" 
d="M423 64h-5q-20 -40 -60.5 -56t-106.5 -16q-75 0 -114.5 22.5t-55.5 78t-16 161.5t16.5 162t56.5 79t116 23q61 0 104 -16.5t64 -63.5h6l3 72h73v-710h-81v264zM367.5 85.5q29.5 14.5 42.5 45.5q8 20 10.5 49t2.5 75q0 52 -3 82t-15 53q-12 26 -41.5 38t-78.5 12
q-64 0 -92 -12.5t-37.5 -49.5t-9.5 -123t9.5 -123t37 -49t92.5 -12q53 0 82.5 14.5z" />
    <glyph glyph-name="r" unicode="r" horiz-adv-x="367" 
d="M87 510h72l4 -97h6q18 60 60 82.5t110 22.5v-87q-69 0 -106 -21t-51 -64.5t-14 -117.5v-228h-81v510z" />
    <glyph glyph-name="s" unicode="s" horiz-adv-x="499" 
d="M163 -4q-52 4 -92 9v72q99 -11 181 -11q51 0 75 7t31.5 22.5t7.5 46.5t-5.5 44.5t-17.5 18.5t-42 8l-133 15q-46 5 -70.5 21t-33.5 44t-9 75q0 65 23.5 97.5t65 42.5t111.5 10q39 0 84 -4t76 -10v-72q-78 12 -161 12q-46 0 -70 -4.5t-37 -20t-13 -48.5q0 -29 5 -42
t17 -18t40 -8l138 -16q44 -5 66.5 -16.5t33 -40.5t10.5 -86q0 -63 -20.5 -96t-60 -44.5t-107.5 -11.5q-41 0 -93 4z" />
    <glyph glyph-name="t" unicode="t" horiz-adv-x="359" 
d="M129 0v436h-103v74h103v148h81v-148h122v-74h-122v-436h-81z" />
    <glyph glyph-name="u" unicode="u" horiz-adv-x="599" 
d="M436 72h-6q-17 -39 -56 -59.5t-113 -20.5q-73 0 -110.5 21t-50.5 62.5t-13 115.5v319h81v-287q0 -72 8.5 -102t33.5 -40t84 -10q63 0 92.5 20t37.5 55.5t8 100.5v263h81v-510h-73z" />
    <glyph glyph-name="v" unicode="v" horiz-adv-x="530" 
d="M215 0l-188 510h85l151 -420h7l150 420h83l-187 -510h-101z" />
    <glyph glyph-name="w" unicode="w" horiz-adv-x="817" 
d="M529 0l-118 365h-7l-116 -365h-94l-163 510h84l125 -405h7l124 405h77l125 -405h7l124 405h82l-163 -510h-94z" />
    <glyph glyph-name="x" unicode="x" horiz-adv-x="547" 
d="M423 0l-149 194h-6l-148 -194h-90l193 259l-186 251h93l142 -185h5l142 185h90l-186 -250l193 -260h-93z" />
    <glyph glyph-name="y" unicode="y" horiz-adv-x="599" 
d="M111 -197v70q110 -5 154 -5q77 0 112 15.5t45 49t10 105.5v30h-6q-15 -34 -53.5 -53.5t-111.5 -19.5t-110.5 20.5t-50.5 62t-13 114.5v318h81v-285q0 -72 8.5 -102t33.5 -40t84 -10q63 0 92.5 20t37.5 55t8 100v262h81v-448q0 -106 -16 -161t-65 -81t-149 -26
q-107 0 -172 9z" />
    <glyph glyph-name="z" unicode="z" horiz-adv-x="508" 
d="M52 0v69l297 367h-285v74h390v-69l-296 -367h298v-74h-404z" />
    <glyph glyph-name="braceleft" unicode="{" horiz-adv-x="325" 
d="M197 -117.5q-27 24.5 -48 63.5t-21 86v116q0 52 -22 88.5t-79 36.5v47q57 0 79 36.5t22 88.5v115q0 48 21 87t48 63.5t45 32.5h63q-16 -8 -40.5 -34.5t-42.5 -64t-18 -76.5v-122q0 -124 -98 -146v-7q98 -22 98 -147v-121q0 -39 18 -76.5t42.5 -64t40.5 -34.5h-63
q-18 8 -45 32.5z" />
    <glyph glyph-name="bar" unicode="|" horiz-adv-x="277" 
d="M102 -161v904h74v-904h-74z" />
    <glyph glyph-name="braceright" unicode="}" horiz-adv-x="325" 
d="M60 -115.5q24 26.5 42 63.5t18 77v121q0 125 98 147v7q-98 22 -98 146v122q0 40 -18 77t-42 63.5t-41 34.5h63q18 -8 45 -32.5t48 -63.5t21 -87v-115q0 -52 22 -88.5t79 -36.5v-47q-57 0 -79 -36.5t-22 -88.5v-116q0 -47 -21 -86t-48 -63.5t-45 -32.5h-63q17 8 41 34.5z
" />
    <glyph glyph-name="asciitilde" unicode="~" horiz-adv-x="497" 
d="M424 298q-5 -24 -20.5 -36.5t-48.5 -12.5q-24 0 -47.5 5t-44 11t-27.5 8q-23 7 -47.5 13t-42.5 6q-21 0 -26 -11t-5 -43h-48q0 44 5 68.5t21 36.5t48 12q26 0 51.5 -5.5t67.5 -17.5q61 -19 91 -19q21 0 26 10.5t5 42.5h47q0 -44 -5 -68z" />
    <glyph glyph-name="uni00A0" unicode="&#xa0;" horiz-adv-x="235" 
 />
    <glyph glyph-name="exclamdown" unicode="&#xa1;" horiz-adv-x="242" 
d="M74 408v102h95v-102h-95zM74 -82q0 37 4 129t6 128q6 120 6 134h63q0 -24 2 -58.5t3 -73.5q10 -186 10 -259v-96h-94v96z" />
    <glyph glyph-name="cent" unicode="&#xa2;" horiz-adv-x="468" 
d="M416 81q-50 -12 -112 -13v-76h-63v76q-74 5 -112 35.5t-51 86.5t-13 152t16 153.5t54 87.5t106 34v79h63v-79q60 -2 107 -13v-73q-45 8 -107 10v-396q68 2 112 11v-75zM158 229q7 -39 26 -57t57 -24v390q-38 -6 -57 -24.5t-26 -57.5t-7 -113q0 -75 7 -114z" />
    <glyph glyph-name="sterling" unicode="&#xa3;" horiz-adv-x="590" 
d="M543 80v-80h-489v80h74v236h-74v79h74q0 123 20.5 186t74 89t160.5 26q40 0 82 -4t66 -11v-75q-80 10 -122 10q-55 0 -89 -4.5t-55 -17.5q-31 -19 -41 -66t-10 -133h242v-79h-242v-236h329z" />
    <glyph glyph-name="currency" unicode="&#xa4;" horiz-adv-x="718" 
d="M65 42l97 94q-17 28 -22 75.5t-5 132.5q0 84 5 131.5t21 76.5l-96 93l47 50l99 -97q45 21 148 21q53 0 88 -5t59 -17l101 99l46 -50l-96 -94q15 -29 20 -76.5t5 -131.5t-5 -131.5t-21 -76.5l97 -95l-46 -50l-102 99q-23 -12 -58 -16.5t-88 -4.5q-54 0 -89.5 4.5
t-57.5 16.5l-101 -98zM460 157q28 14 34.5 50.5t6.5 136.5t-6.5 136.5t-34.5 50.5t-101 14q-74 0 -102 -14t-34.5 -50.5t-6.5 -136.5t6.5 -136.5t35 -50.5t101.5 -14t101 14z" />
    <glyph glyph-name="yen" unicode="&#xa5;" horiz-adv-x="624" 
d="M268 0v236h-203v58h184l-62 102h-122v59h93l-126 233h91l186 -346h7l187 346h88l-126 -233h92v-59h-122l-62 -102h184v-58h-203v-236h-86z" />
    <glyph glyph-name="brokenbar" unicode="&#xa6;" horiz-adv-x="277" 
d="M102 390v353h74v-353h-74zM102 -161v353h74v-353h-74z" />
    <glyph glyph-name="section" unicode="&#xa7;" horiz-adv-x="696" 
d="M203.5 -165q-48.5 6 -53.5 7v74q77 -7 143 -7q72 0 105.5 4t50 19.5t16.5 50.5q0 30 -5 45t-17.5 23.5t-39.5 15.5l-195 56q-58 15 -89 31.5t-45.5 45t-14.5 78.5q0 73 21 118.5t84 52.5q-11 17 -13.5 38.5t-2.5 55.5q0 88 54.5 120.5t166.5 32.5q75 0 123.5 -6t53.5 -7
v-74q-77 7 -143 7q-71 0 -105 -4t-50.5 -20t-16.5 -50q0 -32 5.5 -47t20 -23t47.5 -17l191 -56q55 -15 84 -31t43.5 -44.5t14.5 -78.5q0 -72 -21.5 -118t-84.5 -52q11 -17 14 -39.5t3 -53.5q0 -61 -25.5 -94.5t-73 -46t-122.5 -12.5t-123.5 6zM557 227q0 44 -11 60.5
t-44 25.5l-240 65l-23 6q-26 8 -38 8q-31 0 -46.5 -23t-15.5 -72q0 -31 5 -47t18 -25t39 -16l235 -65l21 -6q28 -7 38 -7q62 0 62 96z" />
    <glyph glyph-name="dieresis" unicode="&#xa8;" horiz-adv-x="305" 
d="M20 647v83h77v-83h-77zM209 647v83h76v-83h-76z" />
    <glyph glyph-name="copyright" unicode="&#xa9;" horiz-adv-x="733" 
d="M169 16.5q-56 24.5 -70 90.5t-14 237t14 236.5t70 90.5t197 25t197.5 -25t70.5 -91t14 -236q0 -171 -14 -237t-70.5 -90.5t-197.5 -24.5t-197 24.5zM537 51q45 17 57 74t12 219t-12 219t-57 73.5t-171 16.5t-170.5 -16.5t-56.5 -73.5t-12 -219t12 -219t57 -74t170 -17
q126 0 171 17zM291 168.5q-31 15.5 -41.5 54t-10.5 120.5q0 81 10.5 119.5t42 54t97.5 15.5q61 0 88 -8v-47q-37 5 -77 5q-52 0 -72.5 -8.5t-27 -35t-6.5 -95.5t6.5 -96t27 -35.5t72.5 -8.5q46 0 79 5v-48q-37 -7 -90 -7q-67 0 -98 15.5z" />
    <glyph glyph-name="ordfeminine" unicode="&#xaa;" horiz-adv-x="408" 
d="M70 338q-28 24 -28 86q0 43 9.5 66.5t33.5 34t69 10.5q44 0 134 -4v21q0 41 -7.5 58t-29 22t-75.5 5q-60 0 -111 -8v57q58 10 134 10q66 0 99 -14t44 -44t11 -87v-233h-59l-5 43h-4q-19 -29 -50 -38t-73 -9q-64 0 -92 24zM245.5 374q22.5 6 31.5 26q11 25 11 69v18h-118
q-41 0 -54 -11t-13 -47q0 -26 6.5 -38.5t23.5 -17.5t52 -5q38 0 60.5 6z" />
    <glyph glyph-name="guillemotleft" unicode="&#xab;" horiz-adv-x="474" 
d="M179 99l-132 205l132 206h58l-114 -206l114 -205h-58zM347 99l-133 205l133 206h58l-114 -206l114 -205h-58z" />
    <glyph glyph-name="logicalnot" unicode="&#xac;" horiz-adv-x="539" 
d="M403 52v166h-333v73h399v-239h-66z" />
    <glyph glyph-name="uni00AD" unicode="&#xad;" horiz-adv-x="362" 
d="M59 246v79h244v-79h-244z" />
    <glyph glyph-name="registered" unicode="&#xae;" horiz-adv-x="733" 
d="M563.5 671q56.5 -25 70.5 -91t14 -236q0 -171 -14 -237t-70.5 -90.5t-197.5 -24.5t-197 24.5t-70 90.5t-14 237t14 236.5t70 90.5t197 25t197.5 -25zM537 51q45 17 57 74t12 219t-12 219t-57 73.5t-171 16.5t-170.5 -16.5t-56.5 -73.5t-12 -219t12 -219t57 -74t170 -17
q126 0 171 17zM498 348.5q-11 -27.5 -44 -38.5l63 -152h-60l-55 144q-8 -2 -24 -2h-91v-142h-54v370h167q48 0 71.5 -14.5t30.5 -38t7 -60.5q0 -39 -11 -66.5zM429.5 357q16.5 7 21 20t4.5 37q0 25 -4.5 38t-19 19.5t-45.5 6.5h-99v-128h92q34 0 50.5 7z" />
    <glyph glyph-name="macron" unicode="&#xaf;" horiz-adv-x="362" 
d="M59 662v80h244v-80h-244z" />
    <glyph glyph-name="degree" unicode="&#xb0;" horiz-adv-x="390" 
d="M105.5 410q-27.5 13 -35 42.5t-7.5 93.5t7.5 93.5t35 43t89.5 13.5t89.5 -13.5t35 -43t7.5 -93.5t-7.5 -93.5t-35 -42.5t-89.5 -13t-89.5 13zM247.5 452.5q14.5 7.5 18 26t3.5 67.5t-3.5 67.5t-18 26t-52.5 7.5t-53 -7.5t-18.5 -26t-3.5 -67.5t3.5 -67.5t18.5 -26
t53 -7.5t52.5 7.5z" />
    <glyph glyph-name="plusminus" unicode="&#xb1;" horiz-adv-x="540" 
d="M236 184v165h-166v71h166v165h66v-165h168v-71h-168v-165h-66zM70 -1v71h400v-71h-400z" />
    <glyph glyph-name="uni00B2" unicode="&#xb2;" horiz-adv-x="362" 
d="M108 377h204v-59h-263v48q0 44 3 65t14 34t36 25l109 46q24 10 32 20.5t8 34.5q0 21 -7 30.5t-23.5 13t-50.5 3.5q-29 0 -114 -9v57q65 10 128 10q42 0 68.5 -6.5t43 -28t16.5 -65.5q0 -46 -15.5 -70t-51.5 -39l-30 -12q-13 -5 -31.5 -12.5t-43.5 -17.5q-20 -8 -26 -18
t-6 -33v-17z" />
    <glyph glyph-name="uni00B3" unicode="&#xb3;" horiz-adv-x="354" 
d="M40 319v55q86 -7 112 -7q49 0 68.5 10t19.5 44q0 32 -13.5 44.5t-47.5 12.5h-75v53h75q26 0 41.5 11.5t15.5 42.5q0 33 -19.5 43t-69.5 10q-46 0 -105 -8v55q64 11 115 11q78 0 109.5 -24.5t31.5 -78.5q0 -64 -49 -85v-4q53 -19 53 -86q0 -37 -11.5 -60t-43.5 -36
t-91 -13q-58 0 -116 10z" />
    <glyph glyph-name="acute" unicode="&#xb4;" horiz-adv-x="229" 
d="M20 602v5l101 136h88v-5l-129 -136h-60z" />
    <glyph glyph-name="uni00B5" unicode="&#xb5;" horiz-adv-x="599" 
d="M513 510v-510h-73l-4 72h-6q-17 -39 -56 -59.5t-113 -20.5q-57 0 -93 23v-204h-81v699h81v-287q0 -72 8.5 -102t33.5 -40t84 -10q63 0 92.5 20t37.5 55.5t8 100.5v263h81z" />
    <glyph glyph-name="paragraph" unicode="&#xb6;" horiz-adv-x="588" 
d="M309 222q-121 0 -169.5 16t-61.5 60t-13 156t13 156.5t62 61t169 16.5h62v-832h-62v366zM437 -144v832h61v-832h-61z" />
    <glyph glyph-name="periodcentered" unicode="&#xb7;" horiz-adv-x="223" 
d="M64 248v103h95v-103h-95z" />
    <glyph glyph-name="cedilla" unicode="&#xb8;" horiz-adv-x="161" 
d="M20 -190v5l65 193h56v-5l-40 -193h-81z" />
    <glyph glyph-name="uni00B9" unicode="&#xb9;" horiz-adv-x="241" 
d="M111 318v294l-76 -35v60l94 51h42v-370h-60z" />
    <glyph glyph-name="ordmasculine" unicode="&#xba;" horiz-adv-x="422" 
d="M100 331q-34 17 -43.5 54t-9.5 119t9.5 119.5t43.5 55t111 17.5t111 -17.5t43.5 -55t9.5 -119.5t-9.5 -119t-43.5 -54t-111 -17t-111 17zM281.5 380.5q19.5 9.5 24 33.5t4.5 90t-4.5 90.5t-24.5 34t-70 9.5t-70 -9.5t-24.5 -34t-4.5 -90.5t4.5 -90t24 -33.5t70.5 -9.5
t70.5 9.5z" />
    <glyph glyph-name="guillemotright" unicode="&#xbb;" horiz-adv-x="474" 
d="M69 99l114 205l-114 206h58l132 -206l-132 -205h-58zM237 99l114 205l-114 206h58l132 -206l-132 -205h-58z" />
    <glyph glyph-name="onequarter" unicode="&#xbc;" horiz-adv-x="706" 
d="M111 318v294l-76 -35v60l94 51h42v-370h-60zM71 0l449 688h65l-450 -688h-64zM542 0v79h-193v47l141 246h67l-140 -236h126l13 124h47v-124h53v-57h-53v-79h-61z" />
    <glyph glyph-name="onehalf" unicode="&#xbd;" horiz-adv-x="785" 
d="M111 318v294l-76 -35v60l94 51h42v-370h-60zM520 688h65l-450 -688h-64zM515 59h204v-59h-263v48q0 45 3 66t14 34t36 24q40 18 109 46q24 10 31.5 21t7.5 34q0 21 -7 31t-23 13t-50 3q-29 0 -114 -9v57q65 10 128 10q42 0 68.5 -6t43 -28t16.5 -66q0 -45 -16 -69.5
t-52 -39.5l-35 -14q-48 -18 -71 -28q-18 -8 -24 -18t-6 -32v-18z" />
    <glyph glyph-name="threequarters" unicode="&#xbe;" horiz-adv-x="798" 
d="M163 367q48 0 67.5 10t19.5 44q0 31 -13.5 44t-46.5 13h-76v53h76q26 0 41 11.5t15 42.5q0 33 -19 43t-70 10q-46 0 -105 -8v55q64 11 115 11q78 0 109.5 -24.5t31.5 -78.5q0 -64 -49 -85v-4q54 -19 54 -86q0 -55 -30.5 -82t-116.5 -27q-58 0 -116 10v55q86 -7 113 -7z
M165 0l450 688h65l-450 -688h-65zM633 0v79h-193v47l142 246h66l-140 -236h127l13 124h47v-124h52v-57h-52v-79h-62z" />
    <glyph glyph-name="questiondown" unicode="&#xbf;" horiz-adv-x="438" 
d="M256 408v102h95v-102h-95zM148 -169q-44 17 -64.5 55.5t-20.5 104.5q0 70 17.5 108t66.5 55l48 16q38 13 50 19.5t16 18.5t4 42v60h77v-79q0 -37 -7.5 -57.5t-22.5 -31.5t-44 -21l-31 -11q-41 -13 -58.5 -24.5t-23.5 -31t-6 -61.5q0 -46 13.5 -66.5t42 -26.5t89.5 -6
q70 0 163 12v-76q-43 -7 -97 -11.5t-94 -4.5q-74 0 -118 17z" />
    <glyph glyph-name="Agrave" unicode="&#xc0;" horiz-adv-x="684" 
d="M567 0l-71 183h-310l-71 -183h-87l260 688h108l260 -688h-89zM343 595h-5l-126 -331h257zM332 750l-129 136v5h88l101 -136v-5h-60z" />
    <glyph glyph-name="Aacute" unicode="&#xc1;" horiz-adv-x="684" 
d="M567 0l-71 183h-310l-71 -183h-87l260 688h108l260 -688h-89zM343 595h-5l-126 -331h257zM290 750v5l101 136h88v-5l-129 -136h-60z" />
    <glyph glyph-name="Acircumflex" unicode="&#xc2;" horiz-adv-x="684" 
d="M567 0l-71 183h-310l-71 -183h-87l260 688h108l260 -688h-89zM343 595h-5l-126 -331h257zM197 750v7l102 135h85l102 -135v-7h-56l-89 96l-88 -96h-56z" />
    <glyph glyph-name="Atilde" unicode="&#xc3;" horiz-adv-x="684" 
d="M567 0l-71 183h-310l-71 -183h-87l260 688h108l260 -688h-89zM343 595h-5l-126 -331h257zM518 810q-5 -24 -20.5 -36t-47.5 -12q-26 0 -51.5 5.5t-67.5 17.5q-61 19 -91 19q-21 0 -26 -10.5t-5 -42.5h-47q0 44 5 68t20.5 36.5t47.5 12.5q26 0 50.5 -5.5t68.5 -18.5
q5 -1 25.5 -7t37 -9t28.5 -3q21 0 26 11t5 43h47q0 -45 -5 -69z" />
    <glyph glyph-name="Adieresis" unicode="&#xc4;" horiz-adv-x="684" 
d="M567 0l-71 183h-310l-71 -183h-87l260 688h108l260 -688h-89zM343 595h-5l-126 -331h257zM209 775v83h77v-83h-77zM398 775v83h76v-83h-76z" />
    <glyph glyph-name="Aring" unicode="&#xc5;" horiz-adv-x="684" 
d="M656 0h-89l-71 183h-310l-71 -183h-87l252 675q-30 5 -43.5 17.5t-17.5 31t-4 53.5q0 44 7 65t33.5 32t85.5 11q60 0 87 -11t34.5 -32t7.5 -65q0 -35 -4 -53.5t-18 -31t-44 -17.5zM271.5 737.5q3.5 -11.5 18.5 -16.5t51 -5q37 0 53 5t19.5 16.5t3.5 39.5t-3.5 39.5
t-19.5 17t-53 5.5q-36 0 -51 -5.5t-18.5 -17t-3.5 -39.5t3.5 -39.5zM212 264h257l-126 331h-5z" />
    <glyph glyph-name="AE" unicode="&#xc6;" horiz-adv-x="956" 
d="M531 0l-50 183h-310l-91 -183h-87l335 688h571v-80h-443l63 -221h333v-80h-315l65 -227h297v-80h-368zM374 595h-5l-164 -331h258z" />
    <glyph glyph-name="Ccedilla" unicode="&#xc7;" horiz-adv-x="575" 
d="M518 82v-77q-31 -6 -77.5 -9.5t-86.5 -3.5q-27 0 -39 1l-38 -183h-81v5l61 182q-77 9 -115 42.5t-51.5 103t-13.5 201.5q0 154 19.5 226t76.5 99t181 27q41 0 86 -4t74 -11v-75q-75 10 -138 10q-105 0 -146.5 -16t-54.5 -69t-13 -187t13 -187t54.5 -69t146.5 -16
q77 0 142 10z" />
    <glyph glyph-name="Egrave" unicode="&#xc8;" horiz-adv-x="604" 
d="M100 0v688h448v-80h-362v-221h314v-80h-314v-227h362v-80h-448zM313 750l-129 136v5h88l101 -136v-5h-60z" />
    <glyph glyph-name="Eacute" unicode="&#xc9;" horiz-adv-x="604" 
d="M100 0v688h448v-80h-362v-221h314v-80h-314v-227h362v-80h-448zM289 750v5l101 136h88v-5l-129 -136h-60z" />
    <glyph glyph-name="Ecircumflex" unicode="&#xca;" horiz-adv-x="604" 
d="M100 0v688h448v-80h-362v-221h314v-80h-314v-227h362v-80h-448zM180 750v7l102 135h85l102 -135v-7h-56l-89 96l-88 -96h-56z" />
    <glyph glyph-name="Edieresis" unicode="&#xcb;" horiz-adv-x="604" 
d="M100 0v688h448v-80h-362v-221h314v-80h-314v-227h362v-80h-448zM197 775v83h77v-83h-77zM386 775v83h76v-83h-76z" />
    <glyph glyph-name="Igrave" unicode="&#xcc;" horiz-adv-x="286" 
d="M100 0v688h86v-688h-86zM132 750l-129 136v5h88l101 -136v-5h-60z" />
    <glyph glyph-name="Iacute" unicode="&#xcd;" horiz-adv-x="286" 
d="M100 0v688h86v-688h-86zM98 750v5l101 136h88v-5l-129 -136h-60z" />
    <glyph glyph-name="Icircumflex" unicode="&#xce;" horiz-adv-x="286" 
d="M100 0v688h86v-688h-86zM-2 750v7l102 135h85l102 -135v-7h-56l-89 96l-88 -96h-56z" />
    <glyph glyph-name="Idieresis" unicode="&#xcf;" horiz-adv-x="286" 
d="M100 0v688h86v-688h-86zM10 775v83h77v-83h-77zM199 775v83h76v-83h-76z" />
    <glyph glyph-name="Eth" unicode="&#xd0;" horiz-adv-x="689" 
d="M100 311h-68v75h68v302h219q143 0 202 -25.5t75 -91.5t16 -227t-16 -227t-75 -91.5t-202 -25.5h-219v311zM462.5 92.5q40.5 12.5 52.5 62t12 189.5q0 139 -12.5 189t-53 62.5t-156.5 12.5h-119v-222h110v-75h-110v-231h119q117 0 157.5 12.5z" />
    <glyph glyph-name="Ntilde" unicode="&#xd1;" horiz-adv-x="732" 
d="M550 0l-363 526h-4v-526h-83v688h88l358 -514h4v514h82v-688h-82zM543 810q-5 -24 -20.5 -36t-47.5 -12q-26 0 -51.5 5.5t-67.5 17.5q-61 19 -91 19q-21 0 -26 -10.5t-5 -42.5h-47q0 44 5 68t20.5 36.5t47.5 12.5q26 0 50.5 -5.5t68.5 -18.5q5 -1 25.5 -7t37 -9t28.5 -3
q21 0 26 11t5 43h47q0 -45 -5 -69z" />
    <glyph glyph-name="Ograve" unicode="&#xd2;" horiz-adv-x="718" 
d="M165 19q-57 27 -72.5 94.5t-15.5 230.5t15.5 230.5t72.5 94.5t194 27q136 0 193.5 -27t73 -94.5t15.5 -230.5t-15.5 -230.5t-73 -94.5t-193.5 -27q-137 0 -194 27zM497 85q36 13 47 65t11 194t-11 194t-47 65t-138 13t-138.5 -13t-47.5 -65t-11 -194t11 -194t47.5 -65
t138.5 -13t138 13zM334 750l-129 136v5h88l101 -136v-5h-60z" />
    <glyph glyph-name="Oacute" unicode="&#xd3;" horiz-adv-x="718" 
d="M165 19q-57 27 -72.5 94.5t-15.5 230.5t15.5 230.5t72.5 94.5t194 27q136 0 193.5 -27t73 -94.5t15.5 -230.5t-15.5 -230.5t-73 -94.5t-193.5 -27q-137 0 -194 27zM497 85q36 13 47 65t11 194t-11 194t-47 65t-138 13t-138.5 -13t-47.5 -65t-11 -194t11 -194t47.5 -65
t138.5 -13t138 13zM317 750v5l101 136h88v-5l-129 -136h-60z" />
    <glyph glyph-name="Ocircumflex" unicode="&#xd4;" horiz-adv-x="718" 
d="M165 19q-57 27 -72.5 94.5t-15.5 230.5t15.5 230.5t72.5 94.5t194 27q136 0 193.5 -27t73 -94.5t15.5 -230.5t-15.5 -230.5t-73 -94.5t-193.5 -27q-137 0 -194 27zM497 85q36 13 47 65t11 194t-11 194t-47 65t-138 13t-138.5 -13t-47.5 -65t-11 -194t11 -194t47.5 -65
t138.5 -13t138 13zM214 750v7l102 135h85l102 -135v-7h-56l-89 96l-88 -96h-56z" />
    <glyph glyph-name="Otilde" unicode="&#xd5;" horiz-adv-x="718" 
d="M165 19q-57 27 -72.5 94.5t-15.5 230.5t15.5 230.5t72.5 94.5t194 27q136 0 193.5 -27t73 -94.5t15.5 -230.5t-15.5 -230.5t-73 -94.5t-193.5 -27q-137 0 -194 27zM497 85q36 13 47 65t11 194t-11 194t-47 65t-138 13t-138.5 -13t-47.5 -65t-11 -194t11 -194t47.5 -65
t138.5 -13t138 13zM534 810q-5 -24 -20.5 -36t-47.5 -12q-26 0 -51.5 5.5t-67.5 17.5q-61 19 -91 19q-21 0 -26 -10.5t-5 -42.5h-47q0 44 5 68t20.5 36.5t47.5 12.5q26 0 50.5 -5.5t68.5 -18.5q5 -1 25.5 -7t37 -9t28.5 -3q21 0 26 11t5 43h47q0 -45 -5 -69z" />
    <glyph glyph-name="Odieresis" unicode="&#xd6;" horiz-adv-x="718" 
d="M165 19q-57 27 -72.5 94.5t-15.5 230.5t15.5 230.5t72.5 94.5t194 27q136 0 193.5 -27t73 -94.5t15.5 -230.5t-15.5 -230.5t-73 -94.5t-193.5 -27q-137 0 -194 27zM497 85q36 13 47 65t11 194t-11 194t-47 65t-138 13t-138.5 -13t-47.5 -65t-11 -194t11 -194t47.5 -65
t138.5 -13t138 13zM226 775v83h77v-83h-77zM415 775v83h76v-83h-76z" />
    <glyph glyph-name="multiply" unicode="&#xd7;" horiz-adv-x="482" 
d="M241 202l-126 -124l-46 50l125 124l-126 124l47 51l126 -125l127 125l46 -50l-127 -125l127 -124l-47 -51z" />
    <glyph glyph-name="Oslash" unicode="&#xd8;" horiz-adv-x="718" 
d="M630.5 550q10.5 -66 10.5 -206q0 -163 -15.5 -230.5t-73 -94.5t-193.5 -27q-115 0 -169 17l-39 -64h-74l57 94q-37 33 -47 98t-10 207q0 163 15.5 230.5t72.5 94.5t194 27q116 0 168 -17l39 64h75l-58 -94q37 -33 47.5 -99zM166.5 197q4.5 -50 17.5 -77l299 487
q-20 6 -46.5 7.5t-77.5 1.5q-102 0 -138.5 -13t-47.5 -65t-11 -194q0 -97 4.5 -147zM497 85q36 13 47 65t11 194q0 97 -4.5 147t-17.5 77l-299 -487q20 -6 48.5 -7.5t76.5 -1.5q102 0 138 13z" />
    <glyph glyph-name="Ugrave" unicode="&#xd9;" horiz-adv-x="709" 
d="M617 688v-387q0 -134 -17 -196.5t-71 -87.5t-174 -25t-174 25.5t-71.5 87.5t-17.5 196v387h85v-420q0 -90 10 -128t46 -53t122 -15t121.5 15t45 52.5t9.5 128.5v420h86zM349 750l-129 136v5h88l101 -136v-5h-60z" />
    <glyph glyph-name="Uacute" unicode="&#xda;" horiz-adv-x="709" 
d="M617 688v-387q0 -134 -17 -196.5t-71 -87.5t-174 -25t-174 25.5t-71.5 87.5t-17.5 196v387h85v-420q0 -90 10 -128t46 -53t122 -15t121.5 15t45 52.5t9.5 128.5v420h86zM317 750v5l101 136h88v-5l-129 -136h-60z" />
    <glyph glyph-name="Ucircumflex" unicode="&#xdb;" horiz-adv-x="709" 
d="M617 688v-387q0 -134 -17 -196.5t-71 -87.5t-174 -25t-174 25.5t-71.5 87.5t-17.5 196v387h85v-420q0 -90 10 -128t46 -53t122 -15t121.5 15t45 52.5t9.5 128.5v420h86zM212 750v7l102 135h85l102 -135v-7h-56l-89 96l-88 -96h-56z" />
    <glyph glyph-name="Udieresis" unicode="&#xdc;" horiz-adv-x="709" 
d="M617 688v-387q0 -134 -17 -196.5t-71 -87.5t-174 -25t-174 25.5t-71.5 87.5t-17.5 196v387h85v-420q0 -90 10 -128t46 -53t122 -15t121.5 15t45 52.5t9.5 128.5v420h86zM222 775v83h77v-83h-77zM411 775v83h76v-83h-76z" />
    <glyph glyph-name="Yacute" unicode="&#xdd;" horiz-adv-x="610" 
d="M261 0v260l-249 428h92l199 -335h7l198 335h90l-251 -428v-260h-86zM276 750v5l101 136h88v-5l-129 -136h-60z" />
    <glyph glyph-name="Thorn" unicode="&#xde;" horiz-adv-x="652" 
d="M100 688h86v-119h216q83 0 126 -27t57 -73t14 -118q0 -70 -14 -116.5t-57.5 -74.5t-127.5 -28h-214v-132h-86v688zM371 212q65 0 95 13.5t39 41.5t9 84t-8.5 83.5t-38 41t-94.5 13.5h-187v-277h185z" />
    <glyph glyph-name="germandbls" unicode="&#xdf;" horiz-adv-x="608" 
d="M261 0v74h54q71 0 99 9.5t37.5 42t9.5 113.5q0 67 -12.5 100t-42 45t-87.5 12h-31v75h31q51 0 79.5 9t41 29t12.5 57q0 45 -12 68t-42 32.5t-88 9.5q-54 0 -83.5 -10.5t-44.5 -42.5t-15 -95v-528h-80v541q0 73 21 118.5t71.5 68t136.5 22.5q85 0 132.5 -19.5t66.5 -57.5
t19 -99t-28 -93t-88 -42v-4q64 -11 94.5 -55t30.5 -139q0 -93 -15.5 -143.5t-60 -74t-132.5 -23.5h-74z" />
    <glyph glyph-name="agrave" unicode="&#xe0;" horiz-adv-x="570" 
d="M95 24.5q-40 32.5 -40 115.5q0 59 14 92t47.5 48t94.5 15q29 0 191 -5v30q0 60 -11.5 85t-42 32t-103.5 7q-32 0 -80.5 -3.5t-75.5 -7.5v71q79 14 185 14q90 0 134.5 -18.5t59.5 -60t15 -120.5v-319h-73l-4 71h-6q-21 -48 -67.5 -63.5t-109.5 -15.5q-88 0 -128 32.5z
M335.5 74q31.5 9 45.5 35q21 36 21 100v23h-170q-42 0 -61.5 -6t-27.5 -23.5t-8 -54.5q0 -36 9 -53t33.5 -23.5t76.5 -6.5q50 0 81.5 9zM273 602l-129 136v5h88l101 -136v-5h-60z" />
    <glyph glyph-name="aacute" unicode="&#xe1;" horiz-adv-x="570" 
d="M95 24.5q-40 32.5 -40 115.5q0 59 14 92t47.5 48t94.5 15q29 0 191 -5v30q0 60 -11.5 85t-42 32t-103.5 7q-32 0 -80.5 -3.5t-75.5 -7.5v71q79 14 185 14q90 0 134.5 -18.5t59.5 -60t15 -120.5v-319h-73l-4 71h-6q-21 -48 -67.5 -63.5t-109.5 -15.5q-88 0 -128 32.5z
M335.5 74q31.5 9 45.5 35q21 36 21 100v23h-170q-42 0 -61.5 -6t-27.5 -23.5t-8 -54.5q0 -36 9 -53t33.5 -23.5t76.5 -6.5q50 0 81.5 9zM241 602v5l101 136h88v-5l-129 -136h-60z" />
    <glyph glyph-name="acircumflex" unicode="&#xe2;" horiz-adv-x="570" 
d="M95 24.5q-40 32.5 -40 115.5q0 59 14 92t47.5 48t94.5 15q29 0 191 -5v30q0 60 -11.5 85t-42 32t-103.5 7q-32 0 -80.5 -3.5t-75.5 -7.5v71q79 14 185 14q90 0 134.5 -18.5t59.5 -60t15 -120.5v-319h-73l-4 71h-6q-21 -48 -67.5 -63.5t-109.5 -15.5q-88 0 -128 32.5z
M335.5 74q31.5 9 45.5 35q21 36 21 100v23h-170q-42 0 -61.5 -6t-27.5 -23.5t-8 -54.5q0 -36 9 -53t33.5 -23.5t76.5 -6.5q50 0 81.5 9zM142 601v7l102 135h85l102 -135v-7h-56l-89 96l-88 -96h-56z" />
    <glyph glyph-name="atilde" unicode="&#xe3;" horiz-adv-x="570" 
d="M95 24.5q-40 32.5 -40 115.5q0 59 14 92t47.5 48t94.5 15q29 0 191 -5v30q0 60 -11.5 85t-42 32t-103.5 7q-32 0 -80.5 -3.5t-75.5 -7.5v71q79 14 185 14q90 0 134.5 -18.5t59.5 -60t15 -120.5v-319h-73l-4 71h-6q-21 -48 -67.5 -63.5t-109.5 -15.5q-88 0 -128 32.5z
M335.5 74q31.5 9 45.5 35q21 36 21 100v23h-170q-42 0 -61.5 -6t-27.5 -23.5t-8 -54.5q0 -36 9 -53t33.5 -23.5t76.5 -6.5q50 0 81.5 9zM460 674q-5 -24 -20.5 -36t-47.5 -12q-26 0 -51.5 5.5t-67.5 17.5q-61 19 -91 19q-21 0 -26 -10.5t-5 -42.5h-47q0 44 5 68t20.5 36.5
t47.5 12.5q26 0 50.5 -5.5t68.5 -18.5q5 -1 25.5 -7t37 -9t28.5 -3q21 0 26 11t5 43h47q0 -45 -5 -69z" />
    <glyph glyph-name="adieresis" unicode="&#xe4;" horiz-adv-x="570" 
d="M95 24.5q-40 32.5 -40 115.5q0 59 14 92t47.5 48t94.5 15q29 0 191 -5v30q0 60 -11.5 85t-42 32t-103.5 7q-32 0 -80.5 -3.5t-75.5 -7.5v71q79 14 185 14q90 0 134.5 -18.5t59.5 -60t15 -120.5v-319h-73l-4 71h-6q-21 -48 -67.5 -63.5t-109.5 -15.5q-88 0 -128 32.5z
M335.5 74q31.5 9 45.5 35q21 36 21 100v23h-170q-42 0 -61.5 -6t-27.5 -23.5t-8 -54.5q0 -36 9 -53t33.5 -23.5t76.5 -6.5q50 0 81.5 9zM154 647v83h77v-83h-77zM343 647v83h76v-83h-76z" />
    <glyph glyph-name="aring" unicode="&#xe5;" horiz-adv-x="570" 
d="M95 24.5q-40 32.5 -40 115.5q0 59 14 92t47.5 48t94.5 15q29 0 191 -5v30q0 60 -11.5 85t-42 32t-103.5 7q-32 0 -80.5 -3.5t-75.5 -7.5v71q79 14 185 14q90 0 134.5 -18.5t59.5 -60t15 -120.5v-319h-73l-4 71h-6q-21 -48 -67.5 -63.5t-109.5 -15.5q-88 0 -128 32.5z
M335.5 74q31.5 9 45.5 35q21 36 21 100v23h-170q-42 0 -61.5 -6t-27.5 -23.5t-8 -54.5q0 -36 9 -53t33.5 -23.5t76.5 -6.5q50 0 81.5 9zM198.5 602.5q-26.5 10.5 -33.5 31t-7 64.5q0 43 7 64.5t33.5 32t85.5 10.5t86.5 -10.5t34.5 -32t7 -64.5q0 -44 -7 -64.5t-34 -31
t-87 -10.5q-59 0 -85.5 10.5zM336.5 642q15.5 5 19 16.5t3.5 39.5t-3.5 39.5t-19 17t-52.5 5.5q-36 0 -51.5 -5.5t-19 -17t-3.5 -39.5t3.5 -39.5t19 -16.5t51.5 -5q37 0 52.5 5z" />
    <glyph glyph-name="ae" unicode="&#xe6;" horiz-adv-x="898" 
d="M832 228h-348q0 -74 9.5 -105.5t43.5 -44t112 -12.5q79 0 163 11v-71q-32 -6 -82.5 -10t-97.5 -4q-88 0 -133.5 17t-66.5 59q-28 -46 -78.5 -61t-119.5 -15q-94 0 -136.5 32.5t-42.5 115.5q0 59 14 91.5t47 47t95 14.5l115 -1q32 -1 76 -1v29q0 60 -11.5 85t-42 32
t-103.5 7q-33 0 -83.5 -3.5t-72.5 -7.5v71q84 14 185 14q72 0 113 -12.5t60 -42.5q23 29 66 42t115 13q96 0 138.5 -25.5t54 -76.5t11.5 -160v-28zM531.5 432.5q-28.5 -11.5 -38 -42.5t-9.5 -100h270v6q0 66 -11.5 97t-37.5 41t-80 10q-65 0 -93.5 -11.5zM402 229h-170
q-42 0 -61.5 -5.5t-27.5 -22t-8 -53.5q0 -36 9 -53t33.5 -23.5t76.5 -6.5q51 0 83.5 10.5t46.5 40.5q18 35 18 93v20z" />
    <glyph glyph-name="ccedilla" unicode="&#xe7;" horiz-adv-x="460" 
d="M411 76v-71q-27 -5 -65.5 -9t-73.5 -4h-15l-38 -182h-81v5l61 182q-60 10 -88.5 40.5t-37 79.5t-8.5 138q0 101 15 156t59 81t130 26q34 0 72.5 -4t65.5 -9v-72q-60 11 -118 11q-64 0 -93.5 -15t-39.5 -53t-10 -121q0 -84 10.5 -122.5t40 -52.5t95.5 -14q49 0 119 10z
" />
    <glyph glyph-name="egrave" unicode="&#xe8;" horiz-adv-x="560" 
d="M495 226h-349q0 -73 10 -104t43.5 -43.5t112.5 -12.5q77 0 163 11v-71q-32 -6 -83 -10t-97 -4q-103 0 -151.5 24t-63.5 77t-15 161q0 106 13.5 159t61 79t150.5 26q96 0 139 -25.5t54.5 -77t11.5 -160.5v-29zM194.5 432.5q-28.5 -11.5 -38 -43t-10.5 -101.5h271v8
q0 66 -11.5 97t-37.5 41t-80 10q-65 0 -93.5 -11.5zM269 602l-129 136v5h88l101 -136v-5h-60z" />
    <glyph glyph-name="eacute" unicode="&#xe9;" horiz-adv-x="560" 
d="M495 226h-349q0 -73 10 -104t43.5 -43.5t112.5 -12.5q77 0 163 11v-71q-32 -6 -83 -10t-97 -4q-103 0 -151.5 24t-63.5 77t-15 161q0 106 13.5 159t61 79t150.5 26q96 0 139 -25.5t54.5 -77t11.5 -160.5v-29zM194.5 432.5q-28.5 -11.5 -38 -43t-10.5 -101.5h271v8
q0 66 -11.5 97t-37.5 41t-80 10q-65 0 -93.5 -11.5zM244 602v5l101 136h88v-5l-129 -136h-60z" />
    <glyph glyph-name="ecircumflex" unicode="&#xea;" horiz-adv-x="560" 
d="M495 226h-349q0 -73 10 -104t43.5 -43.5t112.5 -12.5q77 0 163 11v-71q-32 -6 -83 -10t-97 -4q-103 0 -151.5 24t-63.5 77t-15 161q0 106 13.5 159t61 79t150.5 26q96 0 139 -25.5t54.5 -77t11.5 -160.5v-29zM194.5 432.5q-28.5 -11.5 -38 -43t-10.5 -101.5h271v8
q0 66 -11.5 97t-37.5 41t-80 10q-65 0 -93.5 -11.5zM138 601v7l102 135h85l102 -135v-7h-56l-89 96l-88 -96h-56z" />
    <glyph glyph-name="edieresis" unicode="&#xeb;" horiz-adv-x="560" 
d="M495 226h-349q0 -73 10 -104t43.5 -43.5t112.5 -12.5q77 0 163 11v-71q-32 -6 -83 -10t-97 -4q-103 0 -151.5 24t-63.5 77t-15 161q0 106 13.5 159t61 79t150.5 26q96 0 139 -25.5t54.5 -77t11.5 -160.5v-29zM194.5 432.5q-28.5 -11.5 -38 -43t-10.5 -101.5h271v8
q0 66 -11.5 97t-37.5 41t-80 10q-65 0 -93.5 -11.5zM151 647v83h77v-83h-77zM340 647v83h76v-83h-76z" />
    <glyph glyph-name="igrave" unicode="&#xec;" horiz-adv-x="254" 
d="M87 0v510h81v-510h-81zM109 602l-129 136v5h88l101 -136v-5h-60z" />
    <glyph glyph-name="iacute" unicode="&#xed;" horiz-adv-x="254" 
d="M87 0v510h81v-510h-81zM86 602v5l101 136h88v-5l-129 -136h-60z" />
    <glyph glyph-name="icircumflex" unicode="&#xee;" horiz-adv-x="254" 
d="M87 0v510h81v-510h-81zM-17 601v7l102 135h85l102 -135v-7h-56l-89 96l-88 -96h-56z" />
    <glyph glyph-name="idieresis" unicode="&#xef;" horiz-adv-x="254" 
d="M87 0v510h81v-510h-81zM-5 647v83h77v-83h-77zM184 647v83h76v-83h-76z" />
    <glyph glyph-name="eth" unicode="&#xf0;" horiz-adv-x="579" 
d="M137 14.5q-46 22.5 -59 74t-13 165.5q0 109 12 161t55 77t138 25q83 0 129 -24l4 2q-24 67 -63 121l-118 -19v59l81 13q-29 32 -72 70v4h90q5 -5 24 -21.5t38 -38.5l108 18v-59l-72 -12q59 -86 79 -192q14 -76 14 -167q0 -126 -12 -179.5t-57.5 -76.5t-153.5 -23
q-106 0 -152 22.5zM390 78.5q28 12.5 34.5 47t6.5 128.5q0 84 -6.5 119.5t-36 53t-99.5 17.5q-73 0 -101.5 -13.5t-35 -48t-6.5 -128.5t6.5 -128.5t34.5 -47t102 -12.5q73 0 101 12.5z" />
    <glyph glyph-name="ntilde" unicode="&#xf1;" horiz-adv-x="599" 
d="M432 287q0 71 -9 101.5t-34 40.5t-84 10q-63 0 -92.5 -20t-37 -55t-7.5 -101v-263h-81v510h72l4 -72h6q17 39 56 59.5t113 20.5t111.5 -21t50.5 -62.5t13 -115.5v-319h-81v287zM476 674q-5 -24 -20.5 -36t-47.5 -12q-26 0 -51.5 5.5t-67.5 17.5q-61 19 -91 19
q-21 0 -26 -10.5t-5 -42.5h-47q0 44 5 68t20.5 36.5t47.5 12.5q26 0 50.5 -5.5t68.5 -18.5q5 -1 25.5 -7t37 -9t28.5 -3q21 0 26 11t5 43h47q0 -45 -5 -69z" />
    <glyph glyph-name="ograve" unicode="&#xf2;" horiz-adv-x="577" 
d="M136 13.5q-46 21.5 -58.5 73t-12.5 168.5t12.5 168.5t58.5 73t153 21.5q106 0 152 -21.5t58.5 -73t12.5 -168.5t-12.5 -168.5t-58.5 -73t-152 -21.5q-107 0 -153 21.5zM390 79q28 13 34.5 47.5t6.5 128.5t-6.5 128.5t-34.5 47.5t-101 13t-101.5 -13t-35 -47.5
t-6.5 -128.5t6.5 -128.5t35 -47.5t101.5 -13t101 13zM275 602l-129 136v5h88l101 -136v-5h-60z" />
    <glyph glyph-name="oacute" unicode="&#xf3;" horiz-adv-x="577" 
d="M136 13.5q-46 21.5 -58.5 73t-12.5 168.5t12.5 168.5t58.5 73t153 21.5q106 0 152 -21.5t58.5 -73t12.5 -168.5t-12.5 -168.5t-58.5 -73t-152 -21.5q-107 0 -153 21.5zM390 79q28 13 34.5 47.5t6.5 128.5t-6.5 128.5t-34.5 47.5t-101 13t-101.5 -13t-35 -47.5
t-6.5 -128.5t6.5 -128.5t35 -47.5t101.5 -13t101 13zM249 602v5l101 136h88v-5l-129 -136h-60z" />
    <glyph glyph-name="ocircumflex" unicode="&#xf4;" horiz-adv-x="577" 
d="M136 13.5q-46 21.5 -58.5 73t-12.5 168.5t12.5 168.5t58.5 73t153 21.5q106 0 152 -21.5t58.5 -73t12.5 -168.5t-12.5 -168.5t-58.5 -73t-152 -21.5q-107 0 -153 21.5zM390 79q28 13 34.5 47.5t6.5 128.5t-6.5 128.5t-34.5 47.5t-101 13t-101.5 -13t-35 -47.5
t-6.5 -128.5t6.5 -128.5t35 -47.5t101.5 -13t101 13zM144 601v7l102 135h85l102 -135v-7h-56l-89 96l-88 -96h-56z" />
    <glyph glyph-name="otilde" unicode="&#xf5;" horiz-adv-x="577" 
d="M136 13.5q-46 21.5 -58.5 73t-12.5 168.5t12.5 168.5t58.5 73t153 21.5q106 0 152 -21.5t58.5 -73t12.5 -168.5t-12.5 -168.5t-58.5 -73t-152 -21.5q-107 0 -153 21.5zM390 79q28 13 34.5 47.5t6.5 128.5t-6.5 128.5t-34.5 47.5t-101 13t-101.5 -13t-35 -47.5
t-6.5 -128.5t6.5 -128.5t35 -47.5t101.5 -13t101 13zM464 674q-5 -24 -20.5 -36t-47.5 -12q-26 0 -51.5 5.5t-67.5 17.5q-61 19 -91 19q-21 0 -26 -10.5t-5 -42.5h-47q0 44 5 68t20.5 36.5t47.5 12.5q26 0 50.5 -5.5t68.5 -18.5q5 -1 25.5 -7t37 -9t28.5 -3q21 0 26 11t5 43
h47q0 -45 -5 -69z" />
    <glyph glyph-name="odieresis" unicode="&#xf6;" horiz-adv-x="577" 
d="M136 13.5q-46 21.5 -58.5 73t-12.5 168.5t12.5 168.5t58.5 73t153 21.5q106 0 152 -21.5t58.5 -73t12.5 -168.5t-12.5 -168.5t-58.5 -73t-152 -21.5q-107 0 -153 21.5zM390 79q28 13 34.5 47.5t6.5 128.5t-6.5 128.5t-34.5 47.5t-101 13t-101.5 -13t-35 -47.5
t-6.5 -128.5t6.5 -128.5t35 -47.5t101.5 -13t101 13zM156 647v83h77v-83h-77zM345 647v83h76v-83h-76z" />
    <glyph glyph-name="divide" unicode="&#xf7;" horiz-adv-x="540" 
d="M234 401v80h72v-80h-72zM70 217v71h400v-71h-400zM234 24v81h72v-81h-72z" />
    <glyph glyph-name="oslash" unicode="&#xf8;" horiz-adv-x="577" 
d="M503 408.5q9 -49.5 9 -153.5q0 -117 -12.5 -168.5t-58.5 -73t-152 -21.5q-81 0 -122 11l-36 -58h-66l50 82q-32 25 -41 74.5t-9 153.5q0 117 12.5 168.5t58.5 73t153 21.5q78 0 121 -11l35 58h67l-50 -82q32 -25 41 -74.5zM148.5 153q2.5 -32 13.5 -50l205 335
q-23 6 -78 6q-73 0 -101.5 -13t-35 -47.5t-6.5 -128.5q0 -70 2.5 -102zM390 79q28 13 34.5 47.5t6.5 128.5q0 71 -2.5 102.5t-13.5 50.5l-206 -336q24 -6 80 -6q73 0 101 13z" />
    <glyph glyph-name="ugrave" unicode="&#xf9;" horiz-adv-x="599" 
d="M436 72h-6q-17 -39 -56 -59.5t-113 -20.5q-73 0 -110.5 21t-50.5 62.5t-13 115.5v319h81v-287q0 -72 8.5 -102t33.5 -40t84 -10q63 0 92.5 20t37.5 55.5t8 100.5v263h81v-510h-73zM283 602l-129 136v5h88l101 -136v-5h-60z" />
    <glyph glyph-name="uacute" unicode="&#xfa;" horiz-adv-x="599" 
d="M436 72h-6q-17 -39 -56 -59.5t-113 -20.5q-73 0 -110.5 21t-50.5 62.5t-13 115.5v319h81v-287q0 -72 8.5 -102t33.5 -40t84 -10q63 0 92.5 20t37.5 55.5t8 100.5v263h81v-510h-73zM268 602v5l101 136h88v-5l-129 -136h-60z" />
    <glyph glyph-name="ucircumflex" unicode="&#xfb;" horiz-adv-x="599" 
d="M436 72h-6q-17 -39 -56 -59.5t-113 -20.5q-73 0 -110.5 21t-50.5 62.5t-13 115.5v319h81v-287q0 -72 8.5 -102t33.5 -40t84 -10q63 0 92.5 20t37.5 55.5t8 100.5v263h81v-510h-73zM155 601v7l102 135h85l102 -135v-7h-56l-89 96l-88 -96h-56z" />
    <glyph glyph-name="udieresis" unicode="&#xfc;" horiz-adv-x="599" 
d="M436 72h-6q-17 -39 -56 -59.5t-113 -20.5q-73 0 -110.5 21t-50.5 62.5t-13 115.5v319h81v-287q0 -72 8.5 -102t33.5 -40t84 -10q63 0 92.5 20t37.5 55.5t8 100.5v263h81v-510h-73zM166 647v83h77v-83h-77zM355 647v83h76v-83h-76z" />
    <glyph glyph-name="yacute" unicode="&#xfd;" horiz-adv-x="599" 
d="M111 -197v70q110 -5 154 -5q77 0 112 15.5t45 49t10 105.5v30h-6q-15 -34 -53.5 -53.5t-111.5 -19.5t-110.5 20.5t-50.5 62t-13 114.5v318h81v-285q0 -72 8.5 -102t33.5 -40t84 -10q63 0 92.5 20t37.5 55t8 100v262h81v-448q0 -106 -16 -161t-65 -81t-149 -26
q-107 0 -172 9zM266 602v5l101 136h88v-5l-129 -136h-60z" />
    <glyph glyph-name="thorn" unicode="&#xfe;" horiz-adv-x="591" 
d="M87 743h81v-300h5q20 42 60.5 58.5t103.5 16.5q76 0 116 -23t56.5 -78.5t16.5 -160.5q0 -106 -16.5 -162t-56 -79t-114.5 -23q-65 0 -105.5 16t-60.5 56h-5v-253h-81v932zM397.5 83q27.5 12 37 49t9.5 123t-9.5 123t-37 49.5t-92.5 12.5q-49 0 -79 -13t-43 -42
q-10 -21 -12.5 -50t-2.5 -80q0 -48 2 -75.5t9 -44.5q13 -34 43.5 -49t82.5 -15q65 0 92.5 12z" />
    <glyph glyph-name="ydieresis" unicode="&#xff;" horiz-adv-x="599" 
d="M111 -197v70q110 -5 154 -5q77 0 112 15.5t45 49t10 105.5v30h-6q-15 -34 -53.5 -53.5t-111.5 -19.5t-110.5 20.5t-50.5 62t-13 114.5v318h81v-285q0 -72 8.5 -102t33.5 -40t84 -10q63 0 92.5 20t37.5 55t8 100v262h81v-448q0 -106 -16 -161t-65 -81t-149 -26
q-107 0 -172 9zM168 647v83h77v-83h-77zM357 647v83h76v-83h-76z" />
    <glyph glyph-name="Amacron" unicode="&#x100;" horiz-adv-x="684" 
d="M567 0l-71 183h-310l-71 -183h-87l260 688h108l260 -688h-89zM343 595h-5l-126 -331h257zM220 807v80h244v-80h-244z" />
    <glyph glyph-name="amacron" unicode="&#x101;" horiz-adv-x="570" 
d="M95 24.5q-40 32.5 -40 115.5q0 59 14 92t47.5 48t94.5 15q29 0 191 -5v30q0 60 -11.5 85t-42 32t-103.5 7q-32 0 -80.5 -3.5t-75.5 -7.5v71q79 14 185 14q90 0 134.5 -18.5t59.5 -60t15 -120.5v-319h-73l-4 71h-6q-21 -48 -67.5 -63.5t-109.5 -15.5q-88 0 -128 32.5z
M335.5 74q31.5 9 45.5 35q21 36 21 100v23h-170q-42 0 -61.5 -6t-27.5 -23.5t-8 -54.5q0 -36 9 -53t33.5 -23.5t76.5 -6.5q50 0 81.5 9zM163 662v80h244v-80h-244z" />
    <glyph glyph-name="Abreve" unicode="&#x102;" horiz-adv-x="684" 
d="M567 0l-71 183h-310l-71 -183h-87l260 688h108l260 -688h-89zM343 595h-5l-126 -331h257zM471.5 808.5q-8.5 -29.5 -38.5 -47.5t-92 -18t-91.5 17.5t-37.5 47t-8 80.5h53q0 -36 4 -53t22 -27t58 -10t58 10t22.5 27.5t4.5 52.5h54q0 -50 -8.5 -79.5z" />
    <glyph glyph-name="abreve" unicode="&#x103;" horiz-adv-x="570" 
d="M95 24.5q-40 32.5 -40 115.5q0 59 14 92t47.5 48t94.5 15q29 0 191 -5v30q0 60 -11.5 85t-42 32t-103.5 7q-32 0 -80.5 -3.5t-75.5 -7.5v71q79 14 185 14q90 0 134.5 -18.5t59.5 -60t15 -120.5v-319h-73l-4 71h-6q-21 -48 -67.5 -63.5t-109.5 -15.5q-88 0 -128 32.5z
M335.5 74q31.5 9 45.5 35q21 36 21 100v23h-170q-42 0 -61.5 -6t-27.5 -23.5t-8 -54.5q0 -36 9 -53t33.5 -23.5t76.5 -6.5q50 0 81.5 9zM414.5 663.5q-8.5 -29.5 -38.5 -47.5t-92 -18t-91.5 17.5t-37.5 47t-8 80.5h53q0 -36 4 -53t22 -27t58 -10t58 10t22.5 27.5t4.5 52.5
h54q0 -50 -8.5 -79.5z" />
    <glyph glyph-name="Aogonek" unicode="&#x104;" horiz-adv-x="684" 
d="M625 -139l17 1v-56q-36 -2 -39 -2q-96 0 -96 78q0 28 16 60t43 59l-70 182h-310l-71 -183h-87l260 688h108l260 -688h-19q-22 -18 -40.5 -47t-18.5 -52q0 -40 47 -40zM212 264h257l-126 331h-5z" />
    <glyph glyph-name="aogonek" unicode="&#x105;" horiz-adv-x="570" 
d="M485 -138v-56q-34 -2 -39 -2q-51 0 -73 20.5t-22 54.5q0 30 16.5 61.5t43.5 59.5h-1l-4 71h-6q-21 -48 -67.5 -63.5t-109.5 -15.5q-88 0 -128 32.5t-40 115.5q0 59 14 92t47.5 48t94.5 15q29 0 191 -5v30q0 60 -11.5 85t-42 32t-103.5 7q-32 0 -80.5 -3.5t-75.5 -7.5v71
q79 14 185 14q90 0 134.5 -18.5t59.5 -60t15 -120.5v-319q-23 -16 -42.5 -45.5t-19.5 -55.5q0 -38 46 -38zM402 232h-170q-42 0 -61.5 -6t-27.5 -23.5t-8 -54.5q0 -36 9 -53t33.5 -23.5t76.5 -6.5q50 0 81.5 9t45.5 35q21 36 21 100v23z" />
    <glyph glyph-name="Cacute" unicode="&#x106;" horiz-adv-x="575" 
d="M440.5 -4.5q-46.5 -3.5 -86.5 -3.5q-124 0 -181 27t-76.5 98.5t-19.5 226.5q0 154 19.5 226t76.5 99t181 27q41 0 86 -4t74 -11v-75q-75 10 -138 10q-105 0 -146.5 -16t-54.5 -69t-13 -187t13 -187t54.5 -69t146.5 -16q77 0 142 10v-77q-31 -6 -77.5 -9.5zM253 747v5
l101 136h88v-5l-129 -136h-60z" />
    <glyph glyph-name="cacute" unicode="&#x107;" horiz-adv-x="460" 
d="M345.5 -4q-38.5 -4 -73.5 -4q-94 0 -138 27t-56.5 80t-12.5 156q0 101 15 156t59 81t130 26q34 0 72.5 -4t65.5 -9v-72q-60 11 -118 11q-64 0 -93.5 -15t-39.5 -53t-10 -121q0 -84 10.5 -122.5t40 -52.5t95.5 -14q49 0 119 10v-71q-27 -5 -65.5 -9zM193 602v5l101 136h88
v-5l-129 -136h-60z" />
    <glyph glyph-name="Ccircumflex" unicode="&#x108;" horiz-adv-x="575" 
d="M440.5 -4.5q-46.5 -3.5 -86.5 -3.5q-124 0 -181 27t-76.5 98.5t-19.5 226.5q0 154 19.5 226t76.5 99t181 27q41 0 86 -4t74 -11v-75q-75 10 -138 10q-105 0 -146.5 -16t-54.5 -69t-13 -187t13 -187t54.5 -69t146.5 -16q77 0 142 10v-77q-31 -6 -77.5 -9.5zM143 746v7
l102 135h85l102 -135v-7h-56l-89 96l-88 -96h-56z" />
    <glyph glyph-name="ccircumflex" unicode="&#x109;" horiz-adv-x="460" 
d="M345.5 -4q-38.5 -4 -73.5 -4q-94 0 -138 27t-56.5 80t-12.5 156q0 101 15 156t59 81t130 26q34 0 72.5 -4t65.5 -9v-72q-60 11 -118 11q-64 0 -93.5 -15t-39.5 -53t-10 -121q0 -84 10.5 -122.5t40 -52.5t95.5 -14q49 0 119 10v-71q-27 -5 -65.5 -9zM85 601v7l102 135h85
l102 -135v-7h-56l-89 96l-88 -96h-56z" />
    <glyph glyph-name="Cdotaccent" unicode="&#x10a;" horiz-adv-x="575" 
d="M440.5 -4.5q-46.5 -3.5 -86.5 -3.5q-124 0 -181 27t-76.5 98.5t-19.5 226.5q0 154 19.5 226t76.5 99t181 27q41 0 86 -4t74 -11v-75q-75 10 -138 10q-105 0 -146.5 -16t-54.5 -69t-13 -187t13 -187t54.5 -69t146.5 -16q77 0 142 10v-77q-31 -6 -77.5 -9.5zM249 792v83h77
v-83h-77z" />
    <glyph glyph-name="cdotaccent" unicode="&#x10b;" horiz-adv-x="460" 
d="M345.5 -4q-38.5 -4 -73.5 -4q-94 0 -138 27t-56.5 80t-12.5 156q0 101 15 156t59 81t130 26q34 0 72.5 -4t65.5 -9v-72q-60 11 -118 11q-64 0 -93.5 -15t-39.5 -53t-10 -121q0 -84 10.5 -122.5t40 -52.5t95.5 -14q49 0 119 10v-71q-27 -5 -65.5 -9zM191 647v83h77v-83
h-77z" />
    <glyph glyph-name="Ccaron" unicode="&#x10c;" horiz-adv-x="575" 
d="M440.5 -4.5q-46.5 -3.5 -86.5 -3.5q-124 0 -181 27t-76.5 98.5t-19.5 226.5q0 154 19.5 226t76.5 99t181 27q41 0 86 -4t74 -11v-75q-75 10 -138 10q-105 0 -146.5 -16t-54.5 -69t-13 -187t13 -187t54.5 -69t146.5 -16q77 0 142 10v-77q-31 -6 -77.5 -9.5zM245 746
l-102 136v6h56l88 -96l89 96h56v-6l-102 -136h-85z" />
    <glyph glyph-name="ccaron" unicode="&#x10d;" horiz-adv-x="460" 
d="M345.5 -4q-38.5 -4 -73.5 -4q-94 0 -138 27t-56.5 80t-12.5 156q0 101 15 156t59 81t130 26q34 0 72.5 -4t65.5 -9v-72q-60 11 -118 11q-64 0 -93.5 -15t-39.5 -53t-10 -121q0 -84 10.5 -122.5t40 -52.5t95.5 -14q49 0 119 10v-71q-27 -5 -65.5 -9zM187 601l-102 136v6
h56l88 -96l89 96h56v-6l-102 -136h-85z" />
    <glyph glyph-name="Dcaron" unicode="&#x10e;" horiz-adv-x="689" 
d="M100 688h219q143 0 202 -25.5t75 -91.5t16 -227t-16 -227t-75 -91.5t-202 -25.5h-219v688zM305 80q117 0 157.5 12.5t52.5 62t12 189.5q0 139 -12.5 189t-53 62.5t-156.5 12.5h-119v-528h119zM302 746l-102 136v6h56l88 -96l89 96h56v-6l-102 -136h-85z" />
    <glyph glyph-name="dcaron" unicode="&#x10f;" horiz-adv-x="591" 
d="M138 15q-40 23 -56.5 78.5t-16.5 160.5q0 106 16 162t55.5 79t114.5 23q66 0 106.5 -16t59.5 -56h6v297h81v-743h-73l-3 71h-6q-21 -46 -64 -62.5t-104 -16.5q-76 0 -116 23zM367 83.5q30 13.5 41 42.5q10 23 12.5 52.5t2.5 81.5q0 43 -3 71t-11 48q-12 31 -42.5 45.5
t-83.5 14.5q-63 0 -90.5 -12.5t-37 -49.5t-9.5 -122q0 -87 9.5 -124t37 -49t92.5 -12q52 0 82 13.5zM546 442l14 172v74h79v-74l-37 -172h-56z" />
    <glyph glyph-name="Dcroat" unicode="&#x110;" horiz-adv-x="689" 
d="M100 311h-68v75h68v302h219q143 0 202 -25.5t75 -91.5t16 -227t-16 -227t-75 -91.5t-202 -25.5h-219v311zM462.5 92.5q40.5 12.5 52.5 62t12 189.5q0 139 -12.5 189t-53 62.5t-156.5 12.5h-119v-222h110v-75h-110v-231h119q117 0 157.5 12.5z" />
    <glyph glyph-name="dcroat" unicode="&#x111;" horiz-adv-x="591" 
d="M571 615h-67v-615h-73l-3 71h-6q-21 -46 -64 -62.5t-104 -16.5q-76 0 -116 23t-56.5 78.5t-16.5 160.5q0 106 16 162t55.5 79t114.5 23q66 0 106.5 -16t59.5 -56h6v169h-136v73h136v55h81v-55h67v-73zM420.5 178.5q2.5 29.5 2.5 81.5q0 43 -3 71t-11 48
q-12 31 -42.5 45.5t-83.5 14.5q-63 0 -90.5 -12.5t-37 -49.5t-9.5 -122q0 -87 9.5 -124t37 -49t92.5 -12q52 0 82 13.5t41 42.5q10 23 12.5 52.5z" />
    <glyph glyph-name="Emacron" unicode="&#x112;" horiz-adv-x="604" 
d="M100 0v688h448v-80h-362v-221h314v-80h-314v-227h362v-80h-448zM202 807v80h244v-80h-244z" />
    <glyph glyph-name="emacron" unicode="&#x113;" horiz-adv-x="560" 
d="M495 226h-349q0 -73 10 -104t43.5 -43.5t112.5 -12.5q77 0 163 11v-71q-32 -6 -83 -10t-97 -4q-103 0 -151.5 24t-63.5 77t-15 161q0 106 13.5 159t61 79t150.5 26q96 0 139 -25.5t54.5 -77t11.5 -160.5v-29zM194.5 432.5q-28.5 -11.5 -38 -43t-10.5 -101.5h271v8
q0 66 -11.5 97t-37.5 41t-80 10q-65 0 -93.5 -11.5zM158 662v80h244v-80h-244z" />
    <glyph glyph-name="Ebreve" unicode="&#x114;" horiz-adv-x="604" 
d="M100 0v688h448v-80h-362v-221h314v-80h-314v-227h362v-80h-448zM453.5 808.5q-8.5 -29.5 -38.5 -47.5t-92 -18t-91.5 17.5t-37.5 47t-8 80.5h53q0 -36 4 -53t22 -27t58 -10t58 10t22.5 27.5t4.5 52.5h54q0 -50 -8.5 -79.5z" />
    <glyph glyph-name="ebreve" unicode="&#x115;" horiz-adv-x="560" 
d="M495 226h-349q0 -73 10 -104t43.5 -43.5t112.5 -12.5q77 0 163 11v-71q-32 -6 -83 -10t-97 -4q-103 0 -151.5 24t-63.5 77t-15 161q0 106 13.5 159t61 79t150.5 26q96 0 139 -25.5t54.5 -77t11.5 -160.5v-29zM194.5 432.5q-28.5 -11.5 -38 -43t-10.5 -101.5h271v8
q0 66 -11.5 97t-37.5 41t-80 10q-65 0 -93.5 -11.5zM409.5 663.5q-8.5 -29.5 -38.5 -47.5t-92 -18t-91.5 17.5t-37.5 47t-8 80.5h53q0 -36 4 -53t22 -27t58 -10t58 10t22.5 27.5t4.5 52.5h54q0 -50 -8.5 -79.5z" />
    <glyph glyph-name="Edotaccent" unicode="&#x116;" horiz-adv-x="604" 
d="M100 0v688h448v-80h-362v-221h314v-80h-314v-227h362v-80h-448zM285 792v83h77v-83h-77z" />
    <glyph glyph-name="edotaccent" unicode="&#x117;" horiz-adv-x="560" 
d="M495 226h-349q0 -73 10 -104t43.5 -43.5t112.5 -12.5q77 0 163 11v-71q-32 -6 -83 -10t-97 -4q-103 0 -151.5 24t-63.5 77t-15 161q0 106 13.5 159t61 79t150.5 26q96 0 139 -25.5t54.5 -77t11.5 -160.5v-29zM194.5 432.5q-28.5 -11.5 -38 -43t-10.5 -101.5h271v8
q0 66 -11.5 97t-37.5 41t-80 10q-65 0 -93.5 -11.5zM241 647v83h77v-83h-77z" />
    <glyph glyph-name="Eogonek" unicode="&#x118;" horiz-adv-x="604" 
d="M431 -175.5q-22 20.5 -22 54.5q0 60 67 121h-376v688h448v-80h-362v-221h314v-80h-314v-227h362v-80q-25 -17 -47 -46.5t-22 -54.5q0 -17 11 -27.5t35 -10.5l18 1v-56q-3 0 -12 -1t-27 -1q-51 0 -73 20.5z" />
    <glyph glyph-name="eogonek" unicode="&#x119;" horiz-adv-x="560" 
d="M495 226h-349q0 -73 10 -104t43.5 -43.5t112.5 -12.5q77 0 163 11v-71q-28 -18 -52 -49t-24 -59q0 -16 11 -26.5t35 -10.5l18 1v-56q-3 0 -12 -1t-27 -1q-51 0 -73.5 20.5t-22.5 53.5q0 58 62 117q-46 -3 -95 -3q-103 0 -151.5 24t-63.5 77t-15 161q0 106 13.5 159t61 79
t150.5 26q96 0 139 -25.5t54.5 -77t11.5 -160.5v-29zM194.5 432.5q-28.5 -11.5 -38 -43t-10.5 -101.5h271v8q0 66 -11.5 97t-37.5 41t-80 10q-65 0 -93.5 -11.5z" />
    <glyph glyph-name="Ecaron" unicode="&#x11a;" horiz-adv-x="604" 
d="M100 0v688h448v-80h-362v-221h314v-80h-314v-227h362v-80h-448zM281 746l-102 136v6h56l88 -96l89 96h56v-6l-102 -136h-85z" />
    <glyph glyph-name="ecaron" unicode="&#x11b;" horiz-adv-x="560" 
d="M495 226h-349q0 -73 10 -104t43.5 -43.5t112.5 -12.5q77 0 163 11v-71q-32 -6 -83 -10t-97 -4q-103 0 -151.5 24t-63.5 77t-15 161q0 106 13.5 159t61 79t150.5 26q96 0 139 -25.5t54.5 -77t11.5 -160.5v-29zM194.5 432.5q-28.5 -11.5 -38 -43t-10.5 -101.5h271v8
q0 66 -11.5 97t-37.5 41t-80 10q-65 0 -93.5 -11.5zM237 601l-102 136v6h56l88 -96l89 96h56v-6l-102 -136h-85z" />
    <glyph glyph-name="Gcircumflex" unicode="&#x11c;" horiz-adv-x="677" 
d="M350 294v79h238v-361q-49 -9 -110.5 -14.5t-108.5 -5.5q-126 0 -186.5 27.5t-83 100t-22.5 224.5q0 151 23 224t83.5 100.5t185.5 27.5q49 0 109.5 -6t106.5 -14v-76q-114 16 -174 16q-119 0 -165.5 -13t-65 -68t-18.5 -191q0 -126 14 -181t56 -74t138 -19q30 0 70 2.5
t65 5.5v216h-155zM194 746v7l102 135h85l102 -135v-7h-56l-89 96l-88 -96h-56z" />
    <glyph glyph-name="gcircumflex" unicode="&#x11d;" horiz-adv-x="591" 
d="M93 -197v71q96 -6 163 -6q77 0 111.5 14t45 49.5t10.5 113.5v22h-5q-19 -39 -59.5 -55.5t-104.5 -16.5q-77 0 -117 22.5t-56 77.5t-16 160q0 106 16.5 161.5t56.5 78.5t116 23q61 0 104.5 -17t63.5 -63h6l3 72h73v-445q0 -108 -15.5 -163t-64.5 -81.5t-151 -26.5
q-106 0 -180 9zM364.5 85.5q29.5 12.5 41.5 38.5q10 22 13.5 52t3.5 80q0 51 -2.5 79.5t-12.5 48.5q-13 30 -43 43t-80 13q-64 0 -92 -12.5t-37.5 -49t-9.5 -122.5q0 -85 9.5 -121.5t37.5 -49t92 -12.5q50 0 79.5 12.5zM151 601v7l102 135h85l102 -135v-7h-56l-89 96
l-88 -96h-56z" />
    <glyph glyph-name="Gbreve" unicode="&#x11e;" horiz-adv-x="677" 
d="M350 294v79h238v-361q-49 -9 -110.5 -14.5t-108.5 -5.5q-126 0 -186.5 27.5t-83 100t-22.5 224.5q0 151 23 224t83.5 100.5t185.5 27.5q49 0 109.5 -6t106.5 -14v-76q-114 16 -174 16q-119 0 -165.5 -13t-65 -68t-18.5 -191q0 -126 14 -181t56 -74t138 -19q30 0 70 2.5
t65 5.5v216h-155zM468.5 808.5q-8.5 -29.5 -38.5 -47.5t-92 -18t-91.5 17.5t-37.5 47t-8 80.5h53q0 -36 4 -53t22 -27t58 -10t58 10t22.5 27.5t4.5 52.5h54q0 -50 -8.5 -79.5z" />
    <glyph glyph-name="gbreve" unicode="&#x11f;" horiz-adv-x="591" 
d="M93 -197v71q96 -6 163 -6q77 0 111.5 14t45 49.5t10.5 113.5v22h-5q-19 -39 -59.5 -55.5t-104.5 -16.5q-77 0 -117 22.5t-56 77.5t-16 160q0 106 16.5 161.5t56.5 78.5t116 23q61 0 104.5 -17t63.5 -63h6l3 72h73v-445q0 -108 -15.5 -163t-64.5 -81.5t-151 -26.5
q-106 0 -180 9zM364.5 85.5q29.5 12.5 41.5 38.5q10 22 13.5 52t3.5 80q0 51 -2.5 79.5t-12.5 48.5q-13 30 -43 43t-80 13q-64 0 -92 -12.5t-37.5 -49t-9.5 -122.5q0 -85 9.5 -121.5t37.5 -49t92 -12.5q50 0 79.5 12.5zM425.5 663.5q-8.5 -29.5 -38.5 -47.5t-92 -18
t-91.5 17.5t-37.5 47t-8 80.5h53q0 -36 4 -53t22 -27t58 -10t58 10t22.5 27.5t4.5 52.5h54q0 -50 -8.5 -79.5z" />
    <glyph glyph-name="Gdotaccent" unicode="&#x120;" horiz-adv-x="677" 
d="M350 294v79h238v-361q-49 -9 -110.5 -14.5t-108.5 -5.5q-126 0 -186.5 27.5t-83 100t-22.5 224.5q0 151 23 224t83.5 100.5t185.5 27.5q49 0 109.5 -6t106.5 -14v-76q-114 16 -174 16q-119 0 -165.5 -13t-65 -68t-18.5 -191q0 -126 14 -181t56 -74t138 -19q30 0 70 2.5
t65 5.5v216h-155zM300 792v83h77v-83h-77z" />
    <glyph glyph-name="gdotaccent" unicode="&#x121;" horiz-adv-x="591" 
d="M93 -197v71q96 -6 163 -6q77 0 111.5 14t45 49.5t10.5 113.5v22h-5q-19 -39 -59.5 -55.5t-104.5 -16.5q-77 0 -117 22.5t-56 77.5t-16 160q0 106 16.5 161.5t56.5 78.5t116 23q61 0 104.5 -17t63.5 -63h6l3 72h73v-445q0 -108 -15.5 -163t-64.5 -81.5t-151 -26.5
q-106 0 -180 9zM364.5 85.5q29.5 12.5 41.5 38.5q10 22 13.5 52t3.5 80q0 51 -2.5 79.5t-12.5 48.5q-13 30 -43 43t-80 13q-64 0 -92 -12.5t-37.5 -49t-9.5 -122.5q0 -85 9.5 -121.5t37.5 -49t92 -12.5q50 0 79.5 12.5zM257 647v83h77v-83h-77z" />
    <glyph glyph-name="Gcommaaccent" unicode="&#x122;" horiz-adv-x="677" 
d="M350 294v79h238v-361q-49 -9 -110.5 -14.5t-108.5 -5.5q-126 0 -186.5 27.5t-83 100t-22.5 224.5q0 151 23 224t83.5 100.5t185.5 27.5q49 0 109.5 -6t106.5 -14v-76q-114 16 -174 16q-119 0 -165.5 -13t-65 -68t-18.5 -191q0 -126 14 -181t56 -74t138 -19q30 0 70 2.5
t65 5.5v216h-155zM329 -216.5q11 9.5 11 38.5v17h-37v99h91v-81q0 -53 -8 -78t-31 -35t-73 -10v40q36 0 47 9.5z" />
    <glyph glyph-name="gcommaaccent" unicode="&#x123;" horiz-adv-x="591" 
d="M93 -197v71q96 -6 163 -6q77 0 111.5 14t45 49.5t10.5 113.5v22h-5q-19 -39 -59.5 -55.5t-104.5 -16.5q-77 0 -117 22.5t-56 77.5t-16 160q0 106 16.5 161.5t56.5 78.5t116 23q61 0 104.5 -17t63.5 -63h6l3 72h73v-445q0 -108 -15.5 -163t-64.5 -81.5t-151 -26.5
q-106 0 -180 9zM364.5 85.5q29.5 12.5 41.5 38.5q10 22 13.5 52t3.5 80q0 51 -2.5 79.5t-12.5 48.5q-13 30 -43 43t-80 13q-64 0 -92 -12.5t-37.5 -49t-9.5 -122.5q0 -85 9.5 -121.5t37.5 -49t92 -12.5q50 0 79.5 12.5zM316 757.5q-11 -9.5 -11 -39.5v-17h37v-98h-91v80
q0 53 8 78.5t31.5 35.5t72.5 10v-40q-36 0 -47 -9.5z" />
    <glyph glyph-name="Hcircumflex" unicode="&#x124;" horiz-adv-x="732" 
d="M547 0v305h-361v-305h-86v688h86v-300h361v300h85v-688h-85zM221 746v7l102 135h85l102 -135v-7h-56l-89 96l-88 -96h-56z" />
    <glyph glyph-name="hcircumflex" unicode="&#x125;" horiz-adv-x="599" 
d="M432 287q0 71 -9 101.5t-34 40.5t-84 10q-63 0 -92.5 -20t-37 -55t-7.5 -101v-263h-81v743h81v-300h5q16 36 54.5 55t110.5 19q74 0 111.5 -20.5t50.5 -62t13 -115.5v-319h-81v287zM-18 779v7l102 135h85l102 -135v-7h-56l-89 96l-88 -96h-56z" />
    <glyph glyph-name="Hbar" unicode="&#x126;" horiz-adv-x="732" 
d="M547 688h85v-688h-85v273h-361v-273h-86v688h86v-133h361v133zM186 356h361v124h-361v-124z" />
    <glyph glyph-name="hbar" unicode="&#x127;" horiz-adv-x="599" 
d="M449.5 496.5q37.5 -20.5 50.5 -62t13 -115.5v-319h-81v287q0 71 -9 101.5t-34 40.5t-84 10q-63 0 -92.5 -20t-37 -55t-7.5 -101v-263h-81v615h-67v73h67v55h81v-55h136v-73h-136v-172h5q16 36 54.5 55t110.5 19q74 0 111.5 -20.5z" />
    <glyph glyph-name="Itilde" unicode="&#x128;" horiz-adv-x="286" 
d="M100 0v688h86v-688h-86zM318 820q-5 -24 -20.5 -36t-47.5 -12q-26 0 -51.5 5.5t-67.5 17.5q-61 19 -91 19q-21 0 -26 -10.5t-5 -42.5h-47q0 44 5 68t20.5 36.5t47.5 12.5q26 0 50.5 -5.5t68.5 -18.5q5 -1 25.5 -7t37 -9t28.5 -3q21 0 26 11t5 43h47q0 -45 -5 -69z" />
    <glyph glyph-name="itilde" unicode="&#x129;" horiz-adv-x="254" 
d="M87 0v510h81v-510h-81zM302 675q-5 -24 -20.5 -36t-47.5 -12q-26 0 -51.5 5.5t-67.5 17.5q-61 19 -91 19q-21 0 -26 -10.5t-5 -42.5h-47q0 44 5 68t20.5 36.5t47.5 12.5q26 0 50.5 -5.5t68.5 -18.5q5 -1 25.5 -7t37 -9t28.5 -3q21 0 26 11t5 43h47q0 -45 -5 -69z" />
    <glyph glyph-name="Imacron" unicode="&#x12a;" horiz-adv-x="286" 
d="M100 0v688h86v-688h-86zM21 807v80h244v-80h-244z" />
    <glyph glyph-name="imacron" unicode="&#x12b;" horiz-adv-x="254" 
d="M87 0v510h81v-510h-81zM5 662v80h244v-80h-244z" />
    <glyph glyph-name="Ibreve" unicode="&#x12c;" horiz-adv-x="286" 
d="M100 0v688h86v-688h-86zM272.5 808.5q-8.5 -29.5 -38.5 -47.5t-92 -18t-91.5 17.5t-37.5 47t-8 80.5h53q0 -36 4 -53t22 -27t58 -10t58 10t22.5 27.5t4.5 52.5h54q0 -50 -8.5 -79.5z" />
    <glyph glyph-name="ibreve" unicode="&#x12d;" horiz-adv-x="254" 
d="M87 0v510h81v-510h-81zM256.5 663.5q-8.5 -29.5 -38.5 -47.5t-92 -18t-91.5 17.5t-37.5 47t-8 80.5h53q0 -36 4 -53t22 -27t58 -10t58 10t22.5 27.5t4.5 52.5h54q0 -50 -8.5 -79.5z" />
    <glyph glyph-name="Iogonek" unicode="&#x12e;" horiz-adv-x="286" 
d="M52 -118q0 28 17 60t45 58h-14v688h86v-688q-22 -16 -42.5 -45.5t-20.5 -53.5q0 -40 47 -40l17 1v-56q-3 0 -15 -1t-25 -1q-95 0 -95 78z" />
    <glyph glyph-name="iogonek" unicode="&#x12f;" horiz-adv-x="254" 
d="M165 730v-83h-76v83h76zM169 -138v-56q-36 -2 -40 -2q-95 0 -95 76q0 30 16.5 61.5t44.5 58.5h-8v510h81v-510q-23 -16 -43 -45.5t-20 -55.5q0 -38 45 -38z" />
    <glyph glyph-name="Idotaccent" unicode="&#x130;" horiz-adv-x="286" 
d="M100 0v688h86v-688h-86zM104 792v83h77v-83h-77z" />
    <glyph glyph-name="dotlessi" unicode="&#x131;" horiz-adv-x="254" 
d="M87 0v510h81v-510h-81z" />
    <glyph glyph-name="IJ" unicode="&#x132;" horiz-adv-x="641" 
d="M100 0v688h86v-688h-86zM422.5 87.5q26.5 9.5 33.5 41.5t7 125v434h86v-404q0 -148 -12 -201t-54.5 -67.5t-162.5 -15.5v76q76 2 102.5 11.5z" />
    <glyph glyph-name="ij" unicode="&#x133;" horiz-adv-x="508" 
d="M84 650v93h86v-93h-86zM87 0v510h81v-510h-81zM338 650v93h86v-93h-86zM245 -132q44 0 64 5t26 16t6 34v587h81v-567q0 -66 -16 -96t-51.5 -38.5t-109.5 -8.5v68z" />
    <glyph glyph-name="Jcircumflex" unicode="&#x134;" horiz-adv-x="355" 
d="M136.5 87.5q26.5 9.5 33.5 41.5t7 125v434h86v-404q0 -148 -12 -201t-54.5 -67.5t-162.5 -15.5v76q76 2 102.5 11.5zM75 746v7l102 135h85l102 -135v-7h-56l-89 96l-88 -96h-56z" />
    <glyph glyph-name="jcircumflex" unicode="&#x135;" horiz-adv-x="254" 
d="M-9 -132q44 0 64 5t26 16t6 34v587h81v-567q0 -66 -16 -96t-51.5 -38.5t-109.5 -8.5v68zM-18 601v7l102 135h85l102 -135v-7h-56l-89 96l-88 -96h-56z" />
    <glyph glyph-name="Kcommaaccent" unicode="&#x136;" horiz-adv-x="671" 
d="M544 0l-234 310h-124v-310h-86v688h86v-298h124l235 298h96l-262 -333l265 -355h-100zM326 -216.5q11 9.5 11 38.5v17h-37v99h91v-81q0 -53 -8 -78t-31 -35t-73 -10v40q36 0 47 9.5z" />
    <glyph glyph-name="kcommaaccent" unicode="&#x137;" horiz-adv-x="537" 
d="M412 0l-180 220h-64v-220h-81v743h81v-448h64l181 215h91l-207 -247l210 -263h-95zM259 -216.5q11 9.5 11 38.5v17h-37v99h91v-81q0 -53 -8 -78t-31 -35t-73 -10v40q36 0 47 9.5z" />
    <glyph glyph-name="kgreenlandic" unicode="&#x138;" horiz-adv-x="537" 
d="M412 0l-180 220h-64v-220h-81v510h81v-215h64l181 215h91l-207 -247l210 -263h-95z" />
    <glyph glyph-name="Lacute" unicode="&#x139;" horiz-adv-x="538" 
d="M100 0v688h86v-605h321v-83h-407zM108 747v5l101 136h88v-5l-129 -136h-60z" />
    <glyph glyph-name="lacute" unicode="&#x13a;" horiz-adv-x="254" 
d="M87 0v743h81v-743h-81zM90 780v5l101 136h88v-5l-129 -136h-60z" />
    <glyph glyph-name="Lcommaaccent" unicode="&#x13b;" horiz-adv-x="538" 
d="M100 0v688h86v-605h321v-83h-407zM279 -216.5q11 9.5 11 38.5v17h-37v99h91v-81q0 -53 -8 -78t-31 -35t-73 -10v40q36 0 47 9.5z" />
    <glyph glyph-name="lcommaaccent" unicode="&#x13c;" horiz-adv-x="254" 
d="M87 0v743h81v-743h-81zM117 -216.5q11 9.5 11 38.5v17h-37v99h91v-81q0 -53 -8 -78t-31 -35t-73 -10v40q36 0 47 9.5z" />
    <glyph glyph-name="Lcaron" unicode="&#x13d;" horiz-adv-x="538" 
d="M100 0v688h86v-605h321v-83h-407zM328 442l14 172v74h79v-74l-37 -172h-56z" />
    <glyph glyph-name="lcaron" unicode="&#x13e;" horiz-adv-x="254" 
d="M87 0v743h81v-743h-81zM210 442l14 172v74h79v-74l-37 -172h-56z" />
    <glyph glyph-name="Ldot" unicode="&#x13f;" horiz-adv-x="538" 
d="M100 0v688h86v-605h321v-83h-407zM367 316v103h95v-103h-95z" />
    <glyph glyph-name="ldot" unicode="&#x140;" horiz-adv-x="283" 
d="M87 0v743h81v-743h-81zM223 248v103h95v-103h-95z" />
    <glyph glyph-name="Lslash" unicode="&#x141;" horiz-adv-x="538" 
d="M186 83h321v-83h-407v288l-64 -24v72l64 24v328h86v-296l190 72v-72l-190 -72v-237z" />
    <glyph glyph-name="lslash" unicode="&#x142;" horiz-adv-x="259" 
d="M89 0v317l-60 -20v72l60 21v353h81v-321l61 22v-73l-61 -22v-349h-81z" />
    <glyph glyph-name="Nacute" unicode="&#x143;" horiz-adv-x="732" 
d="M550 0l-363 526h-4v-526h-83v688h88l358 -514h4v514h82v-688h-82zM331 747v5l101 136h88v-5l-129 -136h-60z" />
    <glyph glyph-name="nacute" unicode="&#x144;" horiz-adv-x="599" 
d="M432 287q0 71 -9 101.5t-34 40.5t-84 10q-63 0 -92.5 -20t-37 -55t-7.5 -101v-263h-81v510h72l4 -72h6q17 39 56 59.5t113 20.5t111.5 -21t50.5 -62.5t13 -115.5v-319h-81v287zM263 602v5l101 136h88v-5l-129 -136h-60z" />
    <glyph glyph-name="Ncommaaccent" unicode="&#x145;" horiz-adv-x="732" 
d="M550 0l-363 526h-4v-526h-83v688h88l358 -514h4v514h82v-688h-82zM356 -216.5q11 9.5 11 38.5v17h-37v99h91v-81q0 -53 -8 -78t-31 -35t-73 -10v40q36 0 47 9.5z" />
    <glyph glyph-name="ncommaaccent" unicode="&#x146;" horiz-adv-x="599" 
d="M432 287q0 71 -9 101.5t-34 40.5t-84 10q-63 0 -92.5 -20t-37 -55t-7.5 -101v-263h-81v510h72l4 -72h6q17 39 56 59.5t113 20.5t111.5 -21t50.5 -62.5t13 -115.5v-319h-81v287zM290 -216.5q11 9.5 11 38.5v17h-37v99h91v-81q0 -53 -8 -78t-31 -35t-73 -10v40q36 0 47 9.5
z" />
    <glyph glyph-name="Ncaron" unicode="&#x147;" horiz-adv-x="732" 
d="M550 0l-363 526h-4v-526h-83v688h88l358 -514h4v514h82v-688h-82zM323 746l-102 136v6h56l88 -96l89 96h56v-6l-102 -136h-85z" />
    <glyph glyph-name="ncaron" unicode="&#x148;" horiz-adv-x="599" 
d="M432 287q0 71 -9 101.5t-34 40.5t-84 10q-63 0 -92.5 -20t-37 -55t-7.5 -101v-263h-81v510h72l4 -72h6q17 39 56 59.5t113 20.5t111.5 -21t50.5 -62.5t13 -115.5v-319h-81v287zM257 601l-102 136v6h56l88 -96l89 96h56v-6l-102 -136h-85z" />
    <glyph glyph-name="napostrophe" unicode="&#x149;" horiz-adv-x="647" 
d="M55 593.5q11 12.5 11 50.5v17h-37v82h91v-64q0 -59 -8 -87.5t-31.5 -39.5t-72.5 -11v40q36 0 47 12.5zM480 287q0 71 -9 101.5t-34 40.5t-84 10q-63 0 -92.5 -20t-37 -55t-7.5 -101v-263h-81v510h72l4 -72h6q17 39 56 59.5t113 20.5t111.5 -21t50.5 -62.5t13 -115.5v-319
h-81v287z" />
    <glyph glyph-name="Eng" unicode="&#x14a;" horiz-adv-x="732" 
d="M632 688v-745q0 -66 -16 -96t-51.5 -38.5t-110.5 -8.5v68q44 0 64 5t26 16t6 34v77l-363 526h-4v-526h-83v688h88l358 -515h4v515h82z" />
    <glyph glyph-name="eng" unicode="&#x14b;" horiz-adv-x="599" 
d="M449.5 497q37.5 -21 50.5 -62.5t13 -115.5v-376q0 -66 -16 -96t-51.5 -38.5t-109.5 -8.5v68q44 0 64 5t26 16t6 34v364q0 71 -9 101.5t-34 40.5t-84 10q-63 0 -92.5 -20t-37 -55t-7.5 -101v-263h-81v510h72l4 -72h6q17 39 56 59.5t113 20.5t111.5 -21z" />
    <glyph glyph-name="Omacron" unicode="&#x14c;" horiz-adv-x="718" 
d="M165 19q-57 27 -72.5 94.5t-15.5 230.5t15.5 230.5t72.5 94.5t194 27q136 0 193.5 -27t73 -94.5t15.5 -230.5t-15.5 -230.5t-73 -94.5t-193.5 -27q-137 0 -194 27zM497 85q36 13 47 65t11 194t-11 194t-47 65t-138 13t-138.5 -13t-47.5 -65t-11 -194t11 -194t47.5 -65
t138.5 -13t138 13zM237 807v80h244v-80h-244z" />
    <glyph glyph-name="omacron" unicode="&#x14d;" horiz-adv-x="577" 
d="M136 13.5q-46 21.5 -58.5 73t-12.5 168.5t12.5 168.5t58.5 73t153 21.5q106 0 152 -21.5t58.5 -73t12.5 -168.5t-12.5 -168.5t-58.5 -73t-152 -21.5q-107 0 -153 21.5zM390 79q28 13 34.5 47.5t6.5 128.5t-6.5 128.5t-34.5 47.5t-101 13t-101.5 -13t-35 -47.5
t-6.5 -128.5t6.5 -128.5t35 -47.5t101.5 -13t101 13zM167 662v80h244v-80h-244z" />
    <glyph glyph-name="Obreve" unicode="&#x14e;" horiz-adv-x="718" 
d="M165 19q-57 27 -72.5 94.5t-15.5 230.5t15.5 230.5t72.5 94.5t194 27q136 0 193.5 -27t73 -94.5t15.5 -230.5t-15.5 -230.5t-73 -94.5t-193.5 -27q-137 0 -194 27zM497 85q36 13 47 65t11 194t-11 194t-47 65t-138 13t-138.5 -13t-47.5 -65t-11 -194t11 -194t47.5 -65
t138.5 -13t138 13zM488.5 808.5q-8.5 -29.5 -38.5 -47.5t-92 -18t-91.5 17.5t-37.5 47t-8 80.5h53q0 -36 4 -53t22 -27t58 -10t58 10t22.5 27.5t4.5 52.5h54q0 -50 -8.5 -79.5z" />
    <glyph glyph-name="obreve" unicode="&#x14f;" horiz-adv-x="577" 
d="M136 13.5q-46 21.5 -58.5 73t-12.5 168.5t12.5 168.5t58.5 73t153 21.5q106 0 152 -21.5t58.5 -73t12.5 -168.5t-12.5 -168.5t-58.5 -73t-152 -21.5q-107 0 -153 21.5zM390 79q28 13 34.5 47.5t6.5 128.5t-6.5 128.5t-34.5 47.5t-101 13t-101.5 -13t-35 -47.5
t-6.5 -128.5t6.5 -128.5t35 -47.5t101.5 -13t101 13zM418.5 663.5q-8.5 -29.5 -38.5 -47.5t-92 -18t-91.5 17.5t-37.5 47t-8 80.5h53q0 -36 4 -53t22 -27t58 -10t58 10t22.5 27.5t4.5 52.5h54q0 -50 -8.5 -79.5z" />
    <glyph glyph-name="Ohungarumlaut" unicode="&#x150;" horiz-adv-x="718" 
d="M165 19q-57 27 -72.5 94.5t-15.5 230.5t15.5 230.5t72.5 94.5t194 27q136 0 193.5 -27t73 -94.5t15.5 -230.5t-15.5 -230.5t-73 -94.5t-193.5 -27q-137 0 -194 27zM497 85q36 13 47 65t11 194t-11 194t-47 65t-138 13t-138.5 -13t-47.5 -65t-11 -194t11 -194t47.5 -65
t138.5 -13t138 13zM233 752v5l96 126h77v-5l-121 -126h-52zM425 752v5l97 126h77v-5l-121 -126h-53z" />
    <glyph glyph-name="ohungarumlaut" unicode="&#x151;" horiz-adv-x="577" 
d="M136 13.5q-46 21.5 -58.5 73t-12.5 168.5t12.5 168.5t58.5 73t153 21.5q106 0 152 -21.5t58.5 -73t12.5 -168.5t-12.5 -168.5t-58.5 -73t-152 -21.5q-107 0 -153 21.5zM390 79q28 13 34.5 47.5t6.5 128.5t-6.5 128.5t-34.5 47.5t-101 13t-101.5 -13t-35 -47.5
t-6.5 -128.5t6.5 -128.5t35 -47.5t101.5 -13t101 13zM171 607v5l96 126h77v-5l-121 -126h-52zM363 607v5l97 126h77v-5l-121 -126h-53z" />
    <glyph glyph-name="OE" unicode="&#x152;" horiz-adv-x="1046" 
d="M165 26q-57 26 -72.5 92.5t-15.5 225.5t15.5 225.5t72.5 92.5t194 26h631v-80h-327q-43 0 -72 6q29 -30 39 -82t11 -145h302v-80h-302q-1 -99 -10.5 -150.5t-39.5 -82.5q29 6 72 6h327v-80h-631q-137 0 -194 26zM497 93q36 13 47 63t11 188t-11 188t-47 63t-138 13
t-138.5 -13t-47.5 -63t-11 -188t11 -188t47.5 -63t138.5 -13t138 13z" />
    <glyph glyph-name="oe" unicode="&#x153;" horiz-adv-x="928" 
d="M862 226h-348q0 -73 9.5 -104.5t43 -43.5t112.5 -12t163 11v-71q-32 -6 -82.5 -10t-97.5 -4q-77 0 -121 13.5t-68 46.5q-21 -34 -63 -47t-121 -13q-107 0 -153 21.5t-58.5 73t-12.5 168.5t12.5 168.5t58.5 73t153 21.5q78 0 120.5 -13.5t63.5 -46.5q23 32 66.5 46
t118.5 14q95 0 138 -25.5t54.5 -77t11.5 -160.5v-29zM390 79q28 13 34.5 47.5t6.5 128.5t-6.5 128.5t-34.5 47.5t-101 13t-101.5 -13t-35 -47.5t-6.5 -128.5t6.5 -128.5t35 -47.5t101.5 -13t101 13zM561.5 432.5q-28.5 -11.5 -38 -43t-9.5 -101.5h270v8q0 66 -11.5 97
t-37.5 41t-80 10q-65 0 -93.5 -11.5z" />
    <glyph glyph-name="Racute" unicode="&#x154;" horiz-adv-x="682" 
d="M526 0l-107 270h-17h-216v-270h-86v688h316q82 0 124 -26t55 -70t13 -113q0 -71 -21 -123.5t-86 -71.5l117 -284h-92zM474.5 363.5q30.5 13.5 39 39.5t8.5 76q0 51 -8 77t-36.5 39t-90.5 13h-201v-258h194q64 0 94.5 13.5zM306 747v5l101 136h88v-5l-129 -136h-60z" />
    <glyph glyph-name="racute" unicode="&#x155;" horiz-adv-x="367" 
d="M87 510h72l4 -97h6q18 60 60 82.5t110 22.5v-87q-69 0 -106 -21t-51 -64.5t-14 -117.5v-228h-81v510zM147 602v5l101 136h88v-5l-129 -136h-60z" />
    <glyph glyph-name="Rcommaaccent" unicode="&#x156;" horiz-adv-x="682" 
d="M526 0l-107 270h-17h-216v-270h-86v688h316q82 0 124 -26t55 -70t13 -113q0 -71 -21 -123.5t-86 -71.5l117 -284h-92zM474.5 363.5q30.5 13.5 39 39.5t8.5 76q0 51 -8 77t-36.5 39t-90.5 13h-201v-258h194q64 0 94.5 13.5zM331 -216.5q11 9.5 11 38.5v17h-37v99h91v-81
q0 -53 -8 -78t-31 -35t-73 -10v40q36 0 47 9.5z" />
    <glyph glyph-name="rcommaaccent" unicode="&#x157;" horiz-adv-x="367" 
d="M87 510h72l4 -97h6q18 60 60 82.5t110 22.5v-87q-69 0 -106 -21t-51 -64.5t-14 -117.5v-228h-81v510zM117 -216.5q11 9.5 11 38.5v17h-37v99h91v-81q0 -53 -8 -78t-31 -35t-73 -10v40q36 0 47 9.5z" />
    <glyph glyph-name="Rcaron" unicode="&#x158;" horiz-adv-x="682" 
d="M526 0l-107 270h-17h-216v-270h-86v688h316q82 0 124 -26t55 -70t13 -113q0 -71 -21 -123.5t-86 -71.5l117 -284h-92zM474.5 363.5q30.5 13.5 39 39.5t8.5 76q0 51 -8 77t-36.5 39t-90.5 13h-201v-258h194q64 0 94.5 13.5zM298 746l-102 136v6h56l88 -96l89 96h56v-6
l-102 -136h-85z" />
    <glyph glyph-name="rcaron" unicode="&#x159;" horiz-adv-x="367" 
d="M87 510h72l4 -97h6q18 60 60 82.5t110 22.5v-87q-69 0 -106 -21t-51 -64.5t-14 -117.5v-228h-81v510zM141 601l-102 136v6h56l88 -96l89 96h56v-6l-102 -136h-85z" />
    <glyph glyph-name="Sacute" unicode="&#x15a;" horiz-adv-x="629" 
d="M206.5 -4q-67.5 4 -119.5 10v79q130 -13 217 -13q54 0 85.5 4.5t53.5 16.5q20 12 26 35.5t6 62.5q0 47 -5 66.5t-23.5 28.5t-63.5 13l-170 19q-62 7 -93.5 29.5t-42 59t-10.5 95.5q0 82 28.5 124t80 56t138.5 14q58 0 118 -5t95 -12v-76q-38 6 -94 9.5t-104 3.5
q-56 0 -90 -5t-53 -17q-21 -12 -27 -32t-6 -57q0 -41 6 -59.5t23 -27t56 -12.5l168 -19q60 -6 93 -21t48 -54q14 -36 14 -115q0 -91 -28 -135.5t-75 -57t-129 -12.5q-55 0 -122.5 4zM280 747v5l101 136h88v-5l-129 -136h-60z" />
    <glyph glyph-name="sacute" unicode="&#x15b;" horiz-adv-x="499" 
d="M163 -4q-52 4 -92 9v72q99 -11 181 -11q51 0 75 7t31.5 22.5t7.5 46.5t-5.5 44.5t-17.5 18.5t-42 8l-133 15q-46 5 -70.5 21t-33.5 44t-9 75q0 65 23.5 97.5t65 42.5t111.5 10q39 0 84 -4t76 -10v-72q-78 12 -161 12q-46 0 -70 -4.5t-37 -20t-13 -48.5q0 -29 5 -42
t17 -18t40 -8l138 -16q44 -5 66.5 -16.5t33 -40.5t10.5 -86q0 -63 -20.5 -96t-60 -44.5t-107.5 -11.5q-41 0 -93 4zM213 602v5l101 136h88v-5l-129 -136h-60z" />
    <glyph glyph-name="Scircumflex" unicode="&#x15c;" horiz-adv-x="629" 
d="M206.5 -4q-67.5 4 -119.5 10v79q130 -13 217 -13q54 0 85.5 4.5t53.5 16.5q20 12 26 35.5t6 62.5q0 47 -5 66.5t-23.5 28.5t-63.5 13l-170 19q-62 7 -93.5 29.5t-42 59t-10.5 95.5q0 82 28.5 124t80 56t138.5 14q58 0 118 -5t95 -12v-76q-38 6 -94 9.5t-104 3.5
q-56 0 -90 -5t-53 -17q-21 -12 -27 -32t-6 -57q0 -41 6 -59.5t23 -27t56 -12.5l168 -19q60 -6 93 -21t48 -54q14 -36 14 -115q0 -91 -28 -135.5t-75 -57t-129 -12.5q-55 0 -122.5 4zM170 746v7l102 135h85l102 -135v-7h-56l-89 96l-88 -96h-56z" />
    <glyph glyph-name="scircumflex" unicode="&#x15d;" horiz-adv-x="499" 
d="M163 -4q-52 4 -92 9v72q99 -11 181 -11q51 0 75 7t31.5 22.5t7.5 46.5t-5.5 44.5t-17.5 18.5t-42 8l-133 15q-46 5 -70.5 21t-33.5 44t-9 75q0 65 23.5 97.5t65 42.5t111.5 10q39 0 84 -4t76 -10v-72q-78 12 -161 12q-46 0 -70 -4.5t-37 -20t-13 -48.5q0 -29 5 -42
t17 -18t40 -8l138 -16q44 -5 66.5 -16.5t33 -40.5t10.5 -86q0 -63 -20.5 -96t-60 -44.5t-107.5 -11.5q-41 0 -93 4zM105 601v7l102 135h85l102 -135v-7h-56l-89 96l-88 -96h-56z" />
    <glyph glyph-name="Scedilla" unicode="&#x15e;" horiz-adv-x="629" 
d="M535 64q-26 -44 -71.5 -57.5t-121.5 -14.5l-38 -182h-81v5l60 178q-89 1 -196 13v79q130 -13 217 -13q54 0 85.5 4.5t53.5 16.5q20 12 26 35.5t6 62.5q0 47 -5 66.5t-23.5 28.5t-63.5 13l-170 19q-62 7 -93.5 29.5t-42 59t-10.5 95.5q0 82 28.5 124t80 56t138.5 14
q58 0 118 -5t95 -12v-76q-38 6 -94 9.5t-104 3.5q-56 0 -90 -5t-53 -17q-21 -12 -27 -32t-6 -57q0 -41 6 -59.5t23 -27t56 -12.5l168 -19q60 -6 93 -21t48 -54q14 -36 14 -115q0 -89 -26 -133z" />
    <glyph glyph-name="scedilla" unicode="&#x15f;" horiz-adv-x="499" 
d="M425.5 51.5q-18.5 -32.5 -54 -45t-94.5 -14.5l-38 -182h-81v5l60 178q-91 4 -147 12v72q99 -11 181 -11q51 0 75 7t31.5 22.5t7.5 46.5t-5.5 44.5t-17.5 18.5t-42 8l-133 15q-46 5 -70.5 21t-33.5 44t-9 75q0 65 23.5 97.5t65 42.5t111.5 10q39 0 84 -4t76 -10v-72
q-78 12 -161 12q-46 0 -70 -4.5t-37 -20t-13 -48.5q0 -29 5 -42t17 -18t40 -8l138 -16q44 -5 66.5 -16.5t33 -40.5t10.5 -86q0 -60 -18.5 -92.5z" />
    <glyph glyph-name="Scaron" unicode="&#x160;" horiz-adv-x="629" 
d="M206.5 -4q-67.5 4 -119.5 10v79q130 -13 217 -13q54 0 85.5 4.5t53.5 16.5q20 12 26 35.5t6 62.5q0 47 -5 66.5t-23.5 28.5t-63.5 13l-170 19q-62 7 -93.5 29.5t-42 59t-10.5 95.5q0 82 28.5 124t80 56t138.5 14q58 0 118 -5t95 -12v-76q-38 6 -94 9.5t-104 3.5
q-56 0 -90 -5t-53 -17q-21 -12 -27 -32t-6 -57q0 -41 6 -59.5t23 -27t56 -12.5l168 -19q60 -6 93 -21t48 -54q14 -36 14 -115q0 -91 -28 -135.5t-75 -57t-129 -12.5q-55 0 -122.5 4zM280 750l-102 136v6h56l88 -96l89 96h56v-6l-102 -136h-85z" />
    <glyph glyph-name="scaron" unicode="&#x161;" horiz-adv-x="499" 
d="M163 -4q-52 4 -92 9v72q99 -11 181 -11q51 0 75 7t31.5 22.5t7.5 46.5t-5.5 44.5t-17.5 18.5t-42 8l-133 15q-46 5 -70.5 21t-33.5 44t-9 75q0 65 23.5 97.5t65 42.5t111.5 10q39 0 84 -4t76 -10v-72q-78 12 -161 12q-46 0 -70 -4.5t-37 -20t-13 -48.5q0 -29 5 -42
t17 -18t40 -8l138 -16q44 -5 66.5 -16.5t33 -40.5t10.5 -86q0 -63 -20.5 -96t-60 -44.5t-107.5 -11.5q-41 0 -93 4zM210 601l-102 136v6h56l88 -96l89 96h56v-6l-102 -136h-85z" />
    <glyph glyph-name="uni0162" unicode="&#x162;" horiz-adv-x="582" 
d="M30 688h521v-83h-217v-605h-15l-39 -190h-81v5l62 185h-13v605h-218v83z" />
    <glyph glyph-name="uni0163" unicode="&#x163;" horiz-adv-x="359" 
d="M210 510h122v-74h-122v-436h-12l-39 -190h-81v5l62 185h-11v436h-103v74h103v148h81v-148z" />
    <glyph glyph-name="Tcaron" unicode="&#x164;" horiz-adv-x="582" 
d="M248 0v605h-218v83h521v-83h-217v-605h-86zM248 746l-102 136v6h56l88 -96l89 96h56v-6l-102 -136h-85z" />
    <glyph glyph-name="tcaron" unicode="&#x165;" horiz-adv-x="359" 
d="M129 0v436h-103v74h103v148h81v-148h122v-74h-122v-436h-81zM369 442l14 172v74h79v-74l-37 -172h-56z" />
    <glyph glyph-name="Tbar" unicode="&#x166;" horiz-adv-x="582" 
d="M551 605h-217v-230h192v-73h-192v-302h-86v302h-193v73h193v230h-218v83h521v-83z" />
    <glyph glyph-name="tbar" unicode="&#x167;" horiz-adv-x="359" 
d="M333 285v-73h-123v-212h-81v212h-101v73h101v151h-103v74h103v148h81v-148h122v-74h-122v-151h123z" />
    <glyph glyph-name="Utilde" unicode="&#x168;" horiz-adv-x="709" 
d="M617 688v-387q0 -134 -17 -196.5t-71 -87.5t-174 -25t-174 25.5t-71.5 87.5t-17.5 196v387h85v-420q0 -90 10 -128t46 -53t122 -15t121.5 15t45 52.5t9.5 128.5v420h86zM530 820q-5 -24 -20.5 -36t-47.5 -12q-26 0 -51.5 5.5t-67.5 17.5q-61 19 -91 19q-21 0 -26 -10.5
t-5 -42.5h-47q0 44 5 68t20.5 36.5t47.5 12.5q26 0 50.5 -5.5t68.5 -18.5q5 -1 25.5 -7t37 -9t28.5 -3q21 0 26 11t5 43h47q0 -45 -5 -69z" />
    <glyph glyph-name="utilde" unicode="&#x169;" horiz-adv-x="599" 
d="M436 72h-6q-17 -39 -56 -59.5t-113 -20.5q-73 0 -110.5 21t-50.5 62.5t-13 115.5v319h81v-287q0 -72 8.5 -102t33.5 -40t84 -10q63 0 92.5 20t37.5 55.5t8 100.5v263h81v-510h-73zM475 675q-5 -24 -20.5 -36t-47.5 -12q-26 0 -51.5 5.5t-67.5 17.5q-61 19 -91 19
q-21 0 -26 -10.5t-5 -42.5h-47q0 44 5 68t20.5 36.5t47.5 12.5q26 0 50.5 -5.5t68.5 -18.5q5 -1 25.5 -7t37 -9t28.5 -3q21 0 26 11t5 43h47q0 -45 -5 -69z" />
    <glyph glyph-name="Umacron" unicode="&#x16a;" horiz-adv-x="709" 
d="M617 688v-387q0 -134 -17 -196.5t-71 -87.5t-174 -25t-174 25.5t-71.5 87.5t-17.5 196v387h85v-420q0 -90 10 -128t46 -53t122 -15t121.5 15t45 52.5t9.5 128.5v420h86zM233 807v80h244v-80h-244z" />
    <glyph glyph-name="umacron" unicode="&#x16b;" horiz-adv-x="599" 
d="M436 72h-6q-17 -39 -56 -59.5t-113 -20.5q-73 0 -110.5 21t-50.5 62.5t-13 115.5v319h81v-287q0 -72 8.5 -102t33.5 -40t84 -10q63 0 92.5 20t37.5 55.5t8 100.5v263h81v-510h-73zM178 662v80h244v-80h-244z" />
    <glyph glyph-name="Ubreve" unicode="&#x16c;" horiz-adv-x="709" 
d="M617 688v-387q0 -134 -17 -196.5t-71 -87.5t-174 -25t-174 25.5t-71.5 87.5t-17.5 196v387h85v-420q0 -90 10 -128t46 -53t122 -15t121.5 15t45 52.5t9.5 128.5v420h86zM484.5 808.5q-8.5 -29.5 -38.5 -47.5t-92 -18t-91.5 17.5t-37.5 47t-8 80.5h53q0 -36 4 -53t22 -27
t58 -10t58 10t22.5 27.5t4.5 52.5h54q0 -50 -8.5 -79.5z" />
    <glyph glyph-name="ubreve" unicode="&#x16d;" horiz-adv-x="599" 
d="M436 72h-6q-17 -39 -56 -59.5t-113 -20.5q-73 0 -110.5 21t-50.5 62.5t-13 115.5v319h81v-287q0 -72 8.5 -102t33.5 -40t84 -10q63 0 92.5 20t37.5 55.5t8 100.5v263h81v-510h-73zM429.5 663.5q-8.5 -29.5 -38.5 -47.5t-92 -18t-91.5 17.5t-37.5 47t-8 80.5h53
q0 -36 4 -53t22 -27t58 -10t58 10t22.5 27.5t4.5 52.5h54q0 -50 -8.5 -79.5z" />
    <glyph glyph-name="Uring" unicode="&#x16e;" horiz-adv-x="709" 
d="M617 688v-387q0 -134 -17 -196.5t-71 -87.5t-174 -25t-174 25.5t-71.5 87.5t-17.5 196v387h85v-420q0 -90 10 -128t46 -53t122 -15t121.5 15t45 52.5t9.5 128.5v420h86zM268.5 727.5q-26.5 10.5 -33.5 31t-7 64.5q0 43 7 64.5t33.5 32t85.5 10.5t86.5 -10.5t34.5 -32
t7 -64.5q0 -44 -7 -64.5t-34 -31t-87 -10.5q-59 0 -85.5 10.5zM406.5 767q15.5 5 19 16.5t3.5 39.5t-3.5 39.5t-19 17t-52.5 5.5q-36 0 -51.5 -5.5t-19 -17t-3.5 -39.5t3.5 -39.5t19 -16.5t51.5 -5q37 0 52.5 5z" />
    <glyph glyph-name="uring" unicode="&#x16f;" horiz-adv-x="599" 
d="M436 72h-6q-17 -39 -56 -59.5t-113 -20.5q-73 0 -110.5 21t-50.5 62.5t-13 115.5v319h81v-287q0 -72 8.5 -102t33.5 -40t84 -10q63 0 92.5 20t37.5 55.5t8 100.5v263h81v-510h-73zM213.5 612.5q-26.5 10.5 -33.5 31t-7 64.5q0 43 7 64.5t33.5 32t85.5 10.5t86.5 -10.5
t34.5 -32t7 -64.5q0 -44 -7 -64.5t-34 -31t-87 -10.5q-59 0 -85.5 10.5zM351.5 652q15.5 5 19 16.5t3.5 39.5t-3.5 39.5t-19 17t-52.5 5.5q-36 0 -51.5 -5.5t-19 -17t-3.5 -39.5t3.5 -39.5t19 -16.5t51.5 -5q37 0 52.5 5z" />
    <glyph glyph-name="Uhungarumlaut" unicode="&#x170;" horiz-adv-x="709" 
d="M617 688v-387q0 -134 -17 -196.5t-71 -87.5t-174 -25t-174 25.5t-71.5 87.5t-17.5 196v387h85v-420q0 -90 10 -128t46 -53t122 -15t121.5 15t45 52.5t9.5 128.5v420h86zM229 752v5l96 126h77v-5l-121 -126h-52zM421 752v5l97 126h77v-5l-121 -126h-53z" />
    <glyph glyph-name="uhungarumlaut" unicode="&#x171;" horiz-adv-x="599" 
d="M436 72h-6q-17 -39 -56 -59.5t-113 -20.5q-73 0 -110.5 21t-50.5 62.5t-13 115.5v319h81v-287q0 -72 8.5 -102t33.5 -40t84 -10q63 0 92.5 20t37.5 55.5t8 100.5v263h81v-510h-73zM182 607v5l96 126h77v-5l-121 -126h-52zM374 607v5l97 126h77v-5l-121 -126h-53z" />
    <glyph glyph-name="Uogonek" unicode="&#x172;" horiz-adv-x="709" 
d="M617 688v-387q0 -87 -6 -139.5t-23 -86.5t-51 -53q-36 -19 -61 -50.5t-25 -70.5q0 -19 10.5 -29.5t36.5 -10.5l17 1v-56q-36 -2 -40 -2q-95 0 -95 78q0 27 15 57t41 57q-31 -4 -81 -4q-120 0 -174 25.5t-71.5 87.5t-17.5 196v387h85v-420q0 -90 10 -128t46 -53t122 -15
t121.5 15t45 52.5t9.5 128.5v420h86z" />
    <glyph glyph-name="uogonek" unicode="&#x173;" horiz-adv-x="599" 
d="M514 -138v-56q-28 -2 -39 -2q-96 0 -96 76q0 30 16.5 61t44.5 59l-4 72h-6q-17 -39 -56 -59.5t-113 -20.5q-73 0 -110.5 21t-50.5 62.5t-13 115.5v319h81v-287q0 -72 8.5 -102t33.5 -40t84 -10q63 0 92.5 20t37.5 55.5t8 100.5v263h81v-510q-23 -16 -43 -45.5t-20 -55.5
q0 -17 11 -27.5t35 -10.5z" />
    <glyph glyph-name="Wcircumflex" unicode="&#x174;" horiz-adv-x="988" 
d="M663 0l-167 547h-4l-166 -547h-102l-188 688h88l154 -570h5l168 570h90l170 -570h6l149 570h86l-187 -688h-102zM349 746v7l102 135h85l102 -135v-7h-56l-89 96l-88 -96h-56z" />
    <glyph glyph-name="wcircumflex" unicode="&#x175;" horiz-adv-x="817" 
d="M529 0l-118 365h-7l-116 -365h-94l-163 510h84l125 -405h7l124 405h77l125 -405h7l124 405h82l-163 -510h-94zM264 601v7l102 135h85l102 -135v-7h-56l-89 96l-88 -96h-56z" />
    <glyph glyph-name="Ycircumflex" unicode="&#x176;" horiz-adv-x="610" 
d="M261 0v260l-249 428h92l199 -335h7l198 335h90l-251 -428v-260h-86zM160 746v7l102 135h85l102 -135v-7h-56l-89 96l-88 -96h-56z" />
    <glyph glyph-name="ycircumflex" unicode="&#x177;" horiz-adv-x="599" 
d="M111 -197v70q110 -5 154 -5q77 0 112 15.5t45 49t10 105.5v30h-6q-15 -34 -53.5 -53.5t-111.5 -19.5t-110.5 20.5t-50.5 62t-13 114.5v318h81v-285q0 -72 8.5 -102t33.5 -40t84 -10q63 0 92.5 20t37.5 55t8 100v262h81v-448q0 -106 -16 -161t-65 -81t-149 -26
q-107 0 -172 9zM155 601v7l102 135h85l102 -135v-7h-56l-89 96l-88 -96h-56z" />
    <glyph glyph-name="Ydieresis" unicode="&#x178;" horiz-adv-x="610" 
d="M261 0v260l-249 428h92l199 -335h7l198 335h90l-251 -428v-260h-86zM176 775v83h77v-83h-77zM365 775v83h76v-83h-76z" />
    <glyph glyph-name="Zacute" unicode="&#x179;" horiz-adv-x="607" 
d="M54 0v76l388 532h-377v80h486v-74l-390 -534h395v-80h-502zM269 747v5l101 136h88v-5l-129 -136h-60z" />
    <glyph glyph-name="zacute" unicode="&#x17a;" horiz-adv-x="508" 
d="M52 0v69l297 367h-285v74h390v-69l-296 -367h298v-74h-404zM217 602v5l101 136h88v-5l-129 -136h-60z" />
    <glyph glyph-name="Zdotaccent" unicode="&#x17b;" horiz-adv-x="607" 
d="M54 0v76l388 532h-377v80h486v-74l-390 -534h395v-80h-502zM265 792v83h77v-83h-77z" />
    <glyph glyph-name="zdotaccent" unicode="&#x17c;" horiz-adv-x="508" 
d="M52 0v69l297 367h-285v74h390v-69l-296 -367h298v-74h-404zM215 647v83h77v-83h-77z" />
    <glyph glyph-name="Zcaron" unicode="&#x17d;" horiz-adv-x="607" 
d="M54 0v76l388 532h-377v80h486v-74l-390 -534h395v-80h-502zM268 749l-102 136v6h56l88 -96l89 96h56v-6l-102 -136h-85z" />
    <glyph glyph-name="zcaron" unicode="&#x17e;" horiz-adv-x="508" 
d="M52 0v69l297 367h-285v74h390v-69l-296 -367h298v-74h-404zM218 601l-102 136v6h56l88 -96l89 96h56v-6l-102 -136h-85z" />
    <glyph glyph-name="longs" unicode="&#x17f;" horiz-adv-x="343" 
d="M130 436h-104v74h104v76q0 72 20 105t62 42t131 9v-67q-58 0 -85 -5.5t-37 -20.5t-10 -48v-601h-81v436z" />
    <glyph glyph-name="uni018F" unicode="&#x18f;" horiz-adv-x="698" 
d="M521.5 669q58.5 -27 79 -98.5t20.5 -226.5q0 -163 -15 -230.5t-70.5 -94.5t-187.5 -27t-187 27t-69.5 94.5t-14.5 230.5v43h458q-1 109 -16.5 155t-59 60t-147.5 14q-37 0 -81 -4t-76 -10v77q35 7 85.5 12t93.5 5q129 0 187.5 -27zM476.5 83.5q34.5 11.5 46 57
t12.5 166.5h-373q1 -121 13 -166.5t46 -57t127 -11.5q94 0 128.5 11.5z" />
    <glyph glyph-name="florin" unicode="&#x192;" horiz-adv-x="385" 
d="M294 664.5q-28 -9.5 -41 -39t-30 -108.5l-1 -7h131l-14 -74h-132l-91 -419q-21 -101 -48 -144t-69.5 -53.5t-137.5 -10.5l13 67q57 0 85 6t41.5 22t21.5 52l104 480h-104l14 74h104l1 3q25 111 52 158t70 59t140 12l-13 -68q-68 0 -96 -9.5z" />
    <glyph glyph-name="uni019D" unicode="&#x19d;" horiz-adv-x="732" 
d="M632 688v-688h-82l-363 526h-4v-583q0 -66 -16.5 -96t-52 -38.5t-110.5 -8.5v68q44 0 64 5t26 16t6 34v765h88l358 -514h4v514h82z" />
    <glyph glyph-name="Ohorn" unicode="&#x1a0;" horiz-adv-x="718" 
d="M664 783v-24q0 -40 -6 -62.5t-23.5 -34t-50.5 -14.5q37 -33 47 -98t10 -206q0 -163 -15.5 -230.5t-73 -94.5t-193.5 -27q-137 0 -194 27t-72.5 94.5t-15.5 230.5t15.5 230.5t72.5 94.5t194 27q84 0 129 -8h61q25 0 37 5.5t15.5 18t3.5 39.5v32h59zM497 85q36 13 47 65
t11 194t-11 194t-47 65t-138 13t-138.5 -13t-47.5 -65t-11 -194t11 -194t47.5 -65t138.5 -13t138 13z" />
    <glyph glyph-name="ohorn" unicode="&#x1a1;" horiz-adv-x="577" 
d="M570 605v-24q0 -43 -7.5 -65.5t-27 -33.5t-59.5 -13q23 -27 29.5 -74t6.5 -140q0 -117 -12.5 -168.5t-58.5 -73t-152 -21.5q-107 0 -153 21.5t-58.5 73t-12.5 168.5t12.5 168.5t58.5 73t153 21.5q71 0 108 -8h58q25 0 37 5.5t15.5 18t3.5 39.5v32h59zM390 79
q28 13 34.5 47.5t6.5 128.5t-6.5 128.5t-34.5 47.5t-101 13t-101.5 -13t-35 -47.5t-6.5 -128.5t6.5 -128.5t35 -47.5t101.5 -13t101 13z" />
    <glyph glyph-name="Uhorn" unicode="&#x1af;" horiz-adv-x="709" 
d="M723 783v-24q0 -45 -8 -68t-30.5 -33t-67.5 -11v-346q0 -134 -17 -196.5t-71 -87.5t-174 -25t-174 25.5t-71.5 87.5t-17.5 196v387h85v-420q0 -90 10 -128t46 -53t122 -15t121.5 15t45 52.5t9.5 128.5v420h77q25 0 37 5.5t15.5 18t3.5 39.5v32h59z" />
    <glyph glyph-name="uhorn" unicode="&#x1b0;" horiz-adv-x="599" 
d="M613 605v-24q0 -44 -7.5 -66.5t-29 -33t-63.5 -12.5v-469h-73l-4 72h-6q-17 -39 -56 -59.5t-113 -20.5q-73 0 -110.5 21t-50.5 62.5t-13 115.5v319h81v-287q0 -72 8.5 -102t33.5 -40t84 -10q63 0 92.5 20t37.5 55.5t8 100.5v263h66q25 0 37 5.5t15.5 18t3.5 39.5v32h59z
" />
    <glyph glyph-name="uni01C4" unicode="&#x1c4;" horiz-adv-x="1296" 
d="M100 688h219q143 0 202 -25.5t75 -91.5t16 -227t-16 -227t-75 -91.5t-202 -25.5h-219v688zM305 80q117 0 157.5 12.5t52.5 62t12 189.5q0 139 -12.5 189t-53 62.5t-156.5 12.5h-119v-528h119zM743 0v76l388 532h-377v80h486v-74l-390 -534h395v-80h-502zM955 746
l-102 136v6h56l88 -96l89 96h56v-6l-102 -136h-85z" />
    <glyph glyph-name="uni01C5" unicode="&#x1c5;" horiz-adv-x="1197" 
d="M100 688h219q143 0 202 -25.5t75 -91.5t16 -227t-16 -227t-75 -91.5t-202 -25.5h-219v688zM305 80q117 0 157.5 12.5t52.5 62t12 189.5q0 139 -12.5 189t-53 62.5t-156.5 12.5h-119v-528h119zM741 0v69l297 367h-285v74h390v-69l-296 -367h298v-74h-404zM909 601
l-102 136v6h56l88 -96l89 96h56v-6l-102 -136h-85z" />
    <glyph glyph-name="uni01C6" unicode="&#x1c6;" horiz-adv-x="1099" 
d="M138 15q-40 23 -56.5 78.5t-16.5 160.5q0 106 16 162t55.5 79t114.5 23q66 0 106.5 -16t59.5 -56h6v297h81v-743h-73l-3 71h-6q-21 -46 -64 -62.5t-104 -16.5q-76 0 -116 23zM367 83.5q30 13.5 41 42.5q10 23 12.5 52.5t2.5 81.5q0 43 -3 71t-11 48q-12 31 -42.5 45.5
t-83.5 14.5q-63 0 -90.5 -12.5t-37 -49.5t-9.5 -122q0 -87 9.5 -124t37 -49t92.5 -12q52 0 82 13.5zM643 0v69l297 367h-285v74h390v-69l-296 -367h298v-74h-404zM804 601l-102 136v6h56l88 -96l89 96h56v-6l-102 -136h-85z" />
    <glyph glyph-name="uni01C7" unicode="&#x1c7;" horiz-adv-x="893" 
d="M100 0v688h86v-605h321v-83h-407zM674.5 87.5q26.5 9.5 33.5 41.5t7 125v434h86v-404q0 -148 -12 -201t-54.5 -67.5t-162.5 -15.5v76q76 2 102.5 11.5z" />
    <glyph glyph-name="uni01C8" unicode="&#x1c8;" horiz-adv-x="792" 
d="M100 0v688h86v-605h321v-83h-407zM622 650v93h86v-93h-86zM529 -132q44 0 64 5t26 16t6 34v587h81v-567q0 -66 -16 -96t-51.5 -38.5t-109.5 -8.5v68z" />
    <glyph glyph-name="uni01C9" unicode="&#x1c9;" horiz-adv-x="508" 
d="M87 0v743h81v-743h-81zM338 650v93h86v-93h-86zM245 -132q44 0 64 5t26 16t6 34v587h81v-567q0 -66 -16 -96t-51.5 -38.5t-109.5 -8.5v68z" />
    <glyph glyph-name="uni01CA" unicode="&#x1ca;" horiz-adv-x="1087" 
d="M550 0l-363 526h-4v-526h-83v688h88l358 -514h4v514h82v-688h-82zM868.5 87.5q26.5 9.5 33.5 41.5t7 125v434h86v-404q0 -148 -12 -201t-54.5 -67.5t-162.5 -15.5v76q76 2 102.5 11.5z" />
    <glyph glyph-name="uni01CB" unicode="&#x1cb;" horiz-adv-x="986" 
d="M550 0l-363 526h-4v-526h-83v688h88l358 -514h4v514h82v-688h-82zM816 650v93h86v-93h-86zM723 -132q44 0 64 5t26 16t6 34v587h81v-567q0 -66 -16 -96t-51.5 -38.5t-109.5 -8.5v68z" />
    <glyph glyph-name="uni01CC" unicode="&#x1cc;" horiz-adv-x="853" 
d="M432 287q0 71 -9 101.5t-34 40.5t-84 10q-63 0 -92.5 -20t-37 -55t-7.5 -101v-263h-81v510h72l4 -72h6q17 39 56 59.5t113 20.5t111.5 -21t50.5 -62.5t13 -115.5v-319h-81v287zM683 650v93h86v-93h-86zM590 -132q44 0 64 5t26 16t6 34v587h81v-567q0 -66 -16 -96
t-51.5 -38.5t-109.5 -8.5v68z" />
    <glyph glyph-name="uni01CD" unicode="&#x1cd;" horiz-adv-x="684" 
d="M567 0l-71 183h-310l-71 -183h-87l260 688h108l260 -688h-89zM343 595h-5l-126 -331h257zM299 746l-102 136v6h56l88 -96l89 96h56v-6l-102 -136h-85z" />
    <glyph glyph-name="uni01CE" unicode="&#x1ce;" horiz-adv-x="570" 
d="M95 24.5q-40 32.5 -40 115.5q0 59 14 92t47.5 48t94.5 15q29 0 191 -5v30q0 60 -11.5 85t-42 32t-103.5 7q-32 0 -80.5 -3.5t-75.5 -7.5v71q79 14 185 14q90 0 134.5 -18.5t59.5 -60t15 -120.5v-319h-73l-4 71h-6q-21 -48 -67.5 -63.5t-109.5 -15.5q-88 0 -128 32.5z
M335.5 74q31.5 9 45.5 35q21 36 21 100v23h-170q-42 0 -61.5 -6t-27.5 -23.5t-8 -54.5q0 -36 9 -53t33.5 -23.5t76.5 -6.5q50 0 81.5 9zM242 601l-102 136v6h56l88 -96l89 96h56v-6l-102 -136h-85z" />
    <glyph glyph-name="uni01CF" unicode="&#x1cf;" horiz-adv-x="286" 
d="M100 0v688h86v-688h-86zM100 746l-102 136v6h56l88 -96l89 96h56v-6l-102 -136h-85z" />
    <glyph glyph-name="uni01D0" unicode="&#x1d0;" horiz-adv-x="254" 
d="M87 0v510h81v-510h-81zM84 601l-102 136v6h56l88 -96l89 96h56v-6l-102 -136h-85z" />
    <glyph glyph-name="uni01D1" unicode="&#x1d1;" horiz-adv-x="718" 
d="M165 19q-57 27 -72.5 94.5t-15.5 230.5t15.5 230.5t72.5 94.5t194 27q136 0 193.5 -27t73 -94.5t15.5 -230.5t-15.5 -230.5t-73 -94.5t-193.5 -27q-137 0 -194 27zM497 85q36 13 47 65t11 194t-11 194t-47 65t-138 13t-138.5 -13t-47.5 -65t-11 -194t11 -194t47.5 -65
t138.5 -13t138 13zM316 746l-102 136v6h56l88 -96l89 96h56v-6l-102 -136h-85z" />
    <glyph glyph-name="uni01D2" unicode="&#x1d2;" horiz-adv-x="577" 
d="M136 13.5q-46 21.5 -58.5 73t-12.5 168.5t12.5 168.5t58.5 73t153 21.5q106 0 152 -21.5t58.5 -73t12.5 -168.5t-12.5 -168.5t-58.5 -73t-152 -21.5q-107 0 -153 21.5zM390 79q28 13 34.5 47.5t6.5 128.5t-6.5 128.5t-34.5 47.5t-101 13t-101.5 -13t-35 -47.5
t-6.5 -128.5t6.5 -128.5t35 -47.5t101.5 -13t101 13zM246 601l-102 136v6h56l88 -96l89 96h56v-6l-102 -136h-85z" />
    <glyph glyph-name="uni01D3" unicode="&#x1d3;" horiz-adv-x="709" 
d="M617 688v-387q0 -134 -17 -196.5t-71 -87.5t-174 -25t-174 25.5t-71.5 87.5t-17.5 196v387h85v-420q0 -90 10 -128t46 -53t122 -15t121.5 15t45 52.5t9.5 128.5v420h86zM312 746l-102 136v6h56l88 -96l89 96h56v-6l-102 -136h-85z" />
    <glyph glyph-name="uni01D4" unicode="&#x1d4;" horiz-adv-x="599" 
d="M436 72h-6q-17 -39 -56 -59.5t-113 -20.5q-73 0 -110.5 21t-50.5 62.5t-13 115.5v319h81v-287q0 -72 8.5 -102t33.5 -40t84 -10q63 0 92.5 20t37.5 55.5t8 100.5v263h81v-510h-73zM257 601l-102 136v6h56l88 -96l89 96h56v-6l-102 -136h-85z" />
    <glyph glyph-name="uni01D5" unicode="&#x1d5;" horiz-adv-x="709" 
d="M617 688v-387q0 -134 -17 -196.5t-71 -87.5t-174 -25t-174 25.5t-71.5 87.5t-17.5 196v387h85v-420q0 -90 10 -128t46 -53t122 -15t121.5 15t45 52.5t9.5 128.5v420h86zM222 792v83h77v-83h-77zM411 792v83h76v-83h-76zM235 934v80h244v-80h-244z" />
    <glyph glyph-name="uni01D6" unicode="&#x1d6;" horiz-adv-x="599" 
d="M436 72h-6q-17 -39 -56 -59.5t-113 -20.5q-73 0 -110.5 21t-50.5 62.5t-13 115.5v319h81v-287q0 -72 8.5 -102t33.5 -40t84 -10q63 0 92.5 20t37.5 55.5t8 100.5v263h81v-510h-73zM167 647v83h77v-83h-77zM356 647v83h76v-83h-76zM180 822v80h244v-80h-244z" />
    <glyph glyph-name="uni01D7" unicode="&#x1d7;" horiz-adv-x="709" 
d="M617 688v-387q0 -134 -17 -196.5t-71 -87.5t-174 -25t-174 25.5t-71.5 87.5t-17.5 196v387h85v-420q0 -90 10 -128t46 -53t122 -15t121.5 15t45 52.5t9.5 128.5v420h86zM222 792v83h77v-83h-77zM411 792v83h76v-83h-76zM322 874v5l101 136h88v-5l-129 -136h-60z" />
    <glyph glyph-name="uni01D8" unicode="&#x1d8;" horiz-adv-x="599" 
d="M436 72h-6q-17 -39 -56 -59.5t-113 -20.5q-73 0 -110.5 21t-50.5 62.5t-13 115.5v319h81v-287q0 -72 8.5 -102t33.5 -40t84 -10q63 0 92.5 20t37.5 55.5t8 100.5v263h81v-510h-73zM167 647v83h77v-83h-77zM356 647v83h76v-83h-76zM265 762v5l101 136h88v-5l-129 -136h-60
z" />
    <glyph glyph-name="uni01D9" unicode="&#x1d9;" horiz-adv-x="709" 
d="M617 688v-387q0 -134 -17 -196.5t-71 -87.5t-174 -25t-174 25.5t-71.5 87.5t-17.5 196v387h85v-420q0 -90 10 -128t46 -53t122 -15t121.5 15t45 52.5t9.5 128.5v420h86zM222 792v83h77v-83h-77zM411 792v83h76v-83h-76zM314 873l-102 136v6h56l88 -96l89 96h56v-6
l-102 -136h-85z" />
    <glyph glyph-name="uni01DA" unicode="&#x1da;" horiz-adv-x="599" 
d="M436 72h-6q-17 -39 -56 -59.5t-113 -20.5q-73 0 -110.5 21t-50.5 62.5t-13 115.5v319h81v-287q0 -72 8.5 -102t33.5 -40t84 -10q63 0 92.5 20t37.5 55.5t8 100.5v263h81v-510h-73zM167 647v83h77v-83h-77zM356 647v83h76v-83h-76zM259 761l-102 136v6h56l88 -96l89 96h56
v-6l-102 -136h-85z" />
    <glyph glyph-name="uni01DB" unicode="&#x1db;" horiz-adv-x="709" 
d="M617 688v-387q0 -134 -17 -196.5t-71 -87.5t-174 -25t-174 25.5t-71.5 87.5t-17.5 196v387h85v-420q0 -90 10 -128t46 -53t122 -15t121.5 15t45 52.5t9.5 128.5v420h86zM222 792v83h77v-83h-77zM411 792v83h76v-83h-76zM335 874l-129 136v5h88l101 -136v-5h-60z" />
    <glyph glyph-name="uni01DC" unicode="&#x1dc;" horiz-adv-x="599" 
d="M436 72h-6q-17 -39 -56 -59.5t-113 -20.5q-73 0 -110.5 21t-50.5 62.5t-13 115.5v319h81v-287q0 -72 8.5 -102t33.5 -40t84 -10q63 0 92.5 20t37.5 55.5t8 100.5v263h81v-510h-73zM167 647v83h77v-83h-77zM356 647v83h76v-83h-76zM284 762l-129 136v5h88l101 -136v-5h-60
z" />
    <glyph glyph-name="Gcaron" unicode="&#x1e6;" horiz-adv-x="677" 
d="M350 294v79h238v-361q-49 -9 -110.5 -14.5t-108.5 -5.5q-126 0 -186.5 27.5t-83 100t-22.5 224.5q0 151 23 224t83.5 100.5t185.5 27.5q49 0 109.5 -6t106.5 -14v-76q-114 16 -174 16q-119 0 -165.5 -13t-65 -68t-18.5 -191q0 -126 14 -181t56 -74t138 -19q30 0 70 2.5
t65 5.5v216h-155zM296 746l-102 136v6h56l88 -96l89 96h56v-6l-102 -136h-85z" />
    <glyph glyph-name="gcaron" unicode="&#x1e7;" horiz-adv-x="591" 
d="M93 -197v71q96 -6 163 -6q77 0 111.5 14t45 49.5t10.5 113.5v22h-5q-19 -39 -59.5 -55.5t-104.5 -16.5q-77 0 -117 22.5t-56 77.5t-16 160q0 106 16.5 161.5t56.5 78.5t116 23q61 0 104.5 -17t63.5 -63h6l3 72h73v-445q0 -108 -15.5 -163t-64.5 -81.5t-151 -26.5
q-106 0 -180 9zM364.5 85.5q29.5 12.5 41.5 38.5q10 22 13.5 52t3.5 80q0 51 -2.5 79.5t-12.5 48.5q-13 30 -43 43t-80 13q-64 0 -92 -12.5t-37.5 -49t-9.5 -122.5q0 -85 9.5 -121.5t37.5 -49t92 -12.5q50 0 79.5 12.5zM253 601l-102 136v6h56l88 -96l89 96h56v-6l-102 -136
h-85z" />
    <glyph glyph-name="uni01EA" unicode="&#x1ea;" horiz-adv-x="718" 
d="M423 -175.5q-22 20.5 -22 54.5q0 57 61 118q-36 -5 -103 -5q-137 0 -194 27t-72.5 94.5t-15.5 230.5t15.5 230.5t72.5 94.5t194 27q136 0 193.5 -27t73 -94.5t15.5 -230.5q0 -107 -4.5 -165t-21.5 -96.5t-53 -59.5q-37 -20 -63.5 -55.5t-26.5 -68.5q0 -17 11 -27.5
t35 -10.5l18 1v-56q-36 -2 -39 -2q-52 0 -74 20.5zM497 85q36 13 47 65t11 194t-11 194t-47 65t-138 13t-138.5 -13t-47.5 -65t-11 -194t11 -194t47.5 -65t138.5 -13t138 13z" />
    <glyph glyph-name="uni01EB" unicode="&#x1eb;" horiz-adv-x="577" 
d="M441 496.5q46 -21.5 58.5 -73t12.5 -168.5q0 -107 -10 -157t-45 -74q-28 -20 -52 -57t-24 -67q0 -39 46 -39l18 1v-56q-3 0 -12 -1t-27 -1q-96 0 -96 76q0 56 49 115q-30 -3 -70 -3q-107 0 -153 21.5t-58.5 73t-12.5 168.5t12.5 168.5t58.5 73t153 21.5q106 0 152 -21.5z
M390 79q28 13 34.5 47.5t6.5 128.5t-6.5 128.5t-34.5 47.5t-101 13t-101.5 -13t-35 -47.5t-6.5 -128.5t6.5 -128.5t35 -47.5t101.5 -13t101 13z" />
    <glyph glyph-name="uni01F1" unicode="&#x1f1;" horiz-adv-x="1296" 
d="M100 688h219q143 0 202 -25.5t75 -91.5t16 -227t-16 -227t-75 -91.5t-202 -25.5h-219v688zM305 80q117 0 157.5 12.5t52.5 62t12 189.5q0 139 -12.5 189t-53 62.5t-156.5 12.5h-119v-528h119zM743 0v76l388 532h-377v80h486v-74l-390 -534h395v-80h-502z" />
    <glyph glyph-name="uni01F2" unicode="&#x1f2;" horiz-adv-x="1197" 
d="M100 688h219q143 0 202 -25.5t75 -91.5t16 -227t-16 -227t-75 -91.5t-202 -25.5h-219v688zM305 80q117 0 157.5 12.5t52.5 62t12 189.5q0 139 -12.5 189t-53 62.5t-156.5 12.5h-119v-528h119zM741 0v69l297 367h-285v74h390v-69l-296 -367h298v-74h-404z" />
    <glyph glyph-name="uni01F3" unicode="&#x1f3;" horiz-adv-x="1099" 
d="M138 15q-40 23 -56.5 78.5t-16.5 160.5q0 106 16 162t55.5 79t114.5 23q66 0 106.5 -16t59.5 -56h6v297h81v-743h-73l-3 71h-6q-21 -46 -64 -62.5t-104 -16.5q-76 0 -116 23zM367 83.5q30 13.5 41 42.5q10 23 12.5 52.5t2.5 81.5q0 43 -3 71t-11 48q-12 31 -42.5 45.5
t-83.5 14.5q-63 0 -90.5 -12.5t-37 -49.5t-9.5 -122q0 -87 9.5 -124t37 -49t92.5 -12q52 0 82 13.5zM643 0v69l297 367h-285v74h390v-69l-296 -367h298v-74h-404z" />
    <glyph glyph-name="uni01F4" unicode="&#x1f4;" horiz-adv-x="677" 
d="M350 294v79h238v-361q-49 -9 -110.5 -14.5t-108.5 -5.5q-126 0 -186.5 27.5t-83 100t-22.5 224.5q0 151 23 224t83.5 100.5t185.5 27.5q49 0 109.5 -6t106.5 -14v-76q-114 16 -174 16q-119 0 -165.5 -13t-65 -68t-18.5 -191q0 -126 14 -181t56 -74t138 -19q30 0 70 2.5
t65 5.5v216h-155zM304 747v5l101 136h88v-5l-129 -136h-60z" />
    <glyph glyph-name="uni01F5" unicode="&#x1f5;" horiz-adv-x="591" 
d="M93 -197v71q96 -6 163 -6q77 0 111.5 14t45 49.5t10.5 113.5v22h-5q-19 -39 -59.5 -55.5t-104.5 -16.5q-77 0 -117 22.5t-56 77.5t-16 160q0 106 16.5 161.5t56.5 78.5t116 23q61 0 104.5 -17t63.5 -63h6l3 72h73v-445q0 -108 -15.5 -163t-64.5 -81.5t-151 -26.5
q-106 0 -180 9zM364.5 85.5q29.5 12.5 41.5 38.5q10 22 13.5 52t3.5 80q0 51 -2.5 79.5t-12.5 48.5q-13 30 -43 43t-80 13q-64 0 -92 -12.5t-37.5 -49t-9.5 -122.5q0 -85 9.5 -121.5t37.5 -49t92 -12.5q50 0 79.5 12.5zM259 602v5l101 136h88v-5l-129 -136h-60z" />
    <glyph glyph-name="Aringacute" unicode="&#x1fa;" horiz-adv-x="684" 
d="M656 0h-89l-71 183h-310l-71 -183h-87l252 675q-30 5 -43.5 17.5t-17.5 31t-4 53.5q0 44 7 65t33.5 32t85.5 11q60 0 87 -11t34.5 -32t7.5 -65q0 -35 -4 -53.5t-18 -31t-44 -17.5zM271.5 737.5q3.5 -11.5 18.5 -16.5t51 -5q37 0 53 5t19.5 16.5t3.5 39.5t-3.5 39.5
t-19.5 17t-53 5.5q-36 0 -51 -5.5t-18.5 -17t-3.5 -39.5t3.5 -39.5zM212 264h257l-126 331h-5zM306 944v5l101 136h88v-5l-129 -136h-60z" />
    <glyph glyph-name="aringacute" unicode="&#x1fb;" horiz-adv-x="570" 
d="M95 24.5q-40 32.5 -40 115.5q0 59 14 92t47.5 48t94.5 15q29 0 191 -5v30q0 60 -11.5 85t-42 32t-103.5 7q-32 0 -80.5 -3.5t-75.5 -7.5v71q79 14 185 14q90 0 134.5 -18.5t59.5 -60t15 -120.5v-319h-73l-4 71h-6q-21 -48 -67.5 -63.5t-109.5 -15.5q-88 0 -128 32.5z
M335.5 74q31.5 9 45.5 35q21 36 21 100v23h-170q-42 0 -61.5 -6t-27.5 -23.5t-8 -54.5q0 -36 9 -53t33.5 -23.5t76.5 -6.5q50 0 81.5 9zM198.5 612.5q-26.5 10.5 -33.5 31t-7 64.5q0 43 7 64.5t33.5 32t85.5 10.5t86.5 -10.5t34.5 -32t7 -64.5q0 -44 -7 -64.5t-34 -31
t-87 -10.5q-59 0 -85.5 10.5zM336.5 652q15.5 5 19 16.5t3.5 39.5t-3.5 39.5t-19 17t-52.5 5.5q-36 0 -51.5 -5.5t-19 -17t-3.5 -39.5t3.5 -39.5t19 -16.5t51.5 -5q37 0 52.5 5zM250 847v5l101 136h88v-5l-129 -136h-60z" />
    <glyph glyph-name="AEacute" unicode="&#x1fc;" horiz-adv-x="956" 
d="M531 0l-50 183h-310l-91 -183h-87l335 688h571v-80h-443l63 -221h333v-80h-315l65 -227h297v-80h-368zM374 595h-5l-164 -331h258zM441 747v5l101 136h88v-5l-129 -136h-60z" />
    <glyph glyph-name="aeacute" unicode="&#x1fd;" horiz-adv-x="898" 
d="M832 228h-348q0 -74 9.5 -105.5t43.5 -44t112 -12.5q79 0 163 11v-71q-32 -6 -82.5 -10t-97.5 -4q-88 0 -133.5 17t-66.5 59q-28 -46 -78.5 -61t-119.5 -15q-94 0 -136.5 32.5t-42.5 115.5q0 59 14 91.5t47 47t95 14.5l115 -1q32 -1 76 -1v29q0 60 -11.5 85t-42 32
t-103.5 7q-33 0 -83.5 -3.5t-72.5 -7.5v71q84 14 185 14q72 0 113 -12.5t60 -42.5q23 29 66 42t115 13q96 0 138.5 -25.5t54 -76.5t11.5 -160v-28zM531.5 432.5q-28.5 -11.5 -38 -42.5t-9.5 -100h270v6q0 66 -11.5 97t-37.5 41t-80 10q-65 0 -93.5 -11.5zM402 229h-170
q-42 0 -61.5 -5.5t-27.5 -22t-8 -53.5q0 -36 9 -53t33.5 -23.5t76.5 -6.5q51 0 83.5 10.5t46.5 40.5q18 35 18 93v20zM412 602v5l101 136h88v-5l-129 -136h-60z" />
    <glyph glyph-name="Oslashacute" unicode="&#x1fe;" horiz-adv-x="718" 
d="M630.5 550q10.5 -66 10.5 -206q0 -163 -15.5 -230.5t-73 -94.5t-193.5 -27q-115 0 -169 17l-39 -64h-74l57 94q-37 33 -47 98t-10 207q0 163 15.5 230.5t72.5 94.5t194 27q116 0 168 -17l39 64h75l-58 -94q37 -33 47.5 -99zM166.5 197q4.5 -50 17.5 -77l299 487
q-20 6 -46.5 7.5t-77.5 1.5q-102 0 -138.5 -13t-47.5 -65t-11 -194q0 -97 4.5 -147zM497 85q36 13 47 65t11 194q0 97 -4.5 147t-17.5 77l-299 -487q20 -6 48.5 -7.5t76.5 -1.5q102 0 138 13zM324 747v5l101 136h88v-5l-129 -136h-60z" />
    <glyph glyph-name="oslashacute" unicode="&#x1ff;" horiz-adv-x="577" 
d="M503 408.5q9 -49.5 9 -153.5q0 -117 -12.5 -168.5t-58.5 -73t-152 -21.5q-81 0 -122 11l-36 -58h-66l50 82q-32 25 -41 74.5t-9 153.5q0 117 12.5 168.5t58.5 73t153 21.5q78 0 121 -11l35 58h67l-50 -82q32 -25 41 -74.5zM148.5 153q2.5 -32 13.5 -50l205 335
q-23 6 -78 6q-73 0 -101.5 -13t-35 -47.5t-6.5 -128.5q0 -70 2.5 -102zM390 79q28 13 34.5 47.5t6.5 128.5q0 71 -2.5 102.5t-13.5 50.5l-206 -336q24 -6 80 -6q73 0 101 13zM252 602v5l101 136h88v-5l-129 -136h-60z" />
    <glyph glyph-name="uni0200" unicode="&#x200;" horiz-adv-x="684" 
d="M567 0l-71 183h-310l-71 -183h-87l260 688h108l260 -688h-89zM343 595h-5l-126 -331h257zM285 752h-53l-121 126v5h77l97 -126v-5zM477 752h-52l-121 126v5h77l96 -126v-5z" />
    <glyph glyph-name="uni0201" unicode="&#x201;" horiz-adv-x="570" 
d="M95 24.5q-40 32.5 -40 115.5q0 59 14 92t47.5 48t94.5 15q29 0 191 -5v30q0 60 -11.5 85t-42 32t-103.5 7q-32 0 -80.5 -3.5t-75.5 -7.5v71q79 14 185 14q90 0 134.5 -18.5t59.5 -60t15 -120.5v-319h-73l-4 71h-6q-21 -48 -67.5 -63.5t-109.5 -15.5q-88 0 -128 32.5z
M335.5 74q31.5 9 45.5 35q21 36 21 100v23h-170q-42 0 -61.5 -6t-27.5 -23.5t-8 -54.5q0 -36 9 -53t33.5 -23.5t76.5 -6.5q50 0 81.5 9zM228 607h-53l-121 126v5h77l97 -126v-5zM420 607h-52l-121 126v5h77l96 -126v-5z" />
    <glyph glyph-name="uni0202" unicode="&#x202;" horiz-adv-x="684" 
d="M567 0l-71 183h-310l-71 -183h-87l260 688h108l260 -688h-89zM343 595h-5l-126 -331h257zM212.5 828.5q8.5 29.5 38.5 47.5t92 18t91.5 -17.5t37.5 -47t8 -80.5h-53q0 36 -4 53t-22 27t-58 10t-58 -10t-22.5 -27.5t-4.5 -52.5h-54q0 50 8.5 79.5z" />
    <glyph glyph-name="uni0203" unicode="&#x203;" horiz-adv-x="570" 
d="M95 24.5q-40 32.5 -40 115.5q0 59 14 92t47.5 48t94.5 15q29 0 191 -5v30q0 60 -11.5 85t-42 32t-103.5 7q-32 0 -80.5 -3.5t-75.5 -7.5v71q79 14 185 14q90 0 134.5 -18.5t59.5 -60t15 -120.5v-319h-73l-4 71h-6q-21 -48 -67.5 -63.5t-109.5 -15.5q-88 0 -128 32.5z
M335.5 74q31.5 9 45.5 35q21 36 21 100v23h-170q-42 0 -61.5 -6t-27.5 -23.5t-8 -54.5q0 -36 9 -53t33.5 -23.5t76.5 -6.5q50 0 81.5 9zM155.5 683.5q8.5 29.5 38.5 47.5t92 18t91.5 -17.5t37.5 -47t8 -80.5h-53q0 36 -4 53t-22 27t-58 10t-58 -10t-22.5 -27.5t-4.5 -52.5
h-54q0 50 8.5 79.5z" />
    <glyph glyph-name="uni0204" unicode="&#x204;" horiz-adv-x="604" 
d="M100 0v688h448v-80h-362v-221h314v-80h-314v-227h362v-80h-448zM267 752h-53l-121 126v5h77l97 -126v-5zM459 752h-52l-121 126v5h77l96 -126v-5z" />
    <glyph glyph-name="uni0205" unicode="&#x205;" horiz-adv-x="560" 
d="M495 226h-349q0 -73 10 -104t43.5 -43.5t112.5 -12.5q77 0 163 11v-71q-32 -6 -83 -10t-97 -4q-103 0 -151.5 24t-63.5 77t-15 161q0 106 13.5 159t61 79t150.5 26q96 0 139 -25.5t54.5 -77t11.5 -160.5v-29zM194.5 432.5q-28.5 -11.5 -38 -43t-10.5 -101.5h271v8
q0 66 -11.5 97t-37.5 41t-80 10q-65 0 -93.5 -11.5zM223 607h-53l-121 126v5h77l97 -126v-5zM415 607h-52l-121 126v5h77l96 -126v-5z" />
    <glyph glyph-name="uni0206" unicode="&#x206;" horiz-adv-x="604" 
d="M100 0v688h448v-80h-362v-221h314v-80h-314v-227h362v-80h-448zM194.5 828.5q8.5 29.5 38.5 47.5t92 18t91.5 -17.5t37.5 -47t8 -80.5h-53q0 36 -4 53t-22 27t-58 10t-58 -10t-22.5 -27.5t-4.5 -52.5h-54q0 50 8.5 79.5z" />
    <glyph glyph-name="uni0207" unicode="&#x207;" horiz-adv-x="560" 
d="M495 226h-349q0 -73 10 -104t43.5 -43.5t112.5 -12.5q77 0 163 11v-71q-32 -6 -83 -10t-97 -4q-103 0 -151.5 24t-63.5 77t-15 161q0 106 13.5 159t61 79t150.5 26q96 0 139 -25.5t54.5 -77t11.5 -160.5v-29zM194.5 432.5q-28.5 -11.5 -38 -43t-10.5 -101.5h271v8
q0 66 -11.5 97t-37.5 41t-80 10q-65 0 -93.5 -11.5zM150.5 683.5q8.5 29.5 38.5 47.5t92 18t91.5 -17.5t37.5 -47t8 -80.5h-53q0 36 -4 53t-22 27t-58 10t-58 -10t-22.5 -27.5t-4.5 -52.5h-54q0 50 8.5 79.5z" />
    <glyph glyph-name="uni0208" unicode="&#x208;" horiz-adv-x="286" 
d="M100 0v688h86v-688h-86zM86 752h-53l-121 126v5h77l97 -126v-5zM278 752h-52l-121 126v5h77l96 -126v-5z" />
    <glyph glyph-name="uni0209" unicode="&#x209;" horiz-adv-x="254" 
d="M87 0v510h81v-510h-81zM70 607h-53l-121 126v5h77l97 -126v-5zM262 607h-52l-121 126v5h77l96 -126v-5z" />
    <glyph glyph-name="uni020A" unicode="&#x20a;" horiz-adv-x="286" 
d="M100 0v688h86v-688h-86zM13.5 828.5q8.5 29.5 38.5 47.5t92 18t91.5 -17.5t37.5 -47t8 -80.5h-53q0 36 -4 53t-22 27t-58 10t-58 -10t-22.5 -27.5t-4.5 -52.5h-54q0 50 8.5 79.5z" />
    <glyph glyph-name="uni020B" unicode="&#x20b;" horiz-adv-x="254" 
d="M87 0v510h81v-510h-81zM-2.5 683.5q8.5 29.5 38.5 47.5t92 18t91.5 -17.5t37.5 -47t8 -80.5h-53q0 36 -4 53t-22 27t-58 10t-58 -10t-22.5 -27.5t-4.5 -52.5h-54q0 50 8.5 79.5z" />
    <glyph glyph-name="uni020C" unicode="&#x20c;" horiz-adv-x="718" 
d="M165 19q-57 27 -72.5 94.5t-15.5 230.5t15.5 230.5t72.5 94.5t194 27q136 0 193.5 -27t73 -94.5t15.5 -230.5t-15.5 -230.5t-73 -94.5t-193.5 -27q-137 0 -194 27zM497 85q36 13 47 65t11 194t-11 194t-47 65t-138 13t-138.5 -13t-47.5 -65t-11 -194t11 -194t47.5 -65
t138.5 -13t138 13zM302 752h-53l-121 126v5h77l97 -126v-5zM494 752h-52l-121 126v5h77l96 -126v-5z" />
    <glyph glyph-name="uni020D" unicode="&#x20d;" horiz-adv-x="577" 
d="M136 13.5q-46 21.5 -58.5 73t-12.5 168.5t12.5 168.5t58.5 73t153 21.5q106 0 152 -21.5t58.5 -73t12.5 -168.5t-12.5 -168.5t-58.5 -73t-152 -21.5q-107 0 -153 21.5zM390 79q28 13 34.5 47.5t6.5 128.5t-6.5 128.5t-34.5 47.5t-101 13t-101.5 -13t-35 -47.5
t-6.5 -128.5t6.5 -128.5t35 -47.5t101.5 -13t101 13zM232 607h-53l-121 126v5h77l97 -126v-5zM424 607h-52l-121 126v5h77l96 -126v-5z" />
    <glyph glyph-name="uni020E" unicode="&#x20e;" horiz-adv-x="718" 
d="M165 19q-57 27 -72.5 94.5t-15.5 230.5t15.5 230.5t72.5 94.5t194 27q136 0 193.5 -27t73 -94.5t15.5 -230.5t-15.5 -230.5t-73 -94.5t-193.5 -27q-137 0 -194 27zM497 85q36 13 47 65t11 194t-11 194t-47 65t-138 13t-138.5 -13t-47.5 -65t-11 -194t11 -194t47.5 -65
t138.5 -13t138 13zM229.5 828.5q8.5 29.5 38.5 47.5t92 18t91.5 -17.5t37.5 -47t8 -80.5h-53q0 36 -4 53t-22 27t-58 10t-58 -10t-22.5 -27.5t-4.5 -52.5h-54q0 50 8.5 79.5z" />
    <glyph glyph-name="uni020F" unicode="&#x20f;" horiz-adv-x="577" 
d="M136 13.5q-46 21.5 -58.5 73t-12.5 168.5t12.5 168.5t58.5 73t153 21.5q106 0 152 -21.5t58.5 -73t12.5 -168.5t-12.5 -168.5t-58.5 -73t-152 -21.5q-107 0 -153 21.5zM390 79q28 13 34.5 47.5t6.5 128.5t-6.5 128.5t-34.5 47.5t-101 13t-101.5 -13t-35 -47.5
t-6.5 -128.5t6.5 -128.5t35 -47.5t101.5 -13t101 13zM159.5 683.5q8.5 29.5 38.5 47.5t92 18t91.5 -17.5t37.5 -47t8 -80.5h-53q0 36 -4 53t-22 27t-58 10t-58 -10t-22.5 -27.5t-4.5 -52.5h-54q0 50 8.5 79.5z" />
    <glyph glyph-name="uni0210" unicode="&#x210;" horiz-adv-x="682" 
d="M526 0l-107 270h-17h-216v-270h-86v688h316q82 0 124 -26t55 -70t13 -113q0 -71 -21 -123.5t-86 -71.5l117 -284h-92zM474.5 363.5q30.5 13.5 39 39.5t8.5 76q0 51 -8 77t-36.5 39t-90.5 13h-201v-258h194q64 0 94.5 13.5zM284 752h-53l-121 126v5h77l97 -126v-5z
M476 752h-52l-121 126v5h77l96 -126v-5z" />
    <glyph glyph-name="uni0211" unicode="&#x211;" horiz-adv-x="367" 
d="M87 510h72l4 -97h6q18 60 60 82.5t110 22.5v-87q-69 0 -106 -21t-51 -64.5t-14 -117.5v-228h-81v510zM127 607h-53l-121 126v5h77l97 -126v-5zM319 607h-52l-121 126v5h77l96 -126v-5z" />
    <glyph glyph-name="uni0212" unicode="&#x212;" horiz-adv-x="682" 
d="M526 0l-107 270h-17h-216v-270h-86v688h316q82 0 124 -26t55 -70t13 -113q0 -71 -21 -123.5t-86 -71.5l117 -284h-92zM474.5 363.5q30.5 13.5 39 39.5t8.5 76q0 51 -8 77t-36.5 39t-90.5 13h-201v-258h194q64 0 94.5 13.5zM211.5 828.5q8.5 29.5 38.5 47.5t92 18
t91.5 -17.5t37.5 -47t8 -80.5h-53q0 36 -4 53t-22 27t-58 10t-58 -10t-22.5 -27.5t-4.5 -52.5h-54q0 50 8.5 79.5z" />
    <glyph glyph-name="uni0213" unicode="&#x213;" horiz-adv-x="367" 
d="M87 510h72l4 -97h6q18 60 60 82.5t110 22.5v-87q-69 0 -106 -21t-51 -64.5t-14 -117.5v-228h-81v510zM54.5 683.5q8.5 29.5 38.5 47.5t92 18t91.5 -17.5t37.5 -47t8 -80.5h-53q0 36 -4 53t-22 27t-58 10t-58 -10t-22.5 -27.5t-4.5 -52.5h-54q0 50 8.5 79.5z" />
    <glyph glyph-name="uni0214" unicode="&#x214;" horiz-adv-x="709" 
d="M617 688v-387q0 -134 -17 -196.5t-71 -87.5t-174 -25t-174 25.5t-71.5 87.5t-17.5 196v387h85v-420q0 -90 10 -128t46 -53t122 -15t121.5 15t45 52.5t9.5 128.5v420h86zM298 752h-53l-121 126v5h77l97 -126v-5zM490 752h-52l-121 126v5h77l96 -126v-5z" />
    <glyph glyph-name="uni0215" unicode="&#x215;" horiz-adv-x="599" 
d="M436 72h-6q-17 -39 -56 -59.5t-113 -20.5q-73 0 -110.5 21t-50.5 62.5t-13 115.5v319h81v-287q0 -72 8.5 -102t33.5 -40t84 -10q63 0 92.5 20t37.5 55.5t8 100.5v263h81v-510h-73zM243 607h-53l-121 126v5h77l97 -126v-5zM435 607h-52l-121 126v5h77l96 -126v-5z" />
    <glyph glyph-name="uni0216" unicode="&#x216;" horiz-adv-x="709" 
d="M617 688v-387q0 -134 -17 -196.5t-71 -87.5t-174 -25t-174 25.5t-71.5 87.5t-17.5 196v387h85v-420q0 -90 10 -128t46 -53t122 -15t121.5 15t45 52.5t9.5 128.5v420h86zM225.5 828.5q8.5 29.5 38.5 47.5t92 18t91.5 -17.5t37.5 -47t8 -80.5h-53q0 36 -4 53t-22 27t-58 10
t-58 -10t-22.5 -27.5t-4.5 -52.5h-54q0 50 8.5 79.5z" />
    <glyph glyph-name="uni0217" unicode="&#x217;" horiz-adv-x="599" 
d="M436 72h-6q-17 -39 -56 -59.5t-113 -20.5q-73 0 -110.5 21t-50.5 62.5t-13 115.5v319h81v-287q0 -72 8.5 -102t33.5 -40t84 -10q63 0 92.5 20t37.5 55.5t8 100.5v263h81v-510h-73zM170.5 683.5q8.5 29.5 38.5 47.5t92 18t91.5 -17.5t37.5 -47t8 -80.5h-53q0 36 -4 53
t-22 27t-58 10t-58 -10t-22.5 -27.5t-4.5 -52.5h-54q0 50 8.5 79.5z" />
    <glyph glyph-name="Scommaaccent" unicode="&#x218;" horiz-adv-x="629" 
d="M206.5 -4q-67.5 4 -119.5 10v79q130 -13 217 -13q54 0 85.5 4.5t53.5 16.5q20 12 26 35.5t6 62.5q0 47 -5 66.5t-23.5 28.5t-63.5 13l-170 19q-62 7 -93.5 29.5t-42 59t-10.5 95.5q0 82 28.5 124t80 56t138.5 14q58 0 118 -5t95 -12v-76q-38 6 -94 9.5t-104 3.5
q-56 0 -90 -5t-53 -17q-21 -12 -27 -32t-6 -57q0 -41 6 -59.5t23 -27t56 -12.5l168 -19q60 -6 93 -21t48 -54q14 -36 14 -115q0 -91 -28 -135.5t-75 -57t-129 -12.5q-55 0 -122.5 4zM305 -216.5q11 9.5 11 38.5v17h-37v99h91v-81q0 -53 -8 -78t-31 -35t-73 -10v40
q36 0 47 9.5z" />
    <glyph glyph-name="scommaaccent" unicode="&#x219;" horiz-adv-x="499" 
d="M163 -4q-52 4 -92 9v72q99 -11 181 -11q51 0 75 7t31.5 22.5t7.5 46.5t-5.5 44.5t-17.5 18.5t-42 8l-133 15q-46 5 -70.5 21t-33.5 44t-9 75q0 65 23.5 97.5t65 42.5t111.5 10q39 0 84 -4t76 -10v-72q-78 12 -161 12q-46 0 -70 -4.5t-37 -20t-13 -48.5q0 -29 5 -42
t17 -18t40 -8l138 -16q44 -5 66.5 -16.5t33 -40.5t10.5 -86q0 -63 -20.5 -96t-60 -44.5t-107.5 -11.5q-41 0 -93 4zM240 -216.5q11 9.5 11 38.5v17h-37v99h91v-81q0 -53 -8 -78t-31 -35t-73 -10v40q36 0 47 9.5z" />
    <glyph glyph-name="uni021A" unicode="&#x21a;" horiz-adv-x="582" 
d="M248 0v605h-218v83h521v-83h-217v-605h-86zM281 -216.5q11 9.5 11 38.5v17h-37v99h91v-81q0 -53 -8 -78t-31 -35t-73 -10v40q36 0 47 9.5z" />
    <glyph glyph-name="uni021B" unicode="&#x21b;" horiz-adv-x="359" 
d="M129 0v436h-103v74h103v148h81v-148h122v-74h-122v-436h-81zM160 -216.5q11 9.5 11 38.5v17h-37v99h91v-81q0 -53 -8 -78t-31 -35t-73 -10v40q36 0 47 9.5z" />
    <glyph glyph-name="uni0232" unicode="&#x232;" horiz-adv-x="610" 
d="M261 0v260l-249 428h92l199 -335h7l198 335h90l-251 -428v-260h-86zM183 807v80h244v-80h-244z" />
    <glyph glyph-name="uni0233" unicode="&#x233;" horiz-adv-x="599" 
d="M111 -197v70q110 -5 154 -5q77 0 112 15.5t45 49t10 105.5v30h-6q-15 -34 -53.5 -53.5t-111.5 -19.5t-110.5 20.5t-50.5 62t-13 114.5v318h81v-285q0 -72 8.5 -102t33.5 -40t84 -10q63 0 92.5 20t37.5 55t8 100v262h81v-448q0 -106 -16 -161t-65 -81t-149 -26
q-107 0 -172 9zM178 662v80h244v-80h-244z" />
    <glyph glyph-name="uni0237" unicode="&#x237;" horiz-adv-x="254" 
d="M-9 -132q44 0 64 5t26 16t6 34v587h81v-567q0 -66 -16 -96t-51.5 -38.5t-109.5 -8.5v68z" />
    <glyph glyph-name="uni0259" unicode="&#x259;" horiz-adv-x="560" 
d="M416.5 494q48.5 -24 63.5 -77t15 -161q0 -106 -13.5 -159t-61 -79t-150.5 -26q-96 0 -139 25.5t-54.5 77t-11.5 160.5v29h349q0 73 -10 104t-43.5 43.5t-112.5 12.5q-77 0 -163 -11v71q32 6 83 10t97 4q103 0 151.5 -24zM365.5 77.5q28.5 11.5 38 43t10.5 101.5h-271v-8
q0 -66 11.5 -97t37.5 -41t80 -10q65 0 93.5 11.5z" />
    <glyph glyph-name="uni0272" unicode="&#x272;" horiz-adv-x="599" 
d="M-9 -132q44 0 64 5t26 16t6 34v587h72l4 -72h6q17 39 56 59.5t113 20.5t111.5 -21t50.5 -62.5t13 -115.5v-319h-81v287q0 71 -9 101.5t-34 40.5t-84 10q-63 0 -92 -20t-37 -55t-8 -100v-321q0 -66 -16 -96t-51.5 -38.5t-109.5 -8.5v68z" />
    <glyph glyph-name="uni02BC" unicode="&#x2bc;" horiz-adv-x="134" 
d="M55 593.5q11 12.5 11 50.5v17h-37v82h91v-64q0 -59 -8 -87.5t-31.5 -39.5t-72.5 -11v40q36 0 47 12.5z" />
    <glyph glyph-name="circumflex" unicode="&#x2c6;" horiz-adv-x="330" 
d="M20 601v7l102 135h85l102 -135v-7h-56l-89 96l-88 -96h-56z" />
    <glyph glyph-name="caron" unicode="&#x2c7;" horiz-adv-x="330" 
d="M122 601l-102 136v6h56l88 -96l89 96h56v-6l-102 -136h-85z" />
    <glyph glyph-name="uni02C9" unicode="&#x2c9;" horiz-adv-x="362" 
d="M59 662v80h244v-80h-244z" />
    <glyph glyph-name="breve" unicode="&#x2d8;" horiz-adv-x="316" 
d="M287.5 663.5q-8.5 -29.5 -38.5 -47.5t-92 -18t-91.5 17.5t-37.5 47t-8 80.5h53q0 -36 4 -53t22 -27t58 -10t58 10t22.5 27.5t4.5 52.5h54q0 -50 -8.5 -79.5z" />
    <glyph glyph-name="dotaccent" unicode="&#x2d9;" horiz-adv-x="117" 
d="M20 647v83h77v-83h-77z" />
    <glyph glyph-name="ring" unicode="&#x2da;" horiz-adv-x="304" 
d="M65.5 612.5q-26.5 10.5 -33.5 31t-7 64.5q0 43 7 64.5t33.5 32t85.5 10.5t86.5 -10.5t34.5 -32t7 -64.5q0 -44 -7 -64.5t-34 -31t-87 -10.5q-59 0 -85.5 10.5zM203.5 652q15.5 5 19 16.5t3.5 39.5t-3.5 39.5t-19 17t-52.5 5.5q-36 0 -51.5 -5.5t-19 -17t-3.5 -39.5
t3.5 -39.5t19 -16.5t51.5 -5q37 0 52.5 5z" />
    <glyph glyph-name="ogonek" unicode="&#x2db;" horiz-adv-x="134" 
d="M95 -196q-96 0 -96 78q0 29 17 62t45 60h72q-22 -17 -42.5 -48t-20.5 -55q0 -40 47 -40q10 0 17 2v-57q-26 -2 -39 -2z" />
    <glyph glyph-name="tilde" unicode="&#x2dc;" horiz-adv-x="402" 
d="M376 675q-5 -24 -20.5 -36t-47.5 -12q-26 0 -51.5 5.5t-67.5 17.5q-61 19 -91 19q-21 0 -26 -10.5t-5 -42.5h-47q0 44 5 68t20.5 36.5t47.5 12.5q26 0 50.5 -5.5t68.5 -18.5q5 -1 25.5 -7t37 -9t28.5 -3q21 0 26 11t5 43h47q0 -45 -5 -69z" />
    <glyph glyph-name="hungarumlaut" unicode="&#x2dd;" horiz-adv-x="406" 
d="M20 607v5l96 126h77v-5l-121 -126h-52zM212 607v5l97 126h77v-5l-121 -126h-53z" />
    <glyph glyph-name="gravecomb" unicode="&#x300;" 
d="M-80 602l-129 136v5h88l101 -136v-5h-60z" />
    <glyph glyph-name="acutecomb" unicode="&#x301;" 
d="M-209 602v5l101 136h88v-5l-129 -136h-60z" />
    <glyph glyph-name="uni0302" unicode="&#x302;" 
d="M-310 601v7l102 135h85l102 -135v-7h-56l-89 96l-88 -96h-56z" />
    <glyph glyph-name="tildecomb" unicode="&#x303;" 
d="M-26 675q-5 -24 -20.5 -36t-47.5 -12q-26 0 -51.5 5.5t-67.5 17.5q-61 19 -91 19q-21 0 -26 -10.5t-5 -42.5h-47q0 44 5 68t20.5 36.5t47.5 12.5q26 0 50.5 -5.5t68.5 -18.5q5 -1 25.5 -7t37 -9t28.5 -3q21 0 26 11t5 43h47q0 -45 -5 -69z" />
    <glyph glyph-name="uni0304" unicode="&#x304;" 
d="M-303 662v80h244v-80h-244z" />
    <glyph glyph-name="uni0306" unicode="&#x306;" 
d="M-28.5 663.5q-8.5 -29.5 -38.5 -47.5t-92 -18t-91.5 17.5t-37.5 47t-8 80.5h53q0 -36 4 -53t22 -27t58 -10t58 10t22.5 27.5t4.5 52.5h54q0 -50 -8.5 -79.5z" />
    <glyph glyph-name="uni0307" unicode="&#x307;" 
d="M-97 647v83h77v-83h-77z" />
    <glyph glyph-name="uni0308" unicode="&#x308;" 
d="M-285 647v83h77v-83h-77zM-96 647v83h76v-83h-76z" />
    <glyph glyph-name="hookabovecomb" unicode="&#x309;" 
d="M-202 616q0 27 9 37.5t36 18.5l22 7q34 8 43 15t9 25q0 25 -15.5 31t-63.5 6q-49 0 -111 -5v46q51 8 116 8q49 0 76 -5.5t41 -22.5t14 -51q0 -35 -12.5 -50.5t-49.5 -25.5l-24 -7q-21 -6 -29 -9.5t-10 -9t-2 -17.5h-49v9z" />
    <glyph glyph-name="uni030A" unicode="&#x30a;" 
d="M-238.5 612.5q-26.5 10.5 -33.5 31t-7 64.5q0 43 7 64.5t33.5 32t85.5 10.5t86.5 -10.5t34.5 -32t7 -64.5q0 -44 -7 -64.5t-34 -31t-87 -10.5q-59 0 -85.5 10.5zM-100.5 652q15.5 5 19 16.5t3.5 39.5t-3.5 39.5t-19 17t-52.5 5.5q-36 0 -51.5 -5.5t-19 -17t-3.5 -39.5
t3.5 -39.5t19 -16.5t51.5 -5q37 0 52.5 5z" />
    <glyph glyph-name="uni030B" unicode="&#x30b;" 
d="M-386 607v5l96 126h77v-5l-121 -126h-52zM-194 607v5l97 126h77v-5l-121 -126h-53z" />
    <glyph glyph-name="uni030C" unicode="&#x30c;" 
d="M-208 601l-102 136v6h56l88 -96l89 96h56v-6l-102 -136h-85z" />
    <glyph glyph-name="uni030F" unicode="&#x30f;" 
d="M-212 607h-53l-121 126v5h77l97 -126v-5zM-20 607h-52l-121 126v5h77l96 -126v-5z" />
    <glyph glyph-name="uni0311" unicode="&#x311;" 
d="M-287.5 683.5q8.5 29.5 38.5 47.5t92 18t91.5 -17.5t37.5 -47t8 -80.5h-53q0 36 -4 53t-22 27t-58 10t-58 -10t-22.5 -27.5t-4.5 -52.5h-54q0 50 8.5 79.5z" />
    <glyph glyph-name="uni0312" unicode="&#x312;" 
d="M-355 757.5q-11 -9.5 -11 -39.5v-17h37v-98h-91v80q0 53 8 78.5t31.5 35.5t72.5 10v-40q-36 0 -47 -9.5z" />
    <glyph glyph-name="uni031B" unicode="&#x31b;" 
d="M-182 515.5q12 5.5 15.5 18t3.5 39.5v32h59v-24q0 -46 -9 -69.5t-33 -33t-73 -9.5h-66v41h66q25 0 37 5.5z" />
    <glyph glyph-name="dotbelowcomb" unicode="&#x323;" 
d="M-159 -165v103h95v-103h-95z" />
    <glyph glyph-name="uni0326" unicode="&#x326;" 
d="M-129 -216.5q11 9.5 11 38.5v17h-37v99h91v-81q0 -53 -8 -78t-31 -35t-73 -10v40q36 0 47 9.5z" />
    <glyph glyph-name="uni0327" unicode="&#x327;" 
d="M-141 -190v5l65 193h56v-5l-40 -193h-81z" />
    <glyph glyph-name="uni0328" unicode="&#x328;" 
d="M-39 -196q-96 0 -96 78q0 29 17 62t45 60h72q-22 -17 -42.5 -48t-20.5 -55q0 -40 47 -40q10 0 17 2v-57q-26 -2 -39 -2z" />
    <glyph glyph-name="uni0335" unicode="&#x335;" 
d="M-295 311v75h264v-75h-264z" />
    <glyph glyph-name="uni0336" unicode="&#x336;" 
d="M-100 480h-532v75h532v-75z" />
    <glyph glyph-name="uni0394" unicode="&#x394;" horiz-adv-x="685" 
d="M28 0l261 688h107l261 -688h-629zM343 600h-5l-200 -520h407z" />
    <glyph glyph-name="uni03A9" unicode="&#x3a9;" horiz-adv-x="718" 
d="M78 80h11l115 -20v6q-53 18 -80.5 57.5t-37 97.5t-9.5 145q0 139 16.5 204.5t75.5 95.5t190 30t190 -30t75.5 -95.5t16.5 -204.5q0 -87 -10 -145t-37.5 -97.5t-79.5 -57.5v-6l115 20h11v-80h-225v74q63 8 92 35.5t38 83t9 168.5q0 123 -11.5 172.5t-50 66t-133.5 16.5
q-96 0 -134.5 -16.5t-50 -66t-11.5 -172.5q0 -112 9.5 -168t38.5 -83.5t92 -35.5v-74h-225v80z" />
    <glyph glyph-name="uni03BC" unicode="&#x3bc;" horiz-adv-x="599" 
d="M513 510v-510h-73l-4 72h-6q-17 -39 -56 -59.5t-113 -20.5q-57 0 -93 23v-204h-81v699h81v-287q0 -72 8.5 -102t33.5 -40t84 -10q63 0 92.5 20t37.5 55.5t8 100.5v263h81z" />
    <glyph glyph-name="pi" unicode="&#x3c0;" horiz-adv-x="591" 
d="M424 0v436h-256v-436h-81v510h417v-510h-80z" />
    <glyph glyph-name="uni1E0C" unicode="&#x1e0c;" horiz-adv-x="689" 
d="M100 688h219q143 0 202 -25.5t75 -91.5t16 -227t-16 -227t-75 -91.5t-202 -25.5h-219v688zM305 80q117 0 157.5 12.5t52.5 62t12 189.5q0 139 -12.5 189t-53 62.5t-156.5 12.5h-119v-528h119zM298 -165v103h95v-103h-95z" />
    <glyph glyph-name="uni1E0D" unicode="&#x1e0d;" horiz-adv-x="591" 
d="M138 15q-40 23 -56.5 78.5t-16.5 160.5q0 106 16 162t55.5 79t114.5 23q66 0 106.5 -16t59.5 -56h6v297h81v-743h-73l-3 71h-6q-21 -46 -64 -62.5t-104 -16.5q-76 0 -116 23zM367 83.5q30 13.5 41 42.5q10 23 12.5 52.5t2.5 81.5q0 43 -3 71t-11 48q-12 31 -42.5 45.5
t-83.5 14.5q-63 0 -90.5 -12.5t-37 -49.5t-9.5 -122q0 -87 9.5 -124t37 -49t92.5 -12q52 0 82 13.5zM249 -165v103h95v-103h-95z" />
    <glyph glyph-name="uni1E24" unicode="&#x1e24;" horiz-adv-x="732" 
d="M547 0v305h-361v-305h-86v688h86v-300h361v300h85v-688h-85zM319 -165v103h95v-103h-95z" />
    <glyph glyph-name="uni1E25" unicode="&#x1e25;" horiz-adv-x="599" 
d="M432 287q0 71 -9 101.5t-34 40.5t-84 10q-63 0 -92.5 -20t-37 -55t-7.5 -101v-263h-81v743h81v-300h5q16 36 54.5 55t110.5 19q74 0 111.5 -20.5t50.5 -62t13 -115.5v-319h-81v287zM253 -165v103h95v-103h-95z" />
    <glyph glyph-name="uni1E44" unicode="&#x1e44;" horiz-adv-x="732" 
d="M550 0l-363 526h-4v-526h-83v688h88l358 -514h4v514h82v-688h-82zM327 792v83h77v-83h-77z" />
    <glyph glyph-name="uni1E45" unicode="&#x1e45;" horiz-adv-x="599" 
d="M432 287q0 71 -9 101.5t-34 40.5t-84 10q-63 0 -92.5 -20t-37 -55t-7.5 -101v-263h-81v510h72l4 -72h6q17 39 56 59.5t113 20.5t111.5 -21t50.5 -62.5t13 -115.5v-319h-81v287zM261 647v83h77v-83h-77z" />
    <glyph glyph-name="uni1E5A" unicode="&#x1e5a;" horiz-adv-x="682" 
d="M526 0l-107 270h-17h-216v-270h-86v688h316q82 0 124 -26t55 -70t13 -113q0 -71 -21 -123.5t-86 -71.5l117 -284h-92zM474.5 363.5q30.5 13.5 39 39.5t8.5 76q0 51 -8 77t-36.5 39t-90.5 13h-201v-258h194q64 0 94.5 13.5zM294 -165v103h95v-103h-95z" />
    <glyph glyph-name="uni1E5B" unicode="&#x1e5b;" horiz-adv-x="367" 
d="M87 510h72l4 -97h6q18 60 60 82.5t110 22.5v-87q-69 0 -106 -21t-51 -64.5t-14 -117.5v-228h-81v510zM80 -165v103h95v-103h-95z" />
    <glyph glyph-name="uni1E62" unicode="&#x1e62;" horiz-adv-x="629" 
d="M206.5 -4q-67.5 4 -119.5 10v79q130 -13 217 -13q54 0 85.5 4.5t53.5 16.5q20 12 26 35.5t6 62.5q0 47 -5 66.5t-23.5 28.5t-63.5 13l-170 19q-62 7 -93.5 29.5t-42 59t-10.5 95.5q0 82 28.5 124t80 56t138.5 14q58 0 118 -5t95 -12v-76q-38 6 -94 9.5t-104 3.5
q-56 0 -90 -5t-53 -17q-21 -12 -27 -32t-6 -57q0 -41 6 -59.5t23 -27t56 -12.5l168 -19q60 -6 93 -21t48 -54q14 -36 14 -115q0 -91 -28 -135.5t-75 -57t-129 -12.5q-55 0 -122.5 4zM268 -165v103h95v-103h-95z" />
    <glyph glyph-name="uni1E63" unicode="&#x1e63;" horiz-adv-x="499" 
d="M163 -4q-52 4 -92 9v72q99 -11 181 -11q51 0 75 7t31.5 22.5t7.5 46.5t-5.5 44.5t-17.5 18.5t-42 8l-133 15q-46 5 -70.5 21t-33.5 44t-9 75q0 65 23.5 97.5t65 42.5t111.5 10q39 0 84 -4t76 -10v-72q-78 12 -161 12q-46 0 -70 -4.5t-37 -20t-13 -48.5q0 -29 5 -42
t17 -18t40 -8l138 -16q44 -5 66.5 -16.5t33 -40.5t10.5 -86q0 -63 -20.5 -96t-60 -44.5t-107.5 -11.5q-41 0 -93 4zM203 -165v103h95v-103h-95z" />
    <glyph glyph-name="uni1E6C" unicode="&#x1e6c;" horiz-adv-x="582" 
d="M248 0v605h-218v83h521v-83h-217v-605h-86zM244 -165v103h95v-103h-95z" />
    <glyph glyph-name="uni1E6D" unicode="&#x1e6d;" horiz-adv-x="359" 
d="M129 0v436h-103v74h103v148h81v-148h122v-74h-122v-436h-81zM123 -165v103h95v-103h-95z" />
    <glyph glyph-name="Wgrave" unicode="&#x1e80;" horiz-adv-x="988" 
d="M663 0l-167 547h-4l-166 -547h-102l-188 688h88l154 -570h5l168 570h90l170 -570h6l149 570h86l-187 -688h-102zM472 747l-129 136v5h88l101 -136v-5h-60z" />
    <glyph glyph-name="wgrave" unicode="&#x1e81;" horiz-adv-x="817" 
d="M529 0l-118 365h-7l-116 -365h-94l-163 510h84l125 -405h7l124 405h77l125 -405h7l124 405h82l-163 -510h-94zM391 602l-129 136v5h88l101 -136v-5h-60z" />
    <glyph glyph-name="Wacute" unicode="&#x1e82;" horiz-adv-x="988" 
d="M663 0l-167 547h-4l-166 -547h-102l-188 688h88l154 -570h5l168 570h90l170 -570h6l149 570h86l-187 -688h-102zM459 747v5l101 136h88v-5l-129 -136h-60z" />
    <glyph glyph-name="wacute" unicode="&#x1e83;" horiz-adv-x="817" 
d="M529 0l-118 365h-7l-116 -365h-94l-163 510h84l125 -405h7l124 405h77l125 -405h7l124 405h82l-163 -510h-94zM372 602v5l101 136h88v-5l-129 -136h-60z" />
    <glyph glyph-name="Wdieresis" unicode="&#x1e84;" horiz-adv-x="988" 
d="M663 0l-167 547h-4l-166 -547h-102l-188 688h88l154 -570h5l168 570h90l170 -570h6l149 570h86l-187 -688h-102zM361 792v83h77v-83h-77zM550 792v83h76v-83h-76z" />
    <glyph glyph-name="wdieresis" unicode="&#x1e85;" horiz-adv-x="817" 
d="M529 0l-118 365h-7l-116 -365h-94l-163 510h84l125 -405h7l124 405h77l125 -405h7l124 405h82l-163 -510h-94zM276 647v83h77v-83h-77zM465 647v83h76v-83h-76z" />
    <glyph glyph-name="uni1E92" unicode="&#x1e92;" horiz-adv-x="607" 
d="M54 0v76l388 532h-377v80h486v-74l-390 -534h395v-80h-502zM257 -165v103h95v-103h-95z" />
    <glyph glyph-name="uni1E93" unicode="&#x1e93;" horiz-adv-x="508" 
d="M52 0v69l297 367h-285v74h390v-69l-296 -367h298v-74h-404zM207 -165v103h95v-103h-95z" />
    <glyph glyph-name="uni1E9E" unicode="&#x1e9e;" horiz-adv-x="716" 
d="M598.5 331.5q45.5 -43.5 45.5 -149.5q0 -99 -54 -144.5t-176 -45.5q-34 0 -77 5t-73 13v74q82 -12 145 -12q59 0 90.5 10.5t44.5 35.5t13 71q0 66 -26.5 92.5t-92.5 26.5h-112v66l179 226q-67 16 -141 16q-91 0 -127.5 -17.5t-48 -71t-11.5 -185.5v-342h-85v342
q0 151 20 224.5t72.5 101.5t159.5 28q69 0 137.5 -10.5t116.5 -26.5v-69l-170 -215h21q104 0 149.5 -43.5z" />
    <glyph glyph-name="uni1EA0" unicode="&#x1ea0;" horiz-adv-x="684" 
d="M567 0l-71 183h-310l-71 -183h-87l260 688h108l260 -688h-89zM343 595h-5l-126 -331h257zM295 -165v103h95v-103h-95z" />
    <glyph glyph-name="uni1EA1" unicode="&#x1ea1;" horiz-adv-x="570" 
d="M95 24.5q-40 32.5 -40 115.5q0 59 14 92t47.5 48t94.5 15q29 0 191 -5v30q0 60 -11.5 85t-42 32t-103.5 7q-32 0 -80.5 -3.5t-75.5 -7.5v71q79 14 185 14q90 0 134.5 -18.5t59.5 -60t15 -120.5v-319h-73l-4 71h-6q-21 -48 -67.5 -63.5t-109.5 -15.5q-88 0 -128 32.5z
M335.5 74q31.5 9 45.5 35q21 36 21 100v23h-170q-42 0 -61.5 -6t-27.5 -23.5t-8 -54.5q0 -36 9 -53t33.5 -23.5t76.5 -6.5q50 0 81.5 9zM238 -165v103h95v-103h-95z" />
    <glyph glyph-name="uni1EA2" unicode="&#x1ea2;" horiz-adv-x="684" 
d="M567 0l-71 183h-310l-71 -183h-87l260 688h108l260 -688h-89zM343 595h-5l-126 -331h257zM289 740q0 27 9 37.5t36 18.5l22 6q34 9 43 16t9 25t-8.5 26t-25 9.5t-54.5 1.5q-49 0 -102 -5v46q56 7 116 7q49 0 76 -5t41 -22t14 -52t-12.5 -50.5t-49.5 -25.5l-24 -6
q-20 -6 -28.5 -9.5t-10.5 -9t-2 -17.5h-49v9z" />
    <glyph glyph-name="uni1EA3" unicode="&#x1ea3;" horiz-adv-x="570" 
d="M95 24.5q-40 32.5 -40 115.5q0 59 14 92t47.5 48t94.5 15q29 0 191 -5v30q0 60 -11.5 85t-42 32t-103.5 7q-32 0 -80.5 -3.5t-75.5 -7.5v71q79 14 185 14q90 0 134.5 -18.5t59.5 -60t15 -120.5v-319h-73l-4 71h-6q-21 -48 -67.5 -63.5t-109.5 -15.5q-88 0 -128 32.5z
M335.5 74q31.5 9 45.5 35q21 36 21 100v23h-170q-42 0 -61.5 -6t-27.5 -23.5t-8 -54.5q0 -36 9 -53t33.5 -23.5t76.5 -6.5q50 0 81.5 9zM232 616q0 27 9 37.5t36 18.5l22 7q34 8 43 15t9 25q0 25 -15.5 31t-63.5 6q-49 0 -111 -5v46q51 8 116 8q49 0 76 -5.5t41 -22.5
t14 -51q0 -35 -12.5 -50.5t-49.5 -25.5l-24 -7q-21 -6 -29 -9.5t-10 -9t-2 -17.5h-49v9z" />
    <glyph glyph-name="uni1EA4" unicode="&#x1ea4;" horiz-adv-x="684" 
d="M567 0l-71 183h-310l-71 -183h-87l260 688h108l260 -688h-89zM343 595h-5l-126 -331h257zM194 746v7l102 135h85l102 -135v-7h-56l-89 96l-88 -96h-56zM387 907v5l101 136h88v-5l-129 -136h-60z" />
    <glyph glyph-name="uni1EA5" unicode="&#x1ea5;" horiz-adv-x="570" 
d="M95 24.5q-40 32.5 -40 115.5q0 59 14 92t47.5 48t94.5 15q29 0 191 -5v30q0 60 -11.5 85t-42 32t-103.5 7q-32 0 -80.5 -3.5t-75.5 -7.5v71q79 14 185 14q90 0 134.5 -18.5t59.5 -60t15 -120.5v-319h-73l-4 71h-6q-21 -48 -67.5 -63.5t-109.5 -15.5q-88 0 -128 32.5z
M335.5 74q31.5 9 45.5 35q21 36 21 100v23h-170q-42 0 -61.5 -6t-27.5 -23.5t-8 -54.5q0 -36 9 -53t33.5 -23.5t76.5 -6.5q50 0 81.5 9zM137 601v7l102 135h85l102 -135v-7h-56l-89 96l-88 -96h-56zM330 762v5l101 136h88v-5l-129 -136h-60z" />
    <glyph glyph-name="uni1EA6" unicode="&#x1ea6;" horiz-adv-x="684" 
d="M567 0l-71 183h-310l-71 -183h-87l260 688h108l260 -688h-89zM343 595h-5l-126 -331h257zM194 746v7l102 135h85l102 -135v-7h-56l-89 96l-88 -96h-56zM426 907l-129 136v5h88l101 -136v-5h-60z" />
    <glyph glyph-name="uni1EA7" unicode="&#x1ea7;" horiz-adv-x="570" 
d="M95 24.5q-40 32.5 -40 115.5q0 59 14 92t47.5 48t94.5 15q29 0 191 -5v30q0 60 -11.5 85t-42 32t-103.5 7q-32 0 -80.5 -3.5t-75.5 -7.5v71q79 14 185 14q90 0 134.5 -18.5t59.5 -60t15 -120.5v-319h-73l-4 71h-6q-21 -48 -67.5 -63.5t-109.5 -15.5q-88 0 -128 32.5z
M335.5 74q31.5 9 45.5 35q21 36 21 100v23h-170q-42 0 -61.5 -6t-27.5 -23.5t-8 -54.5q0 -36 9 -53t33.5 -23.5t76.5 -6.5q50 0 81.5 9zM137 601v7l102 135h85l102 -135v-7h-56l-89 96l-88 -96h-56zM369 762l-129 136v5h88l101 -136v-5h-60z" />
    <glyph glyph-name="uni1EA8" unicode="&#x1ea8;" horiz-adv-x="684" 
d="M567 0l-71 183h-310l-71 -183h-87l260 688h108l260 -688h-89zM343 595h-5l-126 -331h257zM197 746v7l102 135h85l102 -135v-7h-56l-89 96l-88 -96h-56zM380 908q0 27 9 37.5t36 18.5l22 7q34 8 43 15t9 25q0 25 -15.5 31t-63.5 6q-49 0 -111 -5v46q51 8 116 8
q49 0 76 -5.5t41 -22.5t14 -51q0 -35 -12.5 -50.5t-49.5 -25.5l-24 -7q-21 -6 -29 -9.5t-10 -9t-2 -17.5h-49v9z" />
    <glyph glyph-name="uni1EA9" unicode="&#x1ea9;" horiz-adv-x="570" 
d="M95 24.5q-40 32.5 -40 115.5q0 59 14 92t47.5 48t94.5 15q29 0 191 -5v30q0 60 -11.5 85t-42 32t-103.5 7q-32 0 -80.5 -3.5t-75.5 -7.5v71q79 14 185 14q90 0 134.5 -18.5t59.5 -60t15 -120.5v-319h-73l-4 71h-6q-21 -48 -67.5 -63.5t-109.5 -15.5q-88 0 -128 32.5z
M335.5 74q31.5 9 45.5 35q21 36 21 100v23h-170q-42 0 -61.5 -6t-27.5 -23.5t-8 -54.5q0 -36 9 -53t33.5 -23.5t76.5 -6.5q50 0 81.5 9zM140 601v7l102 135h85l102 -135v-7h-56l-89 96l-88 -96h-56zM323 763q0 27 9 37.5t36 18.5l22 7q34 8 43 15t9 25q0 25 -15.5 31
t-63.5 6q-49 0 -111 -5v46q51 8 116 8q49 0 76 -5.5t41 -22.5t14 -51q0 -35 -12.5 -50.5t-49.5 -25.5l-24 -7q-21 -6 -29 -9.5t-10 -9t-2 -17.5h-49v9z" />
    <glyph glyph-name="uni1EAA" unicode="&#x1eaa;" horiz-adv-x="684" 
d="M567 0l-71 183h-310l-71 -183h-87l260 688h108l260 -688h-89zM343 595h-5l-126 -331h257zM195 746v7l102 135h85l102 -135v-7h-56l-89 96l-88 -96h-56zM517 993q-5 -24 -20.5 -36t-47.5 -12q-26 0 -51.5 5.5t-67.5 17.5q-61 19 -91 19q-21 0 -26 -10.5t-5 -42.5h-47
q0 44 5 68t20.5 36.5t47.5 12.5q26 0 50.5 -5.5t68.5 -18.5q5 -1 25.5 -7t37 -9t28.5 -3q21 0 26 11t5 43h47q0 -45 -5 -69z" />
    <glyph glyph-name="uni1EAB" unicode="&#x1eab;" horiz-adv-x="570" 
d="M95 24.5q-40 32.5 -40 115.5q0 59 14 92t47.5 48t94.5 15q29 0 191 -5v30q0 60 -11.5 85t-42 32t-103.5 7q-32 0 -80.5 -3.5t-75.5 -7.5v71q79 14 185 14q90 0 134.5 -18.5t59.5 -60t15 -120.5v-319h-73l-4 71h-6q-21 -48 -67.5 -63.5t-109.5 -15.5q-88 0 -128 32.5z
M335.5 74q31.5 9 45.5 35q21 36 21 100v23h-170q-42 0 -61.5 -6t-27.5 -23.5t-8 -54.5q0 -36 9 -53t33.5 -23.5t76.5 -6.5q50 0 81.5 9zM138 601v7l102 135h85l102 -135v-7h-56l-89 96l-88 -96h-56zM460 848q-5 -24 -20.5 -36t-47.5 -12q-26 0 -51.5 5.5t-67.5 17.5
q-61 19 -91 19q-21 0 -26 -10.5t-5 -42.5h-47q0 44 5 68t20.5 36.5t47.5 12.5q26 0 50.5 -5.5t68.5 -18.5q5 -1 25.5 -7t37 -9t28.5 -3q21 0 26 11t5 43h47q0 -45 -5 -69z" />
    <glyph glyph-name="uni1EAC" unicode="&#x1eac;" horiz-adv-x="684" 
d="M567 0l-71 183h-310l-71 -183h-87l260 688h108l260 -688h-89zM343 595h-5l-126 -331h257zM295 -165v103h95v-103h-95zM197 746v7l102 135h85l102 -135v-7h-56l-89 96l-88 -96h-56z" />
    <glyph glyph-name="uni1EAD" unicode="&#x1ead;" horiz-adv-x="570" 
d="M95 24.5q-40 32.5 -40 115.5q0 59 14 92t47.5 48t94.5 15q29 0 191 -5v30q0 60 -11.5 85t-42 32t-103.5 7q-32 0 -80.5 -3.5t-75.5 -7.5v71q79 14 185 14q90 0 134.5 -18.5t59.5 -60t15 -120.5v-319h-73l-4 71h-6q-21 -48 -67.5 -63.5t-109.5 -15.5q-88 0 -128 32.5z
M335.5 74q31.5 9 45.5 35q21 36 21 100v23h-170q-42 0 -61.5 -6t-27.5 -23.5t-8 -54.5q0 -36 9 -53t33.5 -23.5t76.5 -6.5q50 0 81.5 9zM238 -165v103h95v-103h-95zM140 601v7l102 135h85l102 -135v-7h-56l-89 96l-88 -96h-56z" />
    <glyph glyph-name="uni1EAE" unicode="&#x1eae;" horiz-adv-x="684" 
d="M567 0l-71 183h-310l-71 -183h-87l260 688h108l260 -688h-89zM343 595h-5l-126 -331h257zM470.5 808.5q-8.5 -29.5 -38.5 -47.5t-92 -18t-91.5 17.5t-37.5 47t-8 80.5h53q0 -36 4 -53t22 -27t58 -10t58 10t22.5 27.5t4.5 52.5h54q0 -50 -8.5 -79.5zM305 920v5l101 136h88
v-5l-129 -136h-60z" />
    <glyph glyph-name="uni1EAF" unicode="&#x1eaf;" horiz-adv-x="570" 
d="M95 24.5q-40 32.5 -40 115.5q0 59 14 92t47.5 48t94.5 15q29 0 191 -5v30q0 60 -11.5 85t-42 32t-103.5 7q-32 0 -80.5 -3.5t-75.5 -7.5v71q79 14 185 14q90 0 134.5 -18.5t59.5 -60t15 -120.5v-319h-73l-4 71h-6q-21 -48 -67.5 -63.5t-109.5 -15.5q-88 0 -128 32.5z
M335.5 74q31.5 9 45.5 35q21 36 21 100v23h-170q-42 0 -61.5 -6t-27.5 -23.5t-8 -54.5q0 -36 9 -53t33.5 -23.5t76.5 -6.5q50 0 81.5 9zM406.5 663.5q-8.5 -29.5 -38.5 -47.5t-92 -18t-91.5 17.5t-37.5 47t-8 80.5h53q0 -36 4 -53t22 -27t58 -10t58 10t22.5 27.5t4.5 52.5
h54q0 -50 -8.5 -79.5zM241 775v5l101 136h88v-5l-129 -136h-60z" />
    <glyph glyph-name="uni1EB0" unicode="&#x1eb0;" horiz-adv-x="684" 
d="M567 0l-71 183h-310l-71 -183h-87l260 688h108l260 -688h-89zM343 595h-5l-126 -331h257zM476.5 808.5q-8.5 -29.5 -38.5 -47.5t-92 -18t-91.5 17.5t-37.5 47t-8 80.5h53q0 -36 4 -53t22 -27t58 -10t58 10t22.5 27.5t4.5 52.5h54q0 -50 -8.5 -79.5zM331 920l-129 136v5
h88l101 -136v-5h-60z" />
    <glyph glyph-name="uni1EB1" unicode="&#x1eb1;" horiz-adv-x="570" 
d="M95 24.5q-40 32.5 -40 115.5q0 59 14 92t47.5 48t94.5 15q29 0 191 -5v30q0 60 -11.5 85t-42 32t-103.5 7q-32 0 -80.5 -3.5t-75.5 -7.5v71q79 14 185 14q90 0 134.5 -18.5t59.5 -60t15 -120.5v-319h-73l-4 71h-6q-21 -48 -67.5 -63.5t-109.5 -15.5q-88 0 -128 32.5z
M335.5 74q31.5 9 45.5 35q21 36 21 100v23h-170q-42 0 -61.5 -6t-27.5 -23.5t-8 -54.5q0 -36 9 -53t33.5 -23.5t76.5 -6.5q50 0 81.5 9zM419.5 663.5q-8.5 -29.5 -38.5 -47.5t-92 -18t-91.5 17.5t-37.5 47t-8 80.5h53q0 -36 4 -53t22 -27t58 -10t58 10t22.5 27.5t4.5 52.5
h54q0 -50 -8.5 -79.5zM274 775l-129 136v5h88l101 -136v-5h-60z" />
    <glyph glyph-name="uni1EB2" unicode="&#x1eb2;" horiz-adv-x="684" 
d="M567 0l-71 183h-310l-71 -183h-87l260 688h108l260 -688h-89zM343 595h-5l-126 -331h257zM471.5 808.5q-8.5 -29.5 -38.5 -47.5t-92 -18t-91.5 17.5t-37.5 47t-8 80.5h53q0 -36 4 -53t22 -27t58 -10t58 10t22.5 27.5t4.5 52.5h54q0 -50 -8.5 -79.5zM292 897q0 27 9 37.5
t36 18.5l22 7q34 8 43 15t9 25q0 25 -15.5 31t-63.5 6q-49 0 -111 -5v46q51 8 116 8q49 0 76 -5.5t41 -22.5t14 -51q0 -35 -12.5 -50.5t-49.5 -25.5l-24 -7q-21 -6 -29 -9.5t-10 -9t-2 -17.5h-49v9z" />
    <glyph glyph-name="uni1EB3" unicode="&#x1eb3;" horiz-adv-x="570" 
d="M95 24.5q-40 32.5 -40 115.5q0 59 14 92t47.5 48t94.5 15q29 0 191 -5v30q0 60 -11.5 85t-42 32t-103.5 7q-32 0 -80.5 -3.5t-75.5 -7.5v71q79 14 185 14q90 0 134.5 -18.5t59.5 -60t15 -120.5v-319h-73l-4 71h-6q-21 -48 -67.5 -63.5t-109.5 -15.5q-88 0 -128 32.5z
M335.5 74q31.5 9 45.5 35q21 36 21 100v23h-170q-42 0 -61.5 -6t-27.5 -23.5t-8 -54.5q0 -36 9 -53t33.5 -23.5t76.5 -6.5q50 0 81.5 9zM414.5 663.5q-8.5 -29.5 -38.5 -47.5t-92 -18t-91.5 17.5t-37.5 47t-8 80.5h53q0 -36 4 -53t22 -27t58 -10t58 10t22.5 27.5t4.5 52.5
h54q0 -50 -8.5 -79.5zM235 752q0 27 9 37.5t36 18.5l22 7q34 8 43 15t9 25q0 25 -15.5 31t-63.5 6q-49 0 -111 -5v46q51 8 116 8q49 0 76 -5.5t41 -22.5t14 -51q0 -35 -12.5 -50.5t-49.5 -25.5l-24 -7q-21 -6 -29 -9.5t-10 -9t-2 -17.5h-49v9z" />
    <glyph glyph-name="uni1EB4" unicode="&#x1eb4;" horiz-adv-x="684" 
d="M567 0l-71 183h-310l-71 -183h-87l260 688h108l260 -688h-89zM343 595h-5l-126 -331h257zM469.5 808.5q-8.5 -29.5 -38.5 -47.5t-92 -18t-91.5 17.5t-37.5 47t-8 80.5h53q0 -36 4 -53t22 -27t58 -10t58 10t22.5 27.5t4.5 52.5h54q0 -50 -8.5 -79.5zM517 993
q-5 -24 -20.5 -36t-47.5 -12q-26 0 -51.5 5.5t-67.5 17.5q-61 19 -91 19q-21 0 -26 -10.5t-5 -42.5h-47q0 44 5 68t20.5 36.5t47.5 12.5q26 0 50.5 -5.5t68.5 -18.5q5 -1 25.5 -7t37 -9t28.5 -3q21 0 26 11t5 43h47q0 -45 -5 -69z" />
    <glyph glyph-name="uni1EB5" unicode="&#x1eb5;" horiz-adv-x="570" 
d="M95 24.5q-40 32.5 -40 115.5q0 59 14 92t47.5 48t94.5 15q29 0 191 -5v30q0 60 -11.5 85t-42 32t-103.5 7q-32 0 -80.5 -3.5t-75.5 -7.5v71q79 14 185 14q90 0 134.5 -18.5t59.5 -60t15 -120.5v-319h-73l-4 71h-6q-21 -48 -67.5 -63.5t-109.5 -15.5q-88 0 -128 32.5z
M335.5 74q31.5 9 45.5 35q21 36 21 100v23h-170q-42 0 -61.5 -6t-27.5 -23.5t-8 -54.5q0 -36 9 -53t33.5 -23.5t76.5 -6.5q50 0 81.5 9zM412.5 663.5q-8.5 -29.5 -38.5 -47.5t-92 -18t-91.5 17.5t-37.5 47t-8 80.5h53q0 -36 4 -53t22 -27t58 -10t58 10t22.5 27.5t4.5 52.5
h54q0 -50 -8.5 -79.5zM460 848q-5 -24 -20.5 -36t-47.5 -12q-26 0 -51.5 5.5t-67.5 17.5q-61 19 -91 19q-21 0 -26 -10.5t-5 -42.5h-47q0 44 5 68t20.5 36.5t47.5 12.5q26 0 50.5 -5.5t68.5 -18.5q5 -1 25.5 -7t37 -9t28.5 -3q21 0 26 11t5 43h47q0 -45 -5 -69z" />
    <glyph glyph-name="uni1EB6" unicode="&#x1eb6;" horiz-adv-x="684" 
d="M567 0l-71 183h-310l-71 -183h-87l260 688h108l260 -688h-89zM343 595h-5l-126 -331h257zM295 -165v103h95v-103h-95zM471.5 808.5q-8.5 -29.5 -38.5 -47.5t-92 -18t-91.5 17.5t-37.5 47t-8 80.5h53q0 -36 4 -53t22 -27t58 -10t58 10t22.5 27.5t4.5 52.5h54
q0 -50 -8.5 -79.5z" />
    <glyph glyph-name="uni1EB7" unicode="&#x1eb7;" horiz-adv-x="570" 
d="M95 24.5q-40 32.5 -40 115.5q0 59 14 92t47.5 48t94.5 15q29 0 191 -5v30q0 60 -11.5 85t-42 32t-103.5 7q-32 0 -80.5 -3.5t-75.5 -7.5v71q79 14 185 14q90 0 134.5 -18.5t59.5 -60t15 -120.5v-319h-73l-4 71h-6q-21 -48 -67.5 -63.5t-109.5 -15.5q-88 0 -128 32.5z
M335.5 74q31.5 9 45.5 35q21 36 21 100v23h-170q-42 0 -61.5 -6t-27.5 -23.5t-8 -54.5q0 -36 9 -53t33.5 -23.5t76.5 -6.5q50 0 81.5 9zM238 -165v103h95v-103h-95zM414.5 663.5q-8.5 -29.5 -38.5 -47.5t-92 -18t-91.5 17.5t-37.5 47t-8 80.5h53q0 -36 4 -53t22 -27t58 -10
t58 10t22.5 27.5t4.5 52.5h54q0 -50 -8.5 -79.5z" />
    <glyph glyph-name="uni1EB8" unicode="&#x1eb8;" horiz-adv-x="604" 
d="M100 0v688h448v-80h-362v-221h314v-80h-314v-227h362v-80h-448zM277 -165v103h95v-103h-95z" />
    <glyph glyph-name="uni1EB9" unicode="&#x1eb9;" horiz-adv-x="560" 
d="M495 226h-349q0 -73 10 -104t43.5 -43.5t112.5 -12.5q77 0 163 11v-71q-32 -6 -83 -10t-97 -4q-103 0 -151.5 24t-63.5 77t-15 161q0 106 13.5 159t61 79t150.5 26q96 0 139 -25.5t54.5 -77t11.5 -160.5v-29zM194.5 432.5q-28.5 -11.5 -38 -43t-10.5 -101.5h271v8
q0 66 -11.5 97t-37.5 41t-80 10q-65 0 -93.5 -11.5zM233 -165v103h95v-103h-95z" />
    <glyph glyph-name="uni1EBA" unicode="&#x1eba;" horiz-adv-x="604" 
d="M100 0v688h448v-80h-362v-221h314v-80h-314v-227h362v-80h-448zM271 740q0 27 9 37.5t36 18.5l22 6q34 9 43 16t9 25t-8.5 26t-25 9.5t-54.5 1.5q-49 0 -102 -5v46q56 7 116 7q49 0 76 -5t41 -22t14 -52t-12.5 -50.5t-49.5 -25.5l-24 -6q-20 -6 -28.5 -9.5t-10.5 -9
t-2 -17.5h-49v9z" />
    <glyph glyph-name="uni1EBB" unicode="&#x1ebb;" horiz-adv-x="560" 
d="M495 226h-349q0 -73 10 -104t43.5 -43.5t112.5 -12.5q77 0 163 11v-71q-32 -6 -83 -10t-97 -4q-103 0 -151.5 24t-63.5 77t-15 161q0 106 13.5 159t61 79t150.5 26q96 0 139 -25.5t54.5 -77t11.5 -160.5v-29zM194.5 432.5q-28.5 -11.5 -38 -43t-10.5 -101.5h271v8
q0 66 -11.5 97t-37.5 41t-80 10q-65 0 -93.5 -11.5zM227 616q0 27 9 37.5t36 18.5l22 7q34 8 43 15t9 25q0 25 -15.5 31t-63.5 6q-49 0 -111 -5v46q51 8 116 8q49 0 76 -5.5t41 -22.5t14 -51q0 -35 -12.5 -50.5t-49.5 -25.5l-24 -7q-21 -6 -29 -9.5t-10 -9t-2 -17.5h-49v9z
" />
    <glyph glyph-name="uni1EBC" unicode="&#x1ebc;" horiz-adv-x="604" 
d="M100 0v688h448v-80h-362v-221h314v-80h-314v-227h362v-80h-448zM499 820q-5 -24 -20.5 -36t-47.5 -12q-26 0 -51.5 5.5t-67.5 17.5q-61 19 -91 19q-21 0 -26 -10.5t-5 -42.5h-47q0 44 5 68t20.5 36.5t47.5 12.5q26 0 50.5 -5.5t68.5 -18.5q5 -1 25.5 -7t37 -9t28.5 -3
q21 0 26 11t5 43h47q0 -45 -5 -69z" />
    <glyph glyph-name="uni1EBD" unicode="&#x1ebd;" horiz-adv-x="560" 
d="M495 226h-349q0 -73 10 -104t43.5 -43.5t112.5 -12.5q77 0 163 11v-71q-32 -6 -83 -10t-97 -4q-103 0 -151.5 24t-63.5 77t-15 161q0 106 13.5 159t61 79t150.5 26q96 0 139 -25.5t54.5 -77t11.5 -160.5v-29zM194.5 432.5q-28.5 -11.5 -38 -43t-10.5 -101.5h271v8
q0 66 -11.5 97t-37.5 41t-80 10q-65 0 -93.5 -11.5zM455 675q-5 -24 -20.5 -36t-47.5 -12q-26 0 -51.5 5.5t-67.5 17.5q-61 19 -91 19q-21 0 -26 -10.5t-5 -42.5h-47q0 44 5 68t20.5 36.5t47.5 12.5q26 0 50.5 -5.5t68.5 -18.5q5 -1 25.5 -7t37 -9t28.5 -3q21 0 26 11t5 43
h47q0 -45 -5 -69z" />
    <glyph glyph-name="uni1EBE" unicode="&#x1ebe;" horiz-adv-x="604" 
d="M100 0v688h448v-80h-362v-221h314v-80h-314v-227h362v-80h-448zM176 746v7l102 135h85l102 -135v-7h-56l-89 96l-88 -96h-56zM369 907v5l101 136h88v-5l-129 -136h-60z" />
    <glyph glyph-name="uni1EBF" unicode="&#x1ebf;" horiz-adv-x="560" 
d="M495 226h-349q0 -73 10 -104t43.5 -43.5t112.5 -12.5q77 0 163 11v-71q-32 -6 -83 -10t-97 -4q-103 0 -151.5 24t-63.5 77t-15 161q0 106 13.5 159t61 79t150.5 26q96 0 139 -25.5t54.5 -77t11.5 -160.5v-29zM194.5 432.5q-28.5 -11.5 -38 -43t-10.5 -101.5h271v8
q0 66 -11.5 97t-37.5 41t-80 10q-65 0 -93.5 -11.5zM132 601v7l102 135h85l102 -135v-7h-56l-89 96l-88 -96h-56zM325 762v5l101 136h88v-5l-129 -136h-60z" />
    <glyph glyph-name="uni1EC0" unicode="&#x1ec0;" horiz-adv-x="604" 
d="M100 0v688h448v-80h-362v-221h314v-80h-314v-227h362v-80h-448zM176 746v7l102 135h85l102 -135v-7h-56l-89 96l-88 -96h-56zM408 907l-129 136v5h88l101 -136v-5h-60z" />
    <glyph glyph-name="uni1EC1" unicode="&#x1ec1;" horiz-adv-x="560" 
d="M495 226h-349q0 -73 10 -104t43.5 -43.5t112.5 -12.5q77 0 163 11v-71q-32 -6 -83 -10t-97 -4q-103 0 -151.5 24t-63.5 77t-15 161q0 106 13.5 159t61 79t150.5 26q96 0 139 -25.5t54.5 -77t11.5 -160.5v-29zM194.5 432.5q-28.5 -11.5 -38 -43t-10.5 -101.5h271v8
q0 66 -11.5 97t-37.5 41t-80 10q-65 0 -93.5 -11.5zM132 601v7l102 135h85l102 -135v-7h-56l-89 96l-88 -96h-56zM364 762l-129 136v5h88l101 -136v-5h-60z" />
    <glyph glyph-name="uni1EC2" unicode="&#x1ec2;" horiz-adv-x="604" 
d="M100 0v688h448v-80h-362v-221h314v-80h-314v-227h362v-80h-448zM179 746v7l102 135h85l102 -135v-7h-56l-89 96l-88 -96h-56zM362 908q0 27 9 37.5t36 18.5l22 7q34 8 43 15t9 25q0 25 -15.5 31t-63.5 6q-49 0 -111 -5v46q51 8 116 8q49 0 76 -5.5t41 -22.5t14 -51
q0 -35 -12.5 -50.5t-49.5 -25.5l-24 -7q-21 -6 -29 -9.5t-10 -9t-2 -17.5h-49v9z" />
    <glyph glyph-name="uni1EC3" unicode="&#x1ec3;" horiz-adv-x="560" 
d="M495 226h-349q0 -73 10 -104t43.5 -43.5t112.5 -12.5q77 0 163 11v-71q-32 -6 -83 -10t-97 -4q-103 0 -151.5 24t-63.5 77t-15 161q0 106 13.5 159t61 79t150.5 26q96 0 139 -25.5t54.5 -77t11.5 -160.5v-29zM194.5 432.5q-28.5 -11.5 -38 -43t-10.5 -101.5h271v8
q0 66 -11.5 97t-37.5 41t-80 10q-65 0 -93.5 -11.5zM135 601v7l102 135h85l102 -135v-7h-56l-89 96l-88 -96h-56zM318 763q0 27 9 37.5t36 18.5l22 7q34 8 43 15t9 25q0 25 -15.5 31t-63.5 6q-49 0 -111 -5v46q51 8 116 8q49 0 76 -5.5t41 -22.5t14 -51q0 -35 -12.5 -50.5
t-49.5 -25.5l-24 -7q-21 -6 -29 -9.5t-10 -9t-2 -17.5h-49v9z" />
    <glyph glyph-name="uni1EC4" unicode="&#x1ec4;" horiz-adv-x="604" 
d="M100 0v688h448v-80h-362v-221h314v-80h-314v-227h362v-80h-448zM177 746v7l102 135h85l102 -135v-7h-56l-89 96l-88 -96h-56zM499 993q-5 -24 -20.5 -36t-47.5 -12q-26 0 -51.5 5.5t-67.5 17.5q-61 19 -91 19q-21 0 -26 -10.5t-5 -42.5h-47q0 44 5 68t20.5 36.5
t47.5 12.5q26 0 50.5 -5.5t68.5 -18.5q5 -1 25.5 -7t37 -9t28.5 -3q21 0 26 11t5 43h47q0 -45 -5 -69z" />
    <glyph glyph-name="uni1EC5" unicode="&#x1ec5;" horiz-adv-x="560" 
d="M495 226h-349q0 -73 10 -104t43.5 -43.5t112.5 -12.5q77 0 163 11v-71q-32 -6 -83 -10t-97 -4q-103 0 -151.5 24t-63.5 77t-15 161q0 106 13.5 159t61 79t150.5 26q96 0 139 -25.5t54.5 -77t11.5 -160.5v-29zM194.5 432.5q-28.5 -11.5 -38 -43t-10.5 -101.5h271v8
q0 66 -11.5 97t-37.5 41t-80 10q-65 0 -93.5 -11.5zM133 601v7l102 135h85l102 -135v-7h-56l-89 96l-88 -96h-56zM455 848q-5 -24 -20.5 -36t-47.5 -12q-26 0 -51.5 5.5t-67.5 17.5q-61 19 -91 19q-21 0 -26 -10.5t-5 -42.5h-47q0 44 5 68t20.5 36.5t47.5 12.5
q26 0 50.5 -5.5t68.5 -18.5q5 -1 25.5 -7t37 -9t28.5 -3q21 0 26 11t5 43h47q0 -45 -5 -69z" />
    <glyph glyph-name="uni1EC6" unicode="&#x1ec6;" horiz-adv-x="604" 
d="M100 0v688h448v-80h-362v-221h314v-80h-314v-227h362v-80h-448zM277 -165v103h95v-103h-95zM179 746v7l102 135h85l102 -135v-7h-56l-89 96l-88 -96h-56z" />
    <glyph glyph-name="uni1EC7" unicode="&#x1ec7;" horiz-adv-x="560" 
d="M495 226h-349q0 -73 10 -104t43.5 -43.5t112.5 -12.5q77 0 163 11v-71q-32 -6 -83 -10t-97 -4q-103 0 -151.5 24t-63.5 77t-15 161q0 106 13.5 159t61 79t150.5 26q96 0 139 -25.5t54.5 -77t11.5 -160.5v-29zM194.5 432.5q-28.5 -11.5 -38 -43t-10.5 -101.5h271v8
q0 66 -11.5 97t-37.5 41t-80 10q-65 0 -93.5 -11.5zM233 -165v103h95v-103h-95zM135 601v7l102 135h85l102 -135v-7h-56l-89 96l-88 -96h-56z" />
    <glyph glyph-name="uni1EC8" unicode="&#x1ec8;" horiz-adv-x="286" 
d="M100 0v688h86v-688h-86zM90 740q0 27 9 37.5t36 18.5l22 6q34 9 43 16t9 25t-8.5 26t-25 9.5t-54.5 1.5q-49 0 -102 -5v46q56 7 116 7q49 0 76 -5t41 -22t14 -52t-12.5 -50.5t-49.5 -25.5l-24 -6q-20 -6 -28.5 -9.5t-10.5 -9t-2 -17.5h-49v9z" />
    <glyph glyph-name="uni1EC9" unicode="&#x1ec9;" horiz-adv-x="254" 
d="M87 0v510h81v-510h-81zM74 616q0 27 9 37.5t36 18.5l22 7q34 8 43 15t9 25q0 25 -15.5 31t-63.5 6q-49 0 -111 -5v46q51 8 116 8q49 0 76 -5.5t41 -22.5t14 -51q0 -35 -12.5 -50.5t-49.5 -25.5l-24 -7q-21 -6 -29 -9.5t-10 -9t-2 -17.5h-49v9z" />
    <glyph glyph-name="uni1ECA" unicode="&#x1eca;" horiz-adv-x="286" 
d="M100 0v688h86v-688h-86zM96 -165v103h95v-103h-95z" />
    <glyph glyph-name="uni1ECB" unicode="&#x1ecb;" horiz-adv-x="254" 
d="M84 650v93h86v-93h-86zM87 0v510h81v-510h-81zM64 -165v103h95v-103h-95z" />
    <glyph glyph-name="uni1ECC" unicode="&#x1ecc;" horiz-adv-x="718" 
d="M165 19q-57 27 -72.5 94.5t-15.5 230.5t15.5 230.5t72.5 94.5t194 27q136 0 193.5 -27t73 -94.5t15.5 -230.5t-15.5 -230.5t-73 -94.5t-193.5 -27q-137 0 -194 27zM497 85q36 13 47 65t11 194t-11 194t-47 65t-138 13t-138.5 -13t-47.5 -65t-11 -194t11 -194t47.5 -65
t138.5 -13t138 13zM312 -165v103h95v-103h-95z" />
    <glyph glyph-name="uni1ECD" unicode="&#x1ecd;" horiz-adv-x="577" 
d="M136 13.5q-46 21.5 -58.5 73t-12.5 168.5t12.5 168.5t58.5 73t153 21.5q106 0 152 -21.5t58.5 -73t12.5 -168.5t-12.5 -168.5t-58.5 -73t-152 -21.5q-107 0 -153 21.5zM390 79q28 13 34.5 47.5t6.5 128.5t-6.5 128.5t-34.5 47.5t-101 13t-101.5 -13t-35 -47.5
t-6.5 -128.5t6.5 -128.5t35 -47.5t101.5 -13t101 13zM242 -165v103h95v-103h-95z" />
    <glyph glyph-name="uni1ECE" unicode="&#x1ece;" horiz-adv-x="718" 
d="M165 19q-57 27 -72.5 94.5t-15.5 230.5t15.5 230.5t72.5 94.5t194 27q136 0 193.5 -27t73 -94.5t15.5 -230.5t-15.5 -230.5t-73 -94.5t-193.5 -27q-137 0 -194 27zM497 85q36 13 47 65t11 194t-11 194t-47 65t-138 13t-138.5 -13t-47.5 -65t-11 -194t11 -194t47.5 -65
t138.5 -13t138 13zM306 740q0 27 9 37.5t36 18.5l22 6q34 9 43 16t9 25t-8.5 26t-25 9.5t-54.5 1.5q-49 0 -102 -5v46q56 7 116 7q49 0 76 -5t41 -22t14 -52t-12.5 -50.5t-49.5 -25.5l-24 -6q-20 -6 -28.5 -9.5t-10.5 -9t-2 -17.5h-49v9z" />
    <glyph glyph-name="uni1ECF" unicode="&#x1ecf;" horiz-adv-x="577" 
d="M136 13.5q-46 21.5 -58.5 73t-12.5 168.5t12.5 168.5t58.5 73t153 21.5q106 0 152 -21.5t58.5 -73t12.5 -168.5t-12.5 -168.5t-58.5 -73t-152 -21.5q-107 0 -153 21.5zM390 79q28 13 34.5 47.5t6.5 128.5t-6.5 128.5t-34.5 47.5t-101 13t-101.5 -13t-35 -47.5
t-6.5 -128.5t6.5 -128.5t35 -47.5t101.5 -13t101 13zM236 616q0 27 9 37.5t36 18.5l22 7q34 8 43 15t9 25q0 25 -15.5 31t-63.5 6q-49 0 -111 -5v46q51 8 116 8q49 0 76 -5.5t41 -22.5t14 -51q0 -35 -12.5 -50.5t-49.5 -25.5l-24 -7q-21 -6 -29 -9.5t-10 -9t-2 -17.5h-49v9z
" />
    <glyph glyph-name="uni1ED0" unicode="&#x1ed0;" horiz-adv-x="718" 
d="M165 19q-57 27 -72.5 94.5t-15.5 230.5t15.5 230.5t72.5 94.5t194 27q136 0 193.5 -27t73 -94.5t15.5 -230.5t-15.5 -230.5t-73 -94.5t-193.5 -27q-137 0 -194 27zM497 85q36 13 47 65t11 194t-11 194t-47 65t-138 13t-138.5 -13t-47.5 -65t-11 -194t11 -194t47.5 -65
t138.5 -13t138 13zM211 746v7l102 135h85l102 -135v-7h-56l-89 96l-88 -96h-56zM404 907v5l101 136h88v-5l-129 -136h-60z" />
    <glyph glyph-name="uni1ED1" unicode="&#x1ed1;" horiz-adv-x="577" 
d="M136 13.5q-46 21.5 -58.5 73t-12.5 168.5t12.5 168.5t58.5 73t153 21.5q106 0 152 -21.5t58.5 -73t12.5 -168.5t-12.5 -168.5t-58.5 -73t-152 -21.5q-107 0 -153 21.5zM390 79q28 13 34.5 47.5t6.5 128.5t-6.5 128.5t-34.5 47.5t-101 13t-101.5 -13t-35 -47.5
t-6.5 -128.5t6.5 -128.5t35 -47.5t101.5 -13t101 13zM141 601v7l102 135h85l102 -135v-7h-56l-89 96l-88 -96h-56zM334 762v5l101 136h88v-5l-129 -136h-60z" />
    <glyph glyph-name="uni1ED2" unicode="&#x1ed2;" horiz-adv-x="718" 
d="M165 19q-57 27 -72.5 94.5t-15.5 230.5t15.5 230.5t72.5 94.5t194 27q136 0 193.5 -27t73 -94.5t15.5 -230.5t-15.5 -230.5t-73 -94.5t-193.5 -27q-137 0 -194 27zM497 85q36 13 47 65t11 194t-11 194t-47 65t-138 13t-138.5 -13t-47.5 -65t-11 -194t11 -194t47.5 -65
t138.5 -13t138 13zM211 746v7l102 135h85l102 -135v-7h-56l-89 96l-88 -96h-56zM443 907l-129 136v5h88l101 -136v-5h-60z" />
    <glyph glyph-name="uni1ED3" unicode="&#x1ed3;" horiz-adv-x="577" 
d="M136 13.5q-46 21.5 -58.5 73t-12.5 168.5t12.5 168.5t58.5 73t153 21.5q106 0 152 -21.5t58.5 -73t12.5 -168.5t-12.5 -168.5t-58.5 -73t-152 -21.5q-107 0 -153 21.5zM390 79q28 13 34.5 47.5t6.5 128.5t-6.5 128.5t-34.5 47.5t-101 13t-101.5 -13t-35 -47.5
t-6.5 -128.5t6.5 -128.5t35 -47.5t101.5 -13t101 13zM141 601v7l102 135h85l102 -135v-7h-56l-89 96l-88 -96h-56zM373 762l-129 136v5h88l101 -136v-5h-60z" />
    <glyph glyph-name="uni1ED4" unicode="&#x1ed4;" horiz-adv-x="718" 
d="M165 19q-57 27 -72.5 94.5t-15.5 230.5t15.5 230.5t72.5 94.5t194 27q136 0 193.5 -27t73 -94.5t15.5 -230.5t-15.5 -230.5t-73 -94.5t-193.5 -27q-137 0 -194 27zM497 85q36 13 47 65t11 194t-11 194t-47 65t-138 13t-138.5 -13t-47.5 -65t-11 -194t11 -194t47.5 -65
t138.5 -13t138 13zM214 746v7l102 135h85l102 -135v-7h-56l-89 96l-88 -96h-56zM397 908q0 27 9 37.5t36 18.5l22 7q34 8 43 15t9 25q0 25 -15.5 31t-63.5 6q-49 0 -111 -5v46q51 8 116 8q49 0 76 -5.5t41 -22.5t14 -51q0 -35 -12.5 -50.5t-49.5 -25.5l-24 -7
q-21 -6 -29 -9.5t-10 -9t-2 -17.5h-49v9z" />
    <glyph glyph-name="uni1ED5" unicode="&#x1ed5;" horiz-adv-x="577" 
d="M136 13.5q-46 21.5 -58.5 73t-12.5 168.5t12.5 168.5t58.5 73t153 21.5q106 0 152 -21.5t58.5 -73t12.5 -168.5t-12.5 -168.5t-58.5 -73t-152 -21.5q-107 0 -153 21.5zM390 79q28 13 34.5 47.5t6.5 128.5t-6.5 128.5t-34.5 47.5t-101 13t-101.5 -13t-35 -47.5
t-6.5 -128.5t6.5 -128.5t35 -47.5t101.5 -13t101 13zM144 601v7l102 135h85l102 -135v-7h-56l-89 96l-88 -96h-56zM327 763q0 27 9 37.5t36 18.5l22 7q34 8 43 15t9 25q0 25 -15.5 31t-63.5 6q-49 0 -111 -5v46q51 8 116 8q49 0 76 -5.5t41 -22.5t14 -51q0 -35 -12.5 -50.5
t-49.5 -25.5l-24 -7q-21 -6 -29 -9.5t-10 -9t-2 -17.5h-49v9z" />
    <glyph glyph-name="uni1ED6" unicode="&#x1ed6;" horiz-adv-x="718" 
d="M165 19q-57 27 -72.5 94.5t-15.5 230.5t15.5 230.5t72.5 94.5t194 27q136 0 193.5 -27t73 -94.5t15.5 -230.5t-15.5 -230.5t-73 -94.5t-193.5 -27q-137 0 -194 27zM497 85q36 13 47 65t11 194t-11 194t-47 65t-138 13t-138.5 -13t-47.5 -65t-11 -194t11 -194t47.5 -65
t138.5 -13t138 13zM212 746v7l102 135h85l102 -135v-7h-56l-89 96l-88 -96h-56zM534 993q-5 -24 -20.5 -36t-47.5 -12q-26 0 -51.5 5.5t-67.5 17.5q-61 19 -91 19q-21 0 -26 -10.5t-5 -42.5h-47q0 44 5 68t20.5 36.5t47.5 12.5q26 0 50.5 -5.5t68.5 -18.5q5 -1 25.5 -7
t37 -9t28.5 -3q21 0 26 11t5 43h47q0 -45 -5 -69z" />
    <glyph glyph-name="uni1ED7" unicode="&#x1ed7;" horiz-adv-x="577" 
d="M136 13.5q-46 21.5 -58.5 73t-12.5 168.5t12.5 168.5t58.5 73t153 21.5q106 0 152 -21.5t58.5 -73t12.5 -168.5t-12.5 -168.5t-58.5 -73t-152 -21.5q-107 0 -153 21.5zM390 79q28 13 34.5 47.5t6.5 128.5t-6.5 128.5t-34.5 47.5t-101 13t-101.5 -13t-35 -47.5
t-6.5 -128.5t6.5 -128.5t35 -47.5t101.5 -13t101 13zM142 601v7l102 135h85l102 -135v-7h-56l-89 96l-88 -96h-56zM464 848q-5 -24 -20.5 -36t-47.5 -12q-26 0 -51.5 5.5t-67.5 17.5q-61 19 -91 19q-21 0 -26 -10.5t-5 -42.5h-47q0 44 5 68t20.5 36.5t47.5 12.5
q26 0 50.5 -5.5t68.5 -18.5q5 -1 25.5 -7t37 -9t28.5 -3q21 0 26 11t5 43h47q0 -45 -5 -69z" />
    <glyph glyph-name="uni1ED8" unicode="&#x1ed8;" horiz-adv-x="718" 
d="M165 19q-57 27 -72.5 94.5t-15.5 230.5t15.5 230.5t72.5 94.5t194 27q136 0 193.5 -27t73 -94.5t15.5 -230.5t-15.5 -230.5t-73 -94.5t-193.5 -27q-137 0 -194 27zM497 85q36 13 47 65t11 194t-11 194t-47 65t-138 13t-138.5 -13t-47.5 -65t-11 -194t11 -194t47.5 -65
t138.5 -13t138 13zM312 -165v103h95v-103h-95zM214 746v7l102 135h85l102 -135v-7h-56l-89 96l-88 -96h-56z" />
    <glyph glyph-name="uni1ED9" unicode="&#x1ed9;" horiz-adv-x="577" 
d="M136 13.5q-46 21.5 -58.5 73t-12.5 168.5t12.5 168.5t58.5 73t153 21.5q106 0 152 -21.5t58.5 -73t12.5 -168.5t-12.5 -168.5t-58.5 -73t-152 -21.5q-107 0 -153 21.5zM390 79q28 13 34.5 47.5t6.5 128.5t-6.5 128.5t-34.5 47.5t-101 13t-101.5 -13t-35 -47.5
t-6.5 -128.5t6.5 -128.5t35 -47.5t101.5 -13t101 13zM242 -165v103h95v-103h-95zM144 601v7l102 135h85l102 -135v-7h-56l-89 96l-88 -96h-56z" />
    <glyph glyph-name="uni1EDA" unicode="&#x1eda;" horiz-adv-x="718" 
d="M664 783v-24q0 -40 -6 -62.5t-23.5 -34t-50.5 -14.5q37 -33 47 -98t10 -206q0 -163 -15.5 -230.5t-73 -94.5t-193.5 -27q-137 0 -194 27t-72.5 94.5t-15.5 230.5t15.5 230.5t72.5 94.5t194 27q84 0 129 -8h61q25 0 37 5.5t15.5 18t3.5 39.5v32h59zM497 85q36 13 47 65
t11 194t-11 194t-47 65t-138 13t-138.5 -13t-47.5 -65t-11 -194t11 -194t47.5 -65t138.5 -13t138 13zM324 747v5l101 136h88v-5l-129 -136h-60z" />
    <glyph glyph-name="uni1EDB" unicode="&#x1edb;" horiz-adv-x="577" 
d="M570 605v-24q0 -43 -7.5 -65.5t-27 -33.5t-59.5 -13q23 -27 29.5 -74t6.5 -140q0 -117 -12.5 -168.5t-58.5 -73t-152 -21.5q-107 0 -153 21.5t-58.5 73t-12.5 168.5t12.5 168.5t58.5 73t153 21.5q71 0 108 -8h58q25 0 37 5.5t15.5 18t3.5 39.5v32h59zM390 79
q28 13 34.5 47.5t6.5 128.5t-6.5 128.5t-34.5 47.5t-101 13t-101.5 -13t-35 -47.5t-6.5 -128.5t6.5 -128.5t35 -47.5t101.5 -13t101 13zM252 602v5l101 136h88v-5l-129 -136h-60z" />
    <glyph glyph-name="uni1EDC" unicode="&#x1edc;" horiz-adv-x="718" 
d="M664 783v-24q0 -40 -6 -62.5t-23.5 -34t-50.5 -14.5q37 -33 47 -98t10 -206q0 -163 -15.5 -230.5t-73 -94.5t-193.5 -27q-137 0 -194 27t-72.5 94.5t-15.5 230.5t15.5 230.5t72.5 94.5t194 27q84 0 129 -8h61q25 0 37 5.5t15.5 18t3.5 39.5v32h59zM497 85q36 13 47 65
t11 194t-11 194t-47 65t-138 13t-138.5 -13t-47.5 -65t-11 -194t11 -194t47.5 -65t138.5 -13t138 13zM337 747l-129 136v5h88l101 -136v-5h-60z" />
    <glyph glyph-name="uni1EDD" unicode="&#x1edd;" horiz-adv-x="577" 
d="M570 605v-24q0 -43 -7.5 -65.5t-27 -33.5t-59.5 -13q23 -27 29.5 -74t6.5 -140q0 -117 -12.5 -168.5t-58.5 -73t-152 -21.5q-107 0 -153 21.5t-58.5 73t-12.5 168.5t12.5 168.5t58.5 73t153 21.5q71 0 108 -8h58q25 0 37 5.5t15.5 18t3.5 39.5v32h59zM390 79
q28 13 34.5 47.5t6.5 128.5t-6.5 128.5t-34.5 47.5t-101 13t-101.5 -13t-35 -47.5t-6.5 -128.5t6.5 -128.5t35 -47.5t101.5 -13t101 13zM271 602l-129 136v5h88l101 -136v-5h-60z" />
    <glyph glyph-name="uni1EDE" unicode="&#x1ede;" horiz-adv-x="718" 
d="M664 783v-24q0 -40 -6 -62.5t-23.5 -34t-50.5 -14.5q37 -33 47 -98t10 -206q0 -163 -15.5 -230.5t-73 -94.5t-193.5 -27q-137 0 -194 27t-72.5 94.5t-15.5 230.5t15.5 230.5t72.5 94.5t194 27q84 0 129 -8h61q25 0 37 5.5t15.5 18t3.5 39.5v32h59zM497 85q36 13 47 65
t11 194t-11 194t-47 65t-138 13t-138.5 -13t-47.5 -65t-11 -194t11 -194t47.5 -65t138.5 -13t138 13zM306 740q0 27 9 37.5t36 18.5l22 6q34 9 43 16t9 25t-8.5 26t-25 9.5t-54.5 1.5q-49 0 -102 -5v46q56 7 116 7q49 0 76 -5t41 -22t14 -52t-12.5 -50.5t-49.5 -25.5l-24 -6
q-20 -6 -28.5 -9.5t-10.5 -9t-2 -17.5h-49v9z" />
    <glyph glyph-name="uni1EDF" unicode="&#x1edf;" horiz-adv-x="577" 
d="M570 605v-24q0 -43 -7.5 -65.5t-27 -33.5t-59.5 -13q23 -27 29.5 -74t6.5 -140q0 -117 -12.5 -168.5t-58.5 -73t-152 -21.5q-107 0 -153 21.5t-58.5 73t-12.5 168.5t12.5 168.5t58.5 73t153 21.5q71 0 108 -8h58q25 0 37 5.5t15.5 18t3.5 39.5v32h59zM390 79
q28 13 34.5 47.5t6.5 128.5t-6.5 128.5t-34.5 47.5t-101 13t-101.5 -13t-35 -47.5t-6.5 -128.5t6.5 -128.5t35 -47.5t101.5 -13t101 13zM236 616q0 27 9 37.5t36 18.5l22 7q34 8 43 15t9 25q0 25 -15.5 31t-63.5 6q-49 0 -111 -5v46q51 8 116 8q49 0 76 -5.5t41 -22.5
t14 -51q0 -35 -12.5 -50.5t-49.5 -25.5l-24 -7q-21 -6 -29 -9.5t-10 -9t-2 -17.5h-49v9z" />
    <glyph glyph-name="uni1EE0" unicode="&#x1ee0;" horiz-adv-x="718" 
d="M664 783v-24q0 -40 -6 -62.5t-23.5 -34t-50.5 -14.5q37 -33 47 -98t10 -206q0 -163 -15.5 -230.5t-73 -94.5t-193.5 -27q-137 0 -194 27t-72.5 94.5t-15.5 230.5t15.5 230.5t72.5 94.5t194 27q84 0 129 -8h61q25 0 37 5.5t15.5 18t3.5 39.5v32h59zM497 85q36 13 47 65
t11 194t-11 194t-47 65t-138 13t-138.5 -13t-47.5 -65t-11 -194t11 -194t47.5 -65t138.5 -13t138 13zM534 820q-5 -24 -20.5 -36t-47.5 -12q-26 0 -51.5 5.5t-67.5 17.5q-61 19 -91 19q-21 0 -26 -10.5t-5 -42.5h-47q0 44 5 68t20.5 36.5t47.5 12.5q26 0 50.5 -5.5
t68.5 -18.5q5 -1 25.5 -7t37 -9t28.5 -3q21 0 26 11t5 43h47q0 -45 -5 -69z" />
    <glyph glyph-name="uni1EE1" unicode="&#x1ee1;" horiz-adv-x="577" 
d="M570 605v-24q0 -43 -7.5 -65.5t-27 -33.5t-59.5 -13q23 -27 29.5 -74t6.5 -140q0 -117 -12.5 -168.5t-58.5 -73t-152 -21.5q-107 0 -153 21.5t-58.5 73t-12.5 168.5t12.5 168.5t58.5 73t153 21.5q71 0 108 -8h58q25 0 37 5.5t15.5 18t3.5 39.5v32h59zM390 79
q28 13 34.5 47.5t6.5 128.5t-6.5 128.5t-34.5 47.5t-101 13t-101.5 -13t-35 -47.5t-6.5 -128.5t6.5 -128.5t35 -47.5t101.5 -13t101 13zM464 675q-5 -24 -20.5 -36t-47.5 -12q-26 0 -51.5 5.5t-67.5 17.5q-61 19 -91 19q-21 0 -26 -10.5t-5 -42.5h-47q0 44 5 68t20.5 36.5
t47.5 12.5q26 0 50.5 -5.5t68.5 -18.5q5 -1 25.5 -7t37 -9t28.5 -3q21 0 26 11t5 43h47q0 -45 -5 -69z" />
    <glyph glyph-name="uni1EE2" unicode="&#x1ee2;" horiz-adv-x="718" 
d="M664 783v-24q0 -40 -6 -62.5t-23.5 -34t-50.5 -14.5q37 -33 47 -98t10 -206q0 -163 -15.5 -230.5t-73 -94.5t-193.5 -27q-137 0 -194 27t-72.5 94.5t-15.5 230.5t15.5 230.5t72.5 94.5t194 27q84 0 129 -8h61q25 0 37 5.5t15.5 18t3.5 39.5v32h59zM497 85q36 13 47 65
t11 194t-11 194t-47 65t-138 13t-138.5 -13t-47.5 -65t-11 -194t11 -194t47.5 -65t138.5 -13t138 13zM312 -165v103h95v-103h-95z" />
    <glyph glyph-name="uni1EE3" unicode="&#x1ee3;" horiz-adv-x="577" 
d="M570 605v-24q0 -43 -7.5 -65.5t-27 -33.5t-59.5 -13q23 -27 29.5 -74t6.5 -140q0 -117 -12.5 -168.5t-58.5 -73t-152 -21.5q-107 0 -153 21.5t-58.5 73t-12.5 168.5t12.5 168.5t58.5 73t153 21.5q71 0 108 -8h58q25 0 37 5.5t15.5 18t3.5 39.5v32h59zM390 79
q28 13 34.5 47.5t6.5 128.5t-6.5 128.5t-34.5 47.5t-101 13t-101.5 -13t-35 -47.5t-6.5 -128.5t6.5 -128.5t35 -47.5t101.5 -13t101 13zM242 -165v103h95v-103h-95z" />
    <glyph glyph-name="uni1EE4" unicode="&#x1ee4;" horiz-adv-x="709" 
d="M617 688v-387q0 -134 -17 -196.5t-71 -87.5t-174 -25t-174 25.5t-71.5 87.5t-17.5 196v387h85v-420q0 -90 10 -128t46 -53t122 -15t121.5 15t45 52.5t9.5 128.5v420h86zM308 -165v103h95v-103h-95z" />
    <glyph glyph-name="uni1EE5" unicode="&#x1ee5;" horiz-adv-x="599" 
d="M436 72h-6q-17 -39 -56 -59.5t-113 -20.5q-73 0 -110.5 21t-50.5 62.5t-13 115.5v319h81v-287q0 -72 8.5 -102t33.5 -40t84 -10q63 0 92.5 20t37.5 55.5t8 100.5v263h81v-510h-73zM232 -165v103h95v-103h-95z" />
    <glyph glyph-name="uni1EE6" unicode="&#x1ee6;" horiz-adv-x="709" 
d="M617 688v-387q0 -134 -17 -196.5t-71 -87.5t-174 -25t-174 25.5t-71.5 87.5t-17.5 196v387h85v-420q0 -90 10 -128t46 -53t122 -15t121.5 15t45 52.5t9.5 128.5v420h86zM302 740q0 27 9 37.5t36 18.5l22 6q34 9 43 16t9 25t-8.5 26t-25 9.5t-54.5 1.5q-49 0 -102 -5v46
q56 7 116 7q49 0 76 -5t41 -22t14 -52t-12.5 -50.5t-49.5 -25.5l-24 -6q-20 -6 -28.5 -9.5t-10.5 -9t-2 -17.5h-49v9z" />
    <glyph glyph-name="uni1EE7" unicode="&#x1ee7;" horiz-adv-x="599" 
d="M436 72h-6q-17 -39 -56 -59.5t-113 -20.5q-73 0 -110.5 21t-50.5 62.5t-13 115.5v319h81v-287q0 -72 8.5 -102t33.5 -40t84 -10q63 0 92.5 20t37.5 55.5t8 100.5v263h81v-510h-73zM247 616q0 27 9 37.5t36 18.5l22 7q34 8 43 15t9 25q0 25 -15.5 31t-63.5 6
q-49 0 -111 -5v46q51 8 116 8q49 0 76 -5.5t41 -22.5t14 -51q0 -35 -12.5 -50.5t-49.5 -25.5l-24 -7q-21 -6 -29 -9.5t-10 -9t-2 -17.5h-49v9z" />
    <glyph glyph-name="uni1EE8" unicode="&#x1ee8;" horiz-adv-x="709" 
d="M723 783v-24q0 -45 -8 -68t-30.5 -33t-67.5 -11v-346q0 -134 -17 -196.5t-71 -87.5t-174 -25t-174 25.5t-71.5 87.5t-17.5 196v387h85v-420q0 -90 10 -128t46 -53t122 -15t121.5 15t45 52.5t9.5 128.5v420h77q25 0 37 5.5t15.5 18t3.5 39.5v32h59zM320 747v5l101 136h88
v-5l-129 -136h-60z" />
    <glyph glyph-name="uni1EE9" unicode="&#x1ee9;" horiz-adv-x="599" 
d="M613 605v-24q0 -44 -7.5 -66.5t-29 -33t-63.5 -12.5v-469h-73l-4 72h-6q-17 -39 -56 -59.5t-113 -20.5q-73 0 -110.5 21t-50.5 62.5t-13 115.5v319h81v-287q0 -72 8.5 -102t33.5 -40t84 -10q63 0 92.5 20t37.5 55.5t8 100.5v263h66q25 0 37 5.5t15.5 18t3.5 39.5v32h59z
M263 602v5l101 136h88v-5l-129 -136h-60z" />
    <glyph glyph-name="uni1EEA" unicode="&#x1eea;" horiz-adv-x="709" 
d="M723 783v-24q0 -45 -8 -68t-30.5 -33t-67.5 -11v-346q0 -134 -17 -196.5t-71 -87.5t-174 -25t-174 25.5t-71.5 87.5t-17.5 196v387h85v-420q0 -90 10 -128t46 -53t122 -15t121.5 15t45 52.5t9.5 128.5v420h77q25 0 37 5.5t15.5 18t3.5 39.5v32h59zM333 747l-129 136v5h88
l101 -136v-5h-60z" />
    <glyph glyph-name="uni1EEB" unicode="&#x1eeb;" horiz-adv-x="599" 
d="M613 605v-24q0 -44 -7.5 -66.5t-29 -33t-63.5 -12.5v-469h-73l-4 72h-6q-17 -39 -56 -59.5t-113 -20.5q-73 0 -110.5 21t-50.5 62.5t-13 115.5v319h81v-287q0 -72 8.5 -102t33.5 -40t84 -10q63 0 92.5 20t37.5 55.5t8 100.5v263h66q25 0 37 5.5t15.5 18t3.5 39.5v32h59z
M282 602l-129 136v5h88l101 -136v-5h-60z" />
    <glyph glyph-name="uni1EEC" unicode="&#x1eec;" horiz-adv-x="709" 
d="M723 783v-24q0 -45 -8 -68t-30.5 -33t-67.5 -11v-346q0 -134 -17 -196.5t-71 -87.5t-174 -25t-174 25.5t-71.5 87.5t-17.5 196v387h85v-420q0 -90 10 -128t46 -53t122 -15t121.5 15t45 52.5t9.5 128.5v420h77q25 0 37 5.5t15.5 18t3.5 39.5v32h59zM302 740q0 27 9 37.5
t36 18.5l22 6q34 9 43 16t9 25t-8.5 26t-25 9.5t-54.5 1.5q-49 0 -102 -5v46q56 7 116 7q49 0 76 -5t41 -22t14 -52t-12.5 -50.5t-49.5 -25.5l-24 -6q-20 -6 -28.5 -9.5t-10.5 -9t-2 -17.5h-49v9z" />
    <glyph glyph-name="uni1EED" unicode="&#x1eed;" horiz-adv-x="599" 
d="M613 605v-24q0 -44 -7.5 -66.5t-29 -33t-63.5 -12.5v-469h-73l-4 72h-6q-17 -39 -56 -59.5t-113 -20.5q-73 0 -110.5 21t-50.5 62.5t-13 115.5v319h81v-287q0 -72 8.5 -102t33.5 -40t84 -10q63 0 92.5 20t37.5 55.5t8 100.5v263h66q25 0 37 5.5t15.5 18t3.5 39.5v32h59z
M247 616q0 27 9 37.5t36 18.5l22 7q34 8 43 15t9 25q0 25 -15.5 31t-63.5 6q-49 0 -111 -5v46q51 8 116 8q49 0 76 -5.5t41 -22.5t14 -51q0 -35 -12.5 -50.5t-49.5 -25.5l-24 -7q-21 -6 -29 -9.5t-10 -9t-2 -17.5h-49v9z" />
    <glyph glyph-name="uni1EEE" unicode="&#x1eee;" horiz-adv-x="709" 
d="M723 783v-24q0 -45 -8 -68t-30.5 -33t-67.5 -11v-346q0 -134 -17 -196.5t-71 -87.5t-174 -25t-174 25.5t-71.5 87.5t-17.5 196v387h85v-420q0 -90 10 -128t46 -53t122 -15t121.5 15t45 52.5t9.5 128.5v420h77q25 0 37 5.5t15.5 18t3.5 39.5v32h59zM530 820
q-5 -24 -20.5 -36t-47.5 -12q-26 0 -51.5 5.5t-67.5 17.5q-61 19 -91 19q-21 0 -26 -10.5t-5 -42.5h-47q0 44 5 68t20.5 36.5t47.5 12.5q26 0 50.5 -5.5t68.5 -18.5q5 -1 25.5 -7t37 -9t28.5 -3q21 0 26 11t5 43h47q0 -45 -5 -69z" />
    <glyph glyph-name="uni1EEF" unicode="&#x1eef;" horiz-adv-x="599" 
d="M613 605v-24q0 -44 -7.5 -66.5t-29 -33t-63.5 -12.5v-469h-73l-4 72h-6q-17 -39 -56 -59.5t-113 -20.5q-73 0 -110.5 21t-50.5 62.5t-13 115.5v319h81v-287q0 -72 8.5 -102t33.5 -40t84 -10q63 0 92.5 20t37.5 55.5t8 100.5v263h66q25 0 37 5.5t15.5 18t3.5 39.5v32h59z
M475 675q-5 -24 -20.5 -36t-47.5 -12q-26 0 -51.5 5.5t-67.5 17.5q-61 19 -91 19q-21 0 -26 -10.5t-5 -42.5h-47q0 44 5 68t20.5 36.5t47.5 12.5q26 0 50.5 -5.5t68.5 -18.5q5 -1 25.5 -7t37 -9t28.5 -3q21 0 26 11t5 43h47q0 -45 -5 -69z" />
    <glyph glyph-name="uni1EF0" unicode="&#x1ef0;" horiz-adv-x="709" 
d="M723 783v-24q0 -45 -8 -68t-30.5 -33t-67.5 -11v-346q0 -134 -17 -196.5t-71 -87.5t-174 -25t-174 25.5t-71.5 87.5t-17.5 196v387h85v-420q0 -90 10 -128t46 -53t122 -15t121.5 15t45 52.5t9.5 128.5v420h77q25 0 37 5.5t15.5 18t3.5 39.5v32h59zM308 -165v103h95v-103
h-95z" />
    <glyph glyph-name="uni1EF1" unicode="&#x1ef1;" horiz-adv-x="599" 
d="M613 605v-24q0 -44 -7.5 -66.5t-29 -33t-63.5 -12.5v-469h-73l-4 72h-6q-17 -39 -56 -59.5t-113 -20.5q-73 0 -110.5 21t-50.5 62.5t-13 115.5v319h81v-287q0 -72 8.5 -102t33.5 -40t84 -10q63 0 92.5 20t37.5 55.5t8 100.5v263h66q25 0 37 5.5t15.5 18t3.5 39.5v32h59z
M232 -165v103h95v-103h-95z" />
    <glyph glyph-name="Ygrave" unicode="&#x1ef2;" horiz-adv-x="610" 
d="M261 0v260l-249 428h92l199 -335h7l198 335h90l-251 -428v-260h-86zM283 747l-129 136v5h88l101 -136v-5h-60z" />
    <glyph glyph-name="ygrave" unicode="&#x1ef3;" horiz-adv-x="599" 
d="M111 -197v70q110 -5 154 -5q77 0 112 15.5t45 49t10 105.5v30h-6q-15 -34 -53.5 -53.5t-111.5 -19.5t-110.5 20.5t-50.5 62t-13 114.5v318h81v-285q0 -72 8.5 -102t33.5 -40t84 -10q63 0 92.5 20t37.5 55t8 100v262h81v-448q0 -106 -16 -161t-65 -81t-149 -26
q-107 0 -172 9zM282 602l-129 136v5h88l101 -136v-5h-60z" />
    <glyph glyph-name="uni1EF4" unicode="&#x1ef4;" horiz-adv-x="610" 
d="M261 0v260l-249 428h92l199 -335h7l198 335h90l-251 -428v-260h-86zM258 -165v103h95v-103h-95z" />
    <glyph glyph-name="uni1EF5" unicode="&#x1ef5;" horiz-adv-x="599" 
d="M111 -197v70q110 -5 154 -5q77 0 112 15.5t45 49t10 105.5v30h-6q-15 -34 -53.5 -53.5t-111.5 -19.5t-110.5 20.5t-50.5 62t-13 114.5v318h81v-285q0 -72 8.5 -102t33.5 -40t84 -10q63 0 92.5 20t37.5 55t8 100v262h81v-448q0 -106 -16 -161t-65 -81t-149 -26
q-107 0 -172 9zM236 -371v103h95v-103h-95z" />
    <glyph glyph-name="uni1EF6" unicode="&#x1ef6;" horiz-adv-x="610" 
d="M261 0v260l-249 428h92l199 -335h7l198 335h90l-251 -428v-260h-86zM252 740q0 27 9 37.5t36 18.5l22 6q34 9 43 16t9 25t-8.5 26t-25 9.5t-54.5 1.5q-49 0 -102 -5v46q56 7 116 7q49 0 76 -5t41 -22t14 -52t-12.5 -50.5t-49.5 -25.5l-24 -6q-20 -6 -28.5 -9.5t-10.5 -9
t-2 -17.5h-49v9z" />
    <glyph glyph-name="uni1EF7" unicode="&#x1ef7;" horiz-adv-x="599" 
d="M111 -197v70q110 -5 154 -5q77 0 112 15.5t45 49t10 105.5v30h-6q-15 -34 -53.5 -53.5t-111.5 -19.5t-110.5 20.5t-50.5 62t-13 114.5v318h81v-285q0 -72 8.5 -102t33.5 -40t84 -10q63 0 92.5 20t37.5 55t8 100v262h81v-448q0 -106 -16 -161t-65 -81t-149 -26
q-107 0 -172 9zM247 616q0 27 9 37.5t36 18.5l22 7q34 8 43 15t9 25q0 25 -15.5 31t-63.5 6q-49 0 -111 -5v46q51 8 116 8q49 0 76 -5.5t41 -22.5t14 -51q0 -35 -12.5 -50.5t-49.5 -25.5l-24 -7q-21 -6 -29 -9.5t-10 -9t-2 -17.5h-49v9z" />
    <glyph glyph-name="uni1EF8" unicode="&#x1ef8;" horiz-adv-x="610" 
d="M261 0v260l-249 428h92l199 -335h7l198 335h90l-251 -428v-260h-86zM480 820q-5 -24 -20.5 -36t-47.5 -12q-26 0 -51.5 5.5t-67.5 17.5q-61 19 -91 19q-21 0 -26 -10.5t-5 -42.5h-47q0 44 5 68t20.5 36.5t47.5 12.5q26 0 50.5 -5.5t68.5 -18.5q5 -1 25.5 -7t37 -9
t28.5 -3q21 0 26 11t5 43h47q0 -45 -5 -69z" />
    <glyph glyph-name="uni1EF9" unicode="&#x1ef9;" horiz-adv-x="599" 
d="M111 -197v70q110 -5 154 -5q77 0 112 15.5t45 49t10 105.5v30h-6q-15 -34 -53.5 -53.5t-111.5 -19.5t-110.5 20.5t-50.5 62t-13 114.5v318h81v-285q0 -72 8.5 -102t33.5 -40t84 -10q63 0 92.5 20t37.5 55t8 100v262h81v-448q0 -106 -16 -161t-65 -81t-149 -26
q-107 0 -172 9zM475 675q-5 -24 -20.5 -36t-47.5 -12q-26 0 -51.5 5.5t-67.5 17.5q-61 19 -91 19q-21 0 -26 -10.5t-5 -42.5h-47q0 44 5 68t20.5 36.5t47.5 12.5q26 0 50.5 -5.5t68.5 -18.5q5 -1 25.5 -7t37 -9t28.5 -3q21 0 26 11t5 43h47q0 -45 -5 -69z" />
    <glyph glyph-name="uni2002" unicode="&#x2002;" horiz-adv-x="300" 
 />
    <glyph glyph-name="endash" unicode="&#x2013;" horiz-adv-x="472" 
d="M57 268v72h358v-72h-358z" />
    <glyph glyph-name="emdash" unicode="&#x2014;" horiz-adv-x="873" 
d="M57 268v72h759v-72h-759z" />
    <glyph glyph-name="underscoredbl" unicode="&#x2017;" horiz-adv-x="359" 
d="M0 -274v71h359v-71h-359zM0 -165v71h359v-71h-359z" />
    <glyph glyph-name="quoteleft" unicode="&#x2018;" horiz-adv-x="219" 
d="M64 551q0 58 8 86.5t31.5 39.5t72.5 11v-40q-36 0 -47 -12t-11 -50v-17h37v-99h-91v81z" />
    <glyph glyph-name="quoteright" unicode="&#x2019;" horiz-adv-x="219" 
d="M90 522q11 12 11 50v17h-37v99h91v-81q0 -59 -8 -87t-31 -39t-73 -11v40q36 0 47 12z" />
    <glyph glyph-name="quotesinglbase" unicode="&#x201a;" horiz-adv-x="219" 
d="M90 -67q11 12 11 50v17h-37v99h91v-81q0 -59 -8 -87t-31 -39t-73 -11v40q36 0 47 12z" />
    <glyph glyph-name="quotedblleft" unicode="&#x201c;" horiz-adv-x="382" 
d="M64 551q0 58 8 86.5t31.5 39.5t72.5 11v-40q-36 0 -47 -12t-11 -50v-17h37v-99h-91v81zM226 551q0 59 8.5 87t31.5 39t73 11v-40q-37 0 -48 -12t-11 -50v-17h38v-99h-92v81z" />
    <glyph glyph-name="quotedblright" unicode="&#x201d;" horiz-adv-x="382" 
d="M90 522q11 12 11 50v17h-37v99h91v-81q0 -59 -8 -87t-31 -39t-73 -11v40q36 0 47 12zM253 522q11 12 11 50v17h-38v99h92v-81q0 -58 -8 -86.5t-31.5 -39.5t-72.5 -11v40q36 0 47 12z" />
    <glyph glyph-name="quotedblbase" unicode="&#x201e;" horiz-adv-x="382" 
d="M90 -67q11 12 11 50v17h-37v99h91v-81q0 -59 -8 -87t-31 -39t-73 -11v40q36 0 47 12zM253 -67q11 12 11 50v17h-38v99h92v-81q0 -58 -8 -86.5t-31.5 -39.5t-72.5 -11v40q36 0 47 12z" />
    <glyph glyph-name="dagger" unicode="&#x2020;" horiz-adv-x="450" 
d="M199 0l-7 447l-136 7v55l136 8l7 171h52l7 -171l136 -8v-55l-136 -7l-7 -447h-52z" />
    <glyph glyph-name="daggerdbl" unicode="&#x2021;" horiz-adv-x="450" 
d="M199 0l-7 170l-136 8v55l136 8v206l-136 7v55l136 8l7 171h52l7 -171l136 -8v-55l-136 -7v-206l136 -8v-55l-136 -8l-7 -170h-52z" />
    <glyph glyph-name="bullet" unicode="&#x2022;" horiz-adv-x="369" 
d="M288 268q-6 -21 -28 -29t-77 -8q-54 0 -75.5 8t-27 29t-5.5 74q0 55 5.5 76.5t27.5 29.5t75 8q55 0 77 -8t28 -29.5t6 -76.5q0 -53 -6 -74z" />
    <glyph glyph-name="ellipsis" unicode="&#x2026;" horiz-adv-x="668" 
d="M64 0v102h95v-102h-95zM287 0v102h95v-102h-95zM510 0v102h94v-102h-94z" />
    <glyph glyph-name="perthousand" unicode="&#x2030;" horiz-adv-x="963" 
d="M96.5 374q-25.5 14 -33 47t-7.5 107t7.5 107t33 47t83.5 14t83.5 -14t32.5 -47t7 -107q0 -75 -7 -107.5t-32.5 -46.5t-83.5 -14t-83.5 14zM73 0l462 688h65l-461 -688h-66zM228.5 414.5q12.5 5.5 16.5 28.5t4 85q0 64 -3.5 86t-16 27.5t-49.5 5.5q-36 0 -49 -5.5
t-17 -28.5t-4 -85t4 -85t17 -28.5t49 -5.5t48.5 5.5zM409.5 6q-25.5 14 -32.5 46.5t-7 107.5q0 74 7 107t32.5 47t84.5 14q58 0 83.5 -14t32.5 -47t7 -107q0 -75 -7 -107.5t-32.5 -46.5t-83.5 -14q-59 0 -84.5 14zM699.5 6q-25.5 14 -32.5 46.5t-7 107.5q0 74 7 107t32.5 47
t83.5 14q59 0 84.5 -14t32.5 -47t7 -107q0 -75 -7 -107.5t-32.5 -46.5t-84.5 -14q-58 0 -83.5 14zM542.5 46.5q12.5 5.5 16.5 28.5t4 85q0 64 -3.5 86t-16 27.5t-49.5 5.5q-36 0 -49 -5.5t-17 -28.5t-4 -85t4 -85t17 -28.5t49 -5.5t48.5 5.5zM832 46.5q13 5.5 17 28.5t4 85
q0 64 -3.5 86t-16 27.5t-50.5 5.5q-36 0 -49 -6t-17 -28.5t-4 -84.5t4 -84.5t17 -28.5t49 -6t49 5.5z" />
    <glyph glyph-name="minute" unicode="&#x2032;" horiz-adv-x="209" 
d="M54 382l21 306h78l-9 -134l-34 -172h-56z" />
    <glyph glyph-name="second" unicode="&#x2033;" horiz-adv-x="366" 
d="M211 382l21 306h78l-9 -134l-34 -172h-56zM54 382l21 306h78l-9 -134l-34 -172h-56z" />
    <glyph glyph-name="guilsinglleft" unicode="&#x2039;" horiz-adv-x="306" 
d="M178 99l-132 205l132 206h58l-113 -206l113 -205h-58z" />
    <glyph glyph-name="guilsinglright" unicode="&#x203a;" horiz-adv-x="306" 
d="M69 99l114 205l-114 206h59l132 -206l-132 -205h-59z" />
    <glyph glyph-name="exclamdbl" unicode="&#x203c;" horiz-adv-x="459" 
d="M302 290q-12 238 -12 302v96h94v-96q0 -73 -10 -259q-1 -39 -3 -73.5t-2 -58.5h-63zM290 0v102h94v-102h-94zM92 290q-12 238 -12 302v96h94v-96q0 -73 -10 -259q-1 -39 -3 -73.5t-2 -58.5h-63zM80 0v102h94v-102h-94z" />
    <glyph glyph-name="fraction" unicode="&#x2044;" horiz-adv-x="143" 
d="M-186 0l450 688h65l-450 -688h-65z" />
    <glyph glyph-name="Euro" unicode="&#x20ac;" horiz-adv-x="620" 
d="M236 11q-55 19 -79.5 71t-29.5 158h-90v58h88v95h-88v57h90q6 101 31 153t80.5 72.5t161.5 20.5q74 0 159 -15v-75q-18 3 -60.5 6.5t-77.5 3.5q-88 0 -128.5 -10.5t-58 -44.5t-21.5 -111h297v-57h-298v-95h298v-58h-297q4 -78 21.5 -112.5t57.5 -45t129 -10.5
q42 0 82.5 3.5t59.5 6.5v-78q-5 -1 -52 -6.5t-111 -5.5q-109 0 -164 19z" />
    <glyph glyph-name="uni20B2" unicode="&#x20b2;" horiz-adv-x="615" 
d="M535 381v-84q0 -95 -12 -139t-51.5 -64t-128.5 -23v-79h-63v79q-84 3 -126.5 26t-59.5 79.5t-17 167.5q0 110 16.5 166t59 80t127.5 27v79h63v-79q91 -3 168 -20v-75q-110 16 -168 16v-157h192zM170.5 221q8.5 -39 32.5 -53.5t77 -16.5v386q-54 -2 -78 -16t-32 -52.5
t-8 -124.5q0 -84 8.5 -123zM450 303h-107v-152q52 2 73.5 11.5t27.5 33.5t6 81v26z" />
    <glyph glyph-name="uni2113" unicode="&#x2113;" horiz-adv-x="476" 
d="M214.5 98.5q20.5 -24.5 56.5 -24.5q28 0 58 11.5t75 40.5v-88q-36 -22 -69.5 -33t-69.5 -11q-68 0 -107 38t-55 125q-30 -7 -71 -10v81q22 1 62 9q-3 42 -3 91q0 186 44.5 275.5t148.5 89.5q61 0 94.5 -38.5t33.5 -105.5q0 -70 -28 -140.5t-79.5 -129.5t-119.5 -93
q9 -63 29.5 -87.5zM199.5 546.5q-22.5 -66.5 -22.5 -211.5q0 -42 1 -60q70 46 112 122t42 153q0 63 -55 63t-77.5 -66.5z" />
    <glyph glyph-name="uni2116" unicode="&#x2116;" horiz-adv-x="1068" 
d="M770.5 410q-27.5 13 -35 42.5t-7.5 93.5t7.5 93.5t35 43t89.5 13.5t89.5 -13.5t35 -43t7.5 -93.5t-7.5 -93.5t-35 -42.5t-89.5 -13t-89.5 13zM550 0l-363 526h-4v-526h-83v688h88l358 -514h4v514h82v-688h-82zM912.5 452.5q14.5 7.5 18 26t3.5 67.5t-3.5 67.5t-18 26
t-52.5 7.5t-53 -7.5t-18.5 -26t-3.5 -67.5t3.5 -67.5t18.5 -26t53 -7.5t52.5 7.5zM738 217v71h240v-71h-240z" />
    <glyph glyph-name="trademark" unicode="&#x2122;" horiz-adv-x="747" 
d="M143 386v257h-96v45h240v-45h-98v-257h-46zM340 386v302h58l103 -224h5l101 224h57v-302h-44v223h-4l-99 -223h-30l-100 222h-4v-222h-43z" />
    <glyph glyph-name="uni2126" unicode="&#x2126;" horiz-adv-x="718" 
d="M78 80h11l115 -20v6q-53 18 -80.5 57.5t-37 97.5t-9.5 145q0 139 16.5 204.5t75.5 95.5t190 30t190 -30t75.5 -95.5t16.5 -204.5q0 -87 -10 -145t-37.5 -97.5t-79.5 -57.5v-6l115 20h11v-80h-225v74q63 8 92 35.5t38 83t9 168.5q0 123 -11.5 172.5t-50 66t-133.5 16.5
q-96 0 -134.5 -16.5t-50 -66t-11.5 -172.5q0 -112 9.5 -168t38.5 -83.5t92 -35.5v-74h-225v80z" />
    <glyph glyph-name="estimated" unicode="&#x212e;" horiz-adv-x="718" 
d="M175 112q12 -57 50 -71.5t144 -14.5q97 0 140.5 10.5t63 46t25.5 117.5h36q-6 -92 -28.5 -134.5t-77.5 -58t-169 -15.5q-137 0 -194 27t-72.5 94.5t-15.5 230.5t15.5 230.5t72.5 94.5t194 27q136 0 193.5 -27t73 -94.5t15.5 -230.5v-21h-479q1 -154 13 -211zM222 647
q-36 -15 -48 -73.5t-12 -216.5h393q0 158 -11.5 216.5t-48 73.5t-136.5 15q-101 0 -137 -15z" />
    <glyph glyph-name="uni2153" unicode="&#x2153;" horiz-adv-x="788" 
d="M111 318v294l-76 -35v60l94 51h42v-370h-60zM71 0l449 688h65l-450 -688h-64zM572 50q48 0 67.5 10t19.5 44q0 32 -13 44.5t-47 12.5h-76v53h76q26 0 41 11.5t15 42.5q0 33 -19 43t-70 10q-46 0 -104 -8v56q58 10 114 10q79 0 110 -24.5t31 -78.5q0 -62 -48 -84v-4
q53 -21 53 -87q0 -37 -11.5 -60t-44 -36t-91.5 -13q-51 0 -115 11v54q84 -7 112 -7z" />
    <glyph glyph-name="uni2154" unicode="&#x2154;" horiz-adv-x="857" 
d="M313 318h-263v48q0 44 3 65t14 34t36 25l109 46q24 10 32 20.5t8 34.5q0 21 -7 30.5t-23.5 13t-50.5 3.5q-29 0 -114 -9v57q65 10 128 10q42 0 68.5 -6.5t43 -28t16.5 -65.5q0 -46 -15.5 -70t-51.5 -39l-30 -12q-13 -5 -31.5 -12.5t-43.5 -17.5q-20 -8 -26 -18t-6 -33
v-17h204v-59zM616 688h65l-450 -688h-65zM790 101q0 -37 -11.5 -60t-43.5 -36t-91 -13q-52 0 -116 11v54q86 -7 112 -7q48 0 68 10t20 44q0 32 -13.5 44.5t-47.5 12.5h-76v53h76q26 0 41.5 11.5t15.5 42.5q0 33 -19.5 43t-69.5 10q-46 0 -105 -8v56q58 10 115 10
q78 0 109.5 -24.5t31.5 -78.5q0 -63 -49 -84v-4q53 -21 53 -87z" />
    <glyph glyph-name="oneeighth" unicode="&#x215b;" horiz-adv-x="809" 
d="M111 318v294l-76 -35v60l94 51h42v-370h-60zM71 0l449 688h65l-450 -688h-64zM490.5 7.5q-33.5 11.5 -46 33.5t-12.5 60q0 45 17 64t55 27v2q-36 6 -52.5 27t-16.5 62q0 36 13.5 57.5t46.5 31.5t92 10q58 0 91 -10t46.5 -31.5t13.5 -57.5q0 -41 -16 -62t-52 -27v-2
q38 -8 55 -27t17 -64q0 -38 -12.5 -60t-46 -33.5t-96.5 -11.5t-96.5 11.5zM644 219.5q19 4.5 26.5 16.5t7.5 37t-7 37t-26 17t-58 5t-58 -5t-26 -17t-7 -37t7.5 -37t26.5 -16.5t57 -4.5t57 4.5zM645.5 50.5q19.5 4.5 28 17t8.5 38.5q0 27 -8 40t-27.5 17.5t-59.5 4.5
q-41 0 -60 -4.5t-26.5 -17t-7.5 -40.5q0 -26 8 -38.5t27.5 -17t58.5 -4.5t58.5 4.5z" />
    <glyph glyph-name="threeeighths" unicode="&#x215c;" horiz-adv-x="890" 
d="M35 313v48q78 -6 113 -6q55 0 77 10.5t22 47.5q0 35 -15.5 48t-55.5 13h-75v50h75q32 0 49.5 12.5t17.5 45.5q0 25 -9.5 37t-30 15.5t-60.5 3.5q-58 0 -106 -6v49q58 9 119 9q83 0 115.5 -22.5t32.5 -76.5q0 -40 -17 -61t-51 -28v-2q37 -7 54.5 -27t17.5 -64
q0 -37 -12.5 -59.5t-45.5 -34t-95 -11.5q-59 0 -120 9zM165 0l450 688h65l-450 -688h-65zM595.5 7.5q-33.5 11.5 -46 33.5t-12.5 60q0 45 17 64t55 27v2q-36 6 -52.5 27t-16.5 62q0 36 13.5 57.5t46.5 31.5t92 10q58 0 91 -10t46.5 -31.5t13.5 -57.5q0 -41 -16 -62t-52 -27
v-2q38 -8 55 -27t17 -64q0 -38 -12.5 -60t-46 -33.5t-96.5 -11.5t-96.5 11.5zM749 219.5q19 4.5 26.5 16.5t7.5 37t-7 37t-26 17t-58 5t-58 -5t-26 -17t-7 -37t7.5 -37t26.5 -16.5t57 -4.5t57 4.5zM750.5 50.5q19.5 4.5 28 17t8.5 38.5q0 27 -8 40t-27.5 17.5t-59.5 4.5
q-41 0 -60 -4.5t-26.5 -17t-7.5 -40.5q0 -26 8 -38.5t27.5 -17t58.5 -4.5t58.5 4.5z" />
    <glyph glyph-name="fiveeighths" unicode="&#x215d;" horiz-adv-x="902" 
d="M160 355q43 0 64 5.5t29 19.5t8 42q0 29 -8.5 42.5t-30.5 18t-69 4.5q-28 0 -100 -6v204h241v-52h-187v-101q34 6 86 6q54 0 82 -12.5t37.5 -36t9.5 -62.5q0 -46 -13 -72t-45.5 -38.5t-94.5 -12.5q-57 0 -120 9v48q74 -6 111 -6zM177 0l450 688h65l-450 -688h-65z
M607.5 7.5q-33.5 11.5 -46 33.5t-12.5 60q0 45 17 64t55 27v2q-36 6 -52.5 27t-16.5 62q0 36 13.5 57.5t46.5 31.5t92 10q58 0 91 -10t46.5 -31.5t13.5 -57.5q0 -41 -16 -62t-52 -27v-2q38 -8 55 -27t17 -64q0 -38 -12.5 -60t-46 -33.5t-96.5 -11.5t-96.5 11.5zM761 219.5
q19 4.5 26.5 16.5t7.5 37t-7 37t-26 17t-58 5t-58 -5t-26 -17t-7 -37t7.5 -37t26.5 -16.5t57 -4.5t57 4.5zM762.5 50.5q19.5 4.5 28 17t8.5 38.5q0 27 -8 40t-27.5 17.5t-59.5 4.5q-41 0 -60 -4.5t-26.5 -17t-7.5 -40.5q0 -26 8 -38.5t27.5 -17t58.5 -4.5t58.5 4.5z" />
    <glyph glyph-name="seveneighths" unicode="&#x215e;" horiz-adv-x="822" 
d="M78 308l158 325h-212v52h277v-46l-157 -331h-66zM97 0l450 688h65l-450 -688h-65zM527.5 7.5q-33.5 11.5 -46 33.5t-12.5 60q0 45 17 64t55 27v2q-36 6 -52.5 27t-16.5 62q0 36 13.5 57.5t46.5 31.5t92 10q58 0 91 -10t46.5 -31.5t13.5 -57.5q0 -41 -16 -62t-52 -27v-2
q38 -8 55 -27t17 -64q0 -38 -12.5 -60t-46 -33.5t-96.5 -11.5t-96.5 11.5zM681 219.5q19 4.5 26.5 16.5t7.5 37t-7 37t-26 17t-58 5t-58 -5t-26 -17t-7 -37t7.5 -37t26.5 -16.5t57 -4.5t57 4.5zM682.5 50.5q19.5 4.5 28 17t8.5 38.5q0 27 -8 40t-27.5 17.5t-59.5 4.5
q-41 0 -60 -4.5t-26.5 -17t-7.5 -40.5q0 -26 8 -38.5t27.5 -17t58.5 -4.5t58.5 4.5z" />
    <glyph glyph-name="arrowleft" unicode="&#x2190;" horiz-adv-x="883" 
d="M284 270l38 -97l-267 131l267 132l-38 -98h544v-68h-544z" />
    <glyph glyph-name="arrowup" unicode="&#x2191;" horiz-adv-x="395" 
d="M166 -82v536l-97 -37l129 274l128 -274l-96 37v-536h-64z" />
    <glyph glyph-name="arrowright" unicode="&#x2192;" horiz-adv-x="883" 
d="M557 173l37 97h-539v68h539l-37 98l271 -132z" />
    <glyph glyph-name="arrowdown" unicode="&#x2193;" horiz-adv-x="395" 
d="M198 -85l-129 274l97 -37v536h64v-536l96 37z" />
    <glyph glyph-name="arrowboth" unicode="&#x2194;" horiz-adv-x="883" 
d="M326 173l-271 131l271 132l-37 -98h305l-37 98l271 -132l-271 -131l37 97h-305z" />
    <glyph glyph-name="arrowupdn" unicode="&#x2195;" horiz-adv-x="395" 
d="M198 -85l-129 274l97 -37v307l-97 -37l129 274l128 -274l-96 37v-307l96 37z" />
    <glyph glyph-name="arrowupdnbse" unicode="&#x21a8;" horiz-adv-x="395" 
d="M198 -85l-129 274l97 -37v307l-97 -37l129 274l128 -274l-96 37v-307l96 37zM55 -187v64h285v-64h-285z" />
    <glyph glyph-name="partialdiff" unicode="&#x2202;" horiz-adv-x="578" 
d="M137 14.5q-46 22.5 -59 74t-13 165.5q0 108 12 160.5t53.5 77.5t133.5 25q88 0 135 -24l4 2q-26 76 -67.5 135t-104.5 109v4h90q68 -52 114 -129.5t62 -169.5q15 -80 15 -173q0 -126 -12 -179.5t-57.5 -76.5t-153.5 -23q-106 0 -152 22.5zM390 78.5q28 12.5 34.5 47
t6.5 128.5q0 84 -6.5 119.5t-36 53t-99.5 17.5q-73 0 -101.5 -13.5t-35 -48t-6.5 -128.5t6.5 -128.5t34.5 -47t102 -12.5q73 0 101 12.5z" />
    <glyph glyph-name="uni2206" unicode="&#x2206;" horiz-adv-x="685" 
d="M28 0l261 688h107l261 -688h-629zM343 600h-5l-200 -520h407z" />
    <glyph glyph-name="product" unicode="&#x220f;" horiz-adv-x="732" 
d="M546 -189v797h-361v-797h-85v877h532v-877h-86z" />
    <glyph glyph-name="summation" unicode="&#x2211;" horiz-adv-x="707" 
d="M87 -189v76l315 362l-315 363v76h532v-80h-423l312 -359l-312 -358h423v-80h-532z" />
    <glyph glyph-name="minus" unicode="&#x2212;" horiz-adv-x="540" 
d="M70 217v71h400v-71h-400z" />
    <glyph glyph-name="radical" unicode="&#x221a;" horiz-adv-x="616" 
d="M284 -106l-180 357l-57 -25l-18 51l120 56l172 -345l204 782h74l-228 -876h-87z" />
    <glyph glyph-name="infinity" unicode="&#x221e;" horiz-adv-x="1038" 
d="M148 73q-48 23 -66 67.5t-18 115.5t18 115t66 67.5t136 23.5q97 0 149 -36.5t86 -101.5q35 65 87.5 101.5t149.5 36.5q88 0 135.5 -23.5t65 -67.5t17.5 -115q0 -72 -17.5 -116t-65 -67t-135.5 -23q-98 0 -150.5 36t-86.5 102q-33 -66 -85.5 -102t-149.5 -36
q-88 0 -136 23zM415 153.5q43 37.5 69 102.5q-26 65 -69 102.5t-129 37.5q-64 0 -98 -15t-46 -44.5t-12 -80.5t12 -80.5t46 -44.5t98 -15q86 0 129 37.5zM851 131q33 15 44.5 44.5t11.5 80.5t-11.5 80.5t-44.5 44.5t-97 15q-86 0 -130 -38t-68 -102q24 -64 68 -102t130 -38
q64 0 97 15z" />
    <glyph glyph-name="integral" unicode="&#x222b;" horiz-adv-x="394" 
d="M55 -123q48 0 72.5 4.5t34.5 16t10 34.5l-4 57l-39 545q-2 34 -2 41q0 55 21 81t60.5 33t117.5 7v-67q-48 0 -72.5 -4.5t-34.5 -16t-10 -34.5l2 -42l39 -547q3 -35 3 -54q0 -55 -20.5 -81t-60 -33t-117.5 -7v67z" />
    <glyph glyph-name="approxequal" unicode="&#x2248;" horiz-adv-x="497" 
d="M72 353.5q5 24.5 21 36.5t48 12q27 0 53.5 -6t66.5 -18q31 -9 51 -13.5t39 -4.5q21 0 26 10.5t5 42.5h47q0 -44 -5 -68t-20.5 -36.5t-48.5 -12.5q-27 0 -54 6t-65 18q-23 7 -47.5 13t-42.5 6q-21 0 -26 -11t-5 -43h-48q0 44 5 68.5zM72 164q5 24 21 36.5t48 12.5
q27 0 53.5 -6t66.5 -18q23 -7 47.5 -13t42.5 -6q21 0 26 11t5 43h47q0 -45 -5 -69t-20.5 -36t-48.5 -12q-27 0 -54 6t-65 18q-62 18 -90 18q-21 0 -26 -10.5t-5 -42.5h-48q0 44 5 68z" />
    <glyph glyph-name="notequal" unicode="&#x2260;" horiz-adv-x="540" 
d="M233 117l-56 -118h-59l56 118h-104v71h134l63 130h-197v71h228l58 122h59l-57 -122h112v-71h-144l-62 -130h206v-71h-237z" />
    <glyph glyph-name="lessequal" unicode="&#x2264;" horiz-adv-x="541" 
d="M471 173l-401 168v82l401 168v-75l-334 -134l334 -134v-75zM70 -1v71h401v-71h-401z" />
    <glyph glyph-name="greaterequal" unicode="&#x2265;" horiz-adv-x="541" 
d="M70 173v75l334 134l-334 134v75l400 -168v-82zM70 -1v71h400v-71h-400z" />
    <glyph glyph-name="house" unicode="&#x2302;" horiz-adv-x="744" 
d="M55 0v414l285 281h64l286 -281l-1 -414h-634zM119 59h506l1 333l-254 248l-253 -248v-333z" />
    <glyph glyph-name="lozenge" unicode="&#x25ca;" horiz-adv-x="540" 
d="M231 0l-175 344l175 344h78l175 -344l-175 -344h-78zM270 60l148 284l-148 283l-148 -283z" />
    <glyph glyph-name="uniA78B" unicode="&#xa78b;" horiz-adv-x="145" 
d="M33 282v406h79v-178l-23 -228h-56z" />
    <glyph glyph-name="uniA78C" unicode="&#xa78c;" horiz-adv-x="145" 
d="M33 282v461h79v-233l-23 -228h-56z" />
    <glyph glyph-name="uniF8FF" unicode="&#xf8ff;" horiz-adv-x="841" 
d="M72 0v698h697v-698h-697zM594.5 473.5q-23.5 41.5 -68 65.5t-104.5 24q-61 0 -105.5 -24t-68.5 -65.5t-24 -91.5v-66q0 -50 24 -91.5t68.5 -65.5t105.5 -24q60 0 104.5 24t68 65.5t23.5 91.5v66q0 50 -23.5 91.5zM465 247.5q-18 -17.5 -43 -17.5q-26 0 -44 17.5t-18 42.5
v118q0 25 18 42.5t44 17.5q25 0 43 -17.5t18 -42.5v-118q0 -25 -18 -42.5z" />
    <glyph glyph-name="Iacute_J.loclNLD" horiz-adv-x="641" 
d="M100 0v688h86v-688h-86zM108 747v5l101 136h88v-5l-129 -136h-60zM422.5 87.5q26.5 9.5 33.5 41.5t7 125v434h86v-404q0 -148 -12 -201t-54.5 -67.5t-162.5 -15.5v76q76 2 102.5 11.5zM471 747v5l101 136h88v-5l-129 -136h-60z" />
    <glyph glyph-name="G_tilde.loclGUA" horiz-adv-x="677" 
d="M350 294v79h238v-361q-49 -9 -110.5 -14.5t-108.5 -5.5q-126 0 -186.5 27.5t-83 100t-22.5 224.5q0 151 23 224t83.5 100.5t185.5 27.5q49 0 109.5 -6t106.5 -14v-76q-114 16 -174 16q-119 0 -165.5 -13t-65 -68t-18.5 -191q0 -126 14 -181t56 -74t138 -19q30 0 70 2.5
t65 5.5v216h-155zM514 820q-5 -24 -20.5 -36t-47.5 -12q-26 0 -51.5 5.5t-67.5 17.5q-61 19 -91 19q-21 0 -26 -10.5t-5 -42.5h-47q0 44 5 68t20.5 36.5t47.5 12.5q26 0 50.5 -5.5t68.5 -18.5q5 -1 25.5 -7t37 -9t28.5 -3q21 0 26 11t5 43h47q0 -45 -5 -69z" />
    <glyph glyph-name="Y.loclGUA" horiz-adv-x="610" 
d="M568 688v-183q0 -126 -14.5 -187.5t-61 -89t-145.5 -31.5v-197h-86v197q-98 4 -143.5 32t-60.5 89t-15 187v183h86v-216q0 -91 10 -128.5t45.5 -52.5t121.5 -15t121.5 15t45.5 52.5t10 128.5v216h86z" />
    <glyph glyph-name="Yacute.loclGUA" horiz-adv-x="610" 
d="M568 688v-183q0 -126 -14.5 -187.5t-61 -89t-145.5 -31.5v-197h-86v197q-98 4 -143.5 32t-60.5 89t-15 187v183h86v-216q0 -91 10 -128.5t45.5 -52.5t121.5 -15t121.5 15t45.5 52.5t10 128.5v216h86zM269 747v5l101 136h88v-5l-129 -136h-60z" />
    <glyph glyph-name="Ycircumflex.loclGUA" horiz-adv-x="610" 
d="M568 688v-183q0 -126 -14.5 -187.5t-61 -89t-145.5 -31.5v-197h-86v197q-98 4 -143.5 32t-60.5 89t-15 187v183h86v-216q0 -91 10 -128.5t45.5 -52.5t121.5 -15t121.5 15t45.5 52.5t10 128.5v216h86zM159 746v7l102 135h85l102 -135v-7h-56l-89 96l-88 -96h-56z" />
    <glyph glyph-name="Ydieresis.loclGUA" horiz-adv-x="610" 
d="M568 688v-183q0 -126 -14.5 -187.5t-61 -89t-145.5 -31.5v-197h-86v197q-98 4 -143.5 32t-60.5 89t-15 187v183h86v-216q0 -91 10 -128.5t45.5 -52.5t121.5 -15t121.5 15t45.5 52.5t10 128.5v216h86zM171 792v83h77v-83h-77zM360 792v83h76v-83h-76z" />
    <glyph glyph-name="uni1EF4.loclGUA" horiz-adv-x="610" 
d="M568 688v-183q0 -126 -14.5 -187.5t-61 -89t-145.5 -31.5v-197h-86v197q-98 4 -143.5 32t-60.5 89t-15 187v183h86v-216q0 -91 10 -128.5t45.5 -52.5t121.5 -15t121.5 15t45.5 52.5t10 128.5v216h86zM257 -165v103h95v-103h-95z" />
    <glyph glyph-name="Ygrave.loclGUA" horiz-adv-x="610" 
d="M568 688v-183q0 -126 -14.5 -187.5t-61 -89t-145.5 -31.5v-197h-86v197q-98 4 -143.5 32t-60.5 89t-15 187v183h86v-216q0 -91 10 -128.5t45.5 -52.5t121.5 -15t121.5 15t45.5 52.5t10 128.5v216h86zM282 747l-129 136v5h88l101 -136v-5h-60z" />
    <glyph glyph-name="uni1EF6.loclGUA" horiz-adv-x="610" 
d="M568 688v-183q0 -126 -14.5 -187.5t-61 -89t-145.5 -31.5v-197h-86v197q-98 4 -143.5 32t-60.5 89t-15 187v183h86v-216q0 -91 10 -128.5t45.5 -52.5t121.5 -15t121.5 15t45.5 52.5t10 128.5v216h86zM251 740q0 27 9 37.5t36 18.5l22 6q34 9 43 16t9 25t-8.5 26t-25 9.5
t-54.5 1.5q-49 0 -102 -5v46q56 7 116 7q49 0 76 -5t41 -22t14 -52t-12.5 -50.5t-49.5 -25.5l-24 -6q-20 -6 -28.5 -9.5t-10.5 -9t-2 -17.5h-49v9z" />
    <glyph glyph-name="uni0232.loclGUA" horiz-adv-x="610" 
d="M568 688v-183q0 -126 -14.5 -187.5t-61 -89t-145.5 -31.5v-197h-86v197q-98 4 -143.5 32t-60.5 89t-15 187v183h86v-216q0 -91 10 -128.5t45.5 -52.5t121.5 -15t121.5 15t45.5 52.5t10 128.5v216h86zM182 807v80h244v-80h-244z" />
    <glyph glyph-name="uni1EF8.loclGUA" horiz-adv-x="610" 
d="M568 688v-183q0 -126 -14.5 -187.5t-61 -89t-145.5 -31.5v-197h-86v197q-98 4 -143.5 32t-60.5 89t-15 187v183h86v-216q0 -91 10 -128.5t45.5 -52.5t121.5 -15t121.5 15t45.5 52.5t10 128.5v216h86zM479 820q-5 -24 -20.5 -36t-47.5 -12q-26 0 -51.5 5.5t-67.5 17.5
q-61 19 -91 19q-21 0 -26 -10.5t-5 -42.5h-47q0 44 5 68t20.5 36.5t47.5 12.5q26 0 50.5 -5.5t68.5 -18.5q5 -1 25.5 -7t37 -9t28.5 -3q21 0 26 11t5 43h47q0 -45 -5 -69z" />
    <glyph glyph-name="Cacute.loclPLK" horiz-adv-x="575" 
d="M440.5 -4.5q-46.5 -3.5 -86.5 -3.5q-124 0 -181 27t-76.5 98.5t-19.5 226.5q0 154 19.5 226t76.5 99t181 27q41 0 86 -4t74 -11v-75q-75 10 -138 10q-105 0 -146.5 -16t-54.5 -69t-13 -187t13 -187t54.5 -69t146.5 -16q77 0 142 10v-77q-31 -6 -77.5 -9.5zM253 747v5
l51 136h88v-5l-79 -136h-60z" />
    <glyph glyph-name="Nacute.loclPLK" horiz-adv-x="732" 
d="M550 0l-363 526h-4v-526h-83v688h88l358 -514h4v514h82v-688h-82zM331 747v5l51 136h88v-5l-79 -136h-60z" />
    <glyph glyph-name="Oacute.loclPLK" horiz-adv-x="718" 
d="M165 19q-57 27 -72.5 94.5t-15.5 230.5t15.5 230.5t72.5 94.5t194 27q136 0 193.5 -27t73 -94.5t15.5 -230.5t-15.5 -230.5t-73 -94.5t-193.5 -27q-137 0 -194 27zM497 85q36 13 47 65t11 194t-11 194t-47 65t-138 13t-138.5 -13t-47.5 -65t-11 -194t11 -194t47.5 -65
t138.5 -13t138 13zM324 747v5l51 136h88v-5l-79 -136h-60z" />
    <glyph glyph-name="Sacute.loclPLK" horiz-adv-x="629" 
d="M206.5 -4q-67.5 4 -119.5 10v79q130 -13 217 -13q54 0 85.5 4.5t53.5 16.5q20 12 26 35.5t6 62.5q0 47 -5 66.5t-23.5 28.5t-63.5 13l-170 19q-62 7 -93.5 29.5t-42 59t-10.5 95.5q0 82 28.5 124t80 56t138.5 14q58 0 118 -5t95 -12v-76q-38 6 -94 9.5t-104 3.5
q-56 0 -90 -5t-53 -17q-21 -12 -27 -32t-6 -57q0 -41 6 -59.5t23 -27t56 -12.5l168 -19q60 -6 93 -21t48 -54q14 -36 14 -115q0 -91 -28 -135.5t-75 -57t-129 -12.5q-55 0 -122.5 4zM280 747v5l51 136h88v-5l-79 -136h-60z" />
    <glyph glyph-name="Zacute.loclPLK" horiz-adv-x="607" 
d="M54 0v76l388 532h-377v80h486v-74l-390 -534h395v-80h-502zM269 747v5l51 136h88v-5l-79 -136h-60z" />
    <glyph glyph-name="A.ss01" horiz-adv-x="709" 
d="M531 235h-354v-235h-85v387q0 134 17 196.5t71 87.5t174 25t174 -25.5t71.5 -87.5t17.5 -196v-387h-86v235zM521 548.5q-10 37.5 -45.5 52.5t-121.5 15t-121.5 -15t-45.5 -52.5t-10 -128.5v-101h354v101q0 91 -10 128.5z" />
    <glyph glyph-name="Aacute.ss01" horiz-adv-x="709" 
d="M531 235h-354v-235h-85v387q0 134 17 196.5t71 87.5t174 25t174 -25.5t71.5 -87.5t17.5 -196v-387h-86v235zM521 548.5q-10 37.5 -45.5 52.5t-121.5 15t-121.5 -15t-45.5 -52.5t-10 -128.5v-101h354v101q0 91 -10 128.5zM313 750v5l101 136h88v-5l-129 -136h-60z" />
    <glyph glyph-name="Abreve.ss01" horiz-adv-x="709" 
d="M531 235h-354v-235h-85v387q0 134 17 196.5t71 87.5t174 25t174 -25.5t71.5 -87.5t17.5 -196v-387h-86v235zM521 548.5q-10 37.5 -45.5 52.5t-121.5 15t-121.5 -15t-45.5 -52.5t-10 -128.5v-101h354v101q0 91 -10 128.5zM484.5 808.5q-8.5 -29.5 -38.5 -47.5t-92 -18
t-91.5 17.5t-37.5 47t-8 80.5h53q0 -36 4 -53t22 -27t58 -10t58 10t22.5 27.5t4.5 52.5h54q0 -50 -8.5 -79.5z" />
    <glyph glyph-name="uni1EAE.ss01" horiz-adv-x="709" 
d="M531 235h-354v-235h-85v387q0 134 17 196.5t71 87.5t174 25t174 -25.5t71.5 -87.5t17.5 -196v-387h-86v235zM521 548.5q-10 37.5 -45.5 52.5t-121.5 15t-121.5 -15t-45.5 -52.5t-10 -128.5v-101h354v101q0 91 -10 128.5zM483.5 808.5q-8.5 -29.5 -38.5 -47.5t-92 -18
t-91.5 17.5t-37.5 47t-8 80.5h53q0 -36 4 -53t22 -27t58 -10t58 10t22.5 27.5t4.5 52.5h54q0 -50 -8.5 -79.5zM318 920v5l101 136h88v-5l-129 -136h-60z" />
    <glyph glyph-name="uni1EB6.ss01" horiz-adv-x="709" 
d="M531 235h-354v-235h-85v387q0 134 17 196.5t71 87.5t174 25t174 -25.5t71.5 -87.5t17.5 -196v-387h-86v235zM521 548.5q-10 37.5 -45.5 52.5t-121.5 15t-121.5 -15t-45.5 -52.5t-10 -128.5v-101h354v101q0 91 -10 128.5zM484.5 808.5q-8.5 -29.5 -38.5 -47.5t-92 -18
t-91.5 17.5t-37.5 47t-8 80.5h53q0 -36 4 -53t22 -27t58 -10t58 10t22.5 27.5t4.5 52.5h54q0 -50 -8.5 -79.5zM308 -165v103h95v-103h-95z" />
    <glyph glyph-name="uni1EB0.ss01" horiz-adv-x="709" 
d="M531 235h-354v-235h-85v387q0 134 17 196.5t71 87.5t174 25t174 -25.5t71.5 -87.5t17.5 -196v-387h-86v235zM521 548.5q-10 37.5 -45.5 52.5t-121.5 15t-121.5 -15t-45.5 -52.5t-10 -128.5v-101h354v101q0 91 -10 128.5zM489.5 808.5q-8.5 -29.5 -38.5 -47.5t-92 -18
t-91.5 17.5t-37.5 47t-8 80.5h53q0 -36 4 -53t22 -27t58 -10t58 10t22.5 27.5t4.5 52.5h54q0 -50 -8.5 -79.5zM344 920l-129 136v5h88l101 -136v-5h-60z" />
    </font>
</defs>
</svg>
